<svg width="263" height="330" viewBox="0 0 263 330" fill="none" xmlns="http://www.w3.org/2000/svg">
<path d="M219.684 217.405C219.684 217.405 229.783 221.168 230.08 248.101C230.377 275.033 234.291 373.642 234.291 373.642C234.291 373.642 243.324 392.892 239.41 397.072C235.497 401.251 230.028 410.235 230.028 410.235L232.509 411.275L231.688 427.49C231.688 427.49 222.235 435.936 212.171 434.254L204.413 341.507L202.544 223.613L219.667 217.405H219.684Z" fill="url(#paint0_linear_138_142)"/>
<path d="M210.541 340.277L220.15 325.426" stroke="#E7B983" stroke-width="1.74723"/>
<path d="M215.784 333.289L211.415 339.404L207.047 341.151V310.575L207.921 277.377L215.784 333.289Z" fill="#E7B983"/>
<path d="M99.3364 200.877C99.3364 200.877 68.8298 207.779 48.6318 224.22C48.6318 224.22 63.955 267.524 63.1863 278.294L56.9836 320.349L71.1649 423.878C71.639 427.339 74.5958 429.918 78.0891 429.918H78.16L81.8467 444C81.8467 444 128.078 449.342 160.14 445.127L192.202 440.063L223.11 412.87V406.662C223.11 406.662 213.867 388.036 213.588 368.873C213.308 349.71 208.696 294.11 208.696 294.11L219.057 249.592L219.686 217.404L208.084 203.236L187.467 201.137L180.687 199.143L161.066 197.842L99.3539 200.877H99.3364Z" fill="url(#paint1_linear_138_142)"/>
<path d="M146.769 188.268H152.884V191.763H146.769V188.268Z" fill="#C6A175"/>
<path d="M116.197 190.889L120.565 176.911L123.186 170.796L151.141 182.153L156.383 211.856L128.427 208.362L116.197 190.889Z" fill="url(#paint2_linear_138_142)"/>
<path d="M140.661 203.994L133.672 197.005L126.683 206.615L140.661 203.994Z" fill="#C6A175"/>
<path d="M145.028 204.867L147.649 199.625L154.638 196.131L156.385 205.741L145.028 204.867Z" fill="#C6A175"/>
<path d="M57.7524 315.112L78.7191 265.686C78.7191 265.686 72.1321 225.885 57.7524 217.786L48.6318 224.22C48.6318 224.22 64.7937 267.455 63.1863 278.294L57.7524 315.129V315.112Z" fill="url(#paint3_linear_138_142)"/>
<path d="M208.678 294.093V220.041L196.832 202.091L208.084 203.236L219.685 217.405L219.056 249.575L208.678 294.093Z" fill="#E17463"/>
<path d="M100.857 315.112C100.857 315.112 108.073 312.25 110.345 296.729C112.616 281.207 112.616 282.786 116.233 282.109C119.85 281.433 125.528 290.659 124.165 302.799L134.933 300.282C138.421 299.467 142.127 300.845 143.558 304.128C144.72 306.794 145.657 310.033 145.01 312.701C145.01 312.701 153.169 332.263 147.508 337.9C141.847 343.536 107.165 348.704 107.165 348.704L98.0967 315.389L100.857 315.129V315.112Z" fill="url(#paint4_linear_138_142)"/>
<path d="M116.191 308.827L125.801 306.207" stroke="#DC7F5F" stroke-width="1.74723"/>
<path d="M198.373 282.848V284.586H195.044C194.945 284.586 194.847 284.582 194.753 284.579C194.3 284.551 193.867 284.465 193.454 284.325C193.309 284.274 193.163 284.219 193.022 284.157C193.002 284.145 192.978 284.137 192.959 284.126C191.924 283.645 191.089 282.821 190.598 281.798C190.586 281.771 190.574 281.743 190.562 281.712C190.495 281.575 190.44 281.43 190.389 281.282C190.251 280.884 190.165 280.462 190.137 280.025C190.13 279.919 190.125 279.814 190.125 279.705V276.4H191.79C192.337 276.4 192.817 276.661 193.124 277.06C193.332 277.337 193.454 277.681 193.454 278.052V281.282H196.709C197.09 281.282 197.444 281.411 197.728 281.626C198.098 281.911 198.346 282.352 198.373 282.848Z" fill="#DCCEA5"/>
<path d="M193.454 289.468V286.39L193.455 286.39C193.455 286.047 193.231 285.745 192.903 285.64C191.082 285.055 189.642 283.632 189.049 281.828C188.942 281.503 188.639 281.281 188.294 281.281H185.207V282.933C185.207 283.472 185.471 283.953 185.876 284.257C186.151 284.464 186.498 284.585 186.871 284.585H187.788L186.661 285.686C185.86 286.468 185.853 287.749 186.647 288.539L187.58 289.468L188.54 288.514L190.126 286.937V287.816C190.126 288.195 190.255 288.546 190.476 288.823C190.779 289.214 191.255 289.468 191.79 289.468H193.454Z" fill="#DCCEA5"/>
<path d="M61.1534 224.087L49.7964 230.202L52.4172 238.065L66.3951 230.202C64.898 227.577 63.9587 226.151 61.1534 224.087Z" fill="#9F4233" fill-opacity="0.4"/>
<path d="M71.6367 242.432L55.9116 248.548L58.5325 255.537L74.2575 250.295L71.6367 242.432Z" fill="#9F4233" fill-opacity="0.4"/>
<path d="M77.7514 265.146L62.0264 270.388L63.7736 279.998L76.0042 275.63L78.625 268.641L77.7514 265.146Z" fill="#9F4233" fill-opacity="0.4"/>
<path d="M211.416 207.109H200.059L205.3 214.098H216.657L211.416 207.109Z" fill="#C25D4C"/>
<path d="M219.278 220.592L208.795 223.213V231.076L219.278 226.708V220.592Z" fill="#C25D4C"/>
<path d="M219.278 233.697L208.795 237.191V245.054L219.278 240.685V233.697Z" fill="#C25D4C"/>
<path d="M219.278 248.548L208.795 252.916V264.273L217.531 259.905L219.278 252.916V248.548Z" fill="#C25D4C"/>
<path d="M214.91 270.388L208.795 273.009V284.366L212.289 282.619L214.91 270.388Z" fill="#C25D4C"/>
<path d="M128.423 206.614L105.709 214.477L103.961 217.098L142.4 265.146L165.114 271.262L166.862 236.317L170.356 206.614L162.494 204.867L142.4 209.235L128.423 206.614Z" fill="url(#paint5_linear_138_142)"/>
<path d="M133.112 199.143L149.728 199.906L155.721 208.976L152.244 219.26L143.857 220.04L133.112 206.617V199.143Z" fill="#803E3C"/>
<path d="M143.856 220.041L141.759 263.223L162.726 278.693L164.194 256.598L152.243 219.26" fill="url(#paint6_linear_138_142)"/>
<path d="M144.147 223.213L152.01 222.339" stroke="#53211F" stroke-width="1.74723"/>
<path d="M136.285 225.834L135.411 212.73L132.79 209.235L125.801 202.246L116.192 212.73L109.203 216.224L118.812 225.834C128.597 227.93 134.537 226.707 136.285 225.834Z" fill="#E7B983"/>
<path d="M154.628 214.477L155.502 211.856L152.007 203.12L160.743 217.098L159.87 225.834L153.755 217.971L154.628 214.477Z" fill="#E7B983"/>
<path d="M134.538 202.246L135.411 212.73L131.917 208.362V202.246H134.538Z" fill="#5F211F"/>
<path d="M147.642 203.12H150.262L156.378 209.235L153.757 217.098L147.642 203.12Z" fill="#5F211F"/>
<path d="M95.8589 205.612C95.8589 205.612 107.338 190.351 109.872 184.94L118.241 181.714L115.952 187.732L133.127 193.073V220.023C133.127 220.023 111.514 218.862 95.8589 205.595V205.612Z" fill="#FFE1BE"/>
<path d="M146.767 223.213L145.894 229.329" stroke="#53211F" stroke-width="1.74723"/>
<path d="M149.388 223.213L150.262 224.961" stroke="#53211F" stroke-width="1.74723"/>
<path d="M48.6325 224.22C48.6325 224.22 40.6651 234.21 35.5981 245.014C30.9505 254.934 7.72983 316.551 0.461356 342.062C-0.674343 346.033 0.321578 350.282 3.06473 353.386C5.33613 355.953 8.30642 358.624 11.3291 359.474L14.544 365.11C16.466 368.474 19.9604 370.659 23.8568 370.902C32.2784 371.44 46.8678 372.498 51.7775 373.538C58.8538 375.047 85.1496 362.751 85.1496 362.751L109.419 354.965C109.419 354.965 106.885 319.829 98.7954 312.545C98.7954 312.545 91.9638 311.799 81.6027 320.332C81.6027 320.332 68.7431 316.655 56.9668 320.367L62.6278 281.988C63.3442 277.149 62.9073 272.276 62.0337 267.472C59.972 256.217 54.4158 239.967 48.615 224.238L48.6325 224.22Z" fill="#FFE1BE"/>
<path d="M81.6201 320.297L85.167 362.717" stroke="#E7B983" stroke-width="1.74723" stroke-miterlimit="10"/>
<path d="M145.021 316.69L126.675 319.311" stroke="#DC7F5F" stroke-width="1.74723"/>
<path d="M147.641 326.3L129.295 329.794" stroke="#DC7F5F" stroke-width="1.74723"/>
<path d="M35.8198 336.783C39.3143 333.288 48.5746 325.775 57.6602 323.679" stroke="#E7B983" stroke-width="1.74723"/>
<path d="M58.5315 314.069L40.1855 332.415C46.7082 327.924 50.3572 325.612 56.7842 323.679L58.5315 314.069Z" fill="#E7B983"/>
<path d="M116.191 190.889L118.812 183.027L110.076 187.395L106.582 193.51C110.775 203.993 125.801 211.274 132.79 213.603L133.664 196.131L116.191 190.889Z" fill="#F3CFA4"/>
<path d="M152.01 198.752L119.686 180.406L122.307 172.543L151.136 183.9L152.883 190.889L152.01 198.752Z" fill="#DE8365" fill-opacity="0.37"/>
<path d="M84.3634 105.147L77.0949 107.87C73.9499 109.049 72.4298 112.587 73.7402 115.657L82.2667 135.566C83.7344 138.982 87.1065 141.185 90.8456 141.185H100.84L104.771 157.781C105.889 162.533 108.79 166.713 112.913 169.366C123.798 176.372 148.102 188.113 184.584 184.055C198.912 182.46 211.492 173.754 218.079 161.024C226.151 145.416 236.093 122.021 238.067 98.4878L119.657 45.4374L84.3809 105.13L84.3634 105.147Z" fill="url(#paint7_linear_138_142)"/>
<path d="M81.6025 114.703L93.4662 113.229L97.9217 131.317L89.7621 132.375V117.287" fill="#DC7F5F"/>
<path d="M142.772 88.6028L169.138 82.8451L172.528 94.5512L142.772 92.158V88.6028Z" fill="#543A14"/>
<path d="M201.095 98.488L207.28 86.8165L229.854 104.055L228.858 108.425L201.095 98.488Z" fill="#543A14"/>
<path d="M169.751 119.767C157.02 110.254 138.869 113.452 125.25 120.825V124.814L163.811 135.965C163.811 135.965 170.59 131.976 169.751 119.767Z" fill="#FDFCFC"/>
<path d="M194.106 119.143C201.511 119.143 209.116 120.445 214.661 125.352C216.826 127.269 218.97 129.616 220.594 132.375L219.738 137.231L191.765 135.965C191.765 135.965 188.166 125.663 194.089 119.143H194.106Z" fill="#FDFCFC"/>
<path d="M191.87 140.301L193.932 143.44C194.98 145.035 194.648 147.168 193.18 148.399L190.717 150.428" stroke="#DC7F5F" stroke-width="1.74723" stroke-miterlimit="10"/>
<path d="M176.756 160.418C171.602 158.319 158.026 152.579 149.098 146.474C148.329 145.937 147.263 146.422 147.123 147.342C146.337 152.995 146.791 168.465 176.25 164.25C176.879 164.164 177.438 163.765 177.752 163.21C178.329 162.152 177.874 160.851 176.756 160.4V160.418Z" fill="white"/>
<path d="M134.316 116.975L132.691 126.964L149.307 131.768L153.832 114.2C153.752 113.741 145.311 112.733 134.316 116.992V116.975Z" fill="#543A14"/>
<path d="M210.391 122.056L207.875 136.693L191.8 135.965C191.8 135.965 188.026 125.542 194.124 119.143C201.07 119.047 204.644 119.658 210.391 122.056Z" fill="#543A14"/>
<path d="M122.349 53.0163C132.553 84.7009 110.259 99.8928 110.259 99.8928C109.333 109.032 106.939 116.576 105.209 121.068C104.668 122.49 102.571 122.316 102.256 120.825L99.9849 110.055C99.0764 105.772 94.8656 103.032 90.5499 103.899L84.3647 105.148L83.229 102.893C56.1819 37.4949 104.737 18.557 104.737 18.557C100.928 11.672 108.546 3.41707 108.546 3.41707C108.546 9.26145 113.753 15.8169 113.753 15.8169C113.753 15.8169 136.642 -16.544 201.15 12.7126C265.657 41.9692 243.118 102.893 243.118 102.893C210.165 98.7655 192.833 85.3425 192.833 85.3425L195.261 98.5054C147.614 88.4815 122.367 53.0163 122.367 53.0163" fill="url(#paint8_linear_138_142)"/>
<path d="M152.883 185.352L164.195 199.039L161.294 217.404L147.247 196.16L151.492 187.974L152.883 185.352Z" fill="#F3CFA4"/>
<path d="M152.856 284.103H169.787L180.672 199.143L160.747 194.89L156.822 262.2L99.3385 200.877L79.0356 207.346L152.856 284.103Z" fill="#E17463"/>
<path d="M105.71 207.983L86.4902 215.845L96.1 225.455L112.699 215.845L105.71 207.983Z" fill="#C25D4C"/>
<path d="M123.182 226.328L107.457 236.812L116.193 246.422L129.297 233.317L123.182 226.328Z" fill="#C25D4C"/>
<path d="M139.78 244.675L126.676 257.779L135.412 266.515L145.895 250.79L139.78 244.675Z" fill="#C25D4C"/>
<path d="M144.147 275.251L152.01 257.779L157.251 263.02L152.01 283.987L144.147 275.251Z" fill="#C25D4C"/>
<path d="M177.343 224.582L159.871 216.719L158.998 226.329L176.47 235.065L177.343 224.582Z" fill="#C25D4C"/>
<path d="M174.725 244.675L159 233.318L158.126 241.18L173.851 256.032L174.725 244.675Z" fill="#C25D4C"/>
<path d="M172.103 266.515L157.252 251.663V263.02L169.483 284.861L172.103 266.515Z" fill="#C25D4C"/>
<path d="M179.966 206.236L160.747 200.994L159.873 210.604L178.219 216.719L179.966 206.236Z" fill="#C25D4C"/>
<path d="M159.872 210.982L147.642 197.878L152.883 188.268L160.746 197.878L159.872 210.982Z" fill="#E7B983" fill-opacity="0.57"/>
<path d="M164.664 212.011L159.873 209.73L160.747 194.878L181.713 199.246L186.955 200.994L197.438 201.867L200.933 209.73L192.232 213.076C183.285 216.517 173.318 216.132 164.664 212.011Z" fill="#393333" fill-opacity="0.21"/>
<path d="M100.467 140.22L102.214 148.082" stroke="#DC7F5F" stroke-width="1.74723"/>
<path d="M174.315 164.458C160.062 162.996 150.103 154.713 146.905 150.753C146.905 154.042 146.905 154.865 147.362 155.779C159.24 164.458 167.919 164.458 174.315 164.458Z" fill="#D7DBE1"/>
<defs>
<linearGradient id="paint0_linear_138_142" x1="250.726" y1="277.266" x2="55.0009" y2="401.716" gradientUnits="userSpaceOnUse">
<stop stop-color="#FFE1BE"/>
<stop offset="1" stop-color="#DAA362"/>
</linearGradient>
<linearGradient id="paint1_linear_138_142" x1="135.871" y1="197.842" x2="135.871" y2="446.747" gradientUnits="userSpaceOnUse">
<stop stop-color="#803E3C"/>
<stop offset="1" stop-color="#642A28"/>
</linearGradient>
<linearGradient id="paint2_linear_138_142" x1="138.03" y1="173.417" x2="121.904" y2="191.471" gradientUnits="userSpaceOnUse">
<stop stop-color="#FF9673"/>
<stop offset="1" stop-color="#FFB38E"/>
</linearGradient>
<linearGradient id="paint3_linear_138_142" x1="63.6755" y1="217.786" x2="63.6755" y2="315.129" gradientUnits="userSpaceOnUse">
<stop stop-color="#E17463"/>
<stop offset="1" stop-color="#B54938"/>
</linearGradient>
<linearGradient id="paint4_linear_138_142" x1="103.087" y1="349.237" x2="128.287" y2="325.572" gradientUnits="userSpaceOnUse">
<stop stop-color="#FF9673"/>
<stop offset="1" stop-color="#FFB38E"/>
</linearGradient>
<linearGradient id="paint5_linear_138_142" x1="137.159" y1="204.867" x2="137.159" y2="271.262" gradientUnits="userSpaceOnUse">
<stop stop-color="#FFE1BE"/>
<stop offset="1" stop-color="#DAA362"/>
</linearGradient>
<linearGradient id="paint6_linear_138_142" x1="152.976" y1="219.26" x2="152.976" y2="278.693" gradientUnits="userSpaceOnUse">
<stop stop-color="#803E3C"/>
<stop offset="1" stop-color="#3D1210"/>
</linearGradient>
<linearGradient id="paint7_linear_138_142" x1="172.976" y1="57.0182" x2="140.278" y2="140.827" gradientUnits="userSpaceOnUse">
<stop stop-color="#FF9673"/>
<stop offset="1" stop-color="#FFB38E"/>
</linearGradient>
<linearGradient id="paint8_linear_138_142" x1="160.988" y1="0.468385" x2="132.232" y2="87.4821" gradientUnits="userSpaceOnUse">
<stop stop-color="#543A14"/>
<stop offset="1" stop-color="#301F07"/>
</linearGradient>
</defs>
</svg>
