<svg width="357" height="346" viewBox="0 0 357 346" fill="none" xmlns="http://www.w3.org/2000/svg">
<path d="M205.603 211.261L213.796 205.176C213.796 205.176 255.165 196.142 258.36 199.092C261.555 202.042 265.159 211.962 265.159 211.962L283.679 316.414L252.063 417.786H201.547L166.252 411.757L151.25 317.465L170.011 235.894L205.622 211.298L205.603 211.261Z" fill="url(#paint0_linear_137_52)"/>
<path d="M75.3844 179.842C75.3844 179.842 78.5237 171.988 76.889 163.008L59.8814 134.976C58.0532 131.963 58.8268 128.053 61.6646 125.962C64.7387 123.698 69.0734 124.404 71.2707 127.526L75.9602 134.19L72.6728 115.152C71.6925 109.474 76.064 104.283 81.8255 104.283H84.1524C84.1524 101.999 85.7131 100.011 87.9316 99.4692L89.7432 99.0265C93.9189 98.0062 98.0725 100.781 98.7283 105.029L102.06 126.612L105.25 124.383C108.755 121.934 113.477 122.194 116.692 125.012L125.142 132.42L119.782 142.726L113.577 138.504L107.614 142.395L113.819 151.724H119.689L119.782 142.726L124.519 133.028C124.519 133.028 128.772 128.013 132.153 134.208C134.41 138.343 135.938 144.467 136.705 148.082C137.115 150.013 136.799 152.006 135.921 153.774C133.781 158.081 129.743 166.371 128.494 170.052C126.766 175.141 129.46 175.768 113.057 183.29L112.202 187.549L106.109 191.846L76.6475 184.544L75.4215 179.861L75.3844 179.842Z" fill="url(#paint1_linear_137_52)"/>
<path d="M75.2271 135.749L80.7999 145.037" stroke="#DC7F5F" stroke-width="1.85762"/>
<path d="M104.761 128.318L99.6186 130.658" stroke="#DC7F5F" stroke-width="1.85762"/>
<path d="M331.178 235.858C331.178 235.858 340.522 236.89 342.324 255.458C343.68 269.429 351.112 340.961 354.707 375.513C355.885 386.835 350.071 397.716 340.005 403.033C329.055 408.817 313.694 416.937 296.979 425.789L315.296 235.858H331.16H331.178Z" fill="url(#paint2_linear_137_52)"/>
<path d="M210.267 197.561L213.852 209.251C213.852 209.251 237.147 214.174 254.293 201.415L251.989 190.444L210.267 197.561Z" fill="url(#paint3_linear_137_52)"/>
<path d="M84.5156 106.027L90.0885 135.749" stroke="#DC7F5F" stroke-width="1.85762"/>
<path d="M120.739 154.325C116.714 155.873 108.665 159.526 108.665 161.755C108.665 163.985 108.665 168.257 108.665 170.115" stroke="#DC7F5F" stroke-width="1.85762"/>
<ellipse cx="83.096" cy="148.34" rx="3.71525" ry="1.85762" transform="rotate(-26.096 83.096 148.34)" fill="#DC7F5F"/>
<ellipse cx="92.3851" cy="140.909" rx="3.71525" ry="1.85762" transform="rotate(-26.096 92.3851 140.909)" fill="#DC7F5F"/>
<path d="M291.166 226.123L331.161 235.84C331.161 235.84 290.739 435.451 307.532 560.867C282.27 588.105 265.841 597.276 234.323 607.626C234.323 607.626 222.285 586.717 223.567 535.938C224.849 485.16 235.252 365.238 235.252 365.238L256.02 246.681L263.673 228.962V207.094C263.673 207.094 282.435 214.156 291.148 226.141L291.166 226.123Z" fill="url(#paint4_linear_137_52)"/>
<path d="M306.503 424.609L318.578 312.223" stroke="#6C2323" stroke-width="1.85762"/>
<path d="M299.999 237.918L244.27 369.81L241.484 367.952L286.996 223.057C291.436 227.626 291.64 227.701 299.999 237.918Z" fill="#D05542"/>
<path d="M261.92 204.328L263.777 208.938L263.692 228.943L256.038 246.662L235.27 365.219C235.27 365.219 240.397 367.303 244.205 365.219L295.03 232.557C295.03 232.557 289.394 213.123 261.92 204.328Z" fill="url(#paint5_linear_137_52)"/>
<path d="M178.187 215.889H194.939L183.663 365.016C173.762 440.244 186.06 612.309 186.06 612.309C136.442 599.623 101.092 563.06 101.092 563.06L107.575 517.537C107.575 517.537 112.386 448.873 122.157 367.893L127.24 297.441L34.9977 290.969C33.5342 290.512 32.0597 289.95 30.5873 289.305C8.81316 279.767 5.19119 252.9 20.6013 234.8C43.0689 208.41 75.401 179.842 75.401 179.842L120.95 189.357L109.21 206.983L81.8284 239.324L170.424 216.858C172.962 216.214 175.569 215.889 178.187 215.889Z" fill="url(#paint6_linear_137_52)"/>
<path d="M172.046 241.309C179.643 231.254 185.763 225.899 192.258 219.342L179.794 366.094C170.57 366.094 169.547 321.382 166.045 262.633C165.592 255.03 167.455 247.386 172.046 241.309Z" fill="#D05542"/>
<path d="M183.703 365.035C183.703 365.035 177.313 366.307 176.459 362.49C175.604 358.674 166.669 266.963 171.35 244.984C182.05 226.048 194.979 212.404 211.345 206.983L208.354 223.08L204.639 231.783C195.462 275.647 187.753 319.88 183.685 365.016L183.703 365.035Z" fill="url(#paint7_linear_137_52)"/>
<path d="M34.4307 278.501H129.169V297.077L35.3596 290.576C11.2109 280.359 11.52 262.402 13.068 253.423C15.2971 270.513 28.2386 277.263 34.4307 278.501Z" fill="url(#paint8_linear_137_52)"/>
<path d="M129.171 266.572L127.313 314.87" stroke="#6C2323" stroke-width="1.85762"/>
<path d="M182.113 230.203L159.821 219.057C168.738 216.085 175.301 215.342 177.469 215.342H196.045C203.475 208.654 209.667 206.363 211.835 206.054C212.578 205.311 213.383 205.125 213.692 205.125L214.621 208.84C234.683 213.298 250.226 205.125 255.489 200.481L254.56 197.694C258.275 197.694 259.823 198.314 260.133 198.623L262.919 203.267C274.808 206.24 285.83 216.271 289.855 220.915C291.341 222.401 292.951 224.63 293.57 225.559L322.363 232.989C314.19 240.42 297.905 244.135 290.784 245.064L288.926 249.708C280.753 254.909 263.229 254.352 255.489 253.423L256.418 246.921C231.897 249.894 211.525 241.968 204.404 237.633L202.547 243.206L178.398 235.776L182.113 230.203Z" fill="#4E1111" fill-opacity="0.14"/>
<path d="M140.377 225.426L142.103 223.701L83.5874 238.562L74.2993 247.85L120.213 236.742C127.847 234.895 134.824 230.98 140.377 225.426Z" fill="#D05642"/>
<path d="M84.7186 237L68 252.79" stroke="#6C2323" stroke-width="1.85762"/>
<path d="M252.631 197.05C239.999 205.224 221.051 207.577 212.692 207.267L210.834 199.837L251.702 191.478L252.631 197.05Z" fill="#DE8365" fill-opacity="0.37"/>
<path d="M180.184 24.2914L184.828 41.9388L204.333 44.7252L235.912 41.9388L237.77 24.2914L226.624 20.5761H217.336L210.834 13.1456H201.546L192.258 24.2914H180.184Z" fill="#3F2B0D"/>
<path d="M285.833 127.737C285.833 127.737 288.239 121.677 300.74 120.94C303.377 120.784 305.794 122.334 306.515 124.874C308.005 130.124 309.042 139.795 301.056 149.12C300.189 150.133 299.048 150.87 297.807 151.355L282.619 157.293C282.619 157.293 283.177 178.128 273.944 183.125C265.596 187.643 221.079 206.259 178.691 197.033C170.13 195.17 163.898 188.172 161.433 179.765L151.267 145.087L141.682 104.763L170.401 65.8584L198.116 56.4365L239.541 58.096L274.817 87.2651L288.248 109.206L285.87 127.718L285.833 127.737Z" fill="url(#paint9_linear_137_52)"/>
<path d="M196.927 64.8811L199.454 76.3495L188.995 81.0144L185.392 92.1142H178.89V84.5914L172.388 89.6065L162.283 92.1142L165.162 97.8484L157.23 101.075V107.16H150.004L146.4 114.332L148.926 119.698L149.279 131.166H143.874L128.363 111.824C128.363 111.824 120.56 111.234 117.978 105.887L114.3 108.672C114.3 108.672 107.613 104.818 107.613 99.8766C107.613 99.8766 115.824 97.9407 115.824 95.8018C115.824 95.8018 116.697 85.7346 119.929 82.0839L114.486 79.6131C114.486 79.6131 119.279 75.649 115.675 71.8138L107.613 67.9787L114.077 64.8995L112.35 62.2997C112.35 62.2997 118.61 59.3865 117.533 51.8638C117.533 51.8638 112.61 50.5362 112.48 47.1067L118.201 41.2987C118.201 41.2987 122.325 48.0286 127.527 47.7705L135.254 43.0135L131.669 41.2987L134.994 38.9202C134.994 38.9202 132.468 29.9409 130.74 26.4929C130.74 26.4929 141.923 32.5775 147.385 31.25L149.242 25.0364L154.964 28.2077C154.964 28.2077 168.264 26.917 173.187 22.6578C173.187 22.6578 184.946 23.9116 192.246 32.1165L194.94 28.9637C194.94 28.9637 201.46 31.1762 202.407 34.7901L204.785 30.6968L201.126 21.2381C201.126 21.2381 186.673 19.9843 185.243 15.5591C183.813 11.134 196.203 0.587402 196.203 0.587402C196.203 0.587402 192.859 12.0927 198.581 14.1394C204.302 16.186 210.339 19.8183 210.339 19.8183L209.392 31.8031L216.544 34.1631C216.544 34.1631 209.243 22.1784 218.606 12.7196L235.733 20.4084L245.43 14.5451L249.851 17.6795C249.851 17.6795 257.857 15.1719 266.7 19.1361L274.279 11.1893C274.279 11.1893 278.403 12.3694 277.102 18.2142L283.716 18.7858L284.719 22.0677L290.756 22.4919C290.756 22.4919 295.214 29.1849 294.211 40.5981L303.258 41.4462C303.258 41.4462 303.109 52.7119 304.985 55.1273L295.939 57.1186L297.09 61.9678C297.09 61.9678 302.552 58.9809 311.171 62.1154C311.171 62.1154 312.471 84.7758 324.1 84.0751C324.1 84.0751 321.797 89.3484 321.945 93.202L312.044 96.189V97.6087L315.778 98.0328L315.499 100.319L307.883 101.886L306.583 109.87C306.583 109.87 300.118 113.429 296.96 111.437L290.923 123.404L285.87 127.681L279.907 126.52L279.554 109.096L272.421 109.206L271.492 106.883L273.127 103.398L266.811 97.24L260.031 103.859L257.802 102.587L259.678 96.6684L252.767 94.4558L247.975 86.6749L247.046 90.3994L235.473 89.5881L231.386 85.0524L229.399 85.624L225.776 90.7314L223.194 87.5969L222.488 80.8669C222.488 80.8669 216.637 78.7834 211.603 81.4385L207.85 79.4656C207.85 79.4656 209.838 70.9288 206.215 65.7845L196.965 64.7889L196.927 64.8811Z" fill="url(#paint10_linear_137_52)"/>
<path d="M143.874 133.01L141.645 135.941L145.936 146.949H151.23L149.038 125.395L143.911 127.663L143.874 133.01Z" fill="#553B15"/>
<path d="M218.979 99.6741L221.635 107.584C221.635 107.584 230.273 109.778 243.76 99.6741C243.76 99.6741 240.657 93.737 218.979 99.6741Z" fill="#543A14"/>
<path d="M192.45 102.439L192.766 110.774C192.766 110.774 185.465 115.844 169.248 111.124C169.248 111.124 170.047 104.486 192.45 102.458V102.439Z" fill="#543A14"/>
<path d="M197.832 163.24L213.683 173.906L225.696 160.999" fill="#FFB38E"/>
<path d="M197.832 163.24L213.683 173.906L225.696 160.999" stroke="#DC7F5F" stroke-width="1.85762" stroke-miterlimit="10"/>
<path d="M298.448 128.917L287.674 134.061L286.708 145.696L294.398 144.165C294.398 144.165 298.522 140.348 294.398 135.186" fill="#DC7F5F"/>
<path d="M228.228 128.013L228.915 131.166L252.284 128.566V124.75L228.228 128.013Z" fill="#543A14"/>
<path d="M162.34 136.697L186.08 132.346V135.241L163.25 139.426L162.34 136.697Z" fill="#543A14"/>
<path d="M282.354 155.254V161.756" stroke="#DC7F5F" stroke-width="1.85762"/>
<path d="M215.478 132.033L200.617 133.891L199.688 129.247L214.549 128.318L216.407 130.176L217.336 132.962L222.909 144.108L235.912 150.61H248.347L258.204 148.752L267.492 142.25L272.136 133.891L273.065 126.461L286.068 128.318L284.21 131.105L276.78 130.176C275.294 139.835 270.588 145.966 268.421 147.823C258.204 155.254 238.699 154.325 233.126 150.61L221.98 145.037L215.478 132.033Z" fill="#F39473"/>
<path d="M198.155 128.013L217.14 125.967L217.195 122.298L219.647 118.352H205.344L192.786 121.265L198.155 128.013Z" fill="#4C310A"/>
<path d="M271.818 115.731L271.726 115.282L271.386 114.975L270.453 116.01C271.386 114.975 271.386 114.974 271.385 114.974L271.383 114.972L271.378 114.968L271.363 114.955C271.352 114.944 271.336 114.931 271.316 114.913C271.276 114.879 271.219 114.831 271.147 114.77C271.001 114.649 270.79 114.48 270.514 114.271C269.961 113.854 269.149 113.283 268.082 112.638C265.949 111.35 262.795 109.771 258.668 108.569C250.394 106.158 238.287 105.286 222.774 111.186L222.333 111.354L222.084 111.755L216.01 121.583L215.842 121.854L215.809 122.17L217.195 122.315C215.809 122.17 215.809 122.171 215.809 122.172L215.809 122.174L215.808 122.181L215.806 122.2C215.805 122.216 215.803 122.237 215.8 122.264C215.796 122.318 215.79 122.395 215.783 122.493C215.77 122.688 215.755 122.967 215.746 123.318C215.729 124.021 215.737 125.015 215.834 126.208C216.029 128.585 216.583 131.79 218.041 135.041C219.504 138.303 221.88 141.618 225.701 144.166C229.521 146.713 234.698 148.436 241.672 148.655C255.184 149.078 263.713 145.162 268.359 138.73C272.961 132.359 273.483 123.881 271.818 115.731Z" fill="#FEF1DC" fill-opacity="0.5" stroke="#4C310A" stroke-width="2.78643" stroke-miterlimit="10"/>
<path d="M281.424 132.962L286.997 129.247" stroke="#DC7F5F" stroke-width="1.85762"/>
<path d="M271.207 115.826L293.357 122.242L285.833 127.737L271.307 125.303C271.307 125.303 271.827 118.426 270.471 116.01L271.207 115.826Z" fill="#4C310A"/>
<path d="M156.036 162.684C173.126 165.657 187.925 158.35 193.189 153.396L191.331 151.539L180.185 158.04L169.968 160.827H161.609L155.107 158.969L156.036 162.684Z" fill="#F39473"/>
<path d="M149.243 125.579L148.032 124.891L147.913 125.101L147.871 125.338C147.054 129.991 146.558 134.647 146.713 138.925C146.867 143.192 147.671 147.18 149.535 150.423C151.425 153.709 154.36 156.153 158.584 157.34C162.759 158.513 168.113 158.44 174.872 156.9C188.561 153.779 194.829 146.601 197.59 140.05C198.955 136.812 199.442 133.779 199.589 131.556C199.662 130.443 199.651 129.527 199.62 128.882C199.605 128.559 199.585 128.304 199.568 128.125C199.559 128.035 199.552 127.964 199.546 127.914C199.543 127.889 199.541 127.869 199.539 127.854L199.536 127.835L199.535 127.829L199.535 127.826C199.535 127.825 199.535 127.824 198.154 128.013L199.535 127.824L199.483 127.446L199.245 127.146L189.102 114.387L188.796 114.002L188.317 113.894C173.418 110.553 163.37 113.166 157.001 116.748C153.832 118.53 151.608 120.533 150.169 122.105C149.45 122.89 148.926 123.569 148.577 124.059C148.402 124.305 148.271 124.503 148.181 124.645C148.136 124.716 148.102 124.773 148.077 124.814C148.064 124.835 148.054 124.852 148.047 124.865L148.038 124.881L148.034 124.887L148.033 124.889C148.032 124.89 148.032 124.891 149.243 125.579Z" fill="#FEF1DC" fill-opacity="0.5" stroke="#4C310A" stroke-width="2.78643" stroke-miterlimit="10"/>
<path d="M201.963 139.426L193.961 143.496C192.191 144.397 191.442 146.529 192.259 148.338L194.606 153.531" fill="#FFB38E"/>
<path d="M201.963 139.426L193.961 143.496C192.191 144.397 191.442 146.529 192.259 148.338L194.606 153.531" stroke="#DC7F5F" stroke-width="1.85762" stroke-miterlimit="10"/>
<path d="M118.175 132.223L119.813 130.176L125.386 134.82L121.671 140.393L118.449 137.171C117.11 135.833 116.992 133.702 118.175 132.223Z" fill="url(#paint11_linear_137_52)"/>
<path d="M119.812 145.037L125.384 134.82" stroke="#DC7F5F" stroke-width="1.85762"/>
<path d="M90.0898 156.183C93.1859 156.802 100.121 160.084 103.093 168.258" stroke="#DC7F5F" stroke-width="1.85762"/>
<path d="M114.237 141.322L108.665 138.535" stroke="#DC7F5F" stroke-width="1.85762"/>
<path d="M296.284 299.598V301.936H291.805C291.673 301.936 291.541 301.931 291.414 301.926C290.804 301.889 290.222 301.773 289.667 301.585C289.471 301.516 289.275 301.443 289.085 301.358C289.058 301.343 289.026 301.332 289 301.316C287.608 300.67 286.485 299.561 285.824 298.185C285.808 298.148 285.792 298.111 285.776 298.069C285.686 297.885 285.612 297.69 285.543 297.491C285.358 296.955 285.242 296.387 285.204 295.799C285.194 295.657 285.188 295.515 285.188 295.369V290.922H287.428C288.163 290.922 288.809 291.274 289.222 291.81C289.503 292.183 289.667 292.646 289.667 293.145V297.49H294.045C294.558 297.49 295.035 297.664 295.416 297.953C295.914 298.336 296.247 298.93 296.284 299.598Z" fill="#DCCEA5"/>
<path d="M289.668 308.504V304.363L289.668 304.363C289.668 303.901 289.368 303.496 288.925 303.354C286.476 302.567 284.538 300.652 283.74 298.226C283.597 297.788 283.189 297.49 282.725 297.49H278.572V299.713C278.572 300.438 278.927 301.084 279.472 301.494C279.842 301.773 280.308 301.935 280.811 301.935H282.044L280.528 303.416C279.45 304.469 279.441 306.191 280.509 307.254L281.764 308.504L283.056 307.221L285.189 305.099V306.281C285.189 306.791 285.364 307.264 285.66 307.637C286.068 308.163 286.708 308.504 287.428 308.504H289.668Z" fill="#DCCEA5"/>
<defs>
<linearGradient id="paint0_linear_137_52" x1="217.464" y1="198.5" x2="217.464" y2="417.786" gradientUnits="userSpaceOnUse">
<stop stop-color="#6C2323"/>
<stop offset="1" stop-color="#4C0F0F"/>
</linearGradient>
<linearGradient id="paint1_linear_137_52" x1="112.381" y1="109.372" x2="68.1078" y2="187.217" gradientUnits="userSpaceOnUse">
<stop stop-color="#FFB38E"/>
<stop offset="1" stop-color="#FF9673"/>
</linearGradient>
<linearGradient id="paint2_linear_137_52" x1="316.719" y1="286.378" x2="316.41" y2="409.871" gradientUnits="userSpaceOnUse">
<stop stop-color="#E46C59"/>
<stop offset="1" stop-color="#BE412D"/>
</linearGradient>
<linearGradient id="paint3_linear_137_52" x1="237.771" y1="193.266" x2="239.916" y2="213.242" gradientUnits="userSpaceOnUse">
<stop stop-color="#FF9673"/>
<stop offset="1" stop-color="#FFB38E"/>
</linearGradient>
<linearGradient id="paint4_linear_137_52" x1="290.713" y1="275.315" x2="128.233" y2="870.17" gradientUnits="userSpaceOnUse">
<stop stop-color="#E46C59"/>
<stop offset="1" stop-color="#BE412D"/>
</linearGradient>
<linearGradient id="paint5_linear_137_52" x1="265.15" y1="204.328" x2="265.15" y2="366.145" gradientUnits="userSpaceOnUse">
<stop stop-color="#932525"/>
<stop offset="1" stop-color="#B44545"/>
</linearGradient>
<linearGradient id="paint6_linear_137_52" x1="149.531" y1="247.658" x2="43.3293" y2="803.862" gradientUnits="userSpaceOnUse">
<stop stop-color="#E46C59"/>
<stop offset="1" stop-color="#BE412D"/>
</linearGradient>
<linearGradient id="paint7_linear_137_52" x1="190.673" y1="206.983" x2="190.673" y2="365.238" gradientUnits="userSpaceOnUse">
<stop stop-color="#932525"/>
<stop offset="1" stop-color="#B44545"/>
</linearGradient>
<linearGradient id="paint8_linear_137_52" x1="22.3566" y1="278.501" x2="130.099" y2="289.647" gradientUnits="userSpaceOnUse">
<stop stop-color="#D05542" stop-opacity="0"/>
<stop offset="1" stop-color="#D05542"/>
</linearGradient>
<linearGradient id="paint9_linear_137_52" x1="216.407" y1="73.418" x2="203.343" y2="156.572" gradientUnits="userSpaceOnUse">
<stop stop-color="#FF9673"/>
<stop offset="1" stop-color="#FFB38E"/>
</linearGradient>
<linearGradient id="paint10_linear_137_52" x1="195.973" y1="0.587402" x2="185.179" y2="186.082" gradientUnits="userSpaceOnUse">
<stop stop-color="#543A14"/>
<stop offset="1" stop-color="#301F07"/>
</linearGradient>
<linearGradient id="paint11_linear_137_52" x1="120.742" y1="130.176" x2="126.315" y2="135.749" gradientUnits="userSpaceOnUse">
<stop stop-color="#FFD4C2"/>
<stop offset="1" stop-color="#FEF9E1"/>
</linearGradient>
</defs>
</svg>
