<svg width="448" height="538" viewBox="0 0 448 538" fill="none" xmlns="http://www.w3.org/2000/svg">
<g clip-path="url(#clip0_126_851)">
<rect width="448" height="538" rx="30" fill="white"/>
<path d="M125.548 307.957C125.548 307.957 208.025 254.633 322.295 292.304C331.586 295.368 339.138 302.177 343.767 310.797L393.292 403.021C394.544 405.301 393.559 408.176 391.176 409.224L320.321 441.058L331.748 471.068C331.748 471.068 318.152 489.408 290.672 544.655C290.672 544.655 225.69 551.7 197.02 550.057C168.349 548.414 139.021 541.492 139.021 541.492L137.172 531.1C137.172 531.1 121.255 527.178 136.474 521.653C136.474 521.653 128.115 456.794 127.889 440.2C127.889 440.2 110.793 429.002 104.673 421.547L102.053 428.329L93.5498 381.236L125.548 307.957Z" fill="#E6DBB9"/>
<path d="M204.096 357.246C204.293 359.948 202.537 362.065 200.437 362.219C198.337 362.372 196.292 360.532 196.094 357.83C195.897 355.128 197.653 353.011 199.753 352.858C201.853 352.704 203.899 354.544 204.096 357.246Z" fill="#8C815E" stroke="#B7AA80" stroke-width="1.8769"/>
<mask id="path-4-inside-1_126_851" fill="white">
<ellipse cx="200.095" cy="357.538" rx="1.50427" ry="1.7113" transform="rotate(-4.17797 200.095 357.538)"/>
</mask>
<ellipse cx="200.095" cy="357.538" rx="1.50427" ry="1.7113" transform="rotate(-4.17797 200.095 357.538)" fill="#B7AA80"/>
<path d="M199.723 357.565C199.725 357.594 199.714 357.579 199.747 357.534C199.784 357.486 199.896 357.387 200.083 357.373L200.356 361.117C202.438 360.965 203.594 359.034 203.467 357.292L199.723 357.565ZM200.083 357.373C200.27 357.359 200.394 357.441 200.438 357.484C200.478 357.523 200.468 357.54 200.466 357.511L196.722 357.784C196.85 359.527 198.274 361.269 200.356 361.117L200.083 357.373ZM200.466 357.511C200.464 357.482 200.476 357.497 200.442 357.542C200.405 357.59 200.294 357.69 200.107 357.703L199.833 353.959C197.751 354.111 196.595 356.042 196.722 357.784L200.466 357.511ZM200.107 357.703C199.92 357.717 199.795 357.635 199.752 357.592C199.712 357.553 199.721 357.536 199.723 357.565L203.467 357.292C203.34 355.549 201.915 353.807 199.833 353.959L200.107 357.703Z" fill="#B7AA80" mask="url(#path-4-inside-1_126_851)"/>
<path d="M202.042 398.323C202.24 401.024 200.483 403.142 198.383 403.295C196.283 403.449 194.238 401.609 194.041 398.907C193.843 396.205 195.6 394.088 197.7 393.934C199.799 393.781 201.845 395.621 202.042 398.323Z" fill="#8C815E" stroke="#B7AA80" stroke-width="1.8769"/>
<mask id="path-7-inside-2_126_851" fill="white">
<ellipse cx="198.041" cy="398.615" rx="1.50427" ry="1.7113" transform="rotate(-4.17797 198.041 398.615)"/>
</mask>
<ellipse cx="198.041" cy="398.615" rx="1.50427" ry="1.7113" transform="rotate(-4.17797 198.041 398.615)" fill="#B7AA80"/>
<path d="M197.669 398.642C197.671 398.67 197.66 398.655 197.694 398.611C197.73 398.562 197.842 398.463 198.029 398.449L198.302 402.193C200.384 402.041 201.54 400.111 201.413 398.368L197.669 398.642ZM198.029 398.449C198.216 398.436 198.341 398.518 198.384 398.56C198.424 398.6 198.415 398.616 198.413 398.587L194.669 398.861C194.796 400.603 196.22 402.345 198.302 402.193L198.029 398.449ZM198.413 398.587C198.411 398.559 198.422 398.574 198.388 398.618C198.351 398.667 198.24 398.766 198.053 398.78L197.78 395.036C195.698 395.188 194.541 397.118 194.669 398.861L198.413 398.587ZM198.053 398.78C197.866 398.793 197.741 398.711 197.698 398.669C197.658 398.629 197.667 398.613 197.669 398.642L201.413 398.368C201.286 396.626 199.861 394.884 197.78 395.036L198.053 398.78Z" fill="#B7AA80" mask="url(#path-7-inside-2_126_851)"/>
<path d="M202.042 445.56C202.24 448.262 200.483 450.379 198.383 450.532C196.283 450.686 194.238 448.846 194.041 446.144C193.843 443.442 195.6 441.325 197.7 441.172C199.799 441.018 201.845 442.858 202.042 445.56Z" fill="#8C815E" stroke="#B7AA80" stroke-width="1.8769"/>
<mask id="path-10-inside-3_126_851" fill="white">
<ellipse cx="198.041" cy="445.852" rx="1.50427" ry="1.7113" transform="rotate(-4.17797 198.041 445.852)"/>
</mask>
<ellipse cx="198.041" cy="445.852" rx="1.50427" ry="1.7113" transform="rotate(-4.17797 198.041 445.852)" fill="#B7AA80"/>
<path d="M197.669 445.879C197.671 445.908 197.66 445.893 197.694 445.848C197.73 445.8 197.842 445.701 198.029 445.687L198.302 449.431C200.384 449.279 201.54 447.348 201.413 445.606L197.669 445.879ZM198.029 445.687C198.216 445.673 198.341 445.755 198.384 445.798C198.424 445.837 198.415 445.854 198.413 445.825L194.669 446.098C194.796 447.841 196.22 449.583 198.302 449.431L198.029 445.687ZM198.413 445.825C198.411 445.796 198.422 445.811 198.388 445.856C198.351 445.904 198.24 446.004 198.053 446.017L197.78 442.273C195.698 442.425 194.541 444.356 194.669 446.098L198.413 445.825ZM198.053 446.017C197.866 446.031 197.741 445.949 197.698 445.906C197.658 445.867 197.667 445.85 197.669 445.879L201.413 445.606C201.286 443.863 199.861 442.121 197.78 442.273L198.053 446.017Z" fill="#B7AA80" mask="url(#path-10-inside-3_126_851)"/>
<path d="M202.042 490.743C202.24 493.445 200.483 495.562 198.383 495.716C196.283 495.869 194.238 494.029 194.041 491.327C193.843 488.626 195.6 486.508 197.7 486.355C199.799 486.201 201.845 488.041 202.042 490.743Z" fill="#8C815E" stroke="#B7AA80" stroke-width="1.8769"/>
<mask id="path-13-inside-4_126_851" fill="white">
<ellipse cx="198.041" cy="491.035" rx="1.50427" ry="1.7113" transform="rotate(-4.17797 198.041 491.035)"/>
</mask>
<ellipse cx="198.041" cy="491.035" rx="1.50427" ry="1.7113" transform="rotate(-4.17797 198.041 491.035)" fill="#B7AA80"/>
<path d="M197.669 491.062C197.671 491.091 197.66 491.076 197.694 491.031C197.73 490.983 197.842 490.883 198.029 490.87L198.302 494.614C200.384 494.461 201.54 492.531 201.413 490.789L197.669 491.062ZM198.029 490.87C198.216 490.856 198.341 490.938 198.384 490.981C198.424 491.02 198.415 491.036 198.413 491.008L194.669 491.281C194.796 493.024 196.22 494.766 198.302 494.614L198.029 490.87ZM198.413 491.008C198.411 490.979 198.422 490.994 198.388 491.039C198.351 491.087 198.24 491.186 198.053 491.2L197.78 487.456C195.698 487.608 194.541 489.539 194.669 491.281L198.413 491.008ZM198.053 491.2C197.866 491.214 197.741 491.132 197.698 491.089C197.658 491.05 197.667 491.033 197.669 491.062L201.413 490.789C201.286 489.046 199.861 487.304 197.78 487.456L198.053 491.2Z" fill="#B7AA80" mask="url(#path-13-inside-4_126_851)"/>
<path d="M269.177 364.654V367.31H264.127C263.978 367.31 263.829 367.304 263.685 367.298C262.999 367.257 262.343 367.125 261.716 366.91C261.495 366.833 261.274 366.749 261.06 366.654C261.03 366.636 260.994 366.624 260.964 366.606C259.394 365.871 258.129 364.612 257.383 363.048C257.365 363.007 257.347 362.965 257.329 362.917C257.228 362.708 257.145 362.487 257.067 362.261C256.858 361.652 256.727 361.007 256.685 360.339C256.673 360.178 256.667 360.017 256.667 359.85V354.799H259.192C260.021 354.799 260.749 355.199 261.215 355.808C261.531 356.231 261.716 356.757 261.716 357.324V362.26H266.652C267.231 362.26 267.768 362.457 268.198 362.785C268.76 363.221 269.135 363.896 269.177 364.654Z" fill="#B57F56"/>
<path d="M261.717 374.77V370.067L261.718 370.066C261.718 369.542 261.379 369.081 260.88 368.92C258.118 368.027 255.933 365.851 255.034 363.095C254.872 362.598 254.413 362.26 253.89 362.26H249.207V364.784C249.207 365.608 249.607 366.342 250.222 366.807C250.639 367.124 251.165 367.309 251.732 367.309H253.122L251.412 368.991C250.197 370.186 250.187 372.143 251.391 373.35L252.806 374.769L254.262 373.313L256.668 370.902V372.245C256.668 372.824 256.864 373.362 257.199 373.785C257.658 374.383 258.38 374.77 259.192 374.77H261.717Z" fill="#B57F56"/>
<path d="M271.798 316.804L193.754 350.691L232.776 321.938C232.776 321.938 252.287 279.836 260.502 278.809C268.717 277.782 290.175 284.389 303.631 293.185L261.529 307.562L271.798 316.804Z" fill="#BBAB77" fill-opacity="0.33"/>
<path d="M173.216 313.723C175.68 326.867 185.881 345.214 190.673 352.745L192.726 292.158L181.431 285.997C168.286 289.283 158.154 293.527 154.731 295.239C167.876 302.632 179.377 301.743 183.484 300.373L173.216 313.723Z" fill="#BBAB77" fill-opacity="0.33"/>
<path d="M260.46 316.931L252.922 308.614L291.965 293.251C277.917 275.034 243.303 263.405 243.303 263.405V268.54L244.851 271.132C244.851 271.132 237.088 307.053 201.29 336.894L193.075 349.422C192.787 349.874 193.26 350.408 193.732 350.182L260.46 316.952V316.931Z" fill="#B7AA80"/>
<path d="M195.642 272.016C195.642 272.016 167.053 290.397 159.762 294.032C159.762 294.032 171.222 300.543 184.489 303.397L177.712 315.371C177.712 315.371 183.401 340.715 190.938 349.833C191.349 350.326 192.15 350.08 192.212 349.443L201.289 270.906L195.642 272.016Z" fill="#B7AA80"/>
<path d="M296.444 527.317C301.373 522.388 298.498 516.363 296.444 513.967L302.605 482.133C293.485 468.453 290.832 451.458 295.349 435.648L296.444 431.816L282.067 355.826L321.089 441.058L338.546 472.891C327.867 483.571 303.632 518.075 296.444 534.505V527.317Z" fill="#D8CBA3"/>
<path d="M320.062 442.085L281.04 353.772C281.382 341.449 291.104 313.107 327.25 298.32" stroke="#B7AA80" stroke-width="2.05378"/>
<path d="M300.551 423.601L294.39 437.977" stroke="#B7AA80" stroke-width="2.05378"/>
<path d="M295.417 469.811L305.686 486.241" stroke="#B7AA80" stroke-width="2.05378"/>
<path d="M127.005 364.041L122.402 394.949C121.071 403.882 111.843 409.315 103.387 406.143V418.466L119.817 434.896L129.059 440.031C125.773 426.065 126.321 383.552 127.005 364.041Z" fill="#D8CBA3"/>
<path d="M129.061 442.085C127.692 420.52 125.364 371.64 127.007 348.637" stroke="#B7AA80" stroke-width="2.05378"/>
<path d="M64.0592 299.187C64.0592 299.187 59.2122 339.051 53.5232 358.459C47.8343 377.868 29.268 463.469 75.8273 458.52C85.8909 457.452 120.374 435.25 120.374 435.25L103.369 418.574C103.369 418.574 103.369 354.619 94.6195 313.646L64.0592 284.97" fill="url(#paint0_linear_126_851)"/>
<path d="M103.387 414.359V424.628" stroke="#DC7F5F" stroke-width="2.05378"/>
<path d="M76.9081 245.747C66.3045 232.065 55.1689 230.911 52.3027 231.56L66.6897 254.796L76.9081 245.747Z" fill="#F39573"/>
<path d="M137.276 531.424L139.33 541.693L148.572 552.989C198.743 555.29 226.857 555.243 276.934 548.881L292.337 543.747L298.498 529.37C243.046 547.854 223.535 533.478 191.702 535.532C166.235 537.175 144.807 533.478 137.276 531.424Z" fill="#D8CBA3"/>
<path d="M206.148 533.873C206.345 536.575 204.589 538.692 202.489 538.845C200.389 538.999 198.343 537.159 198.146 534.457C197.949 531.755 199.705 529.638 201.805 529.485C203.905 529.331 205.95 531.171 206.148 533.873Z" fill="#8C815E" stroke="#B7AA80" stroke-width="1.8769"/>
<mask id="path-32-inside-5_126_851" fill="white">
<ellipse cx="202.146" cy="534.165" rx="1.50427" ry="1.7113" transform="rotate(-4.17797 202.146 534.165)"/>
</mask>
<ellipse cx="202.146" cy="534.165" rx="1.50427" ry="1.7113" transform="rotate(-4.17797 202.146 534.165)" fill="#B7AA80"/>
<path d="M201.775 534.192C201.777 534.22 201.765 534.205 201.799 534.161C201.836 534.112 201.947 534.013 202.134 533.999L202.408 537.743C204.49 537.591 205.646 535.661 205.519 533.918L201.775 534.192ZM202.134 533.999C202.321 533.986 202.446 534.068 202.489 534.11C202.529 534.15 202.52 534.166 202.518 534.137L198.774 534.411C198.902 536.153 200.326 537.895 202.408 537.743L202.134 533.999ZM202.518 534.137C202.516 534.109 202.527 534.124 202.494 534.168C202.457 534.217 202.346 534.316 202.158 534.33L201.885 530.586C199.803 530.738 198.647 532.669 198.774 534.411L202.518 534.137ZM202.158 534.33C201.971 534.343 201.847 534.261 201.803 534.219C201.764 534.18 201.773 534.163 201.775 534.192L205.519 533.918C205.391 532.176 203.967 530.434 201.885 530.586L202.158 534.33Z" fill="#B7AA80" mask="url(#path-32-inside-5_126_851)"/>
<path d="M192.214 349.443C192.214 349.443 185.95 515.06 197.02 550.016" stroke="#B7AA80" stroke-width="2.05378" stroke-miterlimit="10"/>
<path d="M330.333 473.918L335.467 464.676" stroke="#DC7F5F" stroke-width="2.05378"/>
<path d="M331.727 471.048L320.123 441.371L382.045 413.419L402.419 459.074C404.205 463.079 403.938 467.7 401.679 471.459C387.015 495.899 331.029 587.374 303.755 605.406C303.755 605.406 286.585 597.171 275.844 575.093C275.844 575.093 318.255 485.65 331.748 471.048H331.727Z" fill="url(#paint1_linear_126_851)"/>
<path d="M325.197 453.38L384.757 419.493L382.703 413.332L320.062 441.058L325.197 453.38Z" fill="#DE8365" fill-opacity="0.37"/>
<path d="M103.389 420.52C80.3867 453.38 58.8904 450.642 51.0176 445.165C67.4479 476.999 106.47 443.111 119.819 434.896L104.416 419.493L103.389 420.52Z" fill="#DE8365" fill-opacity="0.37"/>
<path d="M136.248 530.397C137.275 531.082 139.945 532.451 142.409 532.451" stroke="#B7AA80" stroke-width="2.05378"/>
<path d="M100.155 241.817C97.5251 224.609 87.9094 217.934 84.9443 217.031L86.0883 244.408L100.155 241.817Z" fill="#F39573"/>
<path d="M86.072 240.813C80.2144 224.421 69.5037 219.698 66.4209 219.376L72.7561 246.035L86.072 240.813Z" fill="#F39573"/>
<path d="M54.5496 270.167L67.3857 304.054C70.22 311.53 77.4699 316.398 85.4386 316.11C92.8733 315.843 101.848 313.995 108.544 307.792C113.37 303.294 115.26 296.455 113.74 290.027L102.588 243.016C101.191 237.101 96.3853 232.562 90.3883 231.597C84.3912 230.631 76.5457 231.248 67.6939 237.121C61.5325 241.229 57.5071 244.823 54.8988 247.801C51.2636 251.95 50.2778 257.824 52.0851 263.04L54.5496 270.146V270.167Z" fill="#C2CAE1"/>
<path d="M52.0421 252.109C73.4014 252.109 93.1178 242.525 100.306 237.733C101.128 238.554 102.017 240.814 102.36 241.84L113.656 289.078L112.629 292.158C100.306 311.053 78.0567 309.615 68.4723 306.535C63.5433 299.963 54.0959 270.251 49.9883 256.217L52.0421 252.109Z" fill="#DFE6F8"/>
<path d="M105.443 255.19C90.6555 265.048 65.7362 270.251 55.125 271.62C56.768 277.371 60.6018 288.393 62.3132 293.185C82.8511 293.185 103.047 282.232 110.577 276.755L105.443 255.19Z" fill="#B67F55"/>
<path d="M88.4053 293.076C97.1848 290.723 101.867 280.685 99.2429 270.893C96.6192 261.101 87.5454 254.748 78.7659 257.101C69.9863 259.453 65.3045 269.492 67.9282 279.284C70.5519 289.075 79.6257 295.428 88.4053 293.076Z" fill="#783836" stroke="#DFE6F8" stroke-width="2.05378"/>
<path d="M94.0728 272.265L94.7707 274.87L89.8186 276.197C89.672 276.236 89.5244 276.269 89.3825 276.301C88.6981 276.441 88.0201 276.484 87.3494 276.439C87.1125 276.421 86.874 276.397 86.6385 276.359C86.6046 276.349 86.5661 276.347 86.5322 276.338C84.7997 276.03 83.2279 275.128 82.086 273.79C82.0574 273.754 82.0287 273.717 81.9985 273.675C81.8437 273.497 81.7043 273.302 81.5688 273.101C81.2039 272.559 80.9061 271.961 80.6892 271.317C80.6353 271.162 80.5867 271.005 80.5429 270.841L79.2158 265.889L81.6914 265.225C82.5046 265.007 83.3239 265.208 83.9406 265.683C84.3622 266.015 84.6815 266.482 84.8304 267.038L86.1275 271.878L90.9682 270.581C91.5356 270.429 92.1142 270.482 92.622 270.69C93.287 270.97 93.8329 271.533 94.0728 272.265Z" fill="white"/>
<path d="M89.4142 284.146L88.1783 279.534L88.1788 279.533C88.0412 279.019 87.5877 278.657 87.0562 278.629C84.1131 278.479 81.3992 276.92 79.7934 274.453C79.5038 274.008 78.9642 273.797 78.4513 273.935L73.8594 275.165L74.5227 277.641C74.7392 278.448 75.3243 279.063 76.0495 279.358C76.5419 279.559 77.1057 279.602 77.6617 279.453L79.0254 279.088L77.7905 281.186C76.9127 282.678 77.4174 284.599 78.9151 285.467L80.6756 286.487L81.7212 284.676L83.4466 281.68L83.7994 282.997C83.9517 283.565 84.2856 284.04 84.7248 284.367C85.3325 284.833 86.1423 285.023 86.9386 284.81L89.4142 284.146Z" fill="white"/>
<path d="M63.3388 262.378C61.6958 264.843 56.4928 268.882 54.0968 270.593L52.043 263.405L59.2312 242.867L79.7691 233.625H94.1456C86.7519 244.305 80.1114 242.183 77.7153 239.787C75.2507 243.073 71.2116 244.579 69.5001 244.921C67.8571 249.85 64.708 258.613 63.3388 262.378Z" fill="#3E4454" fill-opacity="0.13"/>
<path d="M73.2496 226.274C73.9861 229.483 75.4906 234.842 77.9758 238.421C78.7016 239.455 79.8737 240.113 81.1556 240.186C83.6145 240.333 87.9783 240.126 91.7825 237.327C93.3075 236.213 94.0616 234.306 93.6762 232.458C92.8612 228.44 90.8642 221.025 86.7149 217.741C86.7149 217.741 81.0338 214.045 74.4302 221.417C73.2662 222.725 72.8617 224.551 73.2534 226.254L73.2496 226.274Z" fill="url(#paint2_linear_126_851)"/>
<path d="M90.8105 223.353L94.157 233.381" stroke="#DC7F5F" stroke-width="2.05378"/>
<path d="M89.1071 232.437L80.0875 235.972L79.1583 231.814C78.7084 229.8 79.7588 227.753 81.6565 226.944C83.6683 226.086 86.003 226.883 87.0701 228.792L89.1071 232.437Z" fill="#FEEED7"/>
<path d="M48.3682 249.029C48.3682 249.029 45.4539 251.124 46.8505 260.509C47.0559 261.947 48.1237 263.097 49.5203 263.405C52.9912 264.145 59.4606 264.987 62.1305 261.598L63.8767 255.503L67.368 246.097C68.1485 244.002 67.5323 241.66 65.8277 240.223C62.7059 237.573 57.5717 233.466 53.4641 231.576C52.0881 230.94 50.4655 231.309 49.5208 232.521C47.1178 235.581 44.0757 238.513 45.2669 244.901L48.3682 249.029Z" fill="url(#paint3_linear_126_851)"/>
<path d="M47.9355 248.002L63.3389 255.19" stroke="#DC7F5F" stroke-width="2.05378"/>
<path d="M56.6972 230.676C58.0313 233.687 60.5285 238.661 63.6496 241.701C64.559 242.578 65.835 243.001 67.1072 242.829C69.5492 242.505 73.7937 241.471 76.9956 238C78.2805 236.615 78.6578 234.6 77.9276 232.859C76.3625 229.07 72.9903 222.17 68.2917 219.736C68.2917 219.736 62.0109 217.189 56.9317 225.684C56.0378 227.189 55.9883 229.059 56.6971 230.656L56.6972 230.676Z" fill="url(#paint4_linear_126_851)"/>
<path d="M73.3813 224.466L77.3602 231.519C78.1592 232.935 78.636 234.6 77.7861 235.986C76.7729 237.638 74.6339 239.787 70.5262 241.84" stroke="#DC7F5F" stroke-width="2.05378"/>
<path d="M73.4412 233.707L65.2597 238.895L63.5558 234.99C62.7308 233.099 63.3722 230.889 65.0811 229.733C66.8928 228.508 69.3367 228.846 70.7476 230.517L73.4412 233.707Z" fill="#FEEED7"/>
<path d="M63.2804 242.181L58.9677 251.592L55.1679 249.084C53.3283 247.869 52.6168 245.515 53.4758 243.485C54.3865 241.333 56.7734 240.214 59.0102 240.89L63.2804 242.181Z" fill="#FEEED7"/>
<path d="M59.2118 254.239L56.6401 262.534L53.2078 260.858C51.546 260.046 50.6997 258.165 51.1952 256.383C51.7204 254.494 53.5854 253.305 55.5196 253.626L59.2118 254.239Z" fill="#FEEED7"/>
<path d="M113.657 298.319C102.156 292.569 95.1729 281.547 93.1191 276.755L99.2805 277.782L112.63 287.024L113.657 298.319Z" fill="#3E4454" fill-opacity="0.13"/>
<path d="M114.14 267.98C109.889 266.431 104.776 268.503 100.593 266.778C96.26 264.991 91.4951 260.658 91.4951 271.625C91.4951 282.592 112.239 287.398 112.239 287.398L113.45 297.441C113.45 297.441 123.493 291.424 123.493 280.929C123.493 273.758 119.083 269.78 114.14 267.98Z" fill="url(#paint5_linear_126_851)"/>
<path d="M111.603 287.024C112.287 287.366 114.272 288.051 116.737 288.051" stroke="#DC7F5F" stroke-width="2.05378"/>
<path d="M98.2535 270.593L97.2266 265.459C98.2535 265.459 104.415 267.513 105.442 267.513C105.947 269.028 104.819 270.593 103.221 270.593H98.2535Z" fill="#FEEED7"/>
<path d="M234.626 305.321C224.293 319.574 210.495 330.834 201.969 336.315C230.722 313.312 242.702 282.916 245.098 270.594L243.044 268.54V263.405C258.653 266.691 275.563 278.466 282.066 283.943C265.454 274.882 245.733 290.001 234.626 305.321Z" fill="#A0936B"/>
<path d="M194.782 272.647L187.594 328.1L186.567 299.347C185.449 290.547 180.893 288.86 170.137 288.051L194.782 272.647Z" fill="#A0936B"/>
<path d="M242.287 256.217L244.333 269.567L249.467 270.594L243.306 281.889L228.075 309.599L201.05 342.476L191.969 348.637L186.835 334.261L190.684 284.964L194.612 258.897L242.287 256.217Z" fill="url(#paint6_linear_126_851)"/>
<path d="M189.647 294.212L192.728 271.62V269.566L242.019 257.244L244.073 269.566L249.207 270.593L244.073 279.835L189.647 294.212Z" fill="#DE8365" fill-opacity="0.37"/>
<path d="M127.601 169.696C135.405 210.155 143.292 250.122 154.546 266.881C172.389 282.185 213.029 269.258 254.966 254.73C264.057 251.58 273.52 247.071 275.31 237.618C276.824 229.625 276.597 218.935 276.028 207.732C282.798 208.812 289.441 207.162 295.986 202.85C297.826 201.638 299.081 199.728 299.608 197.588C302.593 185.47 302.465 176.005 295.58 172.345L273.933 179.739L254.915 123.753L173.051 93.1102L120.228 101.038L127.621 169.696H127.601Z" fill="url(#paint7_linear_126_851)"/>
<path d="M296.465 72.7983C236.392 31.3939 158.841 84.4637 158.841 84.4637C160.525 80.7669 191.825 66.5753 191.825 66.5753C184.082 63.5151 154.467 79.4114 154.467 79.4114C139.351 65.1992 133.251 66.6164 133.251 66.6164L146.375 82.1019C130.212 77.3987 89.9573 95.5085 94.0032 149.03C98.0492 202.552 137.42 167.535 137.42 167.535L137.954 142.54C137.954 142.54 140.234 125.761 146.211 125.186L154.467 128.882C154.467 128.882 163.277 116.642 167.262 117.792C167.262 117.792 150.688 143.859 194.515 151.54V147.556C194.515 147.556 205.647 164.91 234.934 163.493L252.864 163.781L260.832 206.171H270.218L273.372 183.515C273.692 181.212 275.282 179.285 277.483 178.534L292.996 173.235C294.619 172.681 296.433 172.808 297.68 173.985C299.345 175.557 301.364 178.295 301.292 182.286C301.292 182.286 310.41 166.369 311.232 144.044C311.232 144.044 326.266 93.3977 296.424 72.8393L296.465 72.7983Z" fill="url(#paint8_linear_126_851)"/>
<path d="M176.894 162.526L177.633 168.851C177.859 170.844 179.687 172.261 181.679 171.973C189.011 170.926 205.544 168.153 212.999 163.594C213.8 163.101 213.821 161.971 213.081 161.417L210.288 159.281L211.048 157.699C211.459 156.857 210.884 155.871 209.959 155.83C202.689 155.42 177.448 154.557 176.914 162.526H176.894Z" fill="#543A14"/>
<path d="M152.617 177.416C154.281 176.533 154.856 174.438 153.849 172.836C152.248 170.269 149.742 167.147 147.503 167.948C144.341 169.098 138.364 178.381 136.824 180.825C136.577 181.215 136.475 181.667 136.516 182.119L136.68 183.824C136.762 184.748 137.768 185.282 138.569 184.83L152.576 177.375L152.617 177.416Z" fill="#543A14"/>
<path d="M176.851 230.94C185.908 224.881 196.382 219.931 207.616 215.577C209.342 214.92 211.272 214.776 212.997 215.454C216.304 216.769 217.228 219.808 215.688 224.676C212.648 231.042 208.212 236.567 200.819 240.305C191.535 243.92 183.793 243.611 177.549 239.36C176.481 238.333 175.659 237.286 175.208 236.218C174.386 234.308 175.126 232.09 176.851 230.919V230.94Z" fill="white"/>
<path d="M190.079 184.524C190.079 184.524 194.454 197.217 201.026 197.401C207.598 197.586 219.387 195.491 221.132 189.946C222.878 184.401 221.132 176.966 221.132 176.966C221.132 176.966 206.509 175.796 190.079 184.524Z" fill="white"/>
<path d="M163.418 187.974C163.418 187.974 169.539 199.558 167.875 201.714C166.212 203.871 154.443 208.43 149.781 204.836C145.119 201.242 142.285 193.376 142.285 193.376C142.285 193.376 159.106 187.071 163.439 187.974H163.418Z" fill="white"/>
<path d="M198.438 184.38C198.438 184.38 197.165 192.164 201.026 197.401C201.026 197.401 211.911 197.709 218.504 193.232C218.504 193.232 218.011 182.511 213.02 180.519C213.02 180.519 204.271 180.314 198.438 184.38Z" fill="#543A14"/>
<path d="M157.28 205.986C157.28 205.986 148.942 199.188 151.756 193.253C154.569 187.317 162.066 188.139 162.066 188.139C162.066 188.139 166.646 191.98 167.755 200.688C167.837 201.345 167.529 201.981 166.974 202.351C165.29 203.44 161.47 205.617 157.28 205.986Z" fill="#543A14"/>
<path d="M293.89 185.082L283.032 184.662C281.71 184.73 280.786 186.001 281.175 187.276L279.54 199.738L286.453 198.625L289.218 189.458" fill="#DC7F5F"/>
<path d="M186.998 186.311C186.998 186.311 200.861 176.782 223.74 176.946" stroke="#DC7F5F" stroke-width="2.05378" stroke-miterlimit="10"/>
<path d="M139.514 194.444C139.514 194.444 157.197 187.173 165.515 188.036" stroke="#DC7F5F" stroke-width="2.05378" stroke-miterlimit="10"/>
<path d="M273.853 206.926L276.933 207.953" stroke="#DC7F5F" stroke-width="2.05378"/>
<path d="M245.098 269.567L252.286 270.594" stroke="#877B56" stroke-width="2.05378"/>
<path d="M215.07 216.765C203.98 226.349 195.856 230.113 181.24 235.559C196.767 232.33 204.99 228.611 216.144 222.672C216.86 221.24 216.144 217.302 215.07 216.765Z" fill="#D7DBE1"/>
</g>
<defs>
<linearGradient id="paint0_linear_126_851" x1="82.8511" y1="301.4" x2="31.713" y2="328.938" gradientUnits="userSpaceOnUse">
<stop stop-color="#FF9673"/>
<stop offset="1" stop-color="#FFB38E"/>
</linearGradient>
<linearGradient id="paint1_linear_126_851" x1="357.12" y1="379.267" x2="254.972" y2="465.207" gradientUnits="userSpaceOnUse">
<stop stop-color="#FF9673"/>
<stop offset="1" stop-color="#FFB38E"/>
</linearGradient>
<linearGradient id="paint2_linear_126_851" x1="89.4074" y1="213.614" x2="74.389" y2="225.896" gradientUnits="userSpaceOnUse">
<stop stop-color="#FF9673"/>
<stop offset="1" stop-color="#FFB38E"/>
</linearGradient>
<linearGradient id="paint3_linear_126_851" x1="59.444" y1="225.434" x2="41.8864" y2="240.798" gradientUnits="userSpaceOnUse">
<stop stop-color="#FF9673"/>
<stop offset="1" stop-color="#FFB38E"/>
</linearGradient>
<linearGradient id="paint4_linear_126_851" x1="70.1493" y1="215.172" x2="57.7439" y2="230.089" gradientUnits="userSpaceOnUse">
<stop stop-color="#FF9673"/>
<stop offset="1" stop-color="#FFB38E"/>
</linearGradient>
<linearGradient id="paint5_linear_126_851" x1="111.853" y1="258.543" x2="94.3813" y2="279.948" gradientUnits="userSpaceOnUse">
<stop stop-color="#FF9673"/>
<stop offset="1" stop-color="#FFB38E"/>
</linearGradient>
<linearGradient id="paint6_linear_126_851" x1="206.079" y1="268.54" x2="184.831" y2="298.476" gradientUnits="userSpaceOnUse">
<stop stop-color="#FF9673"/>
<stop offset="1" stop-color="#FFB38E"/>
</linearGradient>
<linearGradient id="paint7_linear_126_851" x1="235.537" y1="60.9733" x2="140.671" y2="181.305" gradientUnits="userSpaceOnUse">
<stop stop-color="#FF9673"/>
<stop offset="1" stop-color="#FFB38E"/>
</linearGradient>
<linearGradient id="paint8_linear_126_851" x1="203.806" y1="57" x2="182.352" y2="211.914" gradientUnits="userSpaceOnUse">
<stop stop-color="#543A14"/>
<stop offset="1" stop-color="#301F07"/>
</linearGradient>
<clipPath id="clip0_126_851">
<rect width="448" height="538" rx="30" fill="white"/>
</clipPath>
</defs>
</svg>
