<svg width="309" height="482" viewBox="0 0 309 482" fill="none" xmlns="http://www.w3.org/2000/svg">
<path d="M258.228 256.908C258.228 256.908 270.099 261.365 270.448 293.26C270.797 325.155 275.397 441.934 275.397 441.934C275.397 441.934 286.015 464.731 281.415 469.68C276.814 474.63 270.386 485.269 270.386 485.269L273.303 486.501L272.337 505.704C272.337 505.704 261.226 515.706 249.396 513.713L240.278 403.877L238.08 264.261L258.207 256.908H258.228Z" fill="url(#paint0_linear_126_1293)"/>
<path d="M252.615 443.839V388.387L246.454 395.575L250.562 450.001L252.615 443.839Z" fill="#E7B983"/>
<path d="M247.48 397.629L258.776 380.172" stroke="#E7B983" stroke-width="2.05378"/>
<path d="M253.643 389.414L248.508 396.602L243.374 398.656V362.715L244.401 323.693L253.643 389.414Z" fill="#E7B983"/>
<path d="M275.208 440.759V452.055" stroke="#E7B983" stroke-width="2.05378"/>
<path d="M116.766 237.336C116.766 237.336 80.9068 245.51 57.165 264.98C57.165 264.98 75.1767 316.263 74.2731 329.017L66.9821 378.821L83.6577 501.471C84.2113 505.542 87.6885 508.579 91.7979 508.579H91.874L96.2075 525.256C96.2075 525.256 150.551 531.581 188.238 526.591L225.925 520.594L262.256 488.39V481.038C262.256 481.038 251.391 458.98 251.063 436.286C250.734 413.591 245.312 347.747 245.312 347.747L257.491 295.026L258.231 256.908L244.593 240.129L220.359 237.644L212.39 235.282L189.326 233.741L116.786 237.336H116.766Z" fill="url(#paint1_linear_126_1293)"/>
<path d="M172.52 218.95H179.708V223.057H172.52V218.95Z" fill="#C6A175"/>
<path d="M176.626 508.533H91.8721L96.5282 525.99L176.626 530.098L226.944 521.883L262.885 489.022V481.834L257.75 469.511L221.809 500.318L176.626 508.533Z" fill="#E17463"/>
<path d="M136.584 222.03L141.718 205.6L144.799 198.412L177.66 211.761L183.821 246.676L150.96 242.568L136.584 222.03Z" fill="url(#paint2_linear_126_1293)"/>
<path d="M165.339 237.434L157.124 229.219L148.909 240.515L165.339 237.434Z" fill="#C6A175"/>
<path d="M170.473 238.461L173.553 232.299L181.768 228.192L183.822 239.487L170.473 238.461Z" fill="#C6A175"/>
<path d="M67.8858 372.619L92.5312 314.086C92.5312 314.086 84.7884 266.951 67.8858 257.36L57.165 264.98C57.165 264.98 76.1626 316.181 74.2731 329.017L67.8858 372.639V372.619Z" fill="url(#paint3_linear_126_1293)"/>
<path d="M245.291 347.727V260.03L231.366 238.774L244.593 240.129L258.23 256.909L257.49 295.006L245.291 347.727Z" fill="#E17463"/>
<path d="M118.553 372.619C118.553 372.619 127.035 369.23 129.705 350.848C132.375 332.467 132.375 334.336 136.626 333.535C140.877 332.734 147.552 343.66 145.95 358.037L158.572 355.064C162.689 354.095 167.065 355.728 168.745 359.61C170.111 362.768 171.212 366.604 170.452 369.764C170.452 369.764 180.043 392.931 173.389 399.605C166.734 406.28 125.967 412.4 125.967 412.4L115.308 372.947L118.553 372.639V372.619Z" fill="url(#paint4_linear_126_1293)"/>
<path d="M136.577 360.661L147.873 357.58" stroke="#DC7F5F" stroke-width="2.05378"/>
<path d="M233.177 334.41V336.469H229.264C229.148 336.469 229.032 336.464 228.921 336.46C228.389 336.428 227.881 336.326 227.395 336.159C227.224 336.099 227.053 336.034 226.887 335.96C226.864 335.946 226.836 335.937 226.813 335.923C225.596 335.354 224.615 334.378 224.038 333.166C224.024 333.134 224.01 333.102 223.996 333.065C223.917 332.903 223.853 332.731 223.793 332.556C223.63 332.085 223.529 331.585 223.496 331.067C223.487 330.942 223.482 330.817 223.482 330.688V326.774H225.439C226.081 326.774 226.646 327.084 227.007 327.555C227.252 327.884 227.395 328.291 227.395 328.73V332.555H231.221C231.669 332.555 232.085 332.708 232.418 332.963C232.853 333.3 233.145 333.823 233.177 334.41Z" fill="#DCCEA5"/>
<path d="M227.396 342.25V338.605L227.396 338.604C227.396 338.198 227.134 337.842 226.747 337.717C224.607 337.024 222.914 335.338 222.217 333.202C222.091 332.817 221.735 332.555 221.33 332.555H217.701V334.511C217.701 335.15 218.011 335.718 218.488 336.079C218.811 336.324 219.218 336.468 219.658 336.468H220.735L219.41 337.771C218.468 338.698 218.461 340.214 219.394 341.15L220.49 342.249L221.619 341.121L223.483 339.252V340.293C223.483 340.742 223.635 341.158 223.894 341.487C224.251 341.95 224.81 342.25 225.439 342.25H227.396Z" fill="#DCCEA5"/>
<path d="M243.375 497.238L241.321 483.888L249.536 476.7L250.563 490.049L254.671 496.211L247.483 502.372L243.375 497.238Z" fill="#9F4233" fill-opacity="0.47"/>
<path d="M177.652 515.721L93.4464 512.641L91.3926 508.533H175.598L221.808 499.291L257.749 469.511L259.803 476.699L222.835 505.452L177.652 515.721Z" fill="#9F4233" fill-opacity="0.47"/>
<path d="M71.8828 261.052L58.5332 268.24L61.6139 277.483L78.0442 268.24C76.2844 265.155 75.1804 263.479 71.8828 261.052Z" fill="#9F4233" fill-opacity="0.4"/>
<path d="M84.2057 282.617L65.7217 289.805L68.8024 298.02L87.2864 291.859L84.2057 282.617Z" fill="#9F4233" fill-opacity="0.4"/>
<path d="M91.3932 309.316L72.9092 315.477L74.963 326.773L89.3395 321.639L92.4201 313.423L91.3932 309.316Z" fill="#9F4233" fill-opacity="0.4"/>
<path d="M248.509 244.622H235.159L241.321 252.837H254.67L248.509 244.622Z" fill="#C25D4C"/>
<path d="M257.751 256.945L245.429 260.026V269.268L257.751 264.133V256.945Z" fill="#C25D4C"/>
<path d="M257.751 272.348L245.429 276.456V285.698L257.751 280.563V272.348Z" fill="#C25D4C"/>
<path d="M257.751 289.805L245.429 294.94V308.289L255.698 303.155L257.751 294.94V289.805Z" fill="#C25D4C"/>
<path d="M252.617 315.478L245.429 318.558V331.908L249.536 329.854L252.617 315.478Z" fill="#C25D4C"/>
<path d="M150.954 240.514L124.255 249.756L122.201 252.837L167.384 309.316L194.084 316.504L196.137 275.429L200.245 240.514L191.003 238.46L167.384 243.595L150.954 240.514Z" fill="url(#paint5_linear_126_1293)"/>
<path d="M156.467 235.281L175.998 236.185L183.043 246.926L178.956 259.105L169.098 260.03L156.467 244.133V235.281Z" fill="#803E3C"/>
<path d="M169.095 260.03L166.631 311.169L191.276 329.489L193.001 303.324L178.954 259.106" fill="url(#paint6_linear_126_1293)"/>
<path d="M169.438 260.025L178.68 258.998" stroke="#53211F" stroke-width="2.05378"/>
<path d="M160.196 263.106L159.169 247.703L156.088 243.595L147.873 235.38L136.577 247.703L128.362 251.81L139.658 263.106C151.159 265.571 158.142 264.133 160.196 263.106Z" fill="#E7B983"/>
<path d="M181.757 249.756L182.784 246.676L178.677 236.407L188.946 252.837L187.919 263.106L180.731 253.864L181.757 249.756Z" fill="#E7B983"/>
<path d="M158.143 235.38L159.17 247.703L155.062 242.568V235.38H158.143Z" fill="#5F211F"/>
<path d="M173.546 236.407H176.627L183.815 243.595L180.734 252.837L173.546 236.407Z" fill="#5F211F"/>
<path d="M112.678 242.943C112.678 242.943 126.171 224.869 129.149 218.462L138.987 214.642L136.296 221.768L156.485 228.094V260.01C156.485 260.01 131.08 258.634 112.678 242.922V242.943Z" fill="#FFE1BE"/>
<path d="M172.518 260.026L171.491 267.214" stroke="#53211F" stroke-width="2.05378"/>
<path d="M175.599 260.026L176.626 262.079" stroke="#53211F" stroke-width="2.05378"/>
<path d="M57.1652 264.98C57.1652 264.98 47.7999 276.81 41.8439 289.605C36.3809 301.352 9.08605 374.323 0.542302 404.535C-0.792658 409.238 0.377999 414.27 3.60244 417.946C6.27236 420.985 9.7638 424.148 13.3168 425.155L17.0958 431.829C19.355 435.814 23.4625 438.402 28.0425 438.689C37.9417 439.326 55.0908 440.579 60.862 441.811C69.1798 443.598 100.089 429.036 100.089 429.036L128.616 419.815C128.616 419.815 125.638 378.205 116.129 369.579C116.129 369.579 108.099 368.696 95.9201 378.801C95.9201 378.801 80.8042 374.447 66.9617 378.842L73.616 333.392C74.458 327.661 73.9446 321.89 72.9177 316.201C70.4942 302.872 63.9632 283.628 57.1446 265.001L57.1652 264.98Z" fill="#FFE1BE"/>
<path d="M95.9404 378.76L100.11 428.995" stroke="#E7B983" stroke-width="2.05378" stroke-miterlimit="10"/>
<path d="M170.465 369.903L148.9 372.984" stroke="#DC7F5F" stroke-width="2.05378"/>
<path d="M173.545 381.199L151.98 385.306" stroke="#DC7F5F" stroke-width="2.05378"/>
<path d="M175.597 390.441L157.113 395.575" stroke="#DC7F5F" stroke-width="2.05378"/>
<path d="M42.1045 393.521C46.2121 389.414 57.0971 380.582 67.7768 378.118" stroke="#E7B983" stroke-width="2.05378"/>
<path d="M11.2959 418.167L17.4573 432.543" stroke="#E7B983" stroke-width="2.05378"/>
<path d="M68.8011 366.822L47.2363 388.387C54.9033 383.108 59.1926 380.39 66.7473 378.118L68.8011 366.822Z" fill="#E7B983"/>
<path d="M136.578 222.03L139.659 212.788L129.39 217.923L125.282 225.111C130.211 237.434 147.874 245.991 156.089 248.73L157.116 228.192L136.578 222.03Z" fill="#F3CFA4"/>
<path d="M178.68 231.272L140.685 209.708L143.765 200.466L177.653 213.815L179.706 222.03L178.68 231.272Z" fill="#DE8365" fill-opacity="0.37"/>
<path d="M99.1649 123.967L90.6211 127.191C86.9243 128.588 85.1375 132.777 86.6779 136.413L96.7004 159.99C98.4255 164.036 102.389 166.644 106.784 166.644H118.532L123.153 186.299C124.468 191.926 127.877 196.876 132.724 200.018C145.519 208.316 174.087 222.22 216.97 217.414C233.811 215.524 248.598 205.214 256.341 190.14C265.83 171.656 277.516 143.95 279.836 116.08L140.651 53.2549L99.1854 123.946L99.1649 123.967Z" fill="url(#paint7_linear_126_1293)"/>
<path d="M95.9199 135.283L109.865 133.538L115.102 154.959L105.511 156.211V138.343" fill="#DC7F5F"/>
<path d="M167.822 104.374L198.814 97.5552L202.798 111.418L167.822 108.584V104.374Z" fill="#543A14"/>
<path d="M236.377 116.08L243.647 102.258L270.182 122.673L269.012 127.849L236.377 116.08Z" fill="#543A14"/>
<path d="M199.535 141.28C184.569 130.014 163.233 133.801 147.225 142.533V147.257L192.552 160.463C192.552 160.463 200.52 155.739 199.535 141.28Z" fill="#FDFCFC"/>
<path d="M228.163 140.541C236.866 140.541 245.802 142.087 252.301 147.874C254.854 150.147 257.383 152.934 259.298 156.211L258.292 161.962L225.411 160.463C225.411 160.463 221.18 148.263 228.143 140.541H228.163Z" fill="#FDFCFC"/>
<path d="M225.534 165.597L227.958 169.315C229.19 171.204 228.8 173.73 227.075 175.188L224.179 177.591" stroke="#DC7F5F" stroke-width="2.05378" stroke-miterlimit="10"/>
<path d="M207.768 189.421C201.709 186.936 185.751 180.138 175.256 172.909C174.353 172.272 173.1 172.847 172.936 173.936C172.011 180.631 172.545 198.951 207.172 193.96C207.911 193.857 208.569 193.385 208.938 192.728C209.616 191.475 209.082 189.935 207.768 189.401V189.421Z" fill="white"/>
<path d="M157.882 137.973L155.972 149.803L175.503 155.492L180.822 134.687C180.729 134.143 170.805 132.951 157.882 137.994V137.973Z" fill="#543A14"/>
<path d="M247.304 143.991L244.347 161.325L225.452 160.463C225.452 160.463 221.016 148.119 228.184 140.541C236.348 140.428 240.55 141.151 247.304 143.991Z" fill="#543A14"/>
<path d="M143.816 62.2302C155.81 99.7529 129.604 117.744 129.604 117.744C128.515 128.567 125.701 137.501 123.668 142.821C123.032 144.505 120.567 144.299 120.197 142.533L117.527 129.779C116.459 124.706 111.51 121.461 106.437 122.488L99.1666 123.967L97.8316 121.297C66.039 43.8489 123.114 21.4215 123.114 21.4215C118.636 13.268 127.591 3.492 127.591 3.492C127.591 10.4133 133.711 18.1766 133.711 18.1766C133.711 18.1766 160.616 -20.1471 236.442 14.5003C312.267 49.1476 285.773 121.297 285.773 121.297C247.039 116.409 226.666 100.513 226.666 100.513L229.52 116.101C173.514 104.23 143.836 62.2302 143.836 62.2302" fill="url(#paint8_linear_126_1293)"/>
<path d="M179.707 218.95L193.003 235.159L189.593 256.908L173.081 231.749L178.072 222.055L179.707 218.95Z" fill="#F3CFA4"/>
<path d="M179.675 335.897H199.576L212.371 235.282L188.95 230.246L184.337 309.957L116.767 237.336L92.9023 244.996L179.675 335.897Z" fill="#E17463"/>
<path d="M124.257 245.649L101.665 254.891L112.961 266.187L132.472 254.891L124.257 245.649Z" fill="#C25D4C"/>
<path d="M144.795 267.214L126.311 279.536L136.579 290.832L151.983 275.429L144.795 267.214Z" fill="#C25D4C"/>
<path d="M164.305 288.779L148.901 304.182L159.17 314.451L171.493 295.967L164.305 288.779Z" fill="#C25D4C"/>
<path d="M169.438 324.72L178.68 304.182L184.841 310.343L178.68 334.989L169.438 324.72Z" fill="#C25D4C"/>
<path d="M208.458 265.16L187.92 255.918L186.894 267.214L207.431 277.483L208.458 265.16Z" fill="#C25D4C"/>
<path d="M205.38 288.779L186.896 275.429L185.869 284.671L204.353 302.128L205.38 288.779Z" fill="#C25D4C"/>
<path d="M202.299 314.451L184.842 296.994V310.343L199.218 336.016L202.299 314.451Z" fill="#C25D4C"/>
<path d="M211.54 243.595L188.949 237.434L187.922 248.73L209.487 255.918L211.54 243.595Z" fill="#C25D4C"/>
<path d="M187.922 245.649L173.546 230.246L179.707 218.95L188.949 230.246L187.922 245.649Z" fill="#E7B983" fill-opacity="0.57"/>
<path d="M193.554 250.384L187.923 247.703L188.95 230.246L213.595 235.38L219.757 237.434L232.079 238.461L236.187 247.703L225.959 251.636C215.443 255.681 203.727 255.228 193.554 250.384Z" fill="#393333" fill-opacity="0.21"/>
<path d="M118.094 162.471L120.148 171.713" stroke="#DC7F5F" stroke-width="2.05378"/>
<path d="M204.899 190.962C188.146 189.243 176.44 179.506 172.681 174.853C172.681 178.719 172.681 179.686 173.218 180.76C187.179 190.962 197.382 190.962 204.899 190.962Z" fill="#D7DBE1"/>
<defs>
<linearGradient id="paint0_linear_126_1293" x1="294.716" y1="327.8" x2="63.6648" y2="473.619" gradientUnits="userSpaceOnUse">
<stop stop-color="#FFE1BE"/>
<stop offset="1" stop-color="#DAA362"/>
</linearGradient>
<linearGradient id="paint1_linear_126_1293" x1="159.711" y1="233.741" x2="159.711" y2="528.509" gradientUnits="userSpaceOnUse">
<stop stop-color="#803E3C"/>
<stop offset="1" stop-color="#642A28"/>
</linearGradient>
<linearGradient id="paint2_linear_126_1293" x1="162.248" y1="201.493" x2="143.293" y2="222.714" gradientUnits="userSpaceOnUse">
<stop stop-color="#FF9673"/>
<stop offset="1" stop-color="#FFB38E"/>
</linearGradient>
<linearGradient id="paint3_linear_126_1293" x1="74.8481" y1="257.36" x2="74.8481" y2="372.639" gradientUnits="userSpaceOnUse">
<stop stop-color="#E17463"/>
<stop offset="1" stop-color="#B54938"/>
</linearGradient>
<linearGradient id="paint4_linear_126_1293" x1="121.173" y1="413.032" x2="151.002" y2="385.229" gradientUnits="userSpaceOnUse">
<stop stop-color="#FF9673"/>
<stop offset="1" stop-color="#FFB38E"/>
</linearGradient>
<linearGradient id="paint5_linear_126_1293" x1="161.223" y1="238.46" x2="161.223" y2="316.504" gradientUnits="userSpaceOnUse">
<stop stop-color="#FFE1BE"/>
<stop offset="1" stop-color="#DAA362"/>
</linearGradient>
<linearGradient id="paint6_linear_126_1293" x1="179.816" y1="259.106" x2="179.816" y2="329.489" gradientUnits="userSpaceOnUse">
<stop stop-color="#803E3C"/>
<stop offset="1" stop-color="#3D1210"/>
</linearGradient>
<linearGradient id="paint7_linear_126_1293" x1="203.325" y1="66.9695" x2="164.39" y2="166.024" gradientUnits="userSpaceOnUse">
<stop stop-color="#FF9673"/>
<stop offset="1" stop-color="#FFB38E"/>
</linearGradient>
<linearGradient id="paint8_linear_126_1293" x1="189.234" y1="1.32268e-06" x2="154.975" y2="102.894" gradientUnits="userSpaceOnUse">
<stop stop-color="#543A14"/>
<stop offset="1" stop-color="#301F07"/>
</linearGradient>
</defs>
</svg>
