<svg width="448" height="538" viewBox="0 0 448 538" fill="none" xmlns="http://www.w3.org/2000/svg">
<g clip-path="url(#clip0_126_438)">
<rect width="448" height="538" rx="30" fill="white"/>
<path d="M254.129 267.628L268.505 272.762L264.398 275.843L254.129 276.87V267.628Z" fill="#D28568"/>
<path d="M197.245 258.735L199.34 292.088L236.021 323.368L267.382 312.113L256.456 276.254L257.709 258.735H197.245Z" fill="url(#paint0_linear_126_438)"/>
<path d="M171.738 565.037L138.199 749.796L93.3447 936.751C93.3447 936.751 102.299 953.654 108.707 954.722C118.578 960.781 142.882 945.973 142.882 945.973L205.276 949.156L248.96 716.114L311.909 935.109C311.909 935.109 344.494 960.781 396.196 932.562C396.196 932.562 338.731 669.842 316.386 543.739L275.7 518.519L180.384 533.203L171.738 565.058V565.037Z" fill="url(#paint1_linear_126_438)"/>
<path d="M170.188 533.922L163.76 568.569C163.76 568.569 231.35 580.05 244.186 570.931L260.739 535.791C260.739 535.791 269.18 562.49 277.971 569.247L322.23 547.949L318.841 521.271L170.147 533.922H170.188Z" fill="url(#paint2_linear_126_438)"/>
<path d="M222.788 291.226L227.409 311.25L243.408 320.39L250.699 310.572L255.669 286.276L273.127 295.477L293.623 297.551C293.623 297.551 312.333 284.304 318.741 289.932C318.741 289.932 329.031 312.051 327.264 338.032C327.264 338.032 320.857 492.64 325.128 534.23C325.128 534.23 224.904 571.547 167.316 544.889L160.908 510.775L168.363 377.485C168.363 377.485 168.363 338.566 141.171 301.248C141.171 301.248 165.139 292.581 183.54 301.454L213.444 285.085L222.768 291.226H222.788Z" fill="#A45B3F"/>
<mask id="mask0_126_438" style="mask-type:alpha" maskUnits="userSpaceOnUse" x="141" y="285" width="187" height="270">
<path d="M222.788 291.226L227.409 311.25L243.408 320.39L250.699 310.573L255.669 286.276L273.127 295.477L293.623 297.552C293.623 297.552 312.333 284.305 318.741 289.932C318.741 289.932 329.031 312.051 327.264 338.032C327.264 338.032 320.857 492.641 325.128 534.23C325.128 534.23 224.904 571.547 167.316 544.889L160.908 510.776L168.363 377.485C168.363 377.485 168.363 338.566 141.171 301.248C141.171 301.248 165.139 292.582 183.54 301.454L213.444 285.085L222.768 291.226H222.788Z" fill="#889E73"/>
</mask>
<g mask="url(#mask0_126_438)">
<rect x="127.029" y="75.7039" width="33.1473" height="430.915" transform="rotate(-30 127.029 75.7039)" fill="white" fill-opacity="0.12"/>
<rect x="127.029" y="245.124" width="33.1473" height="430.915" transform="rotate(-30 127.029 245.124)" fill="white" fill-opacity="0.12"/>
<rect x="127.029" y="414.543" width="33.1473" height="430.915" transform="rotate(-30 127.029 414.543)" fill="white" fill-opacity="0.12"/>
<rect width="33.1473" height="430.915" transform="matrix(-0.866025 -0.5 -0.5 0.866025 370.112 75.7039)" fill="white" fill-opacity="0.12"/>
<rect width="33.1473" height="430.915" transform="matrix(-0.866025 -0.5 -0.5 0.866025 370.112 245.124)" fill="white" fill-opacity="0.12"/>
<rect width="33.1473" height="430.915" transform="matrix(-0.866025 -0.5 -0.5 0.866025 370.112 414.543)" fill="white" fill-opacity="0.12"/>
</g>
<path d="M195.596 445.28V386.747L317.796 445.28L323.957 503.813C300.339 517.163 241.806 521.27 221.268 512.028L202.784 507.921L190.461 512.028L166.843 539.754L159.654 503.813L202.776 482.63C198.711 469.379 196.442 454.76 195.596 445.28Z" fill="#5E230C" fill-opacity="0.37"/>
<path d="M132.923 184.449L134.689 211.867C134.895 215.009 137.051 217.679 140.07 218.542L160.998 224.477L163.894 251.074C164.284 254.586 166.79 257.481 170.199 258.365C184.519 262.022 218.006 269.864 276.014 266.423C284.01 265.949 291.931 264.65 299.727 262.811L307.084 261.076C310.349 259.515 312.588 256.352 312.978 252.758L316.182 222.855C318.318 202.912 318.79 182.847 317.599 162.822L315.053 119.857L226.165 91.6178L150.914 106.241L136.037 185.476L132.923 184.449Z" fill="url(#paint3_linear_126_438)"/>
<path d="M161.038 193.26L133.62 188.578V194.924C133.62 194.924 118.895 191.248 105.853 166.499C105.853 166.499 87.8005 169.518 96.8166 154.115L98.4801 145.756C98.4801 145.756 87.4513 145.428 74.3892 139.061C74.3892 139.061 65.7017 124.684 74.3892 94.5758L58 91.5567C58 91.5567 66.0303 93.5694 69.0288 76.1739C72.0273 58.7783 89.0943 74.5103 89.0943 74.5103C89.0943 74.5103 100.801 52.1035 112.507 50.0908C124.214 48.0781 140.932 80.1993 140.932 80.1993L145.943 72.8468L136.578 52.7814L154.631 73.1754L151.283 81.2057C151.283 81.2057 160.977 82.5407 172.683 74.8596C172.683 74.8596 171.78 65.9872 183.938 67.507V60.257C183.938 60.257 193.735 74.0996 199.978 74.5926C206.222 75.0855 227.93 63.9744 269.211 73.504C310.492 83.0335 314.99 119.817 314.99 119.817C314.99 119.817 254.383 104.722 207.536 122.466L182.131 119.036L181.063 149.206C177.571 161.365 171.04 170.299 161.203 175.68L160.956 193.26H161.038Z" fill="url(#paint4_linear_126_438)"/>
<path d="M132.246 182.355L192.545 184.532V194.944L161.04 193.281L136.119 189.025C134.833 188.805 133.67 189.826 133.721 191.13L134.258 204.741L133.642 204.597C130.5 203.858 128.2 201.167 127.974 197.943L127.214 187.633C127.008 184.716 129.35 182.272 132.266 182.375L132.246 182.355Z" fill="#43321A"/>
<path d="M250.195 177.076L270.98 175.68L284.596 178.411L284.432 178.576C282.255 180.855 280.92 183.813 280.673 186.935L270.364 185.127L254.18 186.935L254.097 185.99C253.81 182.663 252.434 179.52 250.175 177.076H250.195Z" fill="#43321A"/>
<path d="M246.313 222.055L262.374 226.368L281.947 221.788C283.959 221.315 286.075 221.541 287.923 222.466C292.236 224.684 293.9 228.216 292.77 233.104C292.483 234.337 291.949 235.487 291.127 236.452C285.479 243.024 276.278 247.296 263.237 249.062C253.091 249.206 244.013 245.92 237.215 240.046C234.669 237.848 233.395 234.439 234.073 231.153C234.71 228.031 236.168 225.403 238.776 223.431C240.912 221.808 243.726 221.336 246.313 222.034V222.055Z" fill="white"/>
<path d="M107.024 316.117C113.575 301.433 140.706 301.063 140.706 301.063H140.726C177.333 338.491 171.341 414.172 163.77 447.334L179.317 496.132L180.905 501.406C182.142 505.512 180.005 509.892 175.982 511.377C137.056 525.752 115.573 527.207 109.098 523.775C102.238 520.14 107.024 489.559 107.024 489.559C79.852 430.698 100.472 330.802 107.024 316.117Z" fill="url(#paint5_linear_126_438)"/>
<path d="M318.236 289.768C318.236 289.768 335.18 286.687 349.454 303.939C363.728 321.191 383.3 414.803 378.001 434.375C372.703 453.948 307.639 464.915 307.639 464.915L318.236 289.768Z" fill="url(#paint6_linear_126_438)"/>
<path d="M247.204 162.545C249.017 162.557 250.073 160.828 249.897 159.024L249.068 150.529C248.973 149.556 248.528 148.645 247.676 148.167C245.125 146.736 238.428 144.376 225.551 148.274C222.31 149.255 222.045 153.451 225.072 154.969C231.666 158.276 241.251 162.506 247.204 162.545Z" fill="#543A14"/>
<path d="M278.602 161.029C276.571 161.142 274.883 159.583 274.638 157.564L274.048 152.689C273.854 151.082 274.629 149.524 276.153 148.982C279.718 147.715 287.115 146.1 297.7 148.906C300.973 149.773 301.279 154.002 298.234 155.481C291.966 158.525 285.6 160.638 278.602 161.029Z" fill="#543A14"/>
<path d="M274.594 202.071L281.453 209.691L275.929 216.756" stroke="#DC7F5F" stroke-width="2.05378" stroke-miterlimit="10"/>
<path d="M286.608 192.315L306.037 186.955L307.639 190.529L287.594 193.897L286.608 192.315Z" fill="#543A14"/>
<path d="M143.227 196.772L155.139 202.502L156.207 215.462L147.704 213.757C147.704 213.757 143.145 209.505 147.704 203.755" fill="#DC7F5F"/>
<path d="M213.71 184.159C209.097 185.406 206.653 190.421 208.355 194.886L212.552 205.895C212.552 205.895 224.484 202.687 235.5 207.041C235.5 207.041 239.854 199.462 240.312 188.676C237.573 179.289 226.428 180.721 213.71 184.159Z" fill="url(#paint7_linear_126_438)"/>
<path fill-rule="evenodd" clip-rule="evenodd" d="M233.985 206.49C234.145 206.122 234.253 205.724 234.3 205.304L235.797 191.827C236.068 189.394 234.163 187.266 231.715 187.266H220.473C218.011 187.266 216.102 189.418 216.395 191.863L217.908 204.474C217.929 204.648 217.961 204.82 218.003 204.987C222.144 204.57 228.111 204.535 233.985 206.49Z" fill="#543A14"/>
<path d="M246.396 173.729C244.753 172.394 242.987 171.1 241.077 169.785C221.012 167.793 205.526 173.934 192.526 184.511L190.328 191.535L206.533 219.692C221.279 222.013 232.657 221.993 246.458 217.043C251.531 209.095 254.057 200.223 254.221 190.57C254.345 184.039 251.449 177.816 246.376 173.708L246.396 173.729Z" fill="#FEF1DC" fill-opacity="0.5" stroke="#43321A" stroke-width="6.16135" stroke-miterlimit="10"/>
<path d="M286.794 176.563C287.8 175.782 288.848 175.002 289.977 174.242C304.19 172.825 315.177 177.179 324.378 184.675L325.939 189.645L314.458 209.588C304.005 211.231 295.954 211.21 286.157 207.719C282.686 202.297 280.9 196.259 280.674 189.707C280.489 184.593 282.748 179.726 286.794 176.563Z" fill="#FEF1DC" fill-opacity="0.5" stroke="#43321A" stroke-width="6.16135" stroke-miterlimit="10"/>
<path d="M164.79 441.173C145.074 439.529 134.668 451.441 131.93 457.603C144.252 444.459 158.287 444.595 163.763 446.307L164.79 441.173Z" fill="#D28568"/>
<path d="M163.77 446.307C158.293 444.938 144.259 445.28 131.937 457.603" stroke="#D28568" stroke-width="2.05378"/>
<path d="M161.708 509.974C140.349 496.009 143.224 480.879 147.332 475.06L181.219 502.786C179.576 506.072 170.95 508.263 166.842 508.948L160.681 514.082L161.708 509.974Z" fill="#D28568"/>
<path d="M155.563 458.682L190.079 451.442L196.433 492.519C197.114 496.922 194.16 501.066 189.776 501.859L161.921 506.894C144.761 493.606 140.45 477.954 155.563 458.682Z" fill="#F4D794"/>
<path d="M197.649 306.649L227.429 311.784L223.322 291.246L212.026 284.058L197.649 306.649Z" fill="#6B2F19" fill-opacity="0.5"/>
<path d="M183.077 301.269L194.927 270.421H197.988L198.296 275.227L222.304 291.061L212.549 320.225C200.37 316.138 190.43 309.936 183.098 301.269H183.077Z" fill="#F4D794"/>
<path d="M267.481 296.381L252.077 306.65L261.319 280.977L267.481 296.381Z" fill="#6B2F19" fill-opacity="0.5"/>
<path d="M271.595 312.811L274.676 295.354L268.514 272.762L257.219 268.655V271.735L253.111 289.193L245.923 315.892L250.03 310.757L258.246 289.193L262.353 291.246L271.595 312.811Z" fill="#F4D794"/>
<path d="M272.612 287.139L262.343 292.273V291.246L258.236 289.193L251.048 307.677V310.757L245.913 315.892L257.209 271.735V268.655L268.505 272.762L272.612 287.139Z" fill="#D28568" fill-opacity="0.63"/>
<path d="M198.677 274.816L223.322 291.246L215.107 313.838L189.435 284.058L194.569 269.682H198.677V274.816Z" fill="#D28568" fill-opacity="0.63"/>
<path d="M236.673 231.687C234.208 234.151 239.411 240.929 240.78 242.982C226.403 233.74 237.699 221.418 241.807 222.445C240.159 222.816 237.699 225.525 237.7 227.579C248.38 239.08 274.668 238.083 291.098 230.66C267.479 247.09 241.807 236.137 236.673 231.687Z" fill="#D7DBE1"/>
<path d="M141.169 79.7063C107.486 96.1366 98.3814 131.051 98.0391 146.454C98.7237 152.273 101.325 164.528 106.254 166.992C103.858 146.797 109.54 101.476 151.437 81.7601C150.068 80.3909 146.098 78.0633 141.169 79.7063Z" fill="#F4D394"/>
<path d="M186.354 203.96V208.068C186.354 209.769 184.974 211.149 183.273 211.149C181.572 211.149 180.192 209.769 180.192 208.068V203.96C180.192 202.259 181.572 200.88 183.273 200.88C184.974 200.88 186.354 202.259 186.354 203.96Z" fill="#43321A"/>
<path d="M188.409 195.745C188.409 200.226 185.659 202.934 183.274 202.934C180.889 202.934 178.14 200.226 178.14 195.745C178.14 191.265 180.889 188.557 183.274 188.557C185.659 188.557 188.409 191.265 188.409 195.745Z" stroke="#43321A" stroke-width="4.10757"/>
<path d="M186.353 305.623H187.893V305.598L187.892 305.574L186.353 305.623ZM177.111 302.542L178.303 301.567L178.294 301.556L177.111 302.542ZM166.54 295.897C165.706 296.064 165.165 296.876 165.331 297.71C165.498 298.544 166.31 299.085 167.144 298.918L166.54 295.897ZM181.733 208.117L184.813 305.671L187.892 305.574L184.812 208.019L181.733 208.117ZM184.812 305.623C184.812 306.174 184.714 306.608 184.587 306.847C184.5 307.011 184.494 306.958 184.485 306.958C184.308 306.96 183.726 306.85 182.609 305.997C181.528 305.172 180.113 303.778 178.303 301.567L175.919 303.518C177.806 305.824 179.394 307.418 180.739 308.445C182.048 309.445 183.314 310.053 184.523 310.038C185.901 310.021 186.819 309.215 187.31 308.288C187.761 307.436 187.893 306.441 187.893 305.623H184.812ZM178.294 301.556C177.35 300.423 175.686 298.815 173.681 297.584C171.705 296.371 169.152 295.375 166.54 295.897L167.144 298.918C168.639 298.619 170.365 299.163 172.069 300.209C173.743 301.237 175.16 302.608 175.927 303.528L178.294 301.556Z" fill="#543A14"/>
<path d="M291.098 300.489H289.557V300.641L289.587 300.791L291.098 300.489ZM283.909 298.435L284.924 297.276L284.88 297.237L284.834 297.203L283.909 298.435ZM277.748 293.814C276.897 293.814 276.208 294.503 276.208 295.354C276.208 296.205 276.897 296.895 277.748 296.895V293.814ZM289.557 263.521V300.489H292.638V263.521H289.557ZM289.587 300.791C289.646 301.086 289.594 301.169 289.627 301.092C289.657 301.023 289.732 300.902 289.878 300.808C290.022 300.717 290.127 300.72 290.109 300.72C290.011 300.719 289.572 300.649 288.637 300.096C287.74 299.567 286.528 298.679 284.924 297.276L282.895 299.594C284.577 301.066 285.949 302.086 287.07 302.749C288.152 303.388 289.164 303.793 290.083 303.8C290.575 303.804 291.082 303.695 291.535 303.406C291.991 303.115 292.285 302.711 292.459 302.305C292.781 301.554 292.72 300.747 292.608 300.187L289.587 300.791ZM284.834 297.203C284.104 296.655 282.914 295.844 281.675 295.161C281.056 294.819 280.397 294.494 279.76 294.252C279.148 294.019 278.437 293.814 277.748 293.814V296.895C277.881 296.895 278.179 296.946 278.663 297.131C279.121 297.305 279.643 297.558 280.188 297.858C281.277 298.459 282.346 299.188 282.985 299.667L284.834 297.203Z" fill="#543A14"/>
<path d="M171.978 325.134L141.171 301.515C160.887 294.943 177.454 298.777 183.273 301.515L194.569 269.682H197.65V262.493L257.21 267.628V268.655L268.506 272.762L274.667 295.354L294.178 297.408C308.144 286.728 316.427 288.166 318.823 290.22C322.109 289.398 325.669 289.877 327.038 290.22C322.109 290.22 318.823 297.75 317.796 301.515C307.938 303.98 301.366 316.234 299.312 322.053L221.269 330.268L171.978 325.134Z" fill="#3D1305" fill-opacity="0.14"/>
<path d="M224.87 350.56L221.419 337.867C219.899 332.24 222.754 326.345 228.094 324.004C248.139 315.317 268.122 311.702 288.023 315.091C292.747 315.892 296.506 319.486 297.532 324.168L301.291 341.379L225.568 357.193L224.87 350.58V350.56Z" fill="url(#paint8_linear_126_438)"/>
<path d="M217.437 495.126C203.964 459.719 196.385 421.21 192.688 380.648V380.689C192.257 375.986 194.229 371.365 197.905 368.408C244.606 343.453 273.079 336.164 324.005 343.183C328.72 343.833 333.017 346.261 336.096 349.891C337.776 351.87 338.97 354.216 339.571 356.742C349.127 396.892 356.189 434.547 358.737 467.708C359.107 472.576 357.032 477.34 353.089 480.216C320.495 504.101 278.475 510.981 228.917 504.286C223.701 503.567 219.305 500.055 217.437 495.126Z" fill="url(#paint9_linear_126_438)"/>
<path d="M274.428 420.509C279.144 419.018 281.038 411.708 278.659 404.181C276.28 396.653 270.528 391.759 265.813 393.249C261.097 394.74 259.203 402.05 261.582 409.578C263.962 417.105 269.713 421.999 274.428 420.509Z" fill="#543A14"/>
<path d="M323.6 412.194C328.096 411.307 330.593 404.77 329.177 397.592C327.761 390.414 322.968 385.315 318.472 386.201C313.977 387.088 311.48 393.626 312.896 400.804C314.312 407.981 319.104 413.081 323.6 412.194Z" fill="#543A14"/>
<path d="M279.398 443.164C296.794 454.501 312.095 455.179 323.206 434.518" stroke="#543A14" stroke-width="8.21514" stroke-miterlimit="10"/>
<path d="M214.357 424.742L200.371 437.599C206.835 461.563 203.809 489.437 225.374 503.813L256.029 495.824C258.514 491.942 258.883 487.814 256.029 483.255L262.313 480.4V466.989L257.179 452.14L231.773 458.137L252.044 444.726C254.468 438.914 252.085 435.36 247.197 433.019L217.212 445.013L221.504 433.307C222.244 428.645 220.17 425.626 214.357 424.742Z" fill="#E59837"/>
<path d="M345.291 402.151L346.503 418.17L336.295 427.145C336.131 434.765 337.343 441.85 342.785 447.293L345.312 454.337L347.263 466.722C349.421 468.474 354.56 472.39 357.846 474.033C358.531 472.664 359.489 468.077 357.846 460.684C356.203 453.29 350.315 418.581 347.577 402.151H345.291Z" fill="#E59837"/>
<path d="M345.777 399.255L346.989 415.275L336.782 424.25C336.617 431.869 337.829 438.955 343.272 444.397L345.798 451.442L347.749 463.826C354.936 464.559 361.723 464.447 367.556 462.42C369.588 461.715 371.254 460.277 372.581 458.583C373.759 457.078 374.031 455.052 373.291 453.289L372.256 450.823C371.327 448.609 369.476 446.912 367.19 446.179L367.014 446.122L374.469 440.29C373.935 433.081 372.312 426.591 368.102 421.826L369.807 415.275C370.382 410.345 369.766 405.683 367.137 401.432L345.777 399.255Z" fill="url(#paint10_linear_126_438)"/>
<path d="M348.603 400.097L367.136 401.432C369.765 405.683 370.381 410.345 369.806 415.274L368.101 421.826C372.311 426.591 373.934 433.081 374.468 440.29" stroke="#DC7F5F" stroke-width="2.05378" stroke-miterlimit="10"/>
<path d="M197.3 435.545L211.287 422.688C217.099 423.572 219.173 426.591 218.434 431.253L214.141 442.959L244.127 430.965C249.015 433.306 251.397 436.86 248.974 442.672L228.703 456.083L254.108 450.086L259.242 464.935V478.346L252.958 481.201C255.813 485.76 255.443 489.888 252.958 493.77L213.279 498.329L203.01 493.77L188.348 495.865C185.57 496.261 182.735 495.246 181.103 492.963C173.611 482.484 172.239 471.028 181.884 457.802C183.119 456.109 185.047 455.074 187.127 454.812L188.449 454.645C188.449 446.129 188.217 440.58 197.3 435.545Z" fill="url(#paint11_linear_126_438)"/>
<path d="M258.236 463.764L230.51 468.899" stroke="#DC7F5F" stroke-width="2.05378"/>
<path d="M253.102 481.221L231.537 484.302" stroke="#DC7F5F" stroke-width="2.05378"/>
<path d="M368.113 421.662L339.36 439.119" stroke="#DC7F5F" stroke-width="2.05378"/>
<path d="M375.147 440.69C375.447 440.209 375.301 439.576 374.82 439.275C374.339 438.974 373.706 439.121 373.405 439.602L375.147 440.69ZM373.405 439.602C372.696 440.736 370.48 442.837 366.099 444.973C361.753 447.092 355.357 449.204 346.411 450.424L346.689 452.459C355.816 451.214 362.427 449.048 366.999 446.819C371.533 444.609 374.144 442.294 375.147 440.69L373.405 439.602Z" fill="#DC7F5F"/>
<path d="M346.55 415.5L359.899 404.205" stroke="#DC7F5F" stroke-width="2.05378"/>
<path d="M205.865 446.307L217.161 442.199" stroke="#DC7F5F" stroke-width="2.05378"/>
<path d="M210.531 426.486L207.755 429.725C206.735 430.915 204.918 430.985 203.811 429.877L210.999 422.688C211.621 423.933 211.437 425.429 210.531 426.486Z" fill="#FEF3DC"/>
<path d="M247.967 439.119L243.247 442.069C241.41 443.217 238.981 442.456 238.128 440.465C237.334 438.613 238.248 436.474 240.134 435.766L244.886 433.984L247.967 439.119Z" fill="#FFD4C2"/>
<path d="M251.906 491.912L246.348 492.217C244.185 492.335 242.426 490.497 242.64 488.341C242.839 486.336 244.672 484.903 246.665 485.195L251.687 485.928L251.906 491.912Z" fill="#FFD4C2"/>
<path d="M338.923 427.032L343.148 423.659C344.907 422.255 347.503 422.751 348.621 424.704C349.603 426.418 349.051 428.601 347.374 429.643L340.387 433.984L338.923 427.032Z" fill="#FFD4C2"/>
<path d="M349.63 454.522L355.292 453.814C356.838 453.621 358.349 454.376 359.123 455.728C360.417 457.988 359.149 460.855 356.607 461.418L350.659 462.737L349.63 454.522Z" fill="#FFD4C2"/>
<path d="M345.084 439.355L348.277 436.805C350.568 434.977 353.952 435.646 355.376 438.207C356.603 440.416 355.881 443.2 353.734 444.534L347.575 448.361L345.084 439.355Z" fill="#FFD4C2"/>
<path d="M255.017 460.447L250.347 462.149C247.955 463.021 245.328 461.674 244.639 459.224C243.928 456.692 245.596 454.109 248.197 453.717L251.975 453.147L255.017 460.447Z" fill="#FFD4C2"/>
<path d="M257.21 476.087L253.559 477C251.144 477.603 248.75 475.939 248.475 473.465C248.204 471.029 250.111 468.899 252.562 468.899H257.21V476.087Z" fill="#FFD4C2"/>
<path d="M161.71 226.552L160.683 215.256" stroke="#DC7F5F" stroke-width="2.05378"/>
</g>
<defs>
<linearGradient id="paint0_linear_126_438" x1="241.869" y1="247.238" x2="208.642" y2="292.827" gradientUnits="userSpaceOnUse">
<stop stop-color="#FF9673"/>
<stop offset="1" stop-color="#FFB38E"/>
</linearGradient>
<linearGradient id="paint1_linear_126_438" x1="243.859" y1="400.097" x2="244.77" y2="954.803" gradientUnits="userSpaceOnUse">
<stop stop-color="#A45B3F"/>
<stop offset="1" stop-color="#F0BB78"/>
</linearGradient>
<linearGradient id="paint2_linear_126_438" x1="242.995" y1="521.271" x2="242.995" y2="574.451" gradientUnits="userSpaceOnUse">
<stop stop-color="#D78D53"/>
<stop offset="1" stop-color="#F4D794"/>
</linearGradient>
<linearGradient id="paint3_linear_126_438" x1="250.828" y1="60.3711" x2="159.776" y2="181.829" gradientUnits="userSpaceOnUse">
<stop stop-color="#FF9673"/>
<stop offset="1" stop-color="#FFB38E"/>
</linearGradient>
<linearGradient id="paint4_linear_126_438" x1="168.896" y1="159.804" x2="181.189" y2="60.5548" gradientUnits="userSpaceOnUse">
<stop stop-color="#301F07"/>
<stop offset="1" stop-color="#543A14"/>
</linearGradient>
<linearGradient id="paint5_linear_126_438" x1="138.226" y1="301.063" x2="138.226" y2="525.333" gradientUnits="userSpaceOnUse">
<stop stop-color="#F4D794"/>
<stop offset="1" stop-color="#F4BE94"/>
</linearGradient>
<linearGradient id="paint6_linear_126_438" x1="343.264" y1="289.555" x2="342.443" y2="506.894" gradientUnits="userSpaceOnUse">
<stop stop-color="#F4D794"/>
<stop offset="1" stop-color="#E69354"/>
</linearGradient>
<linearGradient id="paint7_linear_126_438" x1="215.717" y1="186.915" x2="234.54" y2="206.557" gradientUnits="userSpaceOnUse">
<stop stop-color="white"/>
<stop offset="1" stop-color="#EEEEEE"/>
</linearGradient>
<linearGradient id="paint8_linear_126_438" x1="260.289" y1="325.134" x2="261.152" y2="357.193" gradientUnits="userSpaceOnUse">
<stop stop-color="#FA9B24"/>
<stop offset="1" stop-color="#FA8824"/>
</linearGradient>
<linearGradient id="paint9_linear_126_438" x1="275.704" y1="340.648" x2="243.694" y2="530.14" gradientUnits="userSpaceOnUse">
<stop stop-color="#FFB14E"/>
<stop offset="1" stop-color="#FA9B24"/>
</linearGradient>
<linearGradient id="paint10_linear_126_438" x1="360.768" y1="387.695" x2="327.289" y2="412.267" gradientUnits="userSpaceOnUse">
<stop stop-color="#FF9673"/>
<stop offset="1" stop-color="#FFB38E"/>
</linearGradient>
<linearGradient id="paint11_linear_126_438" x1="165.815" y1="477.114" x2="213.085" y2="453.579" gradientUnits="userSpaceOnUse">
<stop stop-color="#FF9673"/>
<stop offset="1" stop-color="#FFB38E"/>
</linearGradient>
<clipPath id="clip0_126_438">
<rect width="448" height="538" rx="30" fill="white"/>
</clipPath>
</defs>
</svg>
