<svg width="377" height="484" viewBox="0 0 377 484" fill="none" xmlns="http://www.w3.org/2000/svg">
<path d="M207.339 217.321L189.22 223.713L182.837 242.888L224.384 260.998L259.539 245.019L275.51 227.974L207.339 217.321Z" fill="#803D3B"/>
<path d="M207.339 217.321L199.873 231.17L182.837 242.888L224.384 260.998L259.539 245.019L273.379 230.105L207.339 217.321Z" fill="url(#paint0_linear_126_19)" stroke="black" stroke-width="2.1306"/>
<path d="M256.832 192.917L256.3 212.113L235.028 222.648L224.596 240.557L216.457 239.875L212.154 226.261L204.356 222.83L201.586 201.162L256.832 188.4V192.917Z" fill="url(#paint1_linear_126_19)"/>
<path d="M257.4 189.623L202.004 205.603L204.135 220.517L256.334 206.668L257.4 189.623Z" fill="#DE8365" fill-opacity="0.37"/>
<path d="M204.133 231.17C204.133 231.17 210.525 246.084 240.353 237.562L268.051 223.713L289.258 236.019L256.831 455.343V479.951L114.677 489.859L122.283 414.585L178.467 233.888L190.761 232.525L204.133 231.17Z" fill="#E4C59E"/>
<path d="M245.647 466.486C166.837 489.284 107.18 466.486 107.18 466.486V466.465C88.0255 488.538 75.0928 814.264 75.0928 814.264L80.8454 881.506C97.4854 899.147 144.87 891.584 144.87 891.584C147.147 890.819 149.212 889.888 151.069 888.792C156.635 885.508 156.224 878.067 153.117 872.401C149.253 865.357 145.878 856.992 142.846 847.736L182.837 609.939L289.36 884.199C300.661 889.492 325.764 905.42 362.265 892.243C367.124 890.489 367.638 883.35 364.426 879.304C358.115 871.354 353.703 860.478 352.212 853.306L308.223 670.896L245.647 466.486Z" fill="url(#paint2_linear_126_19)"/>
<path d="M154.066 229.04C155.132 230.815 157.688 234.579 159.393 235.431" stroke="#543A14" stroke-width="2.1306"/>
<path d="M202.005 408.01C198.596 406.305 178.568 403.038 172.176 401.618L143.413 394.161L145.544 382.442L200.939 394.161L202.005 408.01Z" fill="#D6B189"/>
<path d="M133.825 454.883L130.629 472.993C166.39 478.337 180.01 477.723 211.592 474.059L208.396 454.883C179.553 458.391 162.729 458.119 133.825 454.883Z" fill="#37250A"/>
<path d="M139.152 454.883L134.891 476.189L142.348 477.255L146.609 455.949L139.152 454.883Z" fill="#AF8260"/>
<path d="M204.135 478.32L200.939 454.883L208.397 453.818L212.658 477.254L204.135 478.32Z" fill="#AF8260"/>
<path d="M198.807 455.949L193.48 405.879C200.298 406.732 202.003 407.655 202.003 408.01L208.395 454.883L198.807 455.949Z" fill="#D6B189"/>
<path d="M247.813 707.359C224.802 648.555 206.266 515.96 199.874 457.014V455.949L224.376 452.753L230.768 457.014L304.273 650.899L310.665 684.988C289.359 697.772 259.886 705.229 247.813 707.359Z" fill="url(#paint3_linear_126_19)" fill-opacity="0.15"/>
<path d="M135.957 442.1C158.328 450.622 189.932 446.006 197.744 443.165L198.809 455.949C180.06 459.357 147.675 456.659 133.826 454.883L135.957 442.1Z" fill="#D6B189"/>
<rect x="154.066" y="454.883" width="34.0896" height="23.4366" rx="7.4571" fill="#F6EBC9" stroke="#DCCEA5" stroke-width="2.1306"/>
<path d="M178.568 466.991V469.127H174.508C174.388 469.127 174.268 469.122 174.153 469.117C173.601 469.084 173.073 468.978 172.57 468.806C172.392 468.743 172.215 468.676 172.042 468.599C172.018 468.585 171.989 468.575 171.966 468.561C170.703 467.97 169.686 466.958 169.087 465.701C169.072 465.667 169.058 465.633 169.043 465.595C168.961 465.427 168.895 465.249 168.832 465.067C168.664 464.578 168.559 464.06 168.525 463.523C168.516 463.393 168.511 463.263 168.511 463.129V459.069H170.54C171.207 459.069 171.792 459.391 172.167 459.88C172.421 460.22 172.57 460.643 172.57 461.098V465.067H176.538C177.003 465.067 177.435 465.225 177.781 465.489C178.232 465.839 178.534 466.382 178.568 466.991Z" fill="#DCCEA5"/>
<path d="M172.569 475.124V471.342L172.569 471.342C172.569 470.921 172.297 470.55 171.896 470.421C169.676 469.703 167.919 467.954 167.197 465.738C167.066 465.338 166.697 465.066 166.276 465.066H162.512V467.096C162.512 467.758 162.833 468.348 163.328 468.722C163.663 468.977 164.085 469.125 164.541 469.125H165.659L164.285 470.477C163.307 471.439 163.3 473.012 164.267 473.982L165.405 475.123L166.576 473.952L168.51 472.014V473.094C168.51 473.56 168.668 473.991 168.937 474.332C169.306 474.812 169.886 475.124 170.539 475.124H172.569Z" fill="#DCCEA5"/>
<path d="M108.257 695.641L140.216 455.948L128.497 453.818L108.257 498.56L82.6895 595.503V690.314L108.257 695.641Z" fill="url(#paint4_linear_126_19)" fill-opacity="0.15"/>
<path d="M148.74 390.965L140.218 455.949C136.809 455.949 134.536 455.238 133.826 454.883L143.414 394.161L148.74 390.965Z" fill="#D6B189"/>
<path d="M200.941 237.562L192.419 233.301L204.137 231.17C204.989 232.875 210.174 236.142 212.66 237.562V239.693L204.137 235.431L200.941 237.562Z" fill="#C9A781"/>
<path d="M203.313 215.16L204.357 222.831L212.155 226.261L216.459 239.875H212.815L209.875 229.201L199.286 234.613L190.742 232.525L201.012 217.525L203.313 215.16Z" fill="#EDDFB6"/>
<path d="M209.462 229.039L212.658 239.692H216.919L212.658 225.843L204.135 222.648L203.07 215.19L200.939 217.321V223.713L207.331 226.909L202.005 233.301L209.462 229.039Z" fill="#D4C69C"/>
<path d="M239.29 240.757L225.441 241.823L227.572 239.692C236.094 238.627 241.066 237.562 242.486 236.496L263.792 227.974L242.486 245.019L239.29 240.757Z" fill="#C9A781"/>
<path d="M224.599 240.557L232.651 222.963C233.103 221.975 233.916 221.197 234.924 220.788L256.302 212.114V206.02L261.522 207.81L271.621 225.664L246.373 243.732L235.486 226.73L226.623 241.58L224.599 240.557Z" fill="url(#paint5_linear_126_19)"/>
<path d="M232.899 222.648L240.356 234.366L235.03 227.974L226.508 241.823L224.377 240.758L232.899 222.648Z" fill="#EDDFB6"/>
<path d="M259.529 211.995L233.962 224.778L232.896 222.648C232.896 222.003 233.286 221.423 233.882 221.179L256.333 211.995V205.603L257.398 206.668V210.93L259.529 211.995Z" fill="url(#paint6_linear_126_19)"/>
<path d="M341.559 265.26C342.411 218.387 317.767 211.64 305.339 214.125C360.734 219.239 330.551 326.337 308.535 379.247C319.188 360.782 340.707 312.133 341.559 265.26Z" fill="#E8B0AE" fill-opacity="0.16"/>
<path d="M113.584 395.226L114.649 403.748" stroke="#4C1F17" stroke-width="2.1306"/>
<path d="M187.092 245.019L167.606 316.466C165.912 322.679 168.679 329.246 174.308 332.374H156.198L187.092 245.019Z" fill="#D6B189"/>
<path d="M259.531 238.627C250.438 247.02 229.244 283.969 214.673 310.493C209.162 320.527 200.66 328.598 190.286 333.439C201.365 333.439 208.396 334.859 210.527 335.569C226.506 291.892 248.167 254.606 259.531 238.627Z" fill="#D6B189"/>
<path d="M131.692 117.183L127.431 98.0079L133.822 92.6814L143.41 88.4202L150.867 109.726L147.671 143.816H143.41L137.018 127.836L131.692 117.183Z" fill="#4C3512"/>
<path d="M300.011 178.97L297.881 157.664L273.379 142.75L256.334 178.97V185.362L278.705 187.493L287.228 183.232H292.554L300.011 178.97Z" fill="#4C3512"/>
<path d="M134.408 96.8481C134.408 96.8481 151.56 199.628 167.624 206.638C180.009 212.042 240.587 199.634 267.688 193.666C276.127 191.808 283.518 186.564 286.778 178.561C288.872 173.421 290.767 167.391 290.986 162.023L303.168 160.263C305.251 159.961 307.148 158.911 308.399 157.219C313.294 150.595 324.594 133.189 311.73 128.901H296.816L299.445 96.8694L288.621 69.8747L230.349 58.5399L189.101 61.6292L150.43 75.3503L134.451 88.6027V96.8694L134.408 96.8481Z" fill="url(#paint7_linear_126_19)"/>
<path d="M116.403 77.7793C116.403 77.7793 114.762 75.8831 109.606 79.4199C109.606 79.4199 109.606 95.9959 124.819 95.1863L127.546 98.4461L147.382 93.8228L152.815 89.4763L153.222 90.1446C154.789 92.7201 157.722 94.1362 160.714 93.7622C163.093 93.4648 165.196 92.0706 166.395 89.9947L173.738 77.2893C173.738 77.2893 180.257 81.934 184.881 77.2893L199.837 72.3676V74.6782C199.837 76.5297 200.874 78.2256 202.521 79.0706C203.562 79.6045 204.757 79.7556 205.873 79.4061C208.352 78.63 212.96 76.8993 216.222 73.9656L216.577 74.6354C217.441 76.2682 219.138 77.2893 220.985 77.2893C222.458 77.2893 223.856 76.6384 224.804 75.5109L229.9 69.4487L230.742 70.4104C232.938 72.9185 236.221 74.1955 239.534 73.8306C241.461 73.6184 243.287 72.8619 244.799 71.6496L248.713 68.5112L251.036 71.004L260.551 68.3621L262.725 71.004L262.057 73.7139C261.823 74.6632 262.266 75.6498 263.13 76.1069L271.109 80.3263C271.843 80.7144 272.735 80.6408 273.396 80.1378L277.136 77.2893L278.704 79.8975C277.84 82.9686 279.643 86.1558 282.721 86.9967L284.031 87.3546L285.096 98.0076L293.136 108.162L296.886 111.166L296.58 129.967H307.467C307.467 129.967 325.032 86.1312 319.684 71.0892L247.84 48.3557H142.567L113.335 61.3311L115.657 72.815L118.555 77.055L116.403 77.7793Z" fill="url(#paint8_linear_126_19)"/>
<path d="M255.872 109.956C260.646 111.294 263.186 116.479 261.42 121.112L255.125 137.628C255.125 137.628 239.593 133.452 225.254 139.119C225.254 139.119 219.587 129.255 218.99 115.214C222.717 102.444 238.396 105.057 255.872 109.956Z" fill="url(#paint9_linear_126_19)"/>
<path d="M157.439 119.319C154.239 121.157 153.232 125.076 154.065 128.67C155.814 136.224 158.551 142.507 162.531 147.173C162.531 147.173 182.538 142.699 188.226 142.997L192.336 130.036C193.509 126.337 193.051 122.079 189.812 119.941C181.283 114.312 166.321 114.219 157.439 119.319Z" fill="url(#paint10_linear_126_19)"/>
<path d="M190.285 139.554L187.169 148.075C186.901 148.806 187.054 149.624 187.566 150.21L190.911 154.033" stroke="#DC7F5F" stroke-width="2.1306" stroke-miterlimit="10"/>
<path d="M193.202 106.727C193.202 106.727 168.741 102.406 162.937 100.138L161.521 103.334C161.521 103.334 173.478 118.8 189.823 117.023C189.823 117.023 194.675 116.287 193.202 106.757V106.727Z" fill="#EA8C66"/>
<path d="M194.191 176.575C194.191 176.575 206.442 175.296 215.178 169.139C223.913 162.981 228.792 161.192 234.161 164.26" stroke="#DC7F5F" stroke-width="2.1306" stroke-miterlimit="10"/>
<path d="M307.645 139.098L292.006 143.36V151.179L299.825 150.327V145.149" fill="#DC7F5F"/>
<path d="M219.761 122.501C223.878 120.943 227.814 119.803 231.26 119.804C234.674 119.805 237.516 122.25 238.85 125.392C240.256 128.704 240.868 132.308 240.854 136.137C235.378 136.137 230.222 137.308 225.258 139.098C222.445 133.239 220.485 127.657 219.761 122.501Z" fill="#543A14"/>
<path d="M170.044 145.426C167.955 141.216 167.286 137.892 167.426 134.031C167.545 130.725 169.629 127.727 172.786 126.741C175.355 125.939 177.961 125.624 180.616 125.87C183.448 126.133 185.785 128.164 186.689 130.86C187.902 134.477 188.243 138.077 188.227 142.976L170.82 145.426H170.044Z" fill="#543A14"/>
<path d="M117.555 75.3077C117.555 75.3077 96.696 74.6046 98.1022 56.5371C98.1022 56.5371 198.88 -17.1392 273.259 3.7194C273.259 3.7194 333.819 28.6159 322.533 73.1117C322.232 74.2969 321.015 74.9821 319.859 74.5865C304.892 69.469 211.322 39.3924 132.107 58.5612C132.107 58.5612 107.617 63.3001 117.844 73.5057L117.555 75.3077Z" fill="url(#paint11_linear_126_19)"/>
<path d="M289.356 133.163C290.067 131.742 292.552 128.902 296.814 128.902" stroke="#DC7F5F" stroke-width="2.1306"/>
<path d="M213.149 93.3528C212.083 97.6398 214.389 101.525 217.522 104.951C218.334 105.838 219.732 105.807 220.595 104.97C224.9 100.791 237.595 89.5844 251.009 88.4201V85.7034C251.009 85.7034 234.422 82.3567 213.149 93.3528Z" fill="#EA8C66"/>
<path d="M193.202 104.596C193.202 104.596 168.741 100.275 162.937 98.0074L161.521 103.094C161.521 103.094 173.478 116.669 189.823 114.892C189.823 114.892 194.675 114.156 193.202 104.626V104.596Z" fill="#543A14"/>
<path d="M213.146 91.2222C211.913 96.1824 212.961 100.605 216.815 104.4C216.815 104.4 234.482 88.8917 251.007 87.4574V83.5728C251.007 83.5728 234.42 80.2261 213.146 91.2222Z" fill="#543A14"/>
<path d="M291.487 157.665L290.422 165.122" stroke="#DC7F5F" stroke-width="2.1306"/>
<path d="M230.706 158.447C222.928 157.723 215.34 159.912 210.861 161.814C209.415 162.429 207.695 162.058 206.752 160.801C205.848 159.596 205.934 157.9 207.274 157.212C212.424 154.563 223.229 154.087 231.438 155.296C232.384 155.435 233.564 156.048 233.717 156.992C233.937 158.352 232.078 158.574 230.706 158.447Z" fill="#543A14"/>
<path d="M177.812 175.47C183.755 170.052 191.404 167.226 196.128 166.11C197.459 165.795 198.463 164.639 198.463 163.272C198.463 161.678 197.111 160.415 195.559 160.774C188.01 162.524 179.18 168.704 175.318 173.198C174.679 173.941 174.305 175.387 174.815 176.224C175.507 177.359 176.83 176.365 177.812 175.47Z" fill="#543A14"/>
<path d="M239.86 200.771C227.138 205.254 214.712 207.971 210.114 209.864C206.695 210.357 187.62 204.598 192.003 202.407L231.419 198.146L239.004 197.347C241.395 197.096 242.128 199.972 239.86 200.771Z" fill="#543A14"/>
<path d="M165.129 179.92L185.69 171.759C188.779 170.545 192.294 171.674 194.063 174.487C198.409 181.475 205.398 194.024 201.989 197.603L194.979 200.203L162.381 186.482L165.151 179.92H165.129Z" fill="#FF9673" stroke="#DC7F5F" stroke-width="2.1306" stroke-miterlimit="10"/>
<path d="M186.736 187.505V182.285" stroke="#DC7F5F" stroke-width="2.1306" stroke-miterlimit="10"/>
<path d="M269.117 227.974C246.746 256.737 204.844 249.28 187.089 243.954L191.35 232.236L200.938 217.321L203.068 215.191L204.134 222.648L212.656 225.844L216.917 239.693H224.374L232.897 221.583L256.333 211.995V205.603L261.66 207.734L271.248 225.844L269.117 227.974Z" fill="#322108" fill-opacity="0.09"/>
<path d="M280.67 227.518C280.67 227.518 303.979 202.675 326.35 218.399C348.721 234.123 353.217 293.353 303.51 391.297C303.51 391.297 307.814 394.131 298.375 396.07L292.878 400.8C292.878 400.8 351.193 595.409 367.258 623.959C367.258 623.959 323.815 675.136 255.38 692.394C255.38 692.394 203.393 452.871 200.474 394.067L145.164 382.434C145.164 382.434 104.405 639.171 100.911 677.011C100.911 677.011 53.1644 678.182 32.7959 650.229C32.7959 650.229 92.751 437.148 113.141 396.986L111.394 368.457C111.394 368.457 96.9695 376.255 84.5481 374.87C80.2186 374.387 74.7088 371.554 69.3675 368.068C56.881 359.918 53.6221 343.652 59.5564 329.973C74.89 294.627 105.572 228.781 128.494 210.929L142.343 204.538L147.614 207.789L190.886 223.363L190.716 232.503L156.243 332.578C156.243 332.578 194.508 332.216 210.041 335.071C210.531 335.156 211.021 334.943 211.298 334.517L280.649 227.497L280.67 227.518Z" fill="url(#paint12_linear_126_19)"/>
<path d="M272.311 267.39C279.981 251.198 282.253 230.46 280.833 227.974L224.372 334.504H231.829C248.874 311.068 264.64 283.583 272.311 267.39Z" fill="#642B28"/>
<path d="M111.416 368.479C115.571 360.425 145.122 303.112 169.177 256.473L173.566 236.382" fill="#803D3B"/>
<path d="M111.416 368.479C115.571 360.425 145.122 303.112 169.177 256.473L173.566 236.382" stroke="#4C1F17" stroke-width="2.1306" stroke-miterlimit="10"/>
<path d="M258.462 337.7C246.531 328.326 234.315 330.243 229.699 332.374L228.634 334.504L244.613 335.57L258.462 337.7Z" fill="#642B28"/>
<path d="M224.594 335.242C224.594 335.242 256.872 331.3 264.138 344.126" stroke="#4C1F17" stroke-width="2.1306" stroke-miterlimit="10"/>
<path d="M271.614 225.664L280.69 227.518C280.69 227.518 290.96 241.75 224.592 335.241H210.87C210.466 335.241 210.189 334.858 210.338 334.474C213.747 325.824 245.855 245.479 271.614 225.664Z" fill="url(#paint13_linear_126_19)"/>
<path d="M190.739 232.525L156.266 332.599H147.637C147.637 332.599 158.418 248.142 173.587 227.518L190.739 232.525Z" fill="url(#paint14_linear_126_19)"/>
<path d="M112.515 381.378L143.409 394.161L145.54 382.443L111.45 372.855L112.515 381.378Z" fill="url(#paint15_linear_126_19)"/>
<path d="M273.374 226.909C253.773 243.954 224.725 306.451 212.652 335.57H210.521C230.975 275.913 259.525 237.562 271.244 225.844L273.374 226.909Z" fill="#9E6C46"/>
<path d="M191.347 232.235L156.192 332.374H152.996L186.02 231.17L191.347 232.235Z" fill="#9E6C46"/>
<path d="M165.778 233.301C171.744 239.266 182.468 242.888 187.084 243.954L191.346 232.235L198.803 220.517L190.28 223.713L170.04 224.778L165.778 233.301Z" fill="#302007" fill-opacity="0.27"/>
<path d="M176.432 249.281L157.256 279.109L156.191 281.24L138.081 236.497L150.865 218.387L168.975 235.432L176.432 249.281Z" fill="#803E3C"/>
<path d="M163.651 246.085C150.015 244.38 140.214 225.844 134.888 215.191C143.41 209.225 141.635 209.865 143.41 209.865L163.651 239.693L170.043 248.215L163.651 246.085Z" fill="#4B1F17"/>
<path d="M137.28 219.379C137.28 219.379 142.926 238.747 156.456 243.732L159.098 235.551C159.098 235.551 175.887 242.092 180.105 229.415H186.732L198.448 204.949C200.524 200.613 199.43 195.437 195.447 192.745C188.262 187.889 175.929 180.951 162.507 179.58C159.204 179.239 156.072 181.071 154.815 184.139C152.045 190.915 147.038 203.251 144.524 210.154L137.302 219.358L137.28 219.379Z" fill="url(#paint16_linear_126_19)"/>
<path d="M179.021 200.204C174.866 212.199 167.622 206.638 167.622 206.638C161.848 210.857 162.359 221.765 162.359 221.765L180.695 230.105" stroke="#DC7F5F" stroke-width="2.1306" stroke-miterlimit="10"/>
<path d="M342.619 563.544C338.358 555.874 301.428 447.071 287.224 401.618H293.615L342.619 563.544Z" fill="#91504E"/>
<path d="M200.496 394.088C200.496 394.088 256.531 413.306 292.879 400.821" stroke="#4C1F17" stroke-width="2.1306" stroke-miterlimit="10"/>
<path d="M260.591 420.794C247.808 421.646 216.559 413.337 202 408.01L200.935 394.161C243.547 410.354 279.412 404.814 292.55 400.553L297.877 416.532C291.13 418.308 273.375 419.941 260.591 420.794Z" fill="url(#paint17_linear_126_19)"/>
<path d="M148.736 271.652L175.368 250.346L156.193 281.239L111.45 367.529L148.736 271.652Z" fill="#642C28"/>
<path d="M60.3155 336.635L58.1858 353.68C54.9896 343.027 57.4747 335.925 58.1849 333.439C85.4566 262.703 114.646 220.517 128.495 210.929L142.344 204.538V206.668L129.56 214.125C102.288 242.249 72.0338 307.517 60.3155 336.635Z" fill="#91504E"/>
<path d="M147.671 332.374L155.128 285.501L130.626 332.374H147.671Z" fill="#642B28"/>
<path d="M129.929 332.599H147.634" stroke="#4C1F17" stroke-width="2.1306" stroke-miterlimit="10"/>
<path d="M123.169 376.051L144.475 333.439H130.626L112.516 368.594V372.855L123.169 376.051Z" fill="#642B28"/>
<path d="M145.186 382.455L111.65 372.1" stroke="#4C1F17" stroke-width="2.1306" stroke-miterlimit="10"/>
<path d="M111.416 368.479C113.351 364.728 144.231 304.566 154.062 285.501" stroke="#4C1F17" stroke-width="2.1306" stroke-miterlimit="10"/>
<path d="M144.525 210.154C147.039 203.251 152.046 190.914 154.816 184.139C156.073 181.071 159.205 179.239 162.508 179.58C163.607 179.692 164.698 179.842 165.78 180.024C177.914 182.072 188.849 188.285 195.446 192.744C199.429 195.435 200.525 200.613 198.449 204.949L194.35 213.509" stroke="#DC7F5F" stroke-width="2.1306" stroke-miterlimit="10"/>
<path d="M280.836 238.627C275.722 238.627 266.632 237.206 262.726 236.496C264.43 233.087 269.828 227.974 272.313 225.843L280.836 227.974C292.767 216.895 302.142 214.125 305.338 214.125C302.142 224.778 287.227 238.627 280.836 238.627Z" fill="#302007" fill-opacity="0.27"/>
<path d="M73.1025 514.54C93.5563 441.247 108.613 404.459 113.584 396.291L114.649 402.683C111.24 406.092 85.531 478.674 73.1025 514.54Z" fill="#91504E"/>
<path d="M225.856 421.947C226.353 424.982 224.582 427.554 222.223 427.94C219.865 428.326 217.366 426.454 216.869 423.419C216.372 420.384 218.143 417.812 220.502 417.426C222.86 417.039 225.359 418.912 225.856 421.947Z" fill="#B67047" stroke="#4C1F17" stroke-width="2.1306"/>
<ellipse cx="221.361" cy="422.683" rx="1.7076" ry="1.94261" transform="rotate(-9.30036 221.361 422.683)" fill="#4C1F17"/>
<path d="M153.057 256.275C151.768 259.067 148.86 260.205 146.69 259.203C144.52 258.201 143.499 255.249 144.788 252.457C146.078 249.665 148.986 248.528 151.156 249.53C153.326 250.532 154.346 253.483 153.057 256.275Z" fill="#B67047" stroke="#4C1F17" stroke-width="2.1306"/>
<ellipse cx="148.924" cy="254.366" rx="1.7076" ry="1.94261" transform="rotate(24.784 148.924 254.366)" fill="#4C1F17"/>
<path d="M230.118 438.992C230.615 442.027 228.844 444.599 226.485 444.985C224.126 445.372 221.627 443.499 221.13 440.464C220.633 437.429 222.405 434.857 224.763 434.471C227.122 434.085 229.621 435.957 230.118 438.992Z" fill="#B67047" stroke="#4C1F17" stroke-width="2.1306"/>
<ellipse cx="225.624" cy="439.728" rx="1.7076" ry="1.94261" transform="rotate(-9.30036 225.624 439.728)" fill="#4C1F17"/>
<path d="M131.691 415.467L129.561 426.12" stroke="#431E0E" stroke-width="2.1306"/>
<path d="M127.431 432.511L125.301 443.164" stroke="#431E0E" stroke-width="2.1306"/>
<path d="M265.183 266.73V268.562H261.701C261.598 268.562 261.495 268.557 261.396 268.554C260.922 268.525 260.47 268.434 260.038 268.286C259.886 268.233 259.733 268.175 259.585 268.109C259.565 268.097 259.54 268.089 259.519 268.076C258.437 267.57 257.564 266.701 257.05 265.623C257.037 265.594 257.025 265.565 257.013 265.532C256.942 265.388 256.885 265.236 256.832 265.079C256.687 264.66 256.597 264.215 256.568 263.754C256.56 263.643 256.556 263.532 256.556 263.417V259.933H258.297C258.869 259.933 259.371 260.209 259.692 260.629C259.91 260.921 260.038 261.283 260.038 261.674V265.079H263.442C263.841 265.079 264.212 265.215 264.508 265.441C264.896 265.742 265.155 266.207 265.183 266.73Z" fill="#DCCEA5"/>
<path d="M260.038 273.707V270.463L260.038 270.463C260.038 270.101 259.805 269.784 259.461 269.672C257.556 269.056 256.049 267.556 255.429 265.655C255.317 265.312 255 265.079 254.64 265.079H251.41V266.82C251.41 267.388 251.686 267.894 252.11 268.215C252.398 268.434 252.76 268.561 253.151 268.561H254.11L252.931 269.721C252.093 270.546 252.086 271.895 252.916 272.728L253.892 273.707L254.897 272.702L256.556 271.039V271.966C256.556 272.365 256.691 272.736 256.922 273.028C257.239 273.44 257.737 273.707 258.297 273.707H260.038Z" fill="#DCCEA5"/>
<defs>
<linearGradient id="paint0_linear_126_19" x1="228.112" y1="217.321" x2="228.112" y2="260.998" gradientUnits="userSpaceOnUse">
<stop stop-color="#4C4531"/>
<stop offset="1" stop-color="#B2A373"/>
</linearGradient>
<linearGradient id="paint1_linear_126_19" x1="229.702" y1="196.015" x2="229.209" y2="240.557" gradientUnits="userSpaceOnUse">
<stop stop-color="#FF9673"/>
<stop offset="1" stop-color="#FFB38E"/>
</linearGradient>
<linearGradient id="paint2_linear_126_19" x1="224.68" y1="466.465" x2="486.526" y2="932.856" gradientUnits="userSpaceOnUse">
<stop stop-color="#AF8260"/>
<stop offset="1" stop-color="#F5BC90"/>
</linearGradient>
<linearGradient id="paint3_linear_126_19" x1="272.314" y1="563.544" x2="178.568" y2="579.523" gradientUnits="userSpaceOnUse">
<stop stop-color="#37250A"/>
<stop offset="1" stop-color="#764E31"/>
</linearGradient>
<linearGradient id="paint4_linear_126_19" x1="54.9916" y1="584.85" x2="243.55" y2="594.437" gradientUnits="userSpaceOnUse">
<stop stop-color="#37250A"/>
<stop offset="1" stop-color="#764E31"/>
</linearGradient>
<linearGradient id="paint5_linear_126_19" x1="248.879" y1="206.668" x2="252.075" y2="242.888" gradientUnits="userSpaceOnUse">
<stop stop-color="#EDDFB6"/>
<stop offset="1" stop-color="#FFF6DA"/>
</linearGradient>
<linearGradient id="paint6_linear_126_19" x1="246.213" y1="205.603" x2="246.213" y2="224.778" gradientUnits="userSpaceOnUse">
<stop stop-color="#D4C69C"/>
<stop offset="1" stop-color="#EDDFB6"/>
</linearGradient>
<linearGradient id="paint7_linear_126_19" x1="251.008" y1="31.9589" x2="177.502" y2="145.946" gradientUnits="userSpaceOnUse">
<stop stop-color="#FF9673"/>
<stop offset="1" stop-color="#FFB38E"/>
</linearGradient>
<linearGradient id="paint8_linear_126_19" x1="215.159" y1="48.3557" x2="206.264" y2="80.9628" gradientUnits="userSpaceOnUse">
<stop stop-color="#301F07"/>
<stop offset="1" stop-color="#543A14"/>
</linearGradient>
<linearGradient id="paint9_linear_126_19" x1="251.005" y1="112.922" x2="226.504" y2="138.489" gradientUnits="userSpaceOnUse">
<stop stop-color="white"/>
<stop offset="1" stop-color="#EEEEEE"/>
</linearGradient>
<linearGradient id="paint10_linear_126_19" x1="159.391" y1="122.509" x2="187.089" y2="147.011" gradientUnits="userSpaceOnUse">
<stop stop-color="white"/>
<stop offset="1" stop-color="#EEEEEE"/>
</linearGradient>
<linearGradient id="paint11_linear_126_19" x1="249.941" y1="4.46421e-06" x2="227.57" y2="150.207" gradientUnits="userSpaceOnUse">
<stop stop-color="#E4C59E"/>
<stop offset="1" stop-color="#FE9539"/>
</linearGradient>
<linearGradient id="paint12_linear_126_19" x1="199.869" y1="306.806" x2="200.027" y2="692.394" gradientUnits="userSpaceOnUse">
<stop stop-color="#803D3B"/>
<stop offset="1" stop-color="#4B1E16"/>
</linearGradient>
<linearGradient id="paint13_linear_126_19" x1="278.701" y1="223.713" x2="210.522" y2="381.378" gradientUnits="userSpaceOnUse">
<stop stop-color="#AF8260"/>
<stop offset="1" stop-color="#BF753C"/>
</linearGradient>
<linearGradient id="paint14_linear_126_19" x1="169.188" y1="227.518" x2="169.188" y2="332.599" gradientUnits="userSpaceOnUse">
<stop stop-color="#AF8260"/>
<stop offset="1" stop-color="#BF753C"/>
</linearGradient>
<linearGradient id="paint15_linear_126_19" x1="128.495" y1="372.855" x2="126.364" y2="387.77" gradientUnits="userSpaceOnUse">
<stop stop-color="#5A2521"/>
<stop offset="1" stop-color="#5A2521" stop-opacity="0.5"/>
</linearGradient>
<linearGradient id="paint16_linear_126_19" x1="170.04" y1="200.277" x2="173.236" y2="240.758" gradientUnits="userSpaceOnUse">
<stop stop-color="#FFB38E"/>
<stop offset="1" stop-color="#FF9673"/>
</linearGradient>
<linearGradient id="paint17_linear_126_19" x1="252.069" y1="400.553" x2="251.004" y2="425.055" gradientUnits="userSpaceOnUse">
<stop stop-color="#5A2521"/>
<stop offset="1" stop-color="#5A2521" stop-opacity="0.21"/>
</linearGradient>
</defs>
</svg>
