<svg width="448" height="538" viewBox="0 0 448 538" fill="none" xmlns="http://www.w3.org/2000/svg">
<g clip-path="url(#clip0_126_1210)">
<rect width="448" height="538" rx="30" fill="white"/>
<path d="M328.228 312.908C328.228 312.908 340.099 317.365 340.448 349.26C340.797 381.155 345.397 497.934 345.397 497.934C345.397 497.934 356.015 520.731 351.415 525.68C346.814 530.63 340.386 541.269 340.386 541.269L343.303 542.501L342.337 561.704C342.337 561.704 331.226 571.706 319.396 569.713L310.278 459.877L308.08 320.261L328.207 312.908H328.228Z" fill="url(#paint0_linear_126_1210)"/>
<path d="M322.615 499.839V444.387L316.454 451.575L320.562 506.001L322.615 499.839Z" fill="#E7B983"/>
<path d="M317.48 453.629L328.776 436.172" stroke="#E7B983" stroke-width="2.05378"/>
<path d="M323.643 445.414L318.508 452.602L313.374 454.656V418.715L314.401 379.693L323.643 445.414Z" fill="#E7B983"/>
<path d="M345.208 496.759V508.055" stroke="#E7B983" stroke-width="2.05378"/>
<path d="M186.766 293.336C186.766 293.336 150.907 301.51 127.165 320.98C127.165 320.98 145.177 372.263 144.273 385.017L136.982 434.821L153.658 557.471C154.211 561.542 157.689 564.579 161.798 564.579H161.874L166.207 581.256C166.207 581.256 220.551 587.581 258.238 582.591L295.925 576.594L332.256 544.39V537.038C332.256 537.038 321.391 514.98 321.063 492.286C320.734 469.591 315.312 403.747 315.312 403.747L327.491 351.026L328.231 312.908L314.593 296.129L290.359 293.644L282.39 291.282L259.326 289.741L186.786 293.336H186.766Z" fill="url(#paint1_linear_126_1210)"/>
<path d="M242.52 274.95H249.708V279.057H242.52V274.95Z" fill="#C6A175"/>
<path d="M246.626 564.533H161.872L166.528 581.99L246.626 586.098L296.944 577.883L332.885 545.022V537.834L327.75 525.511L291.809 556.318L246.626 564.533Z" fill="#E17463"/>
<path d="M206.584 278.03L211.718 261.6L214.799 254.412L247.66 267.761L253.821 302.676L220.96 298.568L206.584 278.03Z" fill="url(#paint2_linear_126_1210)"/>
<path d="M235.339 293.434L227.124 285.219L218.909 296.515L235.339 293.434Z" fill="#C6A175"/>
<path d="M240.473 294.461L243.553 288.299L251.768 284.192L253.822 295.487L240.473 294.461Z" fill="#C6A175"/>
<path d="M137.886 428.619L162.531 370.086C162.531 370.086 154.788 322.951 137.886 313.36L127.165 320.98C127.165 320.98 146.163 372.181 144.273 385.017L137.886 428.639V428.619Z" fill="url(#paint3_linear_126_1210)"/>
<path d="M315.291 403.727V316.03L301.366 294.774L314.593 296.129L328.23 312.909L327.49 351.006L315.291 403.727Z" fill="#E17463"/>
<path d="M188.553 428.619C188.553 428.619 197.035 425.23 199.705 406.848C202.375 388.467 202.375 390.336 206.626 389.535C210.877 388.734 217.552 399.66 215.95 414.037L228.572 411.064C232.689 410.095 237.065 411.728 238.745 415.61C240.111 418.768 241.212 422.604 240.452 425.764C240.452 425.764 250.043 448.931 243.389 455.605C236.734 462.28 195.967 468.4 195.967 468.4L185.308 428.947L188.553 428.639V428.619Z" fill="url(#paint4_linear_126_1210)"/>
<path d="M206.577 416.661L217.873 413.58" stroke="#DC7F5F" stroke-width="2.05378"/>
<path d="M303.177 390.41V392.469H299.264C299.148 392.469 299.032 392.464 298.921 392.46C298.389 392.428 297.881 392.326 297.395 392.159C297.224 392.099 297.053 392.034 296.887 391.96C296.864 391.946 296.836 391.937 296.813 391.923C295.596 391.354 294.615 390.378 294.038 389.166C294.024 389.134 294.01 389.102 293.996 389.065C293.917 388.903 293.853 388.731 293.793 388.556C293.63 388.085 293.529 387.585 293.496 387.067C293.487 386.942 293.482 386.817 293.482 386.688V382.774H295.439C296.081 382.774 296.646 383.084 297.007 383.555C297.252 383.884 297.395 384.291 297.395 384.73V388.555H301.221C301.669 388.555 302.085 388.708 302.418 388.963C302.853 389.3 303.145 389.823 303.177 390.41Z" fill="#DCCEA5"/>
<path d="M297.396 398.25V394.605L297.396 394.604C297.396 394.198 297.134 393.842 296.747 393.717C294.607 393.024 292.914 391.338 292.217 389.202C292.091 388.817 291.735 388.555 291.33 388.555H287.701V390.511C287.701 391.15 288.011 391.718 288.488 392.079C288.811 392.324 289.218 392.468 289.658 392.468H290.735L289.41 393.771C288.468 394.698 288.461 396.214 289.394 397.15L290.49 398.249L291.619 397.121L293.483 395.252V396.293C293.483 396.742 293.635 397.158 293.894 397.487C294.251 397.95 294.81 398.25 295.439 398.25H297.396Z" fill="#DCCEA5"/>
<path d="M313.375 553.238L311.321 539.888L319.536 532.7L320.563 546.049L324.671 552.211L317.483 558.372L313.375 553.238Z" fill="#9F4233" fill-opacity="0.47"/>
<path d="M247.652 571.721L163.446 568.641L161.393 564.533H245.598L291.808 555.291L327.749 525.511L329.803 532.699L292.835 561.452L247.652 571.721Z" fill="#9F4233" fill-opacity="0.47"/>
<path d="M141.883 317.052L128.533 324.24L131.614 333.483L148.044 324.24C146.284 321.155 145.18 319.479 141.883 317.052Z" fill="#9F4233" fill-opacity="0.4"/>
<path d="M154.206 338.617L135.722 345.805L138.802 354.02L157.286 347.859L154.206 338.617Z" fill="#9F4233" fill-opacity="0.4"/>
<path d="M161.393 365.316L142.909 371.477L144.963 382.773L159.339 377.639L162.42 369.423L161.393 365.316Z" fill="#9F4233" fill-opacity="0.4"/>
<path d="M318.509 300.622H305.159L311.321 308.837H324.67L318.509 300.622Z" fill="#C25D4C"/>
<path d="M327.751 312.945L315.429 316.026V325.268L327.751 320.133V312.945Z" fill="#C25D4C"/>
<path d="M327.751 328.348L315.429 332.456V341.698L327.751 336.563V328.348Z" fill="#C25D4C"/>
<path d="M327.751 345.805L315.429 350.94V364.289L325.698 359.155L327.751 350.94V345.805Z" fill="#C25D4C"/>
<path d="M322.617 371.478L315.429 374.558V387.908L319.536 385.854L322.617 371.478Z" fill="#C25D4C"/>
<path d="M220.954 296.514L194.255 305.756L192.201 308.837L237.384 365.316L264.084 372.504L266.137 331.429L270.245 296.514L261.003 294.46L237.384 299.595L220.954 296.514Z" fill="url(#paint5_linear_126_1210)"/>
<path d="M226.467 291.281L245.998 292.185L253.043 302.926L248.956 315.105L239.098 316.03L226.467 300.133V291.281Z" fill="#803E3C"/>
<path d="M239.095 316.03L236.631 367.169L261.276 385.489L263.001 359.324L248.954 315.106" fill="url(#paint6_linear_126_1210)"/>
<path d="M239.438 316.025L248.68 314.998" stroke="#53211F" stroke-width="2.05378"/>
<path d="M230.196 319.106L229.169 303.703L226.088 299.595L217.873 291.38L206.577 303.703L198.362 307.81L209.658 319.106C221.159 321.571 228.142 320.133 230.196 319.106Z" fill="#E7B983"/>
<path d="M251.757 305.756L252.784 302.676L248.677 292.407L258.946 308.837L257.919 319.106L250.731 309.864L251.757 305.756Z" fill="#E7B983"/>
<path d="M228.143 291.38L229.17 303.703L225.062 298.568V291.38H228.143Z" fill="#5F211F"/>
<path d="M243.546 292.407H246.627L253.815 299.595L250.734 308.837L243.546 292.407Z" fill="#5F211F"/>
<path d="M182.678 298.943C182.678 298.943 196.171 280.869 199.149 274.462L208.987 270.642L206.296 277.768L226.485 284.094V316.01C226.485 316.01 201.08 314.634 182.678 298.922V298.943Z" fill="#FFE1BE"/>
<path d="M242.518 316.026L241.491 323.214" stroke="#53211F" stroke-width="2.05378"/>
<path d="M245.599 316.026L246.626 318.079" stroke="#53211F" stroke-width="2.05378"/>
<path d="M127.165 320.98C127.165 320.98 117.8 332.81 111.844 345.605C106.381 357.352 79.086 430.323 70.5423 460.535C69.2073 465.238 70.378 470.27 73.6024 473.946C76.2724 476.985 79.7638 480.148 83.3168 481.155L87.0958 487.829C89.355 491.814 93.4625 494.402 98.0425 494.689C107.942 495.326 125.091 496.579 130.862 497.811C139.18 499.598 170.089 485.036 170.089 485.036L198.616 475.815C198.616 475.815 195.638 434.205 186.129 425.579C186.129 425.579 178.099 424.696 165.92 434.801C165.92 434.801 150.804 430.447 136.962 434.842L143.616 389.392C144.458 383.661 143.945 377.89 142.918 372.201C140.494 358.872 133.963 339.628 127.145 321.001L127.165 320.98Z" fill="#FFE1BE"/>
<path d="M165.94 434.76L170.11 484.995" stroke="#E7B983" stroke-width="2.05378" stroke-miterlimit="10"/>
<path d="M240.465 425.903L218.9 428.984" stroke="#DC7F5F" stroke-width="2.05378"/>
<path d="M243.545 437.199L221.98 441.306" stroke="#DC7F5F" stroke-width="2.05378"/>
<path d="M245.597 446.441L227.113 451.575" stroke="#DC7F5F" stroke-width="2.05378"/>
<path d="M112.104 449.521C116.212 445.414 127.097 436.582 137.777 434.118" stroke="#E7B983" stroke-width="2.05378"/>
<path d="M81.2959 474.167L87.4573 488.543" stroke="#E7B983" stroke-width="2.05378"/>
<path d="M138.801 422.822L117.236 444.387C124.903 439.108 129.193 436.39 136.747 434.118L138.801 422.822Z" fill="#E7B983"/>
<path d="M206.578 278.03L209.659 268.788L199.39 273.923L195.282 281.111C200.211 293.434 217.874 301.991 226.089 304.73L227.116 284.192L206.578 278.03Z" fill="#F3CFA4"/>
<path d="M248.68 287.272L210.685 265.708L213.765 256.466L247.653 269.815L249.706 278.03L248.68 287.272Z" fill="#DE8365" fill-opacity="0.37"/>
<path d="M169.165 179.967L160.621 183.191C156.924 184.588 155.138 188.777 156.678 192.413L166.7 215.99C168.426 220.036 172.389 222.644 176.784 222.644H188.532L193.153 242.299C194.468 247.926 197.877 252.876 202.724 256.018C215.519 264.316 244.087 278.22 286.97 273.414C303.811 271.524 318.598 261.214 326.341 246.14C335.83 227.656 347.516 199.95 349.836 172.08L210.651 109.255L169.185 179.946L169.165 179.967Z" fill="url(#paint7_linear_126_1210)"/>
<path d="M165.92 191.283L179.865 189.538L185.102 210.959L175.511 212.211V194.343" fill="#DC7F5F"/>
<path d="M237.822 160.374L268.814 153.555L272.798 167.418L237.822 164.584V160.374Z" fill="#543A14"/>
<path d="M306.377 172.08L313.647 158.258L340.182 178.673L339.012 183.849L306.377 172.08Z" fill="#543A14"/>
<path d="M269.535 197.28C254.569 186.014 233.233 189.801 217.225 198.533V203.257L262.552 216.463C262.552 216.463 270.52 211.739 269.535 197.28Z" fill="#FDFCFC"/>
<path d="M298.163 196.541C306.866 196.541 315.802 198.087 322.301 203.874C324.854 206.147 327.383 208.934 329.298 212.211L328.292 217.962L295.411 216.463C295.411 216.463 291.18 204.263 298.143 196.541H298.163Z" fill="#FDFCFC"/>
<path d="M295.534 221.597L297.958 225.315C299.19 227.204 298.8 229.73 297.075 231.188L294.179 233.591" stroke="#DC7F5F" stroke-width="2.05378" stroke-miterlimit="10"/>
<path d="M277.768 245.421C271.709 242.936 255.751 236.138 245.256 228.909C244.353 228.272 243.1 228.847 242.936 229.936C242.011 236.631 242.545 254.951 277.172 249.96C277.911 249.857 278.569 249.385 278.938 248.728C279.616 247.475 279.082 245.935 277.768 245.401V245.421Z" fill="white"/>
<path d="M227.882 193.973L225.972 205.803L245.503 211.492L250.822 190.687C250.729 190.143 240.805 188.951 227.882 193.994V193.973Z" fill="#543A14"/>
<path d="M317.304 199.991L314.347 217.325L295.452 216.463C295.452 216.463 291.016 204.119 298.184 196.541C306.348 196.428 310.55 197.151 317.304 199.991Z" fill="#543A14"/>
<path d="M213.816 118.23C225.81 155.753 199.604 173.744 199.604 173.744C198.515 184.567 195.701 193.501 193.668 198.821C193.032 200.505 190.567 200.299 190.197 198.533L187.527 185.779C186.459 180.706 181.51 177.461 176.437 178.488L169.167 179.967L167.832 177.297C136.039 99.8489 193.114 77.4215 193.114 77.4215C188.636 69.268 197.591 59.492 197.591 59.492C197.591 66.4133 203.711 74.1766 203.711 74.1766C203.711 74.1766 230.616 35.8529 306.442 70.5003C382.267 105.148 355.773 177.297 355.773 177.297C317.039 172.409 296.666 156.513 296.666 156.513L299.52 172.101C243.514 160.23 213.836 118.23 213.836 118.23" fill="url(#paint8_linear_126_1210)"/>
<path d="M249.707 274.95L263.003 291.159L259.593 312.908L243.081 287.749L248.072 278.055L249.707 274.95Z" fill="#F3CFA4"/>
<path d="M249.675 391.897H269.576L282.371 291.282L258.95 286.246L254.337 365.957L186.767 293.336L162.902 300.996L249.675 391.897Z" fill="#E17463"/>
<path d="M194.257 301.649L171.665 310.891L182.961 322.187L202.472 310.891L194.257 301.649Z" fill="#C25D4C"/>
<path d="M214.795 323.214L196.311 335.536L206.579 346.832L221.983 331.429L214.795 323.214Z" fill="#C25D4C"/>
<path d="M234.305 344.779L218.901 360.182L229.17 370.451L241.493 351.967L234.305 344.779Z" fill="#C25D4C"/>
<path d="M239.438 380.72L248.68 360.182L254.841 366.343L248.68 390.989L239.438 380.72Z" fill="#C25D4C"/>
<path d="M278.458 321.16L257.92 311.918L256.894 323.214L277.431 333.483L278.458 321.16Z" fill="#C25D4C"/>
<path d="M275.38 344.779L256.896 331.429L255.869 340.671L274.353 358.128L275.38 344.779Z" fill="#C25D4C"/>
<path d="M272.299 370.451L254.842 352.994V366.343L269.218 392.016L272.299 370.451Z" fill="#C25D4C"/>
<path d="M281.54 299.595L258.949 293.434L257.922 304.73L279.487 311.918L281.54 299.595Z" fill="#C25D4C"/>
<path d="M257.922 301.649L243.546 286.246L249.707 274.95L258.949 286.246L257.922 301.649Z" fill="#E7B983" fill-opacity="0.57"/>
<path d="M263.554 306.384L257.923 303.703L258.95 286.246L283.595 291.38L289.757 293.434L302.079 294.461L306.187 303.703L295.959 307.636C285.443 311.681 273.727 311.228 263.554 306.384Z" fill="#393333" fill-opacity="0.21"/>
<path d="M188.094 218.471L190.148 227.713" stroke="#DC7F5F" stroke-width="2.05378"/>
<path d="M274.899 246.962C258.146 245.243 246.44 235.506 242.681 230.853C242.681 234.719 242.681 235.686 243.218 236.76C257.179 246.962 267.382 246.962 274.899 246.962Z" fill="#D7DBE1"/>
</g>
<defs>
<linearGradient id="paint0_linear_126_1210" x1="364.716" y1="383.8" x2="133.665" y2="529.619" gradientUnits="userSpaceOnUse">
<stop stop-color="#FFE1BE"/>
<stop offset="1" stop-color="#DAA362"/>
</linearGradient>
<linearGradient id="paint1_linear_126_1210" x1="229.711" y1="289.741" x2="229.711" y2="584.509" gradientUnits="userSpaceOnUse">
<stop stop-color="#803E3C"/>
<stop offset="1" stop-color="#642A28"/>
</linearGradient>
<linearGradient id="paint2_linear_126_1210" x1="232.248" y1="257.493" x2="213.293" y2="278.714" gradientUnits="userSpaceOnUse">
<stop stop-color="#FF9673"/>
<stop offset="1" stop-color="#FFB38E"/>
</linearGradient>
<linearGradient id="paint3_linear_126_1210" x1="144.848" y1="313.36" x2="144.848" y2="428.639" gradientUnits="userSpaceOnUse">
<stop stop-color="#E17463"/>
<stop offset="1" stop-color="#B54938"/>
</linearGradient>
<linearGradient id="paint4_linear_126_1210" x1="191.173" y1="469.032" x2="221.002" y2="441.229" gradientUnits="userSpaceOnUse">
<stop stop-color="#FF9673"/>
<stop offset="1" stop-color="#FFB38E"/>
</linearGradient>
<linearGradient id="paint5_linear_126_1210" x1="231.223" y1="294.46" x2="231.223" y2="372.504" gradientUnits="userSpaceOnUse">
<stop stop-color="#FFE1BE"/>
<stop offset="1" stop-color="#DAA362"/>
</linearGradient>
<linearGradient id="paint6_linear_126_1210" x1="249.816" y1="315.106" x2="249.816" y2="385.489" gradientUnits="userSpaceOnUse">
<stop stop-color="#803E3C"/>
<stop offset="1" stop-color="#3D1210"/>
</linearGradient>
<linearGradient id="paint7_linear_126_1210" x1="273.325" y1="122.97" x2="234.39" y2="222.024" gradientUnits="userSpaceOnUse">
<stop stop-color="#FF9673"/>
<stop offset="1" stop-color="#FFB38E"/>
</linearGradient>
<linearGradient id="paint8_linear_126_1210" x1="259.234" y1="56" x2="224.975" y2="158.894" gradientUnits="userSpaceOnUse">
<stop stop-color="#543A14"/>
<stop offset="1" stop-color="#301F07"/>
</linearGradient>
<clipPath id="clip0_126_1210">
<rect width="448" height="538" rx="30" fill="white"/>
</clipPath>
</defs>
</svg>
