<svg width="448" height="538" viewBox="0 0 448 538" fill="none" xmlns="http://www.w3.org/2000/svg">
<g clip-path="url(#clip0_126_1023)">
<rect width="448" height="538" rx="30" fill="white"/>
<path d="M329.063 381.583L337.413 580.92L317.583 597.619L300.885 395.15L329.063 381.583Z" fill="#C36051"/>
<path d="M215.47 271.898C215.47 271.898 214.2 271.884 212.357 272.077C208.075 272.525 205.409 276.489 205.409 280.794V300.035L176.709 574.12C176.709 574.12 255.108 585.245 319.001 574.12L279.154 302.498L276.813 288.118C276.277 284.825 274.2 281.999 271.08 280.817C262.595 277.601 243.326 271.768 215.47 271.919V271.898Z" fill="url(#paint0_linear_126_1023)"/>
<path d="M264.773 498.998L236.198 504.112C233.276 504.633 230.583 502.379 230.583 499.415V451.344C230.583 449.028 232.232 447.045 234.528 446.648L263.103 441.534C266.025 441.012 268.718 443.267 268.718 446.231V494.301C268.718 496.618 267.069 498.601 264.773 498.998Z" fill="#DABC80"/>
<path d="M263.272 493.467L236.012 498.351V452.18L263.272 447.295V493.467Z" fill="#803E3C"/>
<path d="M240.98 445.48L242.776 438.988L255.571 436.692L258.91 442.265L240.98 445.48Z" fill="#DABC80"/>
<path d="M242.773 438.987V428.405L255.569 426.088V436.691L242.773 438.987Z" fill="#803E3C"/>
<path d="M242.773 428.405V422.102L255.569 419.994V426.089L242.773 428.405Z" fill="#DABC80"/>
<path d="M255.571 419.993L203.054 303.021L200.027 328.59L242.775 422.101" fill="#803E3C"/>
<path d="M246.741 400.331L282.079 310.014L289.427 329.238L254.381 417.343L246.741 400.331Z" fill="url(#paint1_linear_126_1023)"/>
<path d="M259.2 471.792V473.884H255.223C255.105 473.884 254.988 473.879 254.875 473.874C254.334 473.842 253.818 473.738 253.324 473.569C253.15 473.508 252.976 473.442 252.807 473.367C252.784 473.353 252.756 473.343 252.732 473.329C251.496 472.751 250.499 471.759 249.912 470.527C249.898 470.495 249.884 470.461 249.869 470.424C249.789 470.259 249.724 470.085 249.663 469.907C249.498 469.428 249.395 468.92 249.362 468.394C249.353 468.267 249.348 468.139 249.348 468.008V464.03H251.336C251.989 464.03 252.563 464.345 252.93 464.825C253.179 465.158 253.324 465.572 253.324 466.019V469.906H257.212C257.668 469.906 258.091 470.062 258.429 470.32C258.872 470.663 259.168 471.195 259.2 471.792Z" fill="#DCCEA5"/>
<path d="M253.326 479.76V476.055L253.327 476.055C253.327 475.642 253.06 475.28 252.667 475.153C250.492 474.449 248.771 472.736 248.063 470.565C247.936 470.173 247.574 469.907 247.162 469.907H243.474V471.895C243.474 472.544 243.789 473.122 244.273 473.489C244.602 473.738 245.015 473.883 245.462 473.883H246.557L245.21 475.208C244.253 476.15 244.246 477.691 245.194 478.642L246.308 479.759L247.455 478.612L249.35 476.713V477.771C249.35 478.228 249.505 478.651 249.768 478.984C250.13 479.455 250.699 479.76 251.338 479.76H253.326Z" fill="#DCCEA5"/>
<path d="M192.337 576.746H207.992L207.375 575.306C201.585 561.796 198.599 547.25 198.599 532.55V512.039L205.904 309.571L202.773 305.396L192.337 365.928L181.9 572.571L192.337 576.746Z" fill="#323131" fill-opacity="0.14"/>
<path d="M298.79 571.527L281.048 336.705H284.179L311.314 575.702L274.786 578.833L298.79 571.527Z" fill="#E2C8AA"/>
<path d="M194.725 330.657L173.518 299.639C173.518 299.639 152.499 298.784 135.612 294.233C118.726 289.662 99.1054 318.801 99.1054 318.801C99.1054 318.801 28.137 414.587 26.9681 416.153C25.7992 417.697 7.57699 451.449 23.4823 477.812C39.3875 504.195 107.642 589.9 107.642 589.9C107.642 589.9 129.538 577.627 142.626 558.591L143.043 617.933C143.043 617.933 133.734 618.35 140.413 628.766C140.413 628.766 95.3899 825.223 87.8339 905C87.8339 905 105.012 944.888 173.518 939.503C173.518 939.503 193.139 690.112 182.055 605.388L189.173 523.044L194.725 330.657ZM88.648 449.508C88.648 449.508 121.502 421.288 128.015 413.022L142.417 529.118V531.184C126.783 510.833 93.9289 466.833 88.648 449.508Z" fill="url(#paint2_linear_126_1023)"/>
<path d="M201.73 299.154C201.73 299.154 190.626 300.428 183.738 304.769C183.738 304.769 175.556 303.997 171.485 301.951C167.415 299.906 170.212 336.684 181.692 352.005L159.984 384.943C159.984 384.943 177.226 569.168 180.857 579L185.616 577.163C185.616 577.163 198.787 421.011 201.73 372.419C204.674 323.826 201.73 312.179 201.73 312.179V299.134V299.154Z" fill="#C85543"/>
<path d="M83.7988 436.896C85.5383 443.158 90.0607 457.143 94.2354 462.988" stroke="#A94A4A" stroke-width="2.08731"/>
<path d="M213.212 356.535L206.95 311.657L205.906 340.88L213.212 356.535Z" fill="#672B29"/>
<path d="M282.09 349.23L278.959 318.964L273.741 368.015L282.09 349.23Z" fill="#672B29"/>
<path d="M281.048 311.658C259.34 333.366 221.908 317.92 205.905 307.483L204.861 312.701C231.579 338.584 260.523 336.705 274.786 329.4L281.048 311.658Z" fill="#D0AF8A" fill-opacity="0.2"/>
<path d="M206.352 308.385C206.352 308.385 227.851 322.475 253.566 321.765" stroke="#E7C59F" stroke-width="2.08731" stroke-miterlimit="10"/>
<path d="M262.437 321.307C262.437 321.307 270.786 320.973 278.3 314.836" stroke="#E7C59F" stroke-width="2.08731" stroke-miterlimit="10"/>
<path d="M205.433 286.99C205.433 286.99 194.328 288.263 187.44 292.605C187.44 292.605 179.258 291.833 175.188 289.787C171.117 287.742 173.914 324.52 185.394 339.841L163.687 372.778C163.687 372.778 180.928 557.004 184.56 566.835L189.319 564.999C189.319 564.999 202.49 408.847 205.433 360.255C208.376 311.662 205.433 300.015 205.433 300.015V286.969V286.99Z" fill="#A94A4A"/>
<path d="M205.906 279.304C205.906 272.624 212.864 271.65 216.343 271.998L248.696 276.173C263.307 277.216 287.52 282.017 267.482 292.871C242.434 306.439 205.906 287.653 205.906 279.304Z" fill="#F6D7B4"/>
<path d="M217.706 268.141L215.535 279.434C215.535 279.434 237.974 298.178 262.708 286.99L264.357 268.141L218.186 263.591L217.706 268.141Z" fill="url(#paint3_linear_126_1023)"/>
<path d="M275.831 315.832C275.831 298.299 268.873 291.828 265.395 290.784L269.569 280.348C276.249 282.853 277.918 288.349 277.918 290.784L280.006 312.701L275.831 315.832Z" fill="#F6D7B4"/>
<path d="M263.306 283.479L217.386 270.955V262.606L264.35 265.737L263.306 283.479Z" fill="#DE8365" fill-opacity="0.37"/>
<path d="M161.955 187.489C161.955 187.489 145.799 184.358 161.955 225.603C161.955 225.603 167.611 229.882 181.221 230.654C181.221 230.654 187.441 257.893 194.058 262.172C200.674 266.451 286.65 284.34 307.67 257.121C328.689 229.903 316.228 183.397 327.123 154.801L273.813 107.92H215.056L187.441 133.219L161.955 187.509V187.489Z" fill="url(#paint4_linear_126_1023)"/>
<path d="M161.953 187.489L155.691 170.31C155.691 170.31 150.306 176.238 148.135 166.804C145.964 157.369 120.75 113.16 161.932 100.219C161.932 100.219 159.553 92.5164 160.304 85.524C160.534 83.3949 163.393 82.8522 164.395 84.7517C166.691 89.135 170.073 94.8751 172.39 95.3552C172.39 95.3552 188.566 60.852 222.798 60.5807C257.03 60.3093 262.039 52.7533 257.739 64.8388C253.44 76.9243 316.831 48.4534 336.243 117.021C336.243 117.021 340.689 124.724 347.577 128.314C354.465 131.904 335.304 130.714 335.304 130.714C335.304 130.714 338.894 139.105 343.695 142.09C348.496 145.075 337.996 145.993 337.996 145.993C337.996 145.993 339.186 151.692 342.484 153.487C345.782 155.282 297.273 163.673 264.022 145.701C264.022 145.701 271.203 159.477 280.491 162.462C289.78 165.447 239.768 161.168 214.908 122.741C214.908 122.741 211.318 150.794 195.747 165.468L187.669 197.8C187.669 197.8 180.781 196.005 177.796 187.614L161.953 187.468V187.489Z" fill="url(#paint5_linear_126_1023)"/>
<path d="M165.815 201.703L181.616 204.187V219.132L171.827 217.17V208.028" fill="#DC7F5F"/>
<path d="M250.581 177.803C246.093 174.401 240.291 173.253 234.864 174.756C227.579 176.76 216.996 180.412 207.395 186.486C204.347 188.407 202.469 191.746 202.469 195.337V200.033C202.469 200.033 218.478 206.733 254.589 204.396C254.589 204.396 261.79 201.369 256.885 186.612C255.716 183.105 253.524 180.016 250.581 177.782V177.803Z" fill="#FDFCFC"/>
<path d="M285.104 182.041C287.755 179.327 291.554 178.075 295.311 178.68L306.311 180.496C310.465 181.185 313.93 184.065 315.349 188.01L316.351 190.766C317.749 194.669 317.749 198.948 316.288 202.851L314.994 206.358H289.55C289.55 206.358 284.394 202.809 282.077 192.602C281.201 188.804 282.39 184.838 285.104 182.041Z" fill="#FDFCFC"/>
<path d="M242.858 168.85C247.162 168.402 249.725 163.827 247.86 159.923L247.787 159.77C246.494 157.064 243.465 155.654 240.562 156.407L216.766 162.586C214.786 163.1 213.403 164.887 213.403 166.933C213.403 169.598 215.71 171.677 218.36 171.401L242.858 168.85Z" fill="#543A14"/>
<path d="M297.953 160.451C294.901 159.701 291.953 162.011 291.953 165.154C291.953 167.829 294.121 169.997 296.796 169.997H312.329C313.964 169.997 315.289 168.671 315.289 167.036C315.289 165.674 314.359 164.487 313.036 164.162L297.953 160.451Z" fill="#543A14"/>
<path d="M237.848 204.897C237.848 204.897 233.798 191.33 237.263 188.136C240.728 184.943 252.041 185.089 253.335 188.136C254.63 191.184 256.884 202.246 256.884 202.246L254.567 204.417C254.567 204.417 241.897 205.002 237.827 204.918L237.848 204.897Z" fill="#543A14"/>
<path d="M295.355 206.358C295.355 206.358 291.118 192.102 294.416 189.513C297.714 186.925 306 187.259 307.733 189.513C309.465 191.768 312.596 198.885 310.237 206.358H295.355Z" fill="#543A14"/>
<path d="M285.627 201.703L289.989 208.508L286.629 216.147" fill="#FFAA86"/>
<path d="M285.627 201.703L289.989 208.508L286.629 216.147" stroke="#DC7F5F" stroke-width="2.08731" stroke-miterlimit="10"/>
<path d="M241.815 232.825C241.815 232.825 268.115 240.924 276.381 240.005L291.055 233.889" stroke="#DC7F5F" stroke-width="2.08731" stroke-miterlimit="10"/>
<path d="M237.213 215.641L220.515 213.554" stroke="#DC7F5F" stroke-width="2.08731"/>
<path d="M316.548 213.677L299.82 215.519" stroke="#DC7F5F" stroke-width="2.08731"/>
<path d="M123.457 418.11L142.243 398.28" stroke="#A94A4A" stroke-width="2.08731"/>
<path d="M155.811 563.178L140.156 400.368L128.676 412.892L145.374 545.435L155.811 563.178Z" fill="url(#paint6_linear_126_1023)"/>
<path d="M142.627 558.591C142.627 558.591 150.079 547.674 151.791 544.627L135.635 522.251" fill="#E56D5B"/>
<path d="M142.627 558.591C142.627 558.591 150.079 547.674 151.791 544.627L135.635 522.251" stroke="#A94A4A" stroke-width="2.08731" stroke-miterlimit="10"/>
<path d="M308.314 536.528L324.324 920.76C324.324 920.76 361.749 904.583 375.922 868.159C375.922 868.159 336.388 628.098 336.012 581.781C336.012 581.781 411.594 508.913 430.734 476.184C430.734 476.184 435.055 468.461 425.182 455.499C415.309 442.537 330.46 299.556 319.585 294.922C308.71 290.289 278.319 289.475 278.319 289.475L309.963 370.504L359.975 468.816C359.975 468.816 328.728 516.386 317.039 531.978L308.356 536.528H308.314Z" fill="url(#paint7_linear_126_1023)"/>
<path d="M304.426 299.384C297.267 295.501 286.1 294.959 286.1 294.959L285.225 295.773L286.976 307.963C286.976 307.963 284.785 319.777 290.942 368.077C297.1 416.377 318.069 585.361 318.069 585.361L321.2 579.099L309.582 346.39C320.039 330.339 320.415 293.456 316.47 295.773C312.525 298.09 304.426 299.384 304.426 299.384Z" fill="#C85543"/>
<path d="M356.192 475.511L366.629 456.725" stroke="#A94A4A" stroke-width="2.08731"/>
<path d="M308.318 536.528C317.482 561.555 335.996 581.76 335.996 581.76C335.996 581.76 356.848 592.217 353.154 602.028L351.296 607.58L354.97 611.817L345.994 631.939L337.52 624.779L332.761 629.538C332.761 629.538 320.049 617.954 320.717 607.58C320.717 607.58 312.681 599.544 312.91 584.202L308.318 536.486V536.528Z" fill="url(#paint8_linear_126_1023)"/>
<path d="M340.537 373.233L331.144 366.971L328.013 406.63L359.322 469.249L363.497 462.987L334.275 402.455C337.406 395.15 340.537 387.844 340.537 373.233Z" fill="#C85543"/>
<path d="M278.3 289.475C278.3 289.475 289.467 290.017 296.626 293.9C296.626 293.9 304.725 292.606 308.67 290.289C312.615 287.972 312.239 324.854 301.782 340.906C313.847 352.866 325.264 360.485 336.014 363.532C336.014 363.532 316.385 563.554 313.4 573.615L310.269 579.877C310.269 579.877 289.3 410.893 283.142 362.593C276.985 314.293 279.176 302.479 279.176 302.479L277.425 290.289L278.3 289.475Z" fill="#A94A4A"/>
<path d="M181.9 227.122V231.296" stroke="#DC7F5F" stroke-width="2.08731"/>
</g>
<defs>
<linearGradient id="paint0_linear_126_1023" x1="247.855" y1="271.898" x2="247.855" y2="579.064" gradientUnits="userSpaceOnUse">
<stop stop-color="#FFE1BE"/>
<stop offset="1" stop-color="#FFE1BE"/>
</linearGradient>
<linearGradient id="paint1_linear_126_1023" x1="286.267" y1="320.007" x2="244.52" y2="416.023" gradientUnits="userSpaceOnUse">
<stop stop-color="#803E3C"/>
<stop offset="1" stop-color="#642826"/>
</linearGradient>
<linearGradient id="paint2_linear_126_1023" x1="105.862" y1="293.747" x2="105.862" y2="940.003" gradientUnits="userSpaceOnUse">
<stop stop-color="#E17564"/>
<stop offset="1" stop-color="#EA604A"/>
</linearGradient>
<linearGradient id="paint3_linear_126_1023" x1="246.598" y1="258.795" x2="235.918" y2="283.249" gradientUnits="userSpaceOnUse">
<stop stop-color="#FF9673"/>
<stop offset="1" stop-color="#FFB38E"/>
</linearGradient>
<linearGradient id="paint4_linear_126_1023" x1="264.429" y1="78.7512" x2="179.342" y2="191.828" gradientUnits="userSpaceOnUse">
<stop stop-color="#FF9673"/>
<stop offset="1" stop-color="#FFB38E"/>
</linearGradient>
<linearGradient id="paint5_linear_126_1023" x1="243.801" y1="58" x2="221.581" y2="119.483" gradientUnits="userSpaceOnUse">
<stop stop-color="#543A14"/>
<stop offset="1" stop-color="#301F07"/>
</linearGradient>
<linearGradient id="paint6_linear_126_1023" x1="142.243" y1="400.368" x2="142.243" y2="563.178" gradientUnits="userSpaceOnUse">
<stop stop-color="#C85543"/>
<stop offset="1" stop-color="#C85543" stop-opacity="0"/>
</linearGradient>
<linearGradient id="paint7_linear_126_1023" x1="354.998" y1="289.475" x2="354.998" y2="920.76" gradientUnits="userSpaceOnUse">
<stop stop-color="#E17564"/>
<stop offset="1" stop-color="#EA604A"/>
</linearGradient>
<linearGradient id="paint8_linear_126_1023" x1="338" y1="519.507" x2="291.898" y2="547.997" gradientUnits="userSpaceOnUse">
<stop stop-color="#FF9673"/>
<stop offset="1" stop-color="#FFB38E"/>
</linearGradient>
<clipPath id="clip0_126_1023">
<rect width="448" height="538" rx="30" fill="white"/>
</clipPath>
</defs>
</svg>
