<svg width="360" height="477" viewBox="0 0 360 477" fill="none" xmlns="http://www.w3.org/2000/svg">
<path d="M18.2729 504.561C18.2729 504.561 25.3519 529.275 38.6931 535.077C38.6931 535.077 44.4945 550.177 54.3799 554.24L77.9416 847.955C77.9416 847.955 109.525 867.349 136.123 860.71C162.722 854.071 160.502 845.756 160.502 845.756L158.282 683.337L192.65 879.727C192.65 879.727 262.477 890.66 286.311 866.826C286.311 866.826 289.075 860.731 280.216 857.966V486.801L222.788 469.941L25.1423 474.507L18.252 486.801V504.603L18.2729 504.561Z" fill="url(#paint0_linear_126_717)"/>
<path d="M124.757 227.727V181.651L131.04 173.273H199.107L202.249 182.698L204.343 223.538L124.757 227.727Z" fill="url(#paint1_linear_126_717)"/>
<path d="M135.996 212.377C135.996 212.377 147.62 215.811 157.694 213.717L170.595 200.522L188.544 226.011L219.002 192.683C219.002 192.683 268.053 182.693 304.011 208.834C307.178 211.136 309.764 214.101 311.65 217.532C320.188 233.067 344.969 286.162 359.361 400.43C359.361 400.43 321.076 491.473 265.219 511.139C265.219 511.139 264.779 516.585 260.423 516.585C260.423 516.585 233.552 506.05 221.928 478.467C221.928 478.467 215.038 478.823 208.86 485.357C208.86 485.357 175.329 523.852 135.996 520.941C96.6639 518.03 62.9026 512.961 46.2104 491.892C46.2104 491.892 36.3878 480.142 25.8531 485.19L18.2715 504.563C18.2715 504.563 12.8051 501.191 13.224 492.353C13.224 492.353 -0.661663 480.98 0.176087 459.094L21.2244 346.689C21.2244 346.689 7.90435 272.024 22.7116 243.918C22.7116 243.918 55.5932 207.329 108.539 199.685L107.596 216.398L128.624 201.716L135.996 212.356V212.377Z" fill="url(#paint2_linear_126_717)"/>
<path d="M231.57 319.392C239.947 325.256 251.466 331.958 272.41 382.223L278.693 376.987L227.381 225.145L240.635 304.669C241.484 309.762 239.132 314.855 234.705 317.511L231.57 319.392Z" fill="#592120"/>
<path d="M16.8961 275.41C20.9849 266.149 25.5727 263.691 39.9342 262.844C24.8551 278.761 27.7174 328.118 30.5096 350.807L25.2736 380.129L21.0853 406.308L18.9905 440.866L21.0853 459.715L30.5096 482.753L25.2736 484.847L18.9905 504.744C13.1262 502.231 12.3586 494.621 12.7078 491.131C0.979338 482.753 -0.556537 465.3 0.141588 457.621L21.0853 347.666C19.4098 341.802 13.7546 291.118 16.8961 275.41Z" fill="#592120"/>
<path d="M41.2146 316.923C36.87 327.28 29.5972 361.327 26.3213 378.034L30.51 350.808C25.4835 327.351 29.1138 297.052 31.5572 284.835C29.8817 295.725 31.5572 322.883 32.6044 335.1L41.2146 316.923C41.4993 316.244 41.7715 315.667 42.0291 315.203L41.2146 316.923Z" fill="#592120"/>
<path d="M40.0547 261.593C40.0547 261.593 22.0432 286.495 30.4835 351.044C30.4835 351.044 10.9848 439.95 23.8024 465.795L30.4835 483.974" stroke="#401312" stroke-width="2.09437" stroke-miterlimit="10"/>
<path d="M228.429 202.107L188.636 226.193L216.91 192.683C227.444 191.114 233.425 190.797 244.137 190.588L228.429 202.107Z" fill="#592120"/>
<path d="M84.9629 205.248L108.001 215.72L111.143 198.965C107.792 198.965 91.246 203.154 84.9629 205.248Z" fill="#592120"/>
<path d="M105.906 220.956V213.626V211.532H119.52L105.906 220.956Z" fill="#592120"/>
<path d="M184.446 219.909L158.267 213.626L170.833 201.06L184.446 219.909Z" fill="#592120"/>
<path d="M113.237 212.579L134.181 211.532L127.898 202.107L113.237 212.579Z" fill="#592120"/>
<path d="M156.646 210.448L168.438 194.426L201.948 181.944L200.796 177.441L214.723 180.834L220.577 194.555C221.685 197.152 220.924 200.17 218.717 201.931L188.544 226.009L170.595 200.521L157.694 213.715L156.646 210.448Z" fill="#A57B5B"/>
<path d="M217.954 188.494L170.831 201.06L157.217 213.626L156.17 210.485L167.689 194.777L201.199 182.211L200.152 176.975L214.812 181.163L217.954 188.494Z" fill="#976946"/>
<path d="M107.577 216.397L108.708 196.501L120.877 186.657L126.364 187.579L138.888 211.476L135.998 212.376L128.605 201.737L107.577 216.397Z" fill="#A57B5B"/>
<path d="M125.8 186.399L138.367 211.532L135.225 212.579L127.895 202.107L124.753 204.202L111.14 194.777L121.612 185.352L125.8 186.399Z" fill="#976946"/>
<path d="M75.8057 108.138L80.0573 128.056C83.4133 142.878 88.0935 155.59 93.5525 167.057C97.9284 176.249 105.984 183.294 115.896 185.616C141.288 191.564 168.315 188.988 196.506 180.355C197.623 180.013 198.658 179.433 199.521 178.647C211.731 167.518 218.747 155.482 222.307 142.8C226.463 145.07 230.752 145.824 235.142 145.252C237.333 144.966 239.146 143.49 240.18 141.538C244.734 132.938 247.856 124.159 248.434 116.201C248.703 112.499 245.816 109.522 242.158 108.892L234.748 107.615L224.611 97.9178L209.867 65.8739L183.121 43.0661L158.24 31.6519L100.875 36.1547L75.8266 52.7422V108.138H75.8057Z" fill="url(#paint3_linear_126_717)"/>
<path d="M147.642 86.7555C147.642 86.7555 146.637 76.9119 151.412 76.9119L176.859 84.3469V88.2006L147.642 86.7345V86.7555Z" fill="#543A14"/>
<path d="M111.681 87.6349C111.681 87.6349 110.697 78.8594 106.529 79.7809L85.7529 91.1115L86.4859 94.4835L111.681 87.6558V87.6349Z" fill="#543A14"/>
<path d="M120.875 128.057L113.691 132.958L117.273 138.571" stroke="#DC7F5F" stroke-width="2.09437" stroke-miterlimit="10"/>
<path d="M118.762 152.058C118.762 152.058 152.9 150.299 170.597 138.57" stroke="#DC7F5F" stroke-width="2.09437" stroke-miterlimit="10"/>
<path d="M166.573 134.193C166.573 134.193 168.5 137.564 174.804 139.722" stroke="#DC7F5F" stroke-width="2.09437" stroke-miterlimit="10"/>
<path d="M229.698 124.726V132.789L222.451 133.313L225.195 121.898L239.876 116.998" fill="#DC7F5F"/>
<path d="M120.558 117.773C123.909 116.935 123.35 109.744 122.652 106.254C108.41 105.416 90.8875 112.886 83.9062 116.725L87.0478 121.961C104.85 120.914 116.369 118.82 120.558 117.773Z" fill="#FEFEFE"/>
<path d="M119.409 106.296C120.594 109.222 121.156 112.022 120.718 114.61C120.31 117.015 118.256 118.731 115.895 119.344C113.815 119.883 111.512 120.171 109.004 120.229C105.293 120.315 101.56 118.274 100.995 114.605C100.74 112.95 100.801 111.238 101.125 109.479C107.22 107.071 113.315 106.002 119.409 106.296Z" fill="#543A14"/>
<path d="M122.781 106.777C108.56 103.364 83.7002 116.998 83.7002 116.998" stroke="#543A14" stroke-width="2.09437" stroke-miterlimit="10"/>
<path d="M147.165 114.631C142.976 113.793 143.325 107.999 144.023 105.206C160.404 101.779 171.25 101.018 185.911 101.018C188.494 104.724 188.809 106.616 185.911 109.395C177.533 113.584 156.589 114.631 147.165 114.631Z" fill="#FEFEFE"/>
<path d="M157.55 102.17C156.858 103.833 156.596 105.647 156.651 107.57C156.749 111.039 159.835 113.584 163.302 113.451C167.537 113.289 171.618 112.453 175.585 111.151C177.898 110.392 179.8 108.539 180.137 106.128C180.409 104.181 180.206 102.373 179.352 100.285L157.529 102.191L157.55 102.17Z" fill="#543A14"/>
<path d="M142.68 105.165C159.77 100.201 186.494 100.055 186.494 100.055" stroke="#543A14" stroke-width="2.09437" stroke-miterlimit="10"/>
<path d="M121.607 97.8764C115.324 93.6876 98.7786 90.3366 82.8613 110.443" stroke="#DC7F5F" stroke-width="2.09437"/>
<path d="M142.548 101.018C142.897 94.3854 151.763 84.0532 184.435 95.7817" stroke="#DC7F5F" stroke-width="2.09437"/>
<path fill-rule="evenodd" clip-rule="evenodd" d="M90.7475 110.587C90.7683 110.63 90.779 110.652 90.779 110.652L90.7997 110.61C90.7823 110.602 90.7649 110.594 90.7475 110.587ZM212.277 107.52C211.818 104.93 207.179 103.011 204.549 102.954C200.166 102.86 198.827 99.3455 198.063 95.0291C196.176 84.3735 192.377 67.6959 192.377 67.6959C192 86.7547 183.036 103.929 183.036 103.929C186.408 68.806 161.757 44.9091 161.757 44.9091H150.175L120.289 62.8369L99.7427 49.433C63.5001 53.4988 89.7083 108.439 90.7475 110.587C82.1931 106.833 77.354 94.9228 77.354 94.9228L78.1079 119.951C71.385 115.846 56.0751 82.6078 56.0751 82.6078C52.7031 55.7161 63.908 29.9554 63.908 29.9554C76.9141 20.0699 92.9152 13.3051 112.456 10.1635L135.619 13.1584C189.403 -14.0894 226.369 9.43038 226.369 9.43038C258.719 32.3654 252.738 83.4457 250.177 98.4214C249.824 100.487 247.554 100.362 245.511 100.829V110.254L233.399 108.211C229.87 107.616 226.352 109.329 224.644 112.474L218.733 122.758C217.758 124.455 215.196 124.007 214.855 122.08L212.277 107.52Z" fill="url(#paint4_linear_126_717)"/>
<path d="M165.596 7.33008C158.056 7.33008 142.208 11.5188 135.227 13.6132C132.714 12.7755 124.406 11.8679 120.567 11.5188C127.269 12.3566 130.333 17.4529 131.028 19.8963C124.318 16.5453 114.277 18.5001 110.095 19.8963C122.661 19.8963 129.991 22.6888 132.086 24.0851L149.888 16.7548C147.375 16.7548 139.067 18.8491 135.227 19.8963C138.578 16.5453 156.869 10.1226 165.596 7.33008Z" fill="#312007"/>
<path d="M271.742 356.134C274.624 364.001 282.358 370.466 286.023 372.798C283.51 372.798 280.089 375.591 278.693 376.987L271.742 356.134C271.604 355.758 271.477 355.378 271.362 354.996L271.742 356.134Z" fill="#592120"/>
<path d="M286.73 372.218C286.73 372.218 255.948 381.846 222.145 478.565" stroke="#401312" stroke-width="2.09437" stroke-miterlimit="10"/>
<path d="M227.689 224.272L278.792 378.25" stroke="#401312" stroke-width="2.09437" stroke-miterlimit="10"/>
<path d="M162.455 213.626C146.538 223.679 133.134 215.721 129.992 209.438C140.045 213.626 153.728 214.673 158.266 213.626H162.455Z" fill="#592120"/>
<path d="M202.322 267.463V270.119H197.273C197.123 270.119 196.974 270.113 196.831 270.107C196.144 270.066 195.488 269.934 194.862 269.72C194.641 269.642 194.42 269.558 194.205 269.463C194.176 269.445 194.14 269.433 194.11 269.415C192.54 268.68 191.274 267.421 190.529 265.858C190.511 265.816 190.493 265.774 190.475 265.726C190.373 265.517 190.29 265.296 190.213 265.07C190.004 264.461 189.873 263.816 189.831 263.148C189.819 262.987 189.812 262.826 189.812 262.659V257.608H192.337C193.166 257.608 193.895 258.008 194.36 258.617C194.677 259.04 194.862 259.566 194.862 260.133V265.069H199.798C200.377 265.069 200.914 265.266 201.344 265.594C201.905 266.03 202.281 266.705 202.322 267.463Z" fill="#DCCEA5"/>
<path d="M194.863 277.579V272.875L194.863 272.875C194.863 272.351 194.524 271.89 194.025 271.729C191.264 270.836 189.079 268.66 188.18 265.904C188.018 265.407 187.558 265.068 187.035 265.068H182.353V267.593C182.353 268.417 182.753 269.15 183.367 269.616C183.785 269.933 184.31 270.117 184.877 270.117H186.268L184.558 271.799C183.342 272.995 183.333 274.952 184.536 276.159L185.951 277.578L187.408 276.122L189.813 273.711V275.054C189.813 275.633 190.01 276.17 190.344 276.594C190.804 277.192 191.526 277.579 192.338 277.579H194.863Z" fill="#DCCEA5"/>
<path d="M222.145 139.276V143.465" stroke="#DC7F5F" stroke-width="2.09437"/>
<defs>
<linearGradient id="paint0_linear_126_717" x1="152.486" y1="403.167" x2="152.486" y2="706.851" gradientUnits="userSpaceOnUse">
<stop stop-color="#FADECA"/>
<stop offset="1" stop-color="#F5EFE7"/>
</linearGradient>
<linearGradient id="paint1_linear_126_717" x1="149.889" y1="179.069" x2="156.573" y2="227.213" gradientUnits="userSpaceOnUse">
<stop stop-color="#FF9673"/>
<stop offset="1" stop-color="#FFB38E"/>
</linearGradient>
<linearGradient id="paint2_linear_126_717" x1="179.75" y1="194.172" x2="179.75" y2="521.098" gradientUnits="userSpaceOnUse">
<stop stop-color="#803D3B"/>
<stop offset="1" stop-color="#5E2422"/>
</linearGradient>
<linearGradient id="paint3_linear_126_717" x1="166.636" y1="42.3753" x2="128.774" y2="133.694" gradientUnits="userSpaceOnUse">
<stop stop-color="#FF9673"/>
<stop offset="1" stop-color="#FFB38E"/>
</linearGradient>
<linearGradient id="paint4_linear_126_717" x1="153.408" y1="3.39157e-06" x2="123.977" y2="128.983" gradientUnits="userSpaceOnUse">
<stop stop-color="#543A14"/>
<stop offset="1" stop-color="#301F07"/>
</linearGradient>
</defs>
</svg>
