<svg width="359" height="481" viewBox="0 0 359 481" fill="none" xmlns="http://www.w3.org/2000/svg">
<path d="M80.5479 250.957C80.5479 250.957 163.025 197.633 277.295 235.304C286.586 238.368 294.138 245.177 298.767 253.797L348.292 346.021C349.544 348.301 348.559 351.176 346.176 352.224L275.321 384.058L286.748 414.068C286.748 414.068 273.152 432.408 245.672 487.655C245.672 487.655 180.69 494.7 152.02 493.057C123.349 491.414 94.0206 484.492 94.0206 484.492L92.1722 474.1C92.1722 474.1 76.2554 470.178 91.474 464.653C91.474 464.653 83.1152 399.794 82.8893 383.2C82.8893 383.2 65.7934 372.002 59.6731 364.547L57.0525 371.329L48.5498 324.236L80.5479 250.957Z" fill="#E6DBB9"/>
<path d="M159.096 300.246C159.293 302.948 157.537 305.065 155.437 305.219C153.337 305.372 151.292 303.532 151.094 300.83C150.897 298.128 152.653 296.011 154.753 295.858C156.853 295.704 158.899 297.544 159.096 300.246Z" fill="#8C815E" stroke="#B7AA80" stroke-width="1.8769"/>
<mask id="path-3-inside-1_126_919" fill="white">
<ellipse cx="155.095" cy="300.538" rx="1.50427" ry="1.7113" transform="rotate(-4.17797 155.095 300.538)"/>
</mask>
<ellipse cx="155.095" cy="300.538" rx="1.50427" ry="1.7113" transform="rotate(-4.17797 155.095 300.538)" fill="#B7AA80"/>
<path d="M154.723 300.565C154.725 300.594 154.714 300.579 154.747 300.534C154.784 300.486 154.896 300.387 155.083 300.373L155.356 304.117C157.438 303.965 158.594 302.034 158.467 300.292L154.723 300.565ZM155.083 300.373C155.27 300.359 155.394 300.441 155.438 300.484C155.478 300.523 155.468 300.54 155.466 300.511L151.722 300.784C151.85 302.527 153.274 304.269 155.356 304.117L155.083 300.373ZM155.466 300.511C155.464 300.482 155.476 300.497 155.442 300.542C155.405 300.59 155.294 300.69 155.107 300.703L154.833 296.959C152.751 297.111 151.595 299.042 151.722 300.784L155.466 300.511ZM155.107 300.703C154.92 300.717 154.795 300.635 154.752 300.592C154.712 300.553 154.721 300.536 154.723 300.565L158.467 300.292C158.34 298.549 156.915 296.807 154.833 296.959L155.107 300.703Z" fill="#B7AA80" mask="url(#path-3-inside-1_126_919)"/>
<path d="M157.042 341.323C157.24 344.024 155.483 346.142 153.383 346.295C151.283 346.449 149.238 344.609 149.041 341.907C148.843 339.205 150.6 337.088 152.7 336.934C154.799 336.781 156.845 338.621 157.042 341.323Z" fill="#8C815E" stroke="#B7AA80" stroke-width="1.8769"/>
<mask id="path-6-inside-2_126_919" fill="white">
<ellipse cx="153.041" cy="341.615" rx="1.50427" ry="1.7113" transform="rotate(-4.17797 153.041 341.615)"/>
</mask>
<ellipse cx="153.041" cy="341.615" rx="1.50427" ry="1.7113" transform="rotate(-4.17797 153.041 341.615)" fill="#B7AA80"/>
<path d="M152.669 341.642C152.671 341.67 152.66 341.655 152.694 341.611C152.73 341.562 152.842 341.463 153.029 341.449L153.302 345.193C155.384 345.041 156.54 343.111 156.413 341.368L152.669 341.642ZM153.029 341.449C153.216 341.436 153.341 341.518 153.384 341.56C153.424 341.6 153.415 341.616 153.413 341.587L149.669 341.861C149.796 343.603 151.22 345.345 153.302 345.193L153.029 341.449ZM153.413 341.587C153.411 341.559 153.422 341.574 153.388 341.618C153.351 341.667 153.24 341.766 153.053 341.78L152.78 338.036C150.698 338.188 149.541 340.118 149.669 341.861L153.413 341.587ZM153.053 341.78C152.866 341.793 152.741 341.711 152.698 341.669C152.658 341.629 152.667 341.613 152.669 341.642L156.413 341.368C156.286 339.626 154.861 337.884 152.78 338.036L153.053 341.78Z" fill="#B7AA80" mask="url(#path-6-inside-2_126_919)"/>
<path d="M157.042 388.56C157.24 391.262 155.483 393.379 153.383 393.532C151.283 393.686 149.238 391.846 149.041 389.144C148.843 386.442 150.6 384.325 152.7 384.172C154.799 384.018 156.845 385.858 157.042 388.56Z" fill="#8C815E" stroke="#B7AA80" stroke-width="1.8769"/>
<mask id="path-9-inside-3_126_919" fill="white">
<ellipse cx="153.041" cy="388.852" rx="1.50427" ry="1.7113" transform="rotate(-4.17797 153.041 388.852)"/>
</mask>
<ellipse cx="153.041" cy="388.852" rx="1.50427" ry="1.7113" transform="rotate(-4.17797 153.041 388.852)" fill="#B7AA80"/>
<path d="M152.669 388.879C152.671 388.908 152.66 388.893 152.694 388.848C152.73 388.8 152.842 388.701 153.029 388.687L153.302 392.431C155.384 392.279 156.54 390.348 156.413 388.606L152.669 388.879ZM153.029 388.687C153.216 388.673 153.341 388.755 153.384 388.798C153.424 388.837 153.415 388.854 153.413 388.825L149.669 389.098C149.796 390.841 151.22 392.583 153.302 392.431L153.029 388.687ZM153.413 388.825C153.411 388.796 153.422 388.811 153.388 388.856C153.351 388.904 153.24 389.004 153.053 389.017L152.78 385.273C150.698 385.425 149.541 387.356 149.669 389.098L153.413 388.825ZM153.053 389.017C152.866 389.031 152.741 388.949 152.698 388.906C152.658 388.867 152.667 388.85 152.669 388.879L156.413 388.606C156.286 386.863 154.861 385.121 152.78 385.273L153.053 389.017Z" fill="#B7AA80" mask="url(#path-9-inside-3_126_919)"/>
<path d="M157.042 433.743C157.24 436.445 155.483 438.562 153.383 438.716C151.283 438.869 149.238 437.029 149.041 434.327C148.843 431.626 150.6 429.508 152.7 429.355C154.799 429.201 156.845 431.041 157.042 433.743Z" fill="#8C815E" stroke="#B7AA80" stroke-width="1.8769"/>
<mask id="path-12-inside-4_126_919" fill="white">
<ellipse cx="153.041" cy="434.035" rx="1.50427" ry="1.7113" transform="rotate(-4.17797 153.041 434.035)"/>
</mask>
<ellipse cx="153.041" cy="434.035" rx="1.50427" ry="1.7113" transform="rotate(-4.17797 153.041 434.035)" fill="#B7AA80"/>
<path d="M152.669 434.062C152.671 434.091 152.66 434.076 152.694 434.031C152.73 433.983 152.842 433.883 153.029 433.87L153.302 437.614C155.384 437.461 156.54 435.531 156.413 433.789L152.669 434.062ZM153.029 433.87C153.216 433.856 153.341 433.938 153.384 433.981C153.424 434.02 153.415 434.036 153.413 434.008L149.669 434.281C149.796 436.024 151.22 437.766 153.302 437.614L153.029 433.87ZM153.413 434.008C153.411 433.979 153.422 433.994 153.388 434.039C153.351 434.087 153.24 434.186 153.053 434.2L152.78 430.456C150.698 430.608 149.541 432.539 149.669 434.281L153.413 434.008ZM153.053 434.2C152.866 434.214 152.741 434.132 152.698 434.089C152.658 434.05 152.667 434.033 152.669 434.062L156.413 433.789C156.286 432.046 154.861 430.304 152.78 430.456L153.053 434.2Z" fill="#B7AA80" mask="url(#path-12-inside-4_126_919)"/>
<path d="M224.177 307.654V310.31H219.127C218.978 310.31 218.829 310.304 218.685 310.298C217.999 310.257 217.343 310.125 216.716 309.91C216.495 309.833 216.274 309.749 216.06 309.654C216.03 309.636 215.994 309.624 215.964 309.606C214.394 308.871 213.129 307.612 212.383 306.048C212.365 306.007 212.347 305.965 212.329 305.917C212.228 305.708 212.145 305.487 212.067 305.261C211.858 304.652 211.727 304.007 211.685 303.339C211.673 303.178 211.667 303.017 211.667 302.85V297.799H214.192C215.021 297.799 215.749 298.199 216.215 298.808C216.531 299.231 216.716 299.757 216.716 300.324V305.26H221.652C222.231 305.26 222.768 305.457 223.198 305.785C223.76 306.221 224.135 306.896 224.177 307.654Z" fill="#B57F56"/>
<path d="M216.717 317.77V313.067L216.718 313.066C216.718 312.542 216.379 312.081 215.88 311.92C213.118 311.027 210.933 308.851 210.034 306.095C209.872 305.598 209.413 305.26 208.89 305.26H204.207V307.784C204.207 308.608 204.607 309.342 205.222 309.807C205.639 310.124 206.165 310.309 206.732 310.309H208.122L206.412 311.991C205.197 313.186 205.187 315.143 206.391 316.35L207.806 317.769L209.262 316.313L211.668 313.902V315.245C211.668 315.824 211.864 316.362 212.199 316.785C212.658 317.383 213.38 317.77 214.192 317.77H216.717Z" fill="#B57F56"/>
<path d="M226.798 259.804L148.754 293.691L187.776 264.938C187.776 264.938 207.287 222.836 215.502 221.809C223.717 220.782 245.175 227.389 258.631 236.185L216.529 250.562L226.798 259.804Z" fill="#BBAB77" fill-opacity="0.33"/>
<path d="M128.216 256.723C130.68 269.867 140.881 288.214 145.673 295.745L147.726 235.158L136.431 228.997C123.286 232.283 113.154 236.527 109.731 238.239C122.876 245.632 134.377 244.743 138.484 243.373L128.216 256.723Z" fill="#BBAB77" fill-opacity="0.33"/>
<path d="M215.46 259.931L207.922 251.614L246.965 236.251C232.917 218.034 198.303 206.405 198.303 206.405V211.54L199.851 214.132C199.851 214.132 192.088 250.053 156.29 279.894L148.075 292.422C147.787 292.874 148.26 293.408 148.732 293.182L215.46 259.952V259.931Z" fill="#B7AA80"/>
<path d="M150.642 215.016C150.642 215.016 122.053 233.397 114.762 237.032C114.762 237.032 126.222 243.543 139.489 246.397L132.712 258.371C132.712 258.371 138.401 283.715 145.938 292.833C146.349 293.326 147.15 293.08 147.212 292.443L156.289 213.906L150.642 215.016Z" fill="#B7AA80"/>
<path d="M251.444 470.317C256.373 465.388 253.498 459.363 251.444 456.967L257.605 425.133C248.485 411.453 245.832 394.458 250.349 378.648L251.444 374.816L237.067 298.826L276.089 384.058L293.546 415.891C282.867 426.571 258.632 461.075 251.444 477.505V470.317Z" fill="#D8CBA3"/>
<path d="M275.062 385.085L236.04 296.772C236.382 284.449 246.104 256.107 282.25 241.32" stroke="#B7AA80" stroke-width="2.05378"/>
<path d="M255.551 366.601L249.39 380.977" stroke="#B7AA80" stroke-width="2.05378"/>
<path d="M250.417 412.811L260.686 429.241" stroke="#B7AA80" stroke-width="2.05378"/>
<path d="M82.0052 307.041L77.4019 337.949C76.0715 346.882 66.8435 352.315 58.3867 349.143V361.466L74.817 377.896L84.059 383.031C80.773 369.065 81.3207 326.552 82.0052 307.041Z" fill="#D8CBA3"/>
<path d="M84.0613 385.085C82.6921 363.52 80.3645 314.64 82.0075 291.637" stroke="#B7AA80" stroke-width="2.05378"/>
<path d="M19.0592 242.187C19.0592 242.187 14.2122 282.051 8.52324 301.459C2.83426 320.868 -15.732 406.469 30.8273 401.52C40.8909 400.452 75.374 378.25 75.374 378.25L58.3686 361.574C58.3686 361.574 58.3686 297.619 49.6195 256.646L19.0592 227.97" fill="url(#paint0_linear_126_919)"/>
<path d="M58.3867 357.359V367.628" stroke="#DC7F5F" stroke-width="2.05378"/>
<path d="M31.9081 188.747C21.3045 175.065 10.1689 173.911 7.30273 174.56L21.6897 197.796L31.9081 188.747Z" fill="#F39573"/>
<path d="M92.2764 474.424L94.3302 484.693L103.572 495.989C153.743 498.29 181.857 498.243 231.934 491.881L247.337 486.747L253.498 472.37C198.046 490.854 178.535 476.478 146.702 478.532C121.235 480.175 99.8069 476.478 92.2764 474.424Z" fill="#D8CBA3"/>
<path d="M161.148 476.873C161.345 479.575 159.589 481.692 157.489 481.845C155.389 481.999 153.343 480.159 153.146 477.457C152.949 474.755 154.705 472.638 156.805 472.485C158.905 472.331 160.95 474.171 161.148 476.873Z" fill="#8C815E" stroke="#B7AA80" stroke-width="1.8769"/>
<mask id="path-31-inside-5_126_919" fill="white">
<ellipse cx="157.146" cy="477.165" rx="1.50427" ry="1.7113" transform="rotate(-4.17797 157.146 477.165)"/>
</mask>
<ellipse cx="157.146" cy="477.165" rx="1.50427" ry="1.7113" transform="rotate(-4.17797 157.146 477.165)" fill="#B7AA80"/>
<path d="M156.775 477.192C156.777 477.22 156.765 477.205 156.799 477.161C156.836 477.112 156.947 477.013 157.134 476.999L157.408 480.743C159.49 480.591 160.646 478.661 160.519 476.918L156.775 477.192ZM157.134 476.999C157.321 476.986 157.446 477.068 157.489 477.11C157.529 477.15 157.52 477.166 157.518 477.137L153.774 477.411C153.902 479.153 155.326 480.895 157.408 480.743L157.134 476.999ZM157.518 477.137C157.516 477.109 157.527 477.124 157.494 477.168C157.457 477.217 157.346 477.316 157.158 477.33L156.885 473.586C154.803 473.738 153.647 475.669 153.774 477.411L157.518 477.137ZM157.158 477.33C156.971 477.343 156.847 477.261 156.803 477.219C156.764 477.18 156.773 477.163 156.775 477.192L160.519 476.918C160.391 475.176 158.967 473.434 156.885 473.586L157.158 477.33Z" fill="#B7AA80" mask="url(#path-31-inside-5_126_919)"/>
<path d="M147.214 292.443C147.214 292.443 140.95 458.06 152.02 493.016" stroke="#B7AA80" stroke-width="2.05378" stroke-miterlimit="10"/>
<path d="M285.333 416.918L290.467 407.676" stroke="#DC7F5F" stroke-width="2.05378"/>
<path d="M286.727 414.048L275.123 384.371L337.045 356.419L357.419 402.074C359.205 406.079 358.938 410.7 356.679 414.459C342.015 438.899 286.029 530.374 258.755 548.406C258.755 548.406 241.585 540.171 230.844 518.093C230.844 518.093 273.255 428.65 286.748 414.048H286.727Z" fill="url(#paint1_linear_126_919)"/>
<path d="M280.197 396.38L339.757 362.493L337.703 356.332L275.062 384.058L280.197 396.38Z" fill="#DE8365" fill-opacity="0.37"/>
<path d="M58.3891 363.52C35.3867 396.38 13.8904 393.642 6.01758 388.165C22.4479 419.999 61.4698 386.111 74.8194 377.896L59.416 362.493L58.3891 363.52Z" fill="#DE8365" fill-opacity="0.37"/>
<path d="M91.248 473.397C92.2749 474.082 94.9449 475.451 97.4094 475.451" stroke="#B7AA80" stroke-width="2.05378"/>
<path d="M55.1547 184.817C52.5251 167.609 42.9094 160.934 39.9443 160.031L41.0883 187.408L55.1547 184.817Z" fill="#F39573"/>
<path d="M41.072 183.813C35.2144 167.421 24.5037 162.698 21.4209 162.376L27.7561 189.035L41.072 183.813Z" fill="#F39573"/>
<path d="M9.54959 213.167L22.3857 247.054C25.22 254.53 32.4699 259.398 40.4386 259.11C47.8733 258.843 56.8483 256.995 63.5437 250.792C68.3701 246.294 70.2596 239.455 68.7398 233.027L57.5876 186.016C56.1911 180.101 51.3853 175.562 45.3883 174.597C39.3912 173.631 31.5457 174.248 22.6939 180.121C16.5325 184.229 12.5071 187.823 9.89882 190.801C6.26362 194.95 5.27781 200.824 7.08514 206.04L9.54959 213.146V213.167Z" fill="#C2CAE1"/>
<path d="M7.04207 195.109C28.4014 195.109 48.1178 185.525 55.306 180.733C56.1275 181.554 57.0175 183.814 57.3598 184.84L68.6556 232.078L67.6287 235.158C55.306 254.053 33.0567 252.615 23.4723 249.535C18.5433 242.963 9.09585 213.251 4.98828 199.217L7.04207 195.109Z" fill="#DFE6F8"/>
<path d="M60.4427 198.19C45.6555 208.048 20.7362 213.251 10.125 214.62C11.768 220.371 15.6018 231.393 17.3132 236.185C37.8511 236.185 58.0466 225.232 65.5772 219.755L60.4427 198.19Z" fill="#B67F55"/>
<path d="M43.4053 236.076C52.1848 233.723 56.8666 223.685 54.2429 213.893C51.6192 204.101 42.5454 197.748 33.7659 200.101C24.9863 202.453 20.3045 212.492 22.9282 222.284C25.5519 232.075 34.6257 238.428 43.4053 236.076Z" fill="#783836" stroke="#DFE6F8" stroke-width="2.05378"/>
<path d="M49.0728 215.265L49.7707 217.87L44.8186 219.197C44.672 219.236 44.5244 219.269 44.3825 219.301C43.6981 219.441 43.0201 219.484 42.3494 219.439C42.1125 219.421 41.874 219.397 41.6385 219.359C41.6046 219.349 41.5661 219.347 41.5322 219.338C39.7997 219.03 38.2279 218.128 37.086 216.79C37.0574 216.754 37.0287 216.717 36.9985 216.675C36.8437 216.497 36.7043 216.302 36.5688 216.101C36.2039 215.559 35.9061 214.961 35.6892 214.317C35.6353 214.162 35.5867 214.005 35.5429 213.841L34.2158 208.889L36.6914 208.225C37.5046 208.007 38.3239 208.208 38.9406 208.683C39.3622 209.015 39.6815 209.482 39.8304 210.038L41.1275 214.878L45.9682 213.581C46.5356 213.429 47.1142 213.482 47.622 213.69C48.287 213.97 48.8329 214.533 49.0728 215.265Z" fill="white"/>
<path d="M44.4142 227.146L43.1783 222.534L43.1788 222.533C43.0412 222.019 42.5877 221.657 42.0562 221.629C39.1131 221.479 36.3992 219.92 34.7934 217.453C34.5038 217.008 33.9642 216.797 33.4513 216.935L28.8594 218.165L29.5227 220.641C29.7392 221.448 30.3243 222.063 31.0495 222.358C31.5419 222.559 32.1057 222.602 32.6617 222.453L34.0254 222.088L32.7905 224.186C31.9127 225.678 32.4174 227.599 33.9151 228.467L35.6756 229.487L36.7212 227.676L38.4466 224.68L38.7994 225.997C38.9517 226.565 39.2856 227.04 39.7248 227.367C40.3325 227.833 41.1423 228.023 41.9386 227.81L44.4142 227.146Z" fill="white"/>
<path d="M18.3388 205.378C16.6958 207.843 11.4928 211.882 9.09675 213.593L7.04297 206.405L14.2312 185.867L34.7691 176.625H49.1456C41.7519 187.305 35.1114 185.183 32.7153 182.787C30.2507 186.073 26.2116 187.579 24.5001 187.921C22.8571 192.85 19.708 201.613 18.3388 205.378Z" fill="#3E4454" fill-opacity="0.13"/>
<path d="M28.2496 169.274C28.9861 172.483 30.4906 177.842 32.9758 181.421C33.7016 182.455 34.8737 183.113 36.1556 183.186C38.6145 183.333 42.9783 183.126 46.7825 180.327C48.3075 179.213 49.0616 177.306 48.6762 175.458C47.8612 171.44 45.8642 164.025 41.7149 160.741C41.7149 160.741 36.0338 157.045 29.4302 164.417C28.2662 165.725 27.8617 167.551 28.2534 169.254L28.2496 169.274Z" fill="url(#paint2_linear_126_919)"/>
<path d="M45.8105 166.353L49.157 176.381" stroke="#DC7F5F" stroke-width="2.05378"/>
<path d="M44.1071 175.437L35.0875 178.972L34.1583 174.814C33.7084 172.8 34.7588 170.753 36.6565 169.944C38.6683 169.086 41.003 169.883 42.0701 171.792L44.1071 175.437Z" fill="#FEEED7"/>
<path d="M3.36818 192.029C3.36818 192.029 0.453929 194.124 1.8505 203.509C2.05588 204.947 3.1237 206.097 4.52027 206.405C7.99117 207.145 14.4606 207.987 17.1305 204.598L18.8767 198.503L22.368 189.097C23.1485 187.002 22.5323 184.66 20.8277 183.223C17.7059 180.573 12.5717 176.466 8.46412 174.576C7.08809 173.94 5.46551 174.309 4.52077 175.521C2.11784 178.581 -0.924256 181.513 0.26694 187.901L3.36818 192.029Z" fill="url(#paint3_linear_126_919)"/>
<path d="M2.93555 191.002L18.3389 198.19" stroke="#DC7F5F" stroke-width="2.05378"/>
<path d="M11.6972 173.676C13.0313 176.687 15.5285 181.661 18.6496 184.701C19.559 185.578 20.835 186.001 22.1072 185.829C24.5492 185.505 28.7937 184.471 31.9956 181C33.2805 179.615 33.6578 177.6 32.9276 175.859C31.3625 172.07 27.9903 165.17 23.2917 162.736C23.2917 162.736 17.0109 160.189 11.9317 168.684C11.0378 170.189 10.9883 172.059 11.6971 173.656L11.6972 173.676Z" fill="url(#paint4_linear_126_919)"/>
<path d="M28.3813 167.466L32.3602 174.519C33.1592 175.935 33.636 177.6 32.7861 178.986C31.7729 180.638 29.6339 182.787 25.5262 184.84" stroke="#DC7F5F" stroke-width="2.05378"/>
<path d="M28.4412 176.707L20.2597 181.895L18.5558 177.99C17.7308 176.099 18.3722 173.889 20.0811 172.733C21.8928 171.508 24.3367 171.846 25.7476 173.517L28.4412 176.707Z" fill="#FEEED7"/>
<path d="M18.2804 185.181L13.9677 194.592L10.1679 192.084C8.32827 190.869 7.61678 188.515 8.47582 186.485C9.38652 184.333 11.7734 183.214 14.0102 183.89L18.2804 185.181Z" fill="#FEEED7"/>
<path d="M14.2118 197.239L11.6401 205.534L8.20775 203.858C6.54597 203.046 5.69975 201.165 6.1952 199.383C6.72045 197.494 8.58543 196.305 10.5196 196.626L14.2118 197.239Z" fill="#FEEED7"/>
<path d="M68.657 241.319C57.1558 235.569 50.1729 224.547 48.1191 219.755L54.2805 220.782L67.6301 230.024L68.657 241.319Z" fill="#3E4454" fill-opacity="0.13"/>
<path d="M69.1397 210.98C64.889 209.431 59.7758 211.503 55.5935 209.778C51.26 207.991 46.4951 203.658 46.4951 214.625C46.4951 225.592 67.2385 230.398 67.2385 230.398L68.4502 240.441C68.4502 240.441 78.4932 234.424 78.4932 223.929C78.4932 216.758 74.0826 212.78 69.1397 210.98Z" fill="url(#paint5_linear_126_919)"/>
<path d="M66.6025 230.024C67.2871 230.366 69.2725 231.051 71.737 231.051" stroke="#DC7F5F" stroke-width="2.05378"/>
<path d="M53.2535 213.593L52.2266 208.459C53.2535 208.459 59.4148 210.513 60.4417 210.513C60.9469 212.028 59.8188 213.593 58.2213 213.593H53.2535Z" fill="#FEEED7"/>
<path d="M189.626 248.321C179.293 262.574 165.495 273.834 156.969 279.315C185.722 256.312 197.702 225.916 200.098 213.594L198.044 211.54V206.405C213.653 209.691 230.563 221.466 237.066 226.943C220.454 217.882 200.733 233.001 189.626 248.321Z" fill="#A0936B"/>
<path d="M149.782 215.647L142.594 271.1L141.567 242.347C140.449 233.547 135.893 231.86 125.137 231.051L149.782 215.647Z" fill="#A0936B"/>
<path d="M197.287 199.217L199.333 212.567L204.467 213.594L198.306 224.889L183.075 252.599L156.05 285.476L146.969 291.637L141.835 277.261L145.684 227.964L149.612 201.897L197.287 199.217Z" fill="url(#paint6_linear_126_919)"/>
<path d="M144.647 237.212L147.728 214.62V212.566L197.019 200.244L199.073 212.566L204.207 213.593L199.073 222.835L144.647 237.212Z" fill="#DE8365" fill-opacity="0.37"/>
<path d="M82.6008 112.696C90.4052 153.155 98.2917 193.122 109.546 209.881C127.389 225.185 168.029 212.258 209.966 197.73C219.057 194.58 228.52 190.071 230.31 180.618C231.824 172.625 231.597 161.935 231.028 150.732C237.798 151.812 244.441 150.162 250.986 145.85C252.826 144.638 254.081 142.728 254.608 140.588C257.593 128.47 257.465 119.005 250.58 115.345L228.933 122.739L209.915 66.7527L128.051 36.1102L75.2275 44.0378L82.6214 112.696H82.6008Z" fill="url(#paint7_linear_126_919)"/>
<path d="M251.465 15.7983C191.392 -25.6061 113.841 27.4637 113.841 27.4637C115.525 23.7669 146.825 9.57528 146.825 9.57528C139.082 6.51514 109.467 22.4114 109.467 22.4114C94.3508 8.19925 88.2511 9.61636 88.2511 9.61636L101.375 25.1019C85.2115 20.3987 44.9573 38.5085 49.0032 92.0301C53.0492 145.552 92.4203 110.535 92.4203 110.535L92.9543 85.5401C92.9543 85.5401 95.234 68.7607 101.211 68.1857L109.467 71.8825C109.467 71.8825 118.277 59.6419 122.262 60.792C122.262 60.792 105.688 86.8592 149.515 94.5404V90.556C149.515 90.556 160.647 107.91 189.934 106.493L207.864 106.781L215.832 149.171H225.218L228.372 126.515C228.692 124.212 230.282 122.285 232.483 121.534L247.996 116.235C249.619 115.681 251.433 115.808 252.68 116.985C254.345 118.557 256.364 121.295 256.292 125.286C256.292 125.286 265.41 109.369 266.232 87.0441C266.232 87.0441 281.266 36.3977 251.424 15.8393L251.465 15.7983Z" fill="url(#paint8_linear_126_919)"/>
<path d="M131.894 105.526L132.633 111.851C132.859 113.844 134.687 115.261 136.679 114.973C144.011 113.926 160.544 111.153 167.999 106.594C168.8 106.101 168.821 104.971 168.081 104.417L165.288 102.281L166.048 100.699C166.459 99.8573 165.884 98.8715 164.959 98.8304C157.689 98.4197 132.448 97.5571 131.914 105.526H131.894Z" fill="#543A14"/>
<path d="M107.617 120.416C109.281 119.533 109.856 117.438 108.849 115.836C107.248 113.269 104.742 110.147 102.503 110.948C99.3405 112.098 93.3641 121.381 91.8238 123.825C91.5773 124.215 91.4746 124.667 91.5156 125.119L91.6798 126.824C91.762 127.748 92.7684 128.282 93.5694 127.83L107.576 120.375L107.617 120.416Z" fill="#543A14"/>
<path d="M131.851 173.94C140.908 167.881 151.382 162.931 162.616 158.577C164.342 157.92 166.272 157.776 167.997 158.454C171.304 159.769 172.228 162.808 170.688 167.676C167.648 174.042 163.212 179.567 155.819 183.305C146.535 186.92 138.793 186.611 132.549 182.36C131.481 181.333 130.659 180.286 130.208 179.218C129.386 177.308 130.126 175.09 131.851 173.919V173.94Z" fill="white"/>
<path d="M145.079 127.524C145.079 127.524 149.454 140.217 156.026 140.401C162.598 140.586 174.387 138.491 176.132 132.946C177.878 127.401 176.132 119.966 176.132 119.966C176.132 119.966 161.509 118.796 145.079 127.524Z" fill="white"/>
<path d="M118.418 130.974C118.418 130.974 124.539 142.558 122.875 144.714C121.212 146.871 109.443 151.43 104.781 147.836C100.119 144.242 97.2852 136.376 97.2852 136.376C97.2852 136.376 114.106 130.071 118.439 130.974H118.418Z" fill="white"/>
<path d="M153.438 127.38C153.438 127.38 152.165 135.164 156.026 140.401C156.026 140.401 166.911 140.709 173.504 136.232C173.504 136.232 173.011 125.511 168.02 123.519C168.02 123.519 159.271 123.314 153.438 127.38Z" fill="#543A14"/>
<path d="M112.28 148.986C112.28 148.986 103.942 142.188 106.756 136.253C109.569 130.317 117.066 131.139 117.066 131.139C117.066 131.139 121.646 134.98 122.755 143.688C122.837 144.345 122.529 144.981 121.974 145.351C120.29 146.44 116.47 148.617 112.28 148.986Z" fill="#543A14"/>
<path d="M248.89 128.082L238.032 127.662C236.71 127.73 235.786 129.001 236.175 130.276L234.54 142.738L241.453 141.625L244.218 132.458" fill="#DC7F5F"/>
<path d="M141.998 129.311C141.998 129.311 155.861 119.782 178.74 119.946" stroke="#DC7F5F" stroke-width="2.05378" stroke-miterlimit="10"/>
<path d="M94.5137 137.444C94.5137 137.444 112.197 130.173 120.515 131.036" stroke="#DC7F5F" stroke-width="2.05378" stroke-miterlimit="10"/>
<path d="M228.853 149.926L231.933 150.953" stroke="#DC7F5F" stroke-width="2.05378"/>
<path d="M200.098 212.567L207.286 213.594" stroke="#877B56" stroke-width="2.05378"/>
<path d="M170.07 159.765C158.98 169.349 150.856 173.113 136.24 178.559C151.767 175.33 159.99 171.611 171.144 165.672C171.86 164.24 171.144 160.302 170.07 159.765Z" fill="#D7DBE1"/>
<defs>
<linearGradient id="paint0_linear_126_919" x1="37.8511" y1="244.4" x2="-13.287" y2="271.938" gradientUnits="userSpaceOnUse">
<stop stop-color="#FF9673"/>
<stop offset="1" stop-color="#FFB38E"/>
</linearGradient>
<linearGradient id="paint1_linear_126_919" x1="312.12" y1="322.267" x2="209.972" y2="408.207" gradientUnits="userSpaceOnUse">
<stop stop-color="#FF9673"/>
<stop offset="1" stop-color="#FFB38E"/>
</linearGradient>
<linearGradient id="paint2_linear_126_919" x1="44.4074" y1="156.614" x2="29.389" y2="168.896" gradientUnits="userSpaceOnUse">
<stop stop-color="#FF9673"/>
<stop offset="1" stop-color="#FFB38E"/>
</linearGradient>
<linearGradient id="paint3_linear_126_919" x1="14.444" y1="168.434" x2="-3.11361" y2="183.798" gradientUnits="userSpaceOnUse">
<stop stop-color="#FF9673"/>
<stop offset="1" stop-color="#FFB38E"/>
</linearGradient>
<linearGradient id="paint4_linear_126_919" x1="25.1493" y1="158.172" x2="12.7439" y2="173.089" gradientUnits="userSpaceOnUse">
<stop stop-color="#FF9673"/>
<stop offset="1" stop-color="#FFB38E"/>
</linearGradient>
<linearGradient id="paint5_linear_126_919" x1="66.8535" y1="201.543" x2="49.3813" y2="222.948" gradientUnits="userSpaceOnUse">
<stop stop-color="#FF9673"/>
<stop offset="1" stop-color="#FFB38E"/>
</linearGradient>
<linearGradient id="paint6_linear_126_919" x1="161.079" y1="211.54" x2="139.831" y2="241.476" gradientUnits="userSpaceOnUse">
<stop stop-color="#FF9673"/>
<stop offset="1" stop-color="#FFB38E"/>
</linearGradient>
<linearGradient id="paint7_linear_126_919" x1="190.537" y1="3.97328" x2="95.6707" y2="124.305" gradientUnits="userSpaceOnUse">
<stop stop-color="#FF9673"/>
<stop offset="1" stop-color="#FFB38E"/>
</linearGradient>
<linearGradient id="paint8_linear_126_919" x1="158.806" y1="2.9364e-06" x2="137.352" y2="154.914" gradientUnits="userSpaceOnUse">
<stop stop-color="#543A14"/>
<stop offset="1" stop-color="#301F07"/>
</linearGradient>
</defs>
</svg>
