<svg width="390" height="488" viewBox="0 0 390 488" fill="none" xmlns="http://www.w3.org/2000/svg">
<path d="M196.129 217.628L210.505 222.762L206.398 225.843L196.129 226.87V217.628Z" fill="#D28568"/>
<path d="M139.245 208.735L141.34 242.088L178.021 273.368L209.382 262.113L198.456 226.254L199.709 208.735H139.245Z" fill="url(#paint0_linear_126_528)"/>
<path d="M113.738 515.037L80.1993 699.796L35.3447 886.751C35.3447 886.751 44.2992 903.654 50.707 904.722C60.5778 910.781 84.882 895.973 84.882 895.973L147.276 899.156L190.96 666.114L253.908 885.109C253.908 885.109 286.494 910.781 338.196 882.562C338.196 882.562 280.731 619.842 258.386 493.739L217.7 468.519L122.384 483.203L113.738 515.058V515.037Z" fill="url(#paint1_linear_126_528)"/>
<path d="M112.188 483.922L105.76 518.569C105.76 518.569 173.35 530.05 186.186 520.931L202.739 485.791C202.739 485.791 211.18 512.49 219.971 519.247L264.23 497.949L260.841 471.271L112.147 483.922H112.188Z" fill="url(#paint2_linear_126_528)"/>
<path d="M164.788 241.226L169.409 261.25L185.408 270.39L192.699 260.572L197.669 236.276L215.127 245.477L235.623 247.551C235.623 247.551 254.333 234.304 260.741 239.932C260.741 239.932 271.031 262.051 269.264 288.032C269.264 288.032 262.857 442.64 267.128 484.23C267.128 484.23 166.904 521.547 109.316 494.889L102.908 460.775L110.363 327.485C110.363 327.485 110.363 288.566 83.1709 251.248C83.1709 251.248 107.139 242.581 125.54 251.454L155.444 235.085L164.768 241.226H164.788Z" fill="#A45B3F"/>
<mask id="mask0_126_528" style="mask-type:alpha" maskUnits="userSpaceOnUse" x="83" y="235" width="187" height="270">
<path d="M164.788 241.226L169.409 261.25L185.408 270.39L192.699 260.573L197.669 236.276L215.127 245.477L235.623 247.552C235.623 247.552 254.333 234.305 260.741 239.932C260.741 239.932 271.031 262.051 269.264 288.032C269.264 288.032 262.857 442.641 267.128 484.23C267.128 484.23 166.904 521.547 109.316 494.889L102.908 460.776L110.363 327.485C110.363 327.485 110.363 288.566 83.1709 251.248C83.1709 251.248 107.139 242.582 125.54 251.454L155.444 235.085L164.768 241.226H164.788Z" fill="#889E73"/>
</mask>
<g mask="url(#mask0_126_528)">
<rect x="69.0293" y="25.7039" width="33.1473" height="430.915" transform="rotate(-30 69.0293 25.7039)" fill="white" fill-opacity="0.12"/>
<rect x="69.0293" y="195.124" width="33.1473" height="430.915" transform="rotate(-30 69.0293 195.124)" fill="white" fill-opacity="0.12"/>
<rect x="69.0293" y="364.543" width="33.1473" height="430.915" transform="rotate(-30 69.0293 364.543)" fill="white" fill-opacity="0.12"/>
<rect width="33.1473" height="430.915" transform="matrix(-0.866025 -0.5 -0.5 0.866025 312.112 25.7039)" fill="white" fill-opacity="0.12"/>
<rect width="33.1473" height="430.915" transform="matrix(-0.866025 -0.5 -0.5 0.866025 312.112 195.124)" fill="white" fill-opacity="0.12"/>
<rect width="33.1473" height="430.915" transform="matrix(-0.866025 -0.5 -0.5 0.866025 312.112 364.543)" fill="white" fill-opacity="0.12"/>
</g>
<path d="M137.596 395.28V336.747L259.796 395.28L265.957 453.813C242.339 467.163 183.806 471.27 163.268 462.028L144.784 457.921L132.461 462.028L108.843 489.754L101.654 453.813L144.776 432.63C140.711 419.379 138.442 404.76 137.596 395.28Z" fill="#5E230C" fill-opacity="0.37"/>
<path d="M74.9229 134.449L76.6892 161.867C76.8946 165.009 79.051 167.679 82.0701 168.542L102.998 174.477L105.894 201.074C106.284 204.586 108.79 207.481 112.199 208.365C126.519 212.022 160.006 219.864 218.014 216.423C226.01 215.949 233.931 214.65 241.727 212.811L249.084 211.076C252.349 209.515 254.588 206.352 254.978 202.758L258.182 172.855C260.318 152.912 260.79 132.847 259.599 112.822L257.053 69.8573L168.165 41.6178L92.914 56.2407L78.0366 135.476L74.9229 134.449Z" fill="url(#paint3_linear_126_528)"/>
<path d="M103.038 143.26L75.6204 138.578V144.924C75.6204 144.924 60.8947 141.248 47.8532 116.499C47.8532 116.499 29.8005 119.518 38.8166 104.115L40.4801 95.7561C40.4801 95.7561 29.4513 95.4275 16.3892 89.0608C16.3892 89.0608 7.70172 74.6843 16.3892 44.5758L0 41.5567C0 41.5567 8.03029 43.5694 11.0288 26.1739C14.0273 8.77832 31.0943 24.5103 31.0943 24.5103C31.0943 24.5103 42.8008 2.10349 54.5074 0.0907848C66.214 -1.92192 82.9318 30.1993 82.9318 30.1993L87.9431 22.8468L78.5778 2.78136L96.6306 23.1754L93.2829 31.2057C93.2829 31.2057 102.977 32.5407 114.683 24.8596C114.683 24.8596 113.78 15.9872 125.938 17.507V10.257C125.938 10.257 135.735 24.0996 141.978 24.5926C148.222 25.0855 169.93 13.9744 211.211 23.504C252.492 33.0335 256.99 69.8168 256.99 69.8168C256.99 69.8168 196.383 54.7216 149.536 72.4663L124.131 69.0364L123.063 99.2065C119.571 111.365 113.04 120.299 103.203 125.68L102.956 143.26H103.038Z" fill="url(#paint4_linear_126_528)"/>
<path d="M74.2455 132.355L134.545 134.532V144.944L103.04 143.281L78.1193 139.025C76.8325 138.805 75.6699 139.826 75.7214 141.13L76.2582 154.741L75.6421 154.597C72.4998 153.858 70.1995 151.167 69.9736 147.943L69.2137 137.633C69.0083 134.716 71.3497 132.272 74.2661 132.375L74.2455 132.355Z" fill="#43321A"/>
<path d="M192.195 127.076L212.98 125.68L226.596 128.411L226.432 128.576C224.255 130.855 222.92 133.813 222.673 136.935L212.364 135.127L196.18 136.935L196.097 135.99C195.81 132.663 194.434 129.52 192.175 127.076H192.195Z" fill="#43321A"/>
<path d="M188.313 172.055L204.374 176.368L223.947 171.788C225.959 171.315 228.075 171.541 229.923 172.466C234.236 174.684 235.9 178.216 234.77 183.104C234.483 184.337 233.949 185.487 233.127 186.452C227.479 193.024 218.278 197.296 205.237 199.062C195.091 199.206 186.013 195.92 179.215 190.046C176.669 187.848 175.395 184.439 176.073 181.153C176.71 178.031 178.168 175.403 180.776 173.431C182.912 171.808 185.726 171.336 188.313 172.034V172.055Z" fill="white"/>
<path d="M49.0236 266.117C55.5752 251.433 82.7057 251.063 82.7057 251.063H82.7263C119.333 288.491 113.341 364.172 105.77 397.334L121.317 446.132L122.905 451.406C124.142 455.512 122.005 459.892 117.982 461.377C79.0561 475.752 57.5733 477.207 51.0979 473.775C44.2383 470.14 49.0236 439.559 49.0236 439.559C21.852 380.698 42.472 280.802 49.0236 266.117Z" fill="url(#paint5_linear_126_528)"/>
<path d="M260.236 239.768C260.236 239.768 277.18 236.687 291.454 253.939C305.728 271.191 325.3 364.803 320.001 384.375C314.703 403.948 249.639 414.915 249.639 414.915L260.236 239.768Z" fill="url(#paint6_linear_126_528)"/>
<path d="M189.204 112.545C191.017 112.557 192.073 110.828 191.897 109.024L191.068 100.529C190.973 99.5564 190.528 98.6452 189.676 98.167C187.125 96.7361 180.428 94.3757 167.551 98.2739C164.31 99.255 164.045 103.451 167.072 104.969C173.666 108.276 183.251 112.506 189.204 112.545Z" fill="#543A14"/>
<path d="M220.602 111.029C218.571 111.142 216.883 109.583 216.638 107.564L216.048 102.689C215.854 101.082 216.629 99.5244 218.153 98.9822C221.718 97.7146 229.115 96.1005 239.7 98.906C242.973 99.7734 243.279 104.002 240.234 105.481C233.966 108.525 227.6 110.638 220.602 111.029Z" fill="#543A14"/>
<path d="M216.594 152.071L223.453 159.691L217.929 166.756" stroke="#DC7F5F" stroke-width="2.05378" stroke-miterlimit="10"/>
<path d="M228.608 142.315L248.037 136.955L249.639 140.529L229.594 143.897L228.608 142.315Z" fill="#543A14"/>
<path d="M85.2271 146.772L97.139 152.502L98.207 165.462L89.7043 163.757C89.7043 163.757 85.1449 159.505 89.7043 153.755" fill="#DC7F5F"/>
<path d="M155.71 134.159C151.097 135.406 148.653 140.421 150.355 144.886L154.552 155.895C154.552 155.895 166.484 152.687 177.5 157.041C177.5 157.041 181.854 149.462 182.312 138.676C179.573 129.289 168.428 130.721 155.71 134.159Z" fill="url(#paint7_linear_126_528)"/>
<path fill-rule="evenodd" clip-rule="evenodd" d="M175.985 156.49C176.145 156.122 176.253 155.724 176.3 155.304L177.797 141.827C178.068 139.394 176.163 137.266 173.715 137.266H162.473C160.011 137.266 158.102 139.418 158.395 141.863L159.908 154.474C159.929 154.648 159.961 154.82 160.003 154.987C164.144 154.57 170.111 154.535 175.985 156.49Z" fill="#543A14"/>
<path d="M188.396 123.729C186.753 122.394 184.987 121.1 183.077 119.785C163.012 117.793 147.526 123.934 134.526 134.511L132.328 141.535L148.533 169.692C163.279 172.013 174.657 171.993 188.458 167.043C193.531 159.095 196.057 150.223 196.221 140.57C196.345 134.039 193.449 127.816 188.376 123.708L188.396 123.729Z" fill="#FEF1DC" fill-opacity="0.5" stroke="#43321A" stroke-width="6.16135" stroke-miterlimit="10"/>
<path d="M228.794 126.563C229.8 125.782 230.848 125.002 231.977 124.242C246.19 122.825 257.177 127.179 266.378 134.675L267.939 139.645L256.458 159.588C246.005 161.231 237.954 161.21 228.157 157.719C224.686 152.297 222.9 146.259 222.674 139.707C222.489 134.593 224.748 129.726 228.794 126.563Z" fill="#FEF1DC" fill-opacity="0.5" stroke="#43321A" stroke-width="6.16135" stroke-miterlimit="10"/>
<path d="M106.79 391.173C87.0739 389.529 76.6681 401.441 73.9297 407.603C86.2524 394.459 100.287 394.595 105.763 396.307L106.79 391.173Z" fill="#D28568"/>
<path d="M105.77 396.307C100.293 394.938 86.2592 395.28 73.9365 407.603" stroke="#D28568" stroke-width="2.05378"/>
<path d="M103.708 459.974C82.3488 446.009 85.2241 430.879 89.3317 425.06L123.219 452.786C121.576 456.072 112.95 458.263 108.842 458.948L102.681 464.082L103.708 459.974Z" fill="#D28568"/>
<path d="M97.5627 408.682L132.079 401.442L138.433 442.519C139.114 446.922 136.16 451.066 131.776 451.859L103.921 456.894C86.7614 443.606 82.4496 427.954 97.5627 408.682Z" fill="#F4D794"/>
<path d="M139.649 256.649L169.429 261.784L165.322 241.246L154.026 234.058L139.649 256.649Z" fill="#6B2F19" fill-opacity="0.5"/>
<path d="M125.077 251.269L136.927 220.421H139.988L140.296 225.227L164.304 241.061L154.549 270.225C142.37 266.138 132.43 259.936 125.098 251.269H125.077Z" fill="#F4D794"/>
<path d="M209.481 246.381L194.077 256.65L203.319 230.977L209.481 246.381Z" fill="#6B2F19" fill-opacity="0.5"/>
<path d="M213.595 262.811L216.676 245.354L210.514 222.762L199.219 218.655V221.735L195.111 239.193L187.923 265.892L192.03 260.757L200.246 239.193L204.353 241.246L213.595 262.811Z" fill="#F4D794"/>
<path d="M214.612 237.139L204.343 242.273V241.246L200.236 239.193L193.048 257.677V260.757L187.913 265.892L199.209 221.735V218.655L210.505 222.762L214.612 237.139Z" fill="#D28568" fill-opacity="0.63"/>
<path d="M140.677 224.816L165.322 241.246L157.107 263.838L131.435 234.058L136.569 219.682H140.677V224.816Z" fill="#D28568" fill-opacity="0.63"/>
<path d="M178.673 181.687C176.208 184.151 181.411 190.929 182.78 192.982C168.403 183.74 179.699 171.418 183.807 172.445C182.159 172.816 179.699 175.525 179.7 177.579C190.38 189.08 216.668 188.083 233.098 180.66C209.479 197.09 183.807 186.137 178.673 181.687Z" fill="#D7DBE1"/>
<path d="M83.1685 29.7063C49.4865 46.1366 40.3814 81.051 40.0391 96.4544C40.7237 102.273 43.3251 114.528 48.2542 116.992C45.8581 96.7966 51.5403 51.4765 93.4375 31.7601C92.0683 30.3909 88.0976 28.0633 83.1685 29.7063Z" fill="#F4D394"/>
<path d="M128.354 153.96V158.068C128.354 159.769 126.974 161.149 125.273 161.149C123.572 161.149 122.192 159.769 122.192 158.068V153.96C122.192 152.259 123.572 150.88 125.273 150.88C126.974 150.88 128.354 152.259 128.354 153.96Z" fill="#43321A"/>
<path d="M130.409 145.745C130.409 150.226 127.659 152.934 125.274 152.934C122.889 152.934 120.14 150.226 120.14 145.745C120.14 141.265 122.889 138.557 125.274 138.557C127.659 138.557 130.409 141.265 130.409 145.745Z" stroke="#43321A" stroke-width="4.10757"/>
<path d="M128.353 255.623H129.893V255.598L129.892 255.574L128.353 255.623ZM119.111 252.542L120.303 251.567L120.294 251.556L119.111 252.542ZM108.54 245.897C107.706 246.064 107.165 246.876 107.331 247.71C107.498 248.544 108.31 249.085 109.144 248.918L108.54 245.897ZM123.733 158.117L126.813 255.671L129.892 255.574L126.812 158.019L123.733 158.117ZM126.812 255.623C126.812 256.174 126.714 256.608 126.587 256.847C126.5 257.011 126.494 256.958 126.485 256.958C126.308 256.96 125.726 256.85 124.609 255.997C123.528 255.172 122.113 253.778 120.303 251.567L117.919 253.518C119.806 255.824 121.394 257.418 122.739 258.445C124.048 259.445 125.314 260.053 126.523 260.038C127.901 260.021 128.819 259.215 129.31 258.288C129.761 257.436 129.893 256.441 129.893 255.623H126.812ZM120.294 251.556C119.35 250.423 117.686 248.815 115.681 247.584C113.705 246.371 111.152 245.375 108.54 245.897L109.144 248.918C110.639 248.619 112.365 249.163 114.069 250.209C115.743 251.237 117.16 252.608 117.927 253.528L120.294 251.556Z" fill="#543A14"/>
<path d="M233.098 250.489H231.557V250.641L231.587 250.791L233.098 250.489ZM225.909 248.435L226.924 247.276L226.88 247.237L226.834 247.203L225.909 248.435ZM219.748 243.814C218.897 243.814 218.208 244.503 218.208 245.354C218.208 246.205 218.897 246.895 219.748 246.895V243.814ZM231.557 213.521V250.489H234.638V213.521H231.557ZM231.587 250.791C231.646 251.086 231.594 251.169 231.627 251.092C231.657 251.023 231.732 250.902 231.878 250.808C232.022 250.717 232.127 250.72 232.109 250.72C232.011 250.719 231.572 250.649 230.637 250.096C229.74 249.567 228.528 248.679 226.924 247.276L224.895 249.594C226.577 251.066 227.949 252.086 229.07 252.749C230.152 253.388 231.164 253.793 232.083 253.8C232.575 253.804 233.082 253.695 233.535 253.406C233.991 253.115 234.285 252.711 234.459 252.305C234.781 251.554 234.72 250.747 234.608 250.187L231.587 250.791ZM226.834 247.203C226.104 246.655 224.914 245.844 223.675 245.161C223.056 244.819 222.397 244.494 221.76 244.252C221.148 244.019 220.437 243.814 219.748 243.814V246.895C219.881 246.895 220.179 246.946 220.663 247.131C221.121 247.305 221.643 247.558 222.188 247.858C223.277 248.459 224.346 249.188 224.985 249.667L226.834 247.203Z" fill="#543A14"/>
<path d="M113.978 275.134L83.1709 251.515C102.887 244.943 119.454 248.777 125.273 251.515L136.569 219.682H139.65V212.493L199.21 217.628V218.655L210.506 222.762L216.667 245.354L236.178 247.408C250.144 236.728 258.427 238.166 260.823 240.22C264.109 239.398 267.669 239.877 269.038 240.22C264.109 240.22 260.823 247.75 259.796 251.515C249.938 253.98 243.366 266.234 241.312 272.053L163.269 280.268L113.978 275.134Z" fill="#3D1305" fill-opacity="0.14"/>
<path d="M166.87 300.56L163.419 287.867C161.899 282.24 164.754 276.345 170.094 274.004C190.139 265.317 210.122 261.702 230.023 265.091C234.747 265.892 238.506 269.486 239.532 274.168L243.291 291.379L167.568 307.193L166.87 300.58V300.56Z" fill="url(#paint8_linear_126_528)"/>
<path d="M159.437 445.126C145.964 409.719 138.385 371.21 134.688 330.648V330.689C134.257 325.986 136.229 321.365 139.905 318.408C186.606 293.453 215.079 286.164 266.005 293.183C270.72 293.833 275.017 296.261 278.096 299.891C279.776 301.87 280.97 304.216 281.571 306.742C291.127 346.892 298.189 384.547 300.737 417.708C301.107 422.576 299.032 427.34 295.089 430.216C262.495 454.101 220.475 460.981 170.917 454.286C165.701 453.567 161.305 450.055 159.437 445.126Z" fill="url(#paint9_linear_126_528)"/>
<path d="M216.428 370.509C221.144 369.018 223.038 361.708 220.659 354.181C218.28 346.653 212.528 341.759 207.813 343.249C203.097 344.74 201.203 352.05 203.582 359.578C205.962 367.105 211.713 371.999 216.428 370.509Z" fill="#543A14"/>
<path d="M265.6 362.194C270.096 361.307 272.593 354.77 271.177 347.592C269.761 340.414 264.968 335.315 260.472 336.201C255.977 337.088 253.48 343.626 254.896 350.804C256.312 357.981 261.104 363.081 265.6 362.194Z" fill="#543A14"/>
<path d="M221.398 393.164C238.794 404.501 254.095 405.179 265.206 384.518" stroke="#543A14" stroke-width="8.21514" stroke-miterlimit="10"/>
<path d="M156.357 374.742L142.371 387.599C148.835 411.563 145.809 439.437 167.374 453.813L198.029 445.824C200.514 441.942 200.883 437.814 198.029 433.255L204.313 430.4V416.989L199.179 402.14L173.773 408.137L194.044 394.726C196.468 388.914 194.085 385.36 189.197 383.019L159.212 395.013L163.504 383.307C164.244 378.645 162.17 375.626 156.357 374.742Z" fill="#E59837"/>
<path d="M287.291 352.151L288.503 368.17L278.295 377.145C278.131 384.765 279.343 391.85 284.785 397.293L287.312 404.337L289.263 416.722C291.421 418.474 296.56 422.39 299.846 424.033C300.531 422.664 301.489 418.077 299.846 410.684C298.203 403.29 292.315 368.581 289.577 352.151H287.291Z" fill="#E59837"/>
<path d="M287.777 349.255L288.989 365.275L278.782 374.25C278.617 381.869 279.829 388.955 285.272 394.397L287.798 401.442L289.749 413.826C296.936 414.559 303.723 414.447 309.556 412.42C311.588 411.715 313.254 410.277 314.581 408.583C315.759 407.078 316.031 405.052 315.291 403.289L314.256 400.823C313.327 398.609 311.476 396.912 309.19 396.179L309.014 396.122L316.469 390.29C315.935 383.081 314.312 376.591 310.102 371.826L311.807 365.275C312.382 360.345 311.766 355.683 309.137 351.432L287.777 349.255Z" fill="url(#paint10_linear_126_528)"/>
<path d="M290.603 350.097L309.136 351.432C311.765 355.683 312.381 360.345 311.806 365.274L310.101 371.826C314.311 376.591 315.934 383.081 316.468 390.29" stroke="#DC7F5F" stroke-width="2.05378" stroke-miterlimit="10"/>
<path d="M139.3 385.545L153.287 372.688C159.099 373.572 161.173 376.591 160.434 381.253L156.141 392.959L186.127 380.965C191.015 383.306 193.397 386.86 190.974 392.672L170.703 406.083L196.108 400.086L201.242 414.935V428.346L194.958 431.201C197.813 435.76 197.443 439.888 194.958 443.77L155.279 448.329L145.01 443.77L130.348 445.865C127.57 446.261 124.735 445.246 123.103 442.963C115.611 432.484 114.239 421.028 123.884 407.802C125.119 406.109 127.047 405.074 129.127 404.812L130.449 404.645C130.449 396.129 130.217 390.58 139.3 385.545Z" fill="url(#paint11_linear_126_528)"/>
<path d="M200.236 413.764L172.51 418.899" stroke="#DC7F5F" stroke-width="2.05378"/>
<path d="M195.102 431.221L173.537 434.302" stroke="#DC7F5F" stroke-width="2.05378"/>
<path d="M310.113 371.662L281.36 389.119" stroke="#DC7F5F" stroke-width="2.05378"/>
<path d="M317.147 390.69C317.447 390.209 317.301 389.576 316.82 389.275C316.339 388.974 315.706 389.121 315.405 389.602L317.147 390.69ZM315.405 389.602C314.696 390.736 312.48 392.837 308.099 394.973C303.753 397.092 297.357 399.204 288.411 400.424L288.689 402.459C297.816 401.214 304.427 399.048 308.999 396.819C313.533 394.609 316.144 392.294 317.147 390.69L315.405 389.602Z" fill="#DC7F5F"/>
<path d="M288.55 365.5L301.899 354.205" stroke="#DC7F5F" stroke-width="2.05378"/>
<path d="M147.865 396.307L159.161 392.199" stroke="#DC7F5F" stroke-width="2.05378"/>
<path d="M152.531 376.486L149.755 379.725C148.735 380.915 146.918 380.985 145.811 379.877L152.999 372.688C153.621 373.933 153.437 375.429 152.531 376.486Z" fill="#FEF3DC"/>
<path d="M189.967 389.119L185.247 392.069C183.41 393.217 180.981 392.456 180.128 390.465C179.334 388.613 180.248 386.474 182.134 385.766L186.886 383.984L189.967 389.119Z" fill="#FFD4C2"/>
<path d="M193.906 441.912L188.348 442.217C186.185 442.335 184.426 440.497 184.64 438.341C184.839 436.336 186.672 434.903 188.665 435.195L193.687 435.928L193.906 441.912Z" fill="#FFD4C2"/>
<path d="M280.923 377.032L285.148 373.659C286.907 372.255 289.503 372.751 290.621 374.704C291.603 376.418 291.051 378.601 289.374 379.643L282.387 383.984L280.923 377.032Z" fill="#FFD4C2"/>
<path d="M291.63 404.522L297.292 403.814C298.838 403.621 300.349 404.376 301.123 405.728C302.417 407.988 301.149 410.855 298.607 411.418L292.659 412.737L291.63 404.522Z" fill="#FFD4C2"/>
<path d="M287.084 389.355L290.277 386.805C292.568 384.977 295.952 385.646 297.376 388.207C298.603 390.416 297.881 393.2 295.734 394.534L289.575 398.361L287.084 389.355Z" fill="#FFD4C2"/>
<path d="M197.017 410.447L192.347 412.149C189.955 413.021 187.328 411.674 186.639 409.224C185.928 406.692 187.596 404.109 190.197 403.717L193.975 403.147L197.017 410.447Z" fill="#FFD4C2"/>
<path d="M199.21 426.087L195.559 427C193.144 427.603 190.75 425.939 190.475 423.465C190.204 421.029 192.111 418.899 194.562 418.899H199.21V426.087Z" fill="#FFD4C2"/>
<path d="M103.71 176.552L102.683 165.256" stroke="#DC7F5F" stroke-width="2.05378"/>
<defs>
<linearGradient id="paint0_linear_126_528" x1="183.869" y1="197.238" x2="150.642" y2="242.827" gradientUnits="userSpaceOnUse">
<stop stop-color="#FF9673"/>
<stop offset="1" stop-color="#FFB38E"/>
</linearGradient>
<linearGradient id="paint1_linear_126_528" x1="185.859" y1="350.097" x2="186.77" y2="904.803" gradientUnits="userSpaceOnUse">
<stop stop-color="#A45B3F"/>
<stop offset="1" stop-color="#F0BB78"/>
</linearGradient>
<linearGradient id="paint2_linear_126_528" x1="184.995" y1="471.271" x2="184.995" y2="524.451" gradientUnits="userSpaceOnUse">
<stop stop-color="#D78D53"/>
<stop offset="1" stop-color="#F4D794"/>
</linearGradient>
<linearGradient id="paint3_linear_126_528" x1="192.828" y1="10.3711" x2="101.776" y2="131.829" gradientUnits="userSpaceOnUse">
<stop stop-color="#FF9673"/>
<stop offset="1" stop-color="#FFB38E"/>
</linearGradient>
<linearGradient id="paint4_linear_126_528" x1="110.896" y1="109.804" x2="123.189" y2="10.5548" gradientUnits="userSpaceOnUse">
<stop stop-color="#301F07"/>
<stop offset="1" stop-color="#543A14"/>
</linearGradient>
<linearGradient id="paint5_linear_126_528" x1="80.2257" y1="251.063" x2="80.2257" y2="475.333" gradientUnits="userSpaceOnUse">
<stop stop-color="#F4D794"/>
<stop offset="1" stop-color="#F4BE94"/>
</linearGradient>
<linearGradient id="paint6_linear_126_528" x1="285.264" y1="239.555" x2="284.443" y2="456.894" gradientUnits="userSpaceOnUse">
<stop stop-color="#F4D794"/>
<stop offset="1" stop-color="#E69354"/>
</linearGradient>
<linearGradient id="paint7_linear_126_528" x1="157.717" y1="136.915" x2="176.54" y2="156.557" gradientUnits="userSpaceOnUse">
<stop stop-color="white"/>
<stop offset="1" stop-color="#EEEEEE"/>
</linearGradient>
<linearGradient id="paint8_linear_126_528" x1="202.289" y1="275.134" x2="203.152" y2="307.193" gradientUnits="userSpaceOnUse">
<stop stop-color="#FA9B24"/>
<stop offset="1" stop-color="#FA8824"/>
</linearGradient>
<linearGradient id="paint9_linear_126_528" x1="217.704" y1="290.648" x2="185.694" y2="480.14" gradientUnits="userSpaceOnUse">
<stop stop-color="#FFB14E"/>
<stop offset="1" stop-color="#FA9B24"/>
</linearGradient>
<linearGradient id="paint10_linear_126_528" x1="302.768" y1="337.695" x2="269.289" y2="362.267" gradientUnits="userSpaceOnUse">
<stop stop-color="#FF9673"/>
<stop offset="1" stop-color="#FFB38E"/>
</linearGradient>
<linearGradient id="paint11_linear_126_528" x1="107.815" y1="427.114" x2="155.085" y2="403.579" gradientUnits="userSpaceOnUse">
<stop stop-color="#FF9673"/>
<stop offset="1" stop-color="#FFB38E"/>
</linearGradient>
</defs>
</svg>
