<svg width="395" height="497" viewBox="0 0 395 497" fill="none" xmlns="http://www.w3.org/2000/svg">
<path d="M152.535 617.265L174.834 801.72C175.309 805.65 177.383 809.209 180.567 811.56L201.169 826.772V859.673C201.169 859.673 192.399 861.891 201.169 872.735C201.169 872.735 190.879 873.105 198.355 881.32L236.083 900.749L247.091 894.403C247.091 894.403 296.464 917.59 318.953 909.416C318.953 909.416 344.934 895.409 317.208 891.035C317.208 891.035 336.472 883.744 325.382 878.774L319.261 873.803C319.261 873.803 320.822 681.384 325.279 632.956L306.651 440.537L224.685 432.281L174.942 445.815L141.814 566.064L152.576 617.286L152.535 617.265Z" fill="url(#paint0_linear_126_349)"/>
<path d="M190.08 469.29C190.08 469.29 210.515 480.216 264.489 473.624L269.89 445.836H202.423L190.08 463.129V469.29Z" fill="#3C3737"/>
<path d="M227.315 234.665L236.373 227.888C236.373 227.888 282.11 217.824 285.643 221.11C289.175 224.396 293.16 235.446 293.16 235.446L313.636 351.793L278.681 464.71H222.83L183.808 457.994L167.222 352.963L187.965 262.104L227.336 234.706L227.315 234.665Z" fill="url(#paint1_linear_126_349)"/>
<path d="M83.3448 199.669C83.3448 199.669 86.8157 190.919 85.0084 180.917L66.1685 149.633C64.1641 146.304 65.0155 141.998 68.1355 139.683C71.5493 137.15 76.3811 137.936 78.8155 141.421L83.9815 148.817L80.3294 127.508C79.2542 121.235 84.086 115.504 90.4507 115.504H93.0388C93.0388 112.96 94.7756 110.743 97.2466 110.135L99.2033 109.653C103.825 108.516 108.426 111.588 109.147 116.293L112.837 140.376L116.332 137.916C120.219 135.18 125.477 135.47 129.04 138.617L138.357 146.845L132.43 158.326L125.571 153.623L118.978 157.956L125.838 168.348H132.328L132.43 158.326L137.667 147.523C137.667 147.523 142.371 141.937 146.109 148.837C148.613 153.462 150.307 160.318 151.151 164.338C151.597 166.46 151.253 168.647 150.294 170.591C147.934 175.377 143.448 184.652 142.063 188.763C140.153 194.431 143.131 195.13 124.996 203.509L124.051 208.253L117.314 213.039L84.7414 204.906L83.386 199.689L83.3448 199.669Z" fill="url(#paint2_linear_126_349)"/>
<path d="M83.1709 147.872L89.3323 158.141" stroke="#DC7F5F" stroke-width="2.05378"/>
<path d="M115.824 139.657L110.139 142.244" stroke="#DC7F5F" stroke-width="2.05378"/>
<path d="M366.15 262.063C366.15 262.063 376.481 263.213 378.473 283.895C379.975 299.491 388.224 379.479 392.189 417.87C393.478 430.346 387.087 442.327 376.015 448.219C363.901 454.666 346.873 463.735 328.34 473.623L348.59 262.063H366.13H366.15Z" fill="url(#paint3_linear_126_349)"/>
<path d="M232.471 219.405L236.434 232.426C236.434 232.426 262.189 237.91 281.145 223.698L278.599 211.478L232.471 219.405Z" fill="url(#paint4_linear_126_349)"/>
<path d="M216.35 459.276C212.53 459.11 209.248 461.964 208.883 465.77L208.045 474.485C207.654 478.554 210.729 482.129 214.81 482.351L233.15 483.348C236.969 483.555 240.282 480.736 240.688 476.933L241.639 468.021C242.079 463.896 238.946 460.257 234.803 460.077L216.35 459.276Z" fill="#E6DBBA" stroke="#D3C497" stroke-width="2.05378" stroke-miterlimit="10"/>
<path d="M232.144 471.792V473.85H228.23C228.114 473.85 227.999 473.846 227.888 473.841C227.356 473.809 226.847 473.707 226.362 473.541C226.191 473.481 226.02 473.416 225.853 473.342C225.83 473.328 225.802 473.319 225.779 473.305C224.563 472.736 223.582 471.76 223.004 470.548C222.99 470.516 222.977 470.483 222.963 470.446C222.884 470.284 222.819 470.113 222.759 469.938C222.597 469.466 222.496 468.966 222.463 468.448C222.454 468.323 222.449 468.198 222.449 468.069V464.155H224.406C225.048 464.155 225.613 464.465 225.974 464.937C226.219 465.265 226.362 465.672 226.362 466.112V469.937H230.187C230.636 469.937 231.052 470.09 231.385 470.344C231.82 470.682 232.112 471.205 232.144 471.792Z" fill="#D3C497"/>
<path d="M226.362 479.632V475.986L226.363 475.986C226.363 475.58 226.1 475.223 225.714 475.098C223.574 474.406 221.881 472.72 221.184 470.584C221.058 470.199 220.702 469.937 220.297 469.937H216.668V471.893C216.668 472.531 216.978 473.1 217.454 473.461C217.778 473.706 218.185 473.849 218.624 473.849H219.702L218.377 475.153C217.435 476.079 217.428 477.595 218.36 478.531L219.457 479.631L220.586 478.502L222.45 476.634V477.675C222.45 478.124 222.602 478.54 222.861 478.868C223.217 479.331 223.777 479.632 224.406 479.632H226.362Z" fill="#D3C497"/>
<path d="M93.4404 115.012L99.6018 147.873" stroke="#DC7F5F" stroke-width="2.05378"/>
<path d="M133.488 168.41C129.038 170.122 120.139 174.161 120.139 176.625C120.139 179.09 120.139 183.814 120.139 185.867" stroke="#DC7F5F" stroke-width="2.05378"/>
<ellipse cx="91.8706" cy="161.793" rx="4.10757" ry="2.05378" transform="rotate(-26.096 91.8706 161.793)" fill="#DC7F5F"/>
<ellipse cx="102.14" cy="153.578" rx="4.10757" ry="2.05378" transform="rotate(-26.096 102.14 153.578)" fill="#DC7F5F"/>
<path d="M342.979 425.133C349.114 419.782 353.407 417.207 363.516 413.838" stroke="#6C2323" stroke-width="2.05378"/>
<path d="M255.69 686.991C222.83 615.519 244.737 471.001 259.798 407.676L327.573 608.947L323.465 662.346C294.712 677.749 279.596 681.222 255.69 686.991Z" fill="#531414" fill-opacity="0.42"/>
<path d="M321.912 251.219L366.13 262.043C366.13 262.043 321.44 484.386 340.006 624.084C312.077 654.424 293.913 664.64 259.066 676.168C259.066 676.168 245.758 652.878 247.175 596.317C248.592 539.756 260.093 406.177 260.093 406.177L283.055 274.119L291.516 254.382V230.024C291.516 230.024 312.259 237.89 321.892 251.24L321.912 251.219Z" fill="url(#paint5_linear_126_349)"/>
<path d="M338.869 467.236L352.219 342.982" stroke="#6C2323" stroke-width="2.05378"/>
<path d="M331.679 260.831L270.065 406.65L266.984 404.596L317.302 244.401C322.211 249.451 322.437 249.535 331.679 260.831Z" fill="#D05542"/>
<path d="M289.578 226.943L291.632 232.078L291.537 254.361L283.076 274.098L260.114 406.156C260.114 406.156 265.783 408.477 269.993 406.156L326.184 258.386C326.184 258.386 319.954 236.74 289.578 226.943Z" fill="url(#paint6_linear_126_349)"/>
<path d="M214.614 690.072C209.685 643.245 205.715 526.111 204.346 473.397L197.157 471.344L193.05 473.397L155.055 641.808L160.189 676.722C178.262 684.937 204.003 689.045 214.614 690.072Z" fill="#6D2C2B"/>
<path d="M197.035 239.82H215.524L203.058 405.93C192.111 489.725 205.707 681.384 205.707 681.384C150.851 667.254 111.767 626.527 111.767 626.527L118.935 575.819C118.935 575.819 124.254 499.336 135.057 409.134L140.676 330.659L38.6934 323.45C36.9575 322.904 35.2075 322.224 33.4614 321.438C9.62744 310.721 5.61948 281.25 22.4563 261.264C47.3083 231.764 83.3632 199.668 83.3632 199.668L133.722 210.266L120.742 229.9L90.4693 265.924L188.392 240.906C191.216 240.185 194.12 239.82 197.035 239.82Z" fill="url(#paint7_linear_126_349)"/>
<path d="M190.214 264.58C198.613 253.462 205.379 247.542 212.56 240.293L198.78 402.542C188.582 402.542 187.451 353.108 183.579 288.156C183.078 279.75 185.138 271.299 190.214 264.58Z" fill="#D05542"/>
<path d="M203.102 405.951C203.102 405.951 196.037 407.368 195.093 403.117C194.148 398.865 184.269 296.71 189.445 272.229C201.275 251.136 215.569 235.939 233.663 229.9L230.356 247.83L226.249 257.524C216.103 306.383 207.58 355.654 203.082 405.93L203.102 405.951Z" fill="url(#paint8_linear_126_349)"/>
<path d="M36.9604 310.122H141.703V330.659L37.9875 323.471C11.2887 312.175 11.6304 292.322 13.3419 282.396C15.8065 301.29 30.1145 308.752 36.9604 310.122Z" fill="url(#paint9_linear_126_349)"/>
<path d="M141.705 309.094L139.651 362.493" stroke="#6C2323" stroke-width="2.05378"/>
<path d="M200.237 256.723L175.592 244.4C185.45 241.114 192.707 240.293 195.103 240.293H215.641C223.856 232.899 230.702 230.366 233.098 230.024C233.919 229.202 234.809 228.997 235.152 228.997L236.178 233.104C258.359 238.034 275.543 228.997 281.362 223.862L280.335 220.782C284.442 220.782 286.154 221.466 286.496 221.809L289.577 226.943C302.721 230.229 314.907 241.32 319.357 246.454C321 248.097 322.78 250.562 323.464 251.589L355.298 259.804C346.261 268.019 328.256 272.126 320.384 273.153L318.33 278.288C309.293 284.038 289.919 283.422 281.362 282.395L282.389 275.207C255.279 278.493 232.755 269.73 224.883 264.938L222.829 271.099L196.13 262.884L200.237 256.723Z" fill="#4E1111" fill-opacity="0.14"/>
<path d="M155.201 251.442L157.109 249.535L92.4144 265.965L82.1455 276.234L132.908 263.953C141.348 261.911 149.061 257.582 155.201 251.442Z" fill="#D05642"/>
<path d="M92.4137 264.938L73.9297 282.395" stroke="#6C2323" stroke-width="2.05378"/>
<path d="M279.309 215.647C265.343 224.684 244.394 227.286 235.152 226.943L233.099 218.728L278.282 209.486L279.309 215.647Z" fill="#DE8365" fill-opacity="0.37"/>
<path d="M199.21 24.6452L204.344 44.1562L225.909 47.2369L260.824 44.1562L262.877 24.6452L250.555 20.5376H240.286L233.097 12.3225H222.828L212.56 24.6452H199.21Z" fill="#3F2B0D"/>
<path d="M316.017 141.629C316.017 141.629 318.675 134.885 332.483 134.059C335.405 133.884 338.083 135.608 338.879 138.426C340.528 144.271 341.685 155.053 332.846 165.45C331.889 166.576 330.627 167.397 329.252 167.939L312.464 174.551C312.464 174.551 313.08 197.759 302.873 203.325C293.642 208.358 244.413 229.099 197.543 218.813C188.087 216.738 181.218 208.988 178.513 199.692L167.241 160.955L156.644 116.039L188.395 72.704L219.038 62.2092L264.837 64.0577L303.838 96.5486L318.687 120.989L316.058 141.609L316.017 141.629Z" fill="url(#paint10_linear_126_349)"/>
<path d="M217.723 71.6155L220.516 84.3899L208.953 89.5861L204.969 101.95H197.78V93.5704L190.592 99.1567L179.42 101.95L182.603 108.337L173.833 111.931V118.709H165.844L161.86 126.698L164.653 132.674L165.043 145.449H159.066L141.917 123.905C141.917 123.905 133.291 123.248 130.437 117.292L126.37 120.393C126.37 120.393 118.977 116.1 118.977 110.596C118.977 110.596 128.054 108.44 128.054 106.057C128.054 106.057 129.02 94.8438 132.593 90.7773L126.576 88.0252C126.576 88.0252 131.874 83.6096 127.89 79.3377L118.977 75.0658L126.124 71.636L124.214 68.7401C124.214 68.7401 131.135 65.4952 129.944 57.1157C129.944 57.1157 124.501 55.637 124.358 51.8169L130.683 45.3475C130.683 45.3475 135.243 52.8438 140.993 52.5563L149.537 47.2576L145.573 45.3475L149.249 42.6981C149.249 42.6981 146.456 32.6962 144.546 28.8556C144.546 28.8556 156.91 35.6332 162.948 34.1544L165.002 27.2332L171.328 30.7657C171.328 30.7657 186.033 29.328 191.475 24.5837C191.475 24.5837 204.476 25.9803 212.547 35.1197L215.525 31.6078C215.525 31.6078 222.734 34.0723 223.781 38.0977L226.41 33.5382L222.364 23.0024C222.364 23.0024 206.386 21.6058 204.804 16.6767C203.223 11.7476 216.922 0 216.922 0C216.922 0 213.225 12.8156 219.55 15.0953C225.876 17.375 232.551 21.421 232.551 21.421L231.504 34.7706L239.411 37.3993C239.411 37.3993 231.339 24.0497 241.69 13.5138L260.626 22.0782L271.347 15.5472L276.235 19.0385C276.235 19.0385 285.087 16.2454 294.863 20.6611L303.242 11.8093C303.242 11.8093 307.802 13.1237 306.364 19.6342L313.675 20.2708L314.784 23.9265L321.459 24.399C321.459 24.399 326.388 31.8542 325.279 44.5672L335.281 45.5118C335.281 45.5118 335.117 58.0604 337.191 60.7509L327.189 62.969L328.463 68.3704C328.463 68.3704 334.501 65.0434 344.03 68.5348C344.03 68.5348 345.468 93.7757 358.325 92.9953C358.325 92.9953 355.778 98.8691 355.942 103.162L344.996 106.489V108.07L349.124 108.542L348.816 111.089L340.395 112.835L338.958 121.728C338.958 121.728 331.81 125.692 328.319 123.474L321.644 136.803L316.058 141.567L309.465 140.273L309.075 120.865L301.188 120.988L300.162 118.401L301.969 114.519L294.986 107.659L287.49 115.032L285.025 113.615L287.099 107.023L279.459 104.558L274.161 95.8912L273.134 100.04L260.339 99.1361L255.82 94.0839L253.623 94.7205L249.618 100.41L246.763 96.9181L245.983 89.4217C245.983 89.4217 239.513 87.101 233.948 90.0584L229.799 87.8608C229.799 87.8608 231.996 78.3519 227.992 72.6218L217.764 71.5128L217.723 71.6155Z" fill="url(#paint11_linear_126_349)"/>
<path d="M159.067 147.503L156.603 150.768L161.347 163.029H167.2L164.777 139.021L159.108 141.547L159.067 147.503Z" fill="#553B15"/>
<path d="M242.104 110.371L245.04 119.181C245.04 119.181 254.591 121.625 269.501 110.371C269.501 110.371 266.071 103.758 242.104 110.371Z" fill="#543A14"/>
<path d="M212.772 113.451L213.121 122.734C213.121 122.734 205.05 128.382 187.12 123.124C187.12 123.124 188.003 115.731 212.772 113.471V113.451Z" fill="#543A14"/>
<path d="M218.723 181.176L236.248 193.056L249.529 178.679" fill="#FFB38E"/>
<path d="M218.723 181.176L236.248 193.056L249.529 178.679" stroke="#DC7F5F" stroke-width="2.05378" stroke-miterlimit="10"/>
<path d="M329.963 142.944L318.051 148.674L316.983 161.633L325.486 159.928C325.486 159.928 330.045 155.677 325.486 149.926" fill="#DC7F5F"/>
<path d="M252.329 141.937L253.089 145.449L278.926 142.553V138.302L252.329 141.937Z" fill="#543A14"/>
<path d="M179.482 151.61L205.73 146.763V149.988L180.489 154.65L179.482 151.61Z" fill="#543A14"/>
<path d="M312.17 169.437V176.626" stroke="#DC7F5F" stroke-width="2.05378"/>
<path d="M238.233 143.765L221.802 145.819L220.775 140.684L237.206 139.657L239.259 141.711L240.286 144.792L246.448 157.114L260.824 164.303H274.572L285.47 162.249L295.739 155.061L300.873 145.819L301.9 137.603L316.276 139.657L314.223 142.738L306.007 141.711C304.364 152.391 299.162 159.168 296.765 161.222C285.47 169.437 263.905 168.41 257.744 164.303L245.421 158.141L238.233 143.765Z" fill="#F39473"/>
<path d="M219.079 141.937L240.069 139.658L240.13 135.571L242.841 131.175H227.027L213.144 134.42L219.079 141.937Z" fill="#4C310A"/>
<path d="M300.522 128.26L300.422 127.766L300.049 127.427L299.013 128.566C300.049 127.427 300.048 127.426 300.047 127.425L300.045 127.423L300.04 127.418L300.024 127.404C300.011 127.392 299.993 127.377 299.971 127.358C299.927 127.319 299.865 127.266 299.784 127.198C299.623 127.064 299.389 126.875 299.084 126.643C298.474 126.179 297.575 125.541 296.396 124.824C294.037 123.389 290.55 121.63 285.987 120.29C276.836 117.605 263.449 116.633 246.295 123.205L245.807 123.393L245.534 123.838L238.818 134.785L238.635 135.083L238.599 135.431L240.131 135.59C238.599 135.431 238.599 135.432 238.598 135.433L238.598 135.435L238.597 135.442L238.595 135.464C238.594 135.481 238.592 135.505 238.589 135.535C238.584 135.596 238.577 135.681 238.57 135.789C238.555 136.006 238.539 136.317 238.529 136.708C238.51 137.49 238.519 138.597 238.626 139.924C238.841 142.571 239.454 146.137 241.065 149.756C242.681 153.387 245.306 157.078 249.53 159.916C253.754 162.754 259.48 164.674 267.192 164.918C282.135 165.39 291.566 161.025 296.701 153.863C301.786 146.771 302.362 137.335 300.522 128.26Z" fill="#FEF1DC" fill-opacity="0.5" stroke="#4C310A" stroke-width="3.08068" stroke-miterlimit="10"/>
<path d="M311.143 144.792L317.304 140.684" stroke="#DC7F5F" stroke-width="2.05378"/>
<path d="M299.847 128.362L324.335 135.509L316.017 141.629L299.956 138.918C299.956 138.918 300.531 131.258 299.032 128.567L299.847 128.362Z" fill="#4C310A"/>
<path d="M172.513 177.652C191.408 180.938 207.77 172.86 213.589 167.383L211.535 165.33L199.212 172.518L187.917 175.599H178.675L171.486 173.545L172.513 177.652Z" fill="#F39473"/>
<path d="M165.003 139.226L163.661 138.469L163.531 138.7L163.485 138.961C162.582 144.143 162.035 149.328 162.206 154.09C162.376 158.842 163.265 163.28 165.323 166.889C167.41 170.546 170.655 173.268 175.327 174.591C179.945 175.899 185.867 175.818 193.341 174.101C208.479 170.624 215.406 162.628 218.457 155.337C219.965 151.732 220.503 148.356 220.665 145.881C220.746 144.642 220.734 143.623 220.7 142.906C220.683 142.547 220.661 142.262 220.642 142.063C220.633 141.964 220.624 141.885 220.618 141.829C220.615 141.801 220.612 141.779 220.61 141.762L220.607 141.742L220.606 141.735L220.606 141.732C220.606 141.731 220.605 141.73 219.079 141.937L220.605 141.73L220.549 141.313L220.288 140.983L209.075 126.771L208.737 126.342L208.205 126.222C191.73 122.499 180.618 125.41 173.575 129.401C170.071 131.387 167.613 133.618 166.023 135.367C165.228 136.242 164.649 136.998 164.263 137.544C164.07 137.817 163.925 138.038 163.826 138.196C163.776 138.275 163.738 138.338 163.711 138.384C163.697 138.407 163.686 138.426 163.678 138.44L163.668 138.458L163.664 138.464L163.662 138.467C163.662 138.468 163.661 138.469 165.003 139.226Z" fill="#FEF1DC" fill-opacity="0.5" stroke="#4C310A" stroke-width="3.08068" stroke-miterlimit="10"/>
<path d="M223.29 154.65L214.417 159.197C212.472 160.194 211.648 162.539 212.542 164.533L215.157 170.361" fill="#FFB38E"/>
<path d="M223.29 154.65L214.417 159.197C212.472 160.194 211.648 162.539 212.542 164.533L215.157 170.361" stroke="#DC7F5F" stroke-width="2.05378" stroke-miterlimit="10"/>
<path d="M130.654 143.975L132.465 141.711L138.626 146.846L134.519 153.007L130.957 149.445C129.477 147.965 129.347 145.609 130.654 143.975Z" fill="url(#paint12_linear_126_349)"/>
<path d="M132.464 158.142L138.625 146.846" stroke="#DC7F5F" stroke-width="2.05378"/>
<path d="M99.6025 170.464C103.026 171.149 110.693 174.777 113.979 183.814" stroke="#DC7F5F" stroke-width="2.05378"/>
<path d="M126.3 154.034L120.139 150.953" stroke="#DC7F5F" stroke-width="2.05378"/>
<path d="M327.571 333.062V335.666H322.619C322.473 335.666 322.327 335.66 322.186 335.655C321.513 335.614 320.869 335.485 320.255 335.275C320.038 335.199 319.822 335.116 319.611 335.023C319.582 335.005 319.547 334.994 319.518 334.976C317.978 334.256 316.737 333.021 316.006 331.487C315.989 331.447 315.971 331.405 315.953 331.358C315.854 331.153 315.772 330.937 315.696 330.715C315.491 330.118 315.363 329.486 315.321 328.831C315.31 328.672 315.304 328.514 315.304 328.351V323.398H317.779C318.593 323.398 319.307 323.79 319.764 324.387C320.074 324.802 320.255 325.318 320.255 325.874V330.714H325.096C325.663 330.714 326.19 330.908 326.611 331.229C327.162 331.656 327.531 332.318 327.571 333.062Z" fill="#DCCEA5"/>
<path d="M320.256 342.982V338.37L320.257 338.369C320.257 337.855 319.924 337.404 319.435 337.246C316.727 336.369 314.584 334.236 313.703 331.533C313.544 331.046 313.093 330.714 312.58 330.714H307.988V333.19C307.988 333.998 308.381 334.717 308.983 335.174C309.393 335.484 309.908 335.665 310.464 335.665H311.828L310.151 337.315C308.959 338.487 308.949 340.406 310.13 341.59L311.517 342.982L312.946 341.553L315.305 339.189V340.506C315.305 341.074 315.497 341.601 315.825 342.016C316.276 342.602 316.984 342.982 317.78 342.982H320.256Z" fill="#DCCEA5"/>
<defs>
<linearGradient id="paint0_linear_126_349" x1="227.963" y1="558.63" x2="235.907" y2="911.161" gradientUnits="userSpaceOnUse">
<stop stop-color="#803E3C"/>
<stop offset="1" stop-color="#994E3B"/>
</linearGradient>
<linearGradient id="paint1_linear_126_349" x1="240.429" y1="220.451" x2="240.429" y2="464.71" gradientUnits="userSpaceOnUse">
<stop stop-color="#6C2323"/>
<stop offset="1" stop-color="#4C0F0F"/>
</linearGradient>
<linearGradient id="paint2_linear_126_349" x1="124.248" y1="121.173" x2="74.7457" y2="207.566" gradientUnits="userSpaceOnUse">
<stop stop-color="#FFB38E"/>
<stop offset="1" stop-color="#FF9673"/>
</linearGradient>
<linearGradient id="paint3_linear_126_349" x1="350.163" y1="318.336" x2="349.817" y2="455.893" gradientUnits="userSpaceOnUse">
<stop stop-color="#E46C59"/>
<stop offset="1" stop-color="#BE412D"/>
</linearGradient>
<linearGradient id="paint4_linear_126_349" x1="262.879" y1="214.62" x2="265.285" y2="236.868" gradientUnits="userSpaceOnUse">
<stop stop-color="#FF9673"/>
<stop offset="1" stop-color="#FFB38E"/>
</linearGradient>
<linearGradient id="paint5_linear_126_349" x1="321.411" y1="306.014" x2="139.262" y2="967.919" gradientUnits="userSpaceOnUse">
<stop stop-color="#E46C59"/>
<stop offset="1" stop-color="#BE412D"/>
</linearGradient>
<linearGradient id="paint6_linear_126_349" x1="293.149" y1="226.943" x2="293.149" y2="407.188" gradientUnits="userSpaceOnUse">
<stop stop-color="#932525"/>
<stop offset="1" stop-color="#B44545"/>
</linearGradient>
<linearGradient id="paint7_linear_126_349" x1="165.322" y1="275.207" x2="46.2022" y2="894.423" gradientUnits="userSpaceOnUse">
<stop stop-color="#E46C59"/>
<stop offset="1" stop-color="#BE412D"/>
</linearGradient>
<linearGradient id="paint8_linear_126_349" x1="210.808" y1="229.9" x2="210.808" y2="406.178" gradientUnits="userSpaceOnUse">
<stop stop-color="#932525"/>
<stop offset="1" stop-color="#B44545"/>
</linearGradient>
<linearGradient id="paint9_linear_126_349" x1="23.6114" y1="310.122" x2="142.731" y2="322.444" gradientUnits="userSpaceOnUse">
<stop stop-color="#D05542" stop-opacity="0"/>
<stop offset="1" stop-color="#D05542"/>
</linearGradient>
<linearGradient id="paint10_linear_126_349" x1="239.259" y1="81.1245" x2="224.605" y2="173.715" gradientUnits="userSpaceOnUse">
<stop stop-color="#FF9673"/>
<stop offset="1" stop-color="#FFB38E"/>
</linearGradient>
<linearGradient id="paint11_linear_126_349" x1="216.668" y1="-1.46447e-07" x2="204.554" y2="206.608" gradientUnits="userSpaceOnUse">
<stop stop-color="#543A14"/>
<stop offset="1" stop-color="#301F07"/>
</linearGradient>
<linearGradient id="paint12_linear_126_349" x1="133.492" y1="141.711" x2="139.653" y2="147.872" gradientUnits="userSpaceOnUse">
<stop stop-color="#FFD4C2"/>
<stop offset="1" stop-color="#FEF9E1"/>
</linearGradient>
</defs>
</svg>
