<svg width="448" height="538" viewBox="0 0 448 538" fill="none" xmlns="http://www.w3.org/2000/svg">
<g clip-path="url(#clip0_126_622)">
<rect width="448" height="538" rx="30" fill="white"/>
<path d="M78.2729 565.561C78.2729 565.561 85.3519 590.275 98.6931 596.077C98.6931 596.077 104.494 611.177 114.38 615.24L137.942 908.955C137.942 908.955 169.525 928.349 196.123 921.71C222.722 915.071 220.502 906.756 220.502 906.756L218.282 744.337L252.65 940.727C252.65 940.727 322.477 951.66 346.311 927.826C346.311 927.826 349.075 921.731 340.216 918.966V547.801L282.788 530.941L85.1423 535.507L78.252 547.801V565.603L78.2729 565.561Z" fill="url(#paint0_linear_126_622)"/>
<path d="M184.757 288.727V242.651L191.04 234.273H259.107L262.249 243.698L264.343 284.538L184.757 288.727Z" fill="url(#paint1_linear_126_622)"/>
<path d="M195.996 273.377C195.996 273.377 207.62 276.811 217.694 274.717L230.595 261.522L248.544 287.011L279.002 253.683C279.002 253.683 328.053 243.693 364.011 269.834C367.178 272.136 369.764 275.101 371.65 278.532C380.188 294.067 404.969 347.162 419.361 461.43C419.361 461.43 381.076 552.473 325.219 572.139C325.219 572.139 324.779 577.585 320.423 577.585C320.423 577.585 293.552 567.05 281.928 539.467C281.928 539.467 275.038 539.823 268.86 546.357C268.86 546.357 235.329 584.852 195.996 581.941C156.664 579.03 122.903 573.961 106.21 552.892C106.21 552.892 96.3878 541.142 85.8531 546.19L78.2715 565.563C78.2715 565.563 72.8051 562.191 73.224 553.353C73.224 553.353 59.3383 541.98 60.1761 520.094L81.2244 407.689C81.2244 407.689 67.9043 333.024 82.7116 304.918C82.7116 304.918 115.593 268.329 168.539 260.685L167.596 277.398L188.624 262.716L195.996 273.356V273.377Z" fill="url(#paint2_linear_126_622)"/>
<path d="M291.57 380.392C299.947 386.256 311.466 392.958 332.41 443.223L338.693 437.987L287.381 286.145L300.635 365.669C301.484 370.762 299.132 375.855 294.705 378.511L291.57 380.392Z" fill="#592120"/>
<path d="M76.8961 336.41C80.9849 327.149 85.5727 324.691 99.9342 323.844C84.8551 339.761 87.7174 389.118 90.5096 411.807L85.2736 441.129L81.0853 467.308L78.9905 501.866L81.0853 520.715L90.5096 543.753L85.2736 545.847L78.9905 565.744C73.1262 563.231 72.3586 555.621 72.7078 552.131C60.9793 543.753 59.4435 526.3 60.1416 518.621L81.0853 408.666C79.4098 402.802 73.7546 352.118 76.8961 336.41Z" fill="#592120"/>
<path d="M101.215 377.923C96.87 388.28 89.5972 422.327 86.3213 439.034L90.51 411.808C85.4835 388.351 89.1138 358.052 91.5572 345.835C89.8817 356.725 91.5572 383.883 92.6044 396.1L101.215 377.923C101.499 377.244 101.771 376.667 102.029 376.203L101.215 377.923Z" fill="#592120"/>
<path d="M100.055 322.593C100.055 322.593 82.0432 347.495 90.4835 412.044C90.4835 412.044 70.9848 500.95 83.8024 526.795L90.4835 544.974" stroke="#401312" stroke-width="2.09437" stroke-miterlimit="10"/>
<path d="M288.429 263.107L248.636 287.193L276.91 253.683C287.444 252.114 293.425 251.797 304.137 251.588L288.429 263.107Z" fill="#592120"/>
<path d="M144.963 266.248L168.001 276.72L171.143 259.965C167.792 259.965 151.246 264.154 144.963 266.248Z" fill="#592120"/>
<path d="M165.906 281.956V274.626V272.532H179.52L165.906 281.956Z" fill="#592120"/>
<path d="M244.446 280.909L218.267 274.626L230.833 262.06L244.446 280.909Z" fill="#592120"/>
<path d="M173.237 273.579L194.181 272.532L187.898 263.107L173.237 273.579Z" fill="#592120"/>
<path d="M216.646 271.448L228.438 255.426L261.948 242.944L260.796 238.441L274.723 241.834L280.577 255.555C281.685 258.152 280.924 261.17 278.717 262.931L248.544 287.009L230.595 261.521L217.694 274.715L216.646 271.448Z" fill="#A57B5B"/>
<path d="M277.954 249.494L230.831 262.06L217.217 274.626L216.17 271.485L227.689 255.777L261.199 243.211L260.152 237.975L274.812 242.163L277.954 249.494Z" fill="#976946"/>
<path d="M167.577 277.397L168.708 257.501L180.877 247.657L186.364 248.579L198.888 272.476L195.998 273.376L188.605 262.737L167.577 277.397Z" fill="#A57B5B"/>
<path d="M185.8 247.399L198.367 272.532L195.225 273.579L187.895 263.107L184.753 265.202L171.14 255.777L181.612 246.352L185.8 247.399Z" fill="#976946"/>
<path d="M135.806 169.138L140.057 189.056C143.413 203.878 148.093 216.59 153.552 228.057C157.928 237.249 165.984 244.294 175.896 246.616C201.288 252.564 228.315 249.988 256.506 241.355C257.623 241.013 258.658 240.433 259.521 239.647C271.731 228.518 278.747 216.482 282.307 203.8C286.463 206.07 290.752 206.824 295.142 206.252C297.333 205.966 299.146 204.49 300.18 202.538C304.734 193.938 307.856 185.159 308.434 177.201C308.703 173.499 305.816 170.522 302.158 169.892L294.748 168.615L284.611 158.918L269.867 126.874L243.121 104.066L218.24 92.6519L160.875 97.1547L135.827 113.742V169.138H135.806Z" fill="url(#paint3_linear_126_622)"/>
<path d="M207.642 147.755C207.642 147.755 206.637 137.912 211.412 137.912L236.859 145.347V149.201L207.642 147.734V147.755Z" fill="#543A14"/>
<path d="M171.681 148.635C171.681 148.635 170.697 139.859 166.529 140.781L145.753 152.111L146.486 155.483L171.681 148.656V148.635Z" fill="#543A14"/>
<path d="M180.875 189.057L173.691 193.958L177.273 199.571" stroke="#DC7F5F" stroke-width="2.09437" stroke-miterlimit="10"/>
<path d="M178.762 213.058C178.762 213.058 212.9 211.299 230.597 199.57" stroke="#DC7F5F" stroke-width="2.09437" stroke-miterlimit="10"/>
<path d="M226.573 195.193C226.573 195.193 228.5 198.564 234.804 200.722" stroke="#DC7F5F" stroke-width="2.09437" stroke-miterlimit="10"/>
<path d="M289.698 185.726V193.789L282.451 194.313L285.195 182.898L299.876 177.998" fill="#DC7F5F"/>
<path d="M180.558 178.773C183.909 177.935 183.35 170.744 182.652 167.254C168.41 166.416 150.887 173.886 143.906 177.725L147.048 182.961C164.85 181.914 176.369 179.82 180.558 178.773Z" fill="#FEFEFE"/>
<path d="M179.409 167.296C180.594 170.222 181.156 173.022 180.718 175.61C180.31 178.015 178.256 179.731 175.895 180.344C173.815 180.883 171.512 181.171 169.004 181.229C165.293 181.315 161.56 179.274 160.995 175.605C160.74 173.95 160.801 172.238 161.125 170.479C167.22 168.071 173.315 167.002 179.409 167.296Z" fill="#543A14"/>
<path d="M182.781 167.777C168.56 164.364 143.7 177.998 143.7 177.998" stroke="#543A14" stroke-width="2.09437" stroke-miterlimit="10"/>
<path d="M207.165 175.631C202.976 174.793 203.325 168.999 204.023 166.206C220.404 162.779 231.25 162.018 245.911 162.018C248.494 165.724 248.809 167.616 245.911 170.395C237.533 174.584 216.589 175.631 207.165 175.631Z" fill="#FEFEFE"/>
<path d="M217.55 163.17C216.858 164.833 216.596 166.647 216.651 168.57C216.749 172.039 219.835 174.584 223.302 174.451C227.537 174.289 231.618 173.453 235.585 172.151C237.898 171.392 239.8 169.539 240.137 167.128C240.409 165.181 240.206 163.373 239.352 161.285L217.529 163.191L217.55 163.17Z" fill="#543A14"/>
<path d="M202.68 166.165C219.77 161.201 246.494 161.055 246.494 161.055" stroke="#543A14" stroke-width="2.09437" stroke-miterlimit="10"/>
<path d="M181.607 158.876C175.324 154.688 158.779 151.337 142.861 171.443" stroke="#DC7F5F" stroke-width="2.09437"/>
<path d="M202.548 162.018C202.897 155.385 211.763 145.053 244.435 156.782" stroke="#DC7F5F" stroke-width="2.09437"/>
<path fill-rule="evenodd" clip-rule="evenodd" d="M150.748 171.587C150.768 171.63 150.779 171.652 150.779 171.652L150.8 171.61C150.782 171.602 150.765 171.594 150.748 171.587ZM272.277 168.52C271.818 165.93 267.179 164.011 264.549 163.954C260.166 163.86 258.827 160.345 258.063 156.029C256.176 145.373 252.377 128.696 252.377 128.696C252 147.755 243.036 164.929 243.036 164.929C246.408 129.806 221.757 105.909 221.757 105.909H210.175L180.289 123.837L159.743 110.433C123.5 114.499 149.708 169.439 150.748 171.587C142.193 167.833 137.354 155.923 137.354 155.923L138.108 180.951C131.385 176.846 116.075 143.608 116.075 143.608C112.703 116.716 123.908 90.9554 123.908 90.9554C136.914 81.0699 152.915 74.3051 172.456 71.1635L195.619 74.1584C249.403 46.9106 286.369 70.4304 286.369 70.4304C318.719 93.3654 312.738 144.446 310.177 159.421C309.824 161.487 307.554 161.362 305.511 161.829V171.254L293.399 169.211C289.87 168.616 286.352 170.329 284.644 173.474L278.733 183.758C277.758 185.455 275.196 185.007 274.855 183.08L272.277 168.52Z" fill="url(#paint4_linear_126_622)"/>
<path d="M225.596 68.3301C218.056 68.3301 202.208 72.5188 195.227 74.6132C192.714 73.7755 184.406 72.8679 180.567 72.5188C187.269 73.3566 190.333 78.4529 191.028 80.8963C184.318 77.5453 174.277 79.5001 170.095 80.8963C182.661 80.8963 189.991 83.6888 192.086 85.0851L209.888 77.7548C207.375 77.7548 199.067 79.8491 195.227 80.8963C198.578 77.5453 216.869 71.1226 225.596 68.3301Z" fill="#312007"/>
<path d="M331.742 417.134C334.624 425.001 342.358 431.466 346.023 433.798C343.51 433.798 340.089 436.591 338.693 437.987L331.742 417.134C331.604 416.758 331.477 416.378 331.362 415.996L331.742 417.134Z" fill="#592120"/>
<path d="M346.73 433.218C346.73 433.218 315.948 442.846 282.145 539.565" stroke="#401312" stroke-width="2.09437" stroke-miterlimit="10"/>
<path d="M287.689 285.272L338.792 439.25" stroke="#401312" stroke-width="2.09437" stroke-miterlimit="10"/>
<path d="M222.455 274.626C206.538 284.679 193.134 276.721 189.992 270.438C200.045 274.626 213.728 275.673 218.266 274.626H222.455Z" fill="#592120"/>
<path d="M262.322 328.463V331.119H257.273C257.123 331.119 256.974 331.113 256.831 331.107C256.144 331.066 255.488 330.934 254.862 330.72C254.641 330.642 254.42 330.558 254.205 330.463C254.176 330.445 254.14 330.433 254.11 330.415C252.54 329.68 251.274 328.421 250.529 326.858C250.511 326.816 250.493 326.774 250.475 326.726C250.373 326.517 250.29 326.296 250.213 326.07C250.004 325.461 249.873 324.816 249.831 324.148C249.819 323.987 249.812 323.826 249.812 323.659V318.608H252.337C253.166 318.608 253.895 319.008 254.36 319.617C254.677 320.04 254.862 320.566 254.862 321.133V326.069H259.798C260.377 326.069 260.914 326.266 261.344 326.594C261.905 327.03 262.281 327.705 262.322 328.463Z" fill="#DCCEA5"/>
<path d="M254.863 338.579V333.875L254.863 333.875C254.863 333.351 254.524 332.89 254.025 332.729C251.264 331.836 249.079 329.66 248.18 326.904C248.018 326.407 247.558 326.068 247.035 326.068H242.353V328.593C242.353 329.417 242.753 330.15 243.367 330.616C243.785 330.933 244.31 331.117 244.877 331.117H246.268L244.558 332.799C243.342 333.995 243.333 335.952 244.536 337.159L245.951 338.578L247.408 337.122L249.813 334.711V336.054C249.813 336.633 250.01 337.17 250.344 337.594C250.804 338.192 251.526 338.579 252.338 338.579H254.863Z" fill="#DCCEA5"/>
<path d="M282.145 200.276V204.465" stroke="#DC7F5F" stroke-width="2.09437"/>
</g>
<defs>
<linearGradient id="paint0_linear_126_622" x1="212.486" y1="464.167" x2="212.486" y2="767.851" gradientUnits="userSpaceOnUse">
<stop stop-color="#FADECA"/>
<stop offset="1" stop-color="#F5EFE7"/>
</linearGradient>
<linearGradient id="paint1_linear_126_622" x1="209.889" y1="240.069" x2="216.573" y2="288.213" gradientUnits="userSpaceOnUse">
<stop stop-color="#FF9673"/>
<stop offset="1" stop-color="#FFB38E"/>
</linearGradient>
<linearGradient id="paint2_linear_126_622" x1="239.75" y1="255.172" x2="239.75" y2="582.098" gradientUnits="userSpaceOnUse">
<stop stop-color="#803D3B"/>
<stop offset="1" stop-color="#5E2422"/>
</linearGradient>
<linearGradient id="paint3_linear_126_622" x1="226.636" y1="103.375" x2="188.774" y2="194.694" gradientUnits="userSpaceOnUse">
<stop stop-color="#FF9673"/>
<stop offset="1" stop-color="#FFB38E"/>
</linearGradient>
<linearGradient id="paint4_linear_126_622" x1="213.408" y1="61" x2="183.977" y2="189.983" gradientUnits="userSpaceOnUse">
<stop stop-color="#543A14"/>
<stop offset="1" stop-color="#301F07"/>
</linearGradient>
<clipPath id="clip0_126_622">
<rect width="448" height="538" rx="30" fill="white"/>
</clipPath>
</defs>
</svg>
