<svg width="415" height="480" viewBox="0 0 415 480" fill="none" xmlns="http://www.w3.org/2000/svg">
<path d="M312.063 323.583L320.413 522.92L300.583 539.619L283.885 337.15L312.063 323.583Z" fill="#C36051"/>
<path d="M198.47 213.898C198.47 213.898 197.2 213.884 195.357 214.077C191.075 214.525 188.409 218.489 188.409 222.794V242.035L159.709 516.12C159.709 516.12 238.108 527.245 302.001 516.12L262.154 244.498L259.813 230.118C259.277 226.825 257.2 223.999 254.08 222.817C245.595 219.601 226.326 213.768 198.47 213.919V213.898Z" fill="url(#paint0_linear_126_1128)"/>
<path d="M247.773 440.998L219.198 446.112C216.276 446.633 213.583 444.379 213.583 441.415V393.344C213.583 391.028 215.232 389.045 217.528 388.648L246.103 383.534C249.025 383.012 251.718 385.267 251.718 388.231V436.301C251.718 438.618 250.069 440.601 247.773 440.998Z" fill="#DABC80"/>
<path d="M246.272 435.467L219.012 440.351V394.18L246.272 389.295V435.467Z" fill="#803E3C"/>
<path d="M223.98 387.48L225.776 380.988L238.571 378.692L241.91 384.265L223.98 387.48Z" fill="#DABC80"/>
<path d="M225.773 380.987V370.405L238.569 368.088V378.691L225.773 380.987Z" fill="#803E3C"/>
<path d="M225.773 370.405V364.102L238.569 361.994V368.089L225.773 370.405Z" fill="#DABC80"/>
<path d="M238.571 361.993L186.054 245.021L183.027 270.59L225.775 364.101" fill="#803E3C"/>
<path d="M229.741 342.331L265.079 252.014L272.427 271.238L237.381 359.343L229.741 342.331Z" fill="url(#paint1_linear_126_1128)"/>
<path d="M242.2 413.792V415.884H238.223C238.105 415.884 237.988 415.879 237.875 415.874C237.334 415.842 236.818 415.738 236.324 415.569C236.15 415.508 235.976 415.442 235.807 415.367C235.784 415.353 235.756 415.343 235.732 415.329C234.496 414.751 233.499 413.759 232.912 412.527C232.898 412.495 232.884 412.461 232.869 412.424C232.789 412.259 232.724 412.085 232.663 411.907C232.498 411.428 232.395 410.92 232.362 410.394C232.353 410.267 232.348 410.139 232.348 410.008V406.03H234.336C234.989 406.03 235.563 406.345 235.93 406.825C236.179 407.158 236.324 407.572 236.324 408.019V411.906H240.212C240.668 411.906 241.091 412.062 241.429 412.32C241.872 412.663 242.168 413.195 242.2 413.792Z" fill="#DCCEA5"/>
<path d="M236.326 421.76V418.055L236.327 418.055C236.327 417.642 236.06 417.28 235.667 417.153C233.492 416.449 231.771 414.736 231.063 412.565C230.936 412.173 230.574 411.907 230.162 411.907H226.474V413.895C226.474 414.544 226.789 415.122 227.273 415.489C227.602 415.738 228.015 415.883 228.462 415.883H229.557L228.21 417.208C227.253 418.15 227.246 419.691 228.194 420.642L229.308 421.759L230.455 420.612L232.35 418.713V419.771C232.35 420.228 232.505 420.651 232.768 420.984C233.13 421.455 233.699 421.76 234.338 421.76H236.326Z" fill="#DCCEA5"/>
<path d="M175.337 518.746H190.992L190.375 517.306C184.585 503.796 181.599 489.25 181.599 474.55V454.039L188.904 251.571L185.773 247.396L175.337 307.928L164.9 514.571L175.337 518.746Z" fill="#323131" fill-opacity="0.14"/>
<path d="M281.79 513.527L264.048 278.705H267.179L294.314 517.702L257.786 520.833L281.79 513.527Z" fill="#E2C8AA"/>
<path d="M177.725 272.657L156.518 241.639C156.518 241.639 135.499 240.784 118.612 236.233C101.726 231.662 82.1054 260.801 82.1054 260.801C82.1054 260.801 11.137 356.587 9.96806 358.153C8.79917 359.697 -9.42301 393.449 6.48226 419.812C22.3875 446.195 90.6424 531.9 90.6424 531.9C90.6424 531.9 112.538 519.627 125.626 500.591L126.043 559.933C126.043 559.933 116.734 560.35 123.413 570.766C123.413 570.766 78.3899 767.223 70.8339 847C70.8339 847 88.0124 886.888 156.518 881.503C156.518 881.503 176.139 632.112 165.055 547.388L172.173 465.044L177.725 272.657ZM71.648 391.508C71.648 391.508 104.502 363.288 111.015 355.022L125.417 471.118V473.184C109.783 452.833 76.9289 408.833 71.648 391.508Z" fill="url(#paint2_linear_126_1128)"/>
<path d="M184.73 241.154C184.73 241.154 173.626 242.428 166.738 246.769C166.738 246.769 158.556 245.997 154.485 243.951C150.415 241.906 153.212 278.684 164.692 294.005L142.984 326.943C142.984 326.943 160.226 511.168 163.857 521L168.616 519.163C168.616 519.163 181.787 363.011 184.73 314.419C187.674 265.826 184.73 254.179 184.73 254.179V241.134V241.154Z" fill="#C85543"/>
<path d="M66.7988 378.896C68.5383 385.158 73.0607 399.143 77.2354 404.988" stroke="#A94A4A" stroke-width="2.08731"/>
<path d="M196.212 298.535L189.95 253.657L188.906 282.88L196.212 298.535Z" fill="#672B29"/>
<path d="M265.09 291.23L261.959 260.964L256.741 310.015L265.09 291.23Z" fill="#672B29"/>
<path d="M264.048 253.658C242.34 275.366 204.908 259.92 188.905 249.483L187.861 254.701C214.579 280.584 243.523 278.705 257.786 271.4L264.048 253.658Z" fill="#D0AF8A" fill-opacity="0.2"/>
<path d="M189.352 250.385C189.352 250.385 210.851 264.475 236.566 263.765" stroke="#E7C59F" stroke-width="2.08731" stroke-miterlimit="10"/>
<path d="M245.437 263.307C245.437 263.307 253.786 262.973 261.3 256.836" stroke="#E7C59F" stroke-width="2.08731" stroke-miterlimit="10"/>
<path d="M188.433 228.99C188.433 228.99 177.328 230.263 170.44 234.605C170.44 234.605 162.258 233.833 158.188 231.787C154.117 229.742 156.914 266.52 168.394 281.841L146.687 314.778C146.687 314.778 163.928 499.004 167.56 508.835L172.319 506.999C172.319 506.999 185.49 350.847 188.433 302.255C191.376 253.662 188.433 242.015 188.433 242.015V228.969V228.99Z" fill="#A94A4A"/>
<path d="M188.906 221.304C188.906 214.624 195.864 213.65 199.343 213.998L231.696 218.173C246.307 219.216 270.52 224.017 250.482 234.871C225.434 248.439 188.906 229.653 188.906 221.304Z" fill="#F6D7B4"/>
<path d="M200.706 210.141L198.535 221.434C198.535 221.434 220.974 240.178 245.708 228.99L247.357 210.141L201.186 205.591L200.706 210.141Z" fill="url(#paint3_linear_126_1128)"/>
<path d="M258.831 257.832C258.831 240.299 251.873 233.828 248.395 232.784L252.569 222.348C259.249 224.853 260.918 230.349 260.918 232.784L263.006 254.701L258.831 257.832Z" fill="#F6D7B4"/>
<path d="M246.306 225.479L200.386 212.955V204.606L247.35 207.737L246.306 225.479Z" fill="#DE8365" fill-opacity="0.37"/>
<path d="M144.955 129.489C144.955 129.489 128.799 126.358 144.955 167.603C144.955 167.603 150.611 171.882 164.221 172.654C164.221 172.654 170.441 199.893 177.058 204.172C183.674 208.451 269.65 226.34 290.67 199.121C311.689 171.903 299.228 125.397 310.123 96.8013L256.813 49.9204H198.056L170.441 75.2186L144.955 129.509V129.489Z" fill="url(#paint4_linear_126_1128)"/>
<path d="M144.953 129.489L138.691 112.31C138.691 112.31 133.306 118.238 131.135 108.804C128.964 99.369 103.75 55.1599 144.932 42.2186C144.932 42.2186 142.553 34.5164 143.304 27.524C143.534 25.3949 146.393 24.8522 147.395 26.7517C149.691 31.135 153.073 36.8751 155.39 37.3552C155.39 37.3552 171.566 2.852 205.798 2.58065C240.03 2.3093 245.039 -5.24675 240.739 6.83876C236.44 18.9243 299.831 -9.5466 319.243 59.0214C319.243 59.0214 323.689 66.7236 330.577 70.3138C337.465 73.9039 318.304 72.7142 318.304 72.7142C318.304 72.7142 321.894 81.1051 326.695 84.09C331.496 87.0748 320.996 87.9932 320.996 87.9932C320.996 87.9932 322.186 93.6916 325.484 95.4867C328.782 97.2818 280.273 105.673 247.022 87.701C247.022 87.701 254.203 101.477 263.491 104.462C272.78 107.447 222.768 103.168 197.908 64.7406C197.908 64.7406 194.318 92.794 178.747 107.468L170.669 139.8C170.669 139.8 163.781 138.005 160.796 129.614L144.953 129.468V129.489Z" fill="url(#paint5_linear_126_1128)"/>
<path d="M148.815 143.703L164.616 146.187V161.132L154.827 159.17V150.028" fill="#DC7F5F"/>
<path d="M233.581 119.803C229.093 116.401 223.291 115.253 217.864 116.756C210.579 118.76 199.996 122.412 190.395 128.486C187.347 130.407 185.469 133.746 185.469 137.337V142.033C185.469 142.033 201.478 148.733 237.589 146.396C237.589 146.396 244.79 143.369 239.885 128.612C238.716 125.105 236.524 122.016 233.581 119.782V119.803Z" fill="#FDFCFC"/>
<path d="M268.104 124.041C270.755 121.327 274.554 120.075 278.311 120.68L289.311 122.496C293.465 123.185 296.93 126.065 298.349 130.01L299.351 132.766C300.749 136.669 300.749 140.948 299.288 144.851L297.994 148.358H272.55C272.55 148.358 267.394 144.809 265.077 134.602C264.201 130.804 265.39 126.838 268.104 124.041Z" fill="#FDFCFC"/>
<path d="M225.858 110.85C230.162 110.402 232.725 105.827 230.86 101.923L230.787 101.77C229.494 99.0637 226.465 97.6538 223.562 98.4074L199.766 104.586C197.786 105.1 196.403 106.887 196.403 108.933C196.403 111.598 198.71 113.677 201.36 113.401L225.858 110.85Z" fill="#543A14"/>
<path d="M280.953 102.451C277.901 101.701 274.953 104.011 274.953 107.154C274.953 109.829 277.121 111.997 279.796 111.997H295.329C296.964 111.997 298.289 110.671 298.289 109.036C298.289 107.674 297.359 106.487 296.036 106.162L280.953 102.451Z" fill="#543A14"/>
<path d="M220.848 146.897C220.848 146.897 216.798 133.33 220.263 130.136C223.728 126.943 235.041 127.089 236.335 130.136C237.63 133.184 239.884 144.246 239.884 144.246L237.567 146.417C237.567 146.417 224.897 147.002 220.827 146.918L220.848 146.897Z" fill="#543A14"/>
<path d="M278.355 148.358C278.355 148.358 274.118 134.102 277.416 131.513C280.714 128.925 289 129.259 290.733 131.513C292.465 133.768 295.596 140.885 293.237 148.358H278.355Z" fill="#543A14"/>
<path d="M268.627 143.703L272.989 150.508L269.629 158.147" fill="#FFAA86"/>
<path d="M268.627 143.703L272.989 150.508L269.629 158.147" stroke="#DC7F5F" stroke-width="2.08731" stroke-miterlimit="10"/>
<path d="M224.815 174.825C224.815 174.825 251.115 182.924 259.381 182.005L274.055 175.889" stroke="#DC7F5F" stroke-width="2.08731" stroke-miterlimit="10"/>
<path d="M220.213 157.641L203.515 155.554" stroke="#DC7F5F" stroke-width="2.08731"/>
<path d="M299.548 155.677L282.82 157.519" stroke="#DC7F5F" stroke-width="2.08731"/>
<path d="M106.457 360.11L125.243 340.28" stroke="#A94A4A" stroke-width="2.08731"/>
<path d="M138.811 505.178L123.156 342.368L111.676 354.892L128.374 487.435L138.811 505.178Z" fill="url(#paint6_linear_126_1128)"/>
<path d="M125.627 500.591C125.627 500.591 133.079 489.674 134.791 486.627L118.635 464.251" fill="#E56D5B"/>
<path d="M125.627 500.591C125.627 500.591 133.079 489.674 134.791 486.627L118.635 464.251" stroke="#A94A4A" stroke-width="2.08731" stroke-miterlimit="10"/>
<path d="M291.314 478.528L307.324 862.76C307.324 862.76 344.749 846.583 358.922 810.159C358.922 810.159 319.388 570.098 319.012 523.781C319.012 523.781 394.594 450.913 413.734 418.184C413.734 418.184 418.055 410.461 408.182 397.499C398.309 384.537 313.46 241.556 302.585 236.922C291.71 232.289 261.319 231.475 261.319 231.475L292.963 312.504L342.975 410.816C342.975 410.816 311.728 458.386 300.039 473.978L291.356 478.528H291.314Z" fill="url(#paint7_linear_126_1128)"/>
<path d="M287.426 241.384C280.267 237.501 269.1 236.959 269.1 236.959L268.225 237.773L269.976 249.963C269.976 249.963 267.785 261.777 273.942 310.077C280.1 358.377 301.069 527.361 301.069 527.361L304.2 521.099L292.582 288.39C303.039 272.339 303.415 235.456 299.47 237.773C295.525 240.09 287.426 241.384 287.426 241.384Z" fill="#C85543"/>
<path d="M339.192 417.511L349.629 398.725" stroke="#A94A4A" stroke-width="2.08731"/>
<path d="M291.318 478.528C300.482 503.555 318.996 523.76 318.996 523.76C318.996 523.76 339.848 534.217 336.154 544.028L334.296 549.58L337.97 553.817L328.994 573.939L320.52 566.779L315.761 571.538C315.761 571.538 303.049 559.954 303.717 549.58C303.717 549.58 295.681 541.544 295.91 526.202L291.318 478.486V478.528Z" fill="url(#paint8_linear_126_1128)"/>
<path d="M323.537 315.233L314.144 308.971L311.013 348.63L342.322 411.249L346.497 404.987L317.275 344.455C320.406 337.15 323.537 329.844 323.537 315.233Z" fill="#C85543"/>
<path d="M261.3 231.475C261.3 231.475 272.467 232.017 279.626 235.9C279.626 235.9 287.725 234.606 291.67 232.289C295.615 229.972 295.239 266.854 284.782 282.906C296.847 294.866 308.264 302.485 319.014 305.532C319.014 305.532 299.385 505.554 296.4 515.615L293.269 521.877C293.269 521.877 272.3 352.893 266.142 304.593C259.985 256.293 262.176 244.479 262.176 244.479L260.425 232.289L261.3 231.475Z" fill="#A94A4A"/>
<path d="M164.9 169.122V173.296" stroke="#DC7F5F" stroke-width="2.08731"/>
<defs>
<linearGradient id="paint0_linear_126_1128" x1="230.855" y1="213.898" x2="230.855" y2="521.064" gradientUnits="userSpaceOnUse">
<stop stop-color="#FFE1BE"/>
<stop offset="1" stop-color="#FFE1BE"/>
</linearGradient>
<linearGradient id="paint1_linear_126_1128" x1="269.267" y1="262.007" x2="227.52" y2="358.023" gradientUnits="userSpaceOnUse">
<stop stop-color="#803E3C"/>
<stop offset="1" stop-color="#642826"/>
</linearGradient>
<linearGradient id="paint2_linear_126_1128" x1="88.8624" y1="235.747" x2="88.8624" y2="882.003" gradientUnits="userSpaceOnUse">
<stop stop-color="#E17564"/>
<stop offset="1" stop-color="#EA604A"/>
</linearGradient>
<linearGradient id="paint3_linear_126_1128" x1="229.598" y1="200.795" x2="218.918" y2="225.249" gradientUnits="userSpaceOnUse">
<stop stop-color="#FF9673"/>
<stop offset="1" stop-color="#FFB38E"/>
</linearGradient>
<linearGradient id="paint4_linear_126_1128" x1="247.429" y1="20.7512" x2="162.342" y2="133.828" gradientUnits="userSpaceOnUse">
<stop stop-color="#FF9673"/>
<stop offset="1" stop-color="#FFB38E"/>
</linearGradient>
<linearGradient id="paint5_linear_126_1128" x1="226.801" y1="4.59732e-06" x2="204.581" y2="61.4835" gradientUnits="userSpaceOnUse">
<stop stop-color="#543A14"/>
<stop offset="1" stop-color="#301F07"/>
</linearGradient>
<linearGradient id="paint6_linear_126_1128" x1="125.243" y1="342.368" x2="125.243" y2="505.178" gradientUnits="userSpaceOnUse">
<stop stop-color="#C85543"/>
<stop offset="1" stop-color="#C85543" stop-opacity="0"/>
</linearGradient>
<linearGradient id="paint7_linear_126_1128" x1="337.998" y1="231.475" x2="337.998" y2="862.76" gradientUnits="userSpaceOnUse">
<stop stop-color="#E17564"/>
<stop offset="1" stop-color="#EA604A"/>
</linearGradient>
<linearGradient id="paint8_linear_126_1128" x1="321" y1="461.507" x2="274.898" y2="489.997" gradientUnits="userSpaceOnUse">
<stop stop-color="#FF9673"/>
<stop offset="1" stop-color="#FFB38E"/>
</linearGradient>
</defs>
</svg>
