<svg width="312" height="309" viewBox="0 0 312 309" fill="none" xmlns="http://www.w3.org/2000/svg">
<path d="M311.334 152.094V193.087H232.611C230.279 193.087 227.96 192.99 225.726 192.906C215.02 192.265 204.791 190.235 195.025 186.924C191.583 185.727 188.141 184.434 184.796 182.96C184.332 182.682 183.77 182.5 183.307 182.222C158.832 170.886 139.105 151.453 127.484 127.319C127.203 126.678 126.922 126.026 126.642 125.288C125.055 122.062 123.761 118.654 122.552 115.161C119.293 105.771 117.254 95.8124 116.595 85.5036C116.412 83.0141 116.314 80.5245 116.314 77.9503V0H155.67C168.597 0 179.95 6.1756 187.213 15.5659C192.144 22.104 195.025 30.2133 195.025 38.9631V115.149H271.978C280.999 115.149 289.373 118.194 296.075 123.258C304.828 129.978 310.687 140.395 311.334 152.094Z" fill="#F9F9F9" fill-opacity="0.11"/>
<path d="M195.019 308.224V235.628L195.032 235.616C195.032 227.531 189.746 220.424 181.97 217.935C138.916 204.145 104.858 170.572 90.8447 128.032C88.3178 120.358 81.1523 115.137 72.998 115.137H0V154.1C0 166.814 6.23779 178.138 15.8203 185.329C22.3266 190.211 30.5176 193.063 39.3554 193.063H61.0351L34.3781 219.021C15.4293 237.473 15.2799 267.672 34.0452 286.307L56.1035 308.212L78.8085 285.733L116.309 248.523V269.249C116.309 278.192 119.372 286.483 124.585 293.021C131.75 302.242 143.005 308.224 155.664 308.224H195.019Z" fill="#F9F9F9" fill-opacity="0.11"/>
</svg>
