<svg width="122" height="61" viewBox="0 0 122 61" fill="none" xmlns="http://www.w3.org/2000/svg">
<path d="M13.1953 46.5615C10.7621 46.5615 8.65651 46.0312 6.87841 44.9706C5.13152 43.91 3.77455 42.4594 2.80752 40.6189C1.84048 38.7784 1.35697 36.704 1.35697 34.3956C1.35697 31.9312 1.85608 29.7944 2.85431 27.9851C3.85254 26.1758 5.2407 24.7721 7.01879 23.7738C8.79688 22.7444 10.8557 22.2297 13.1953 22.2297C15.5037 22.2297 17.5158 22.7288 19.2315 23.727C20.9784 24.7253 22.3353 26.0978 23.3024 27.8447C24.3006 29.5916 24.7997 31.6037 24.7997 33.8809C24.7997 34.2864 24.7841 34.6919 24.7529 35.0975C24.7217 35.4718 24.6749 35.8306 24.6126 36.1737H7.39313C7.5491 37.7958 8.1262 39.1216 9.12443 40.151C10.1227 41.1492 11.4328 41.6484 13.0549 41.6484C15.2698 41.6484 16.8451 40.6969 17.7809 38.794H24.1914C23.7547 40.1666 23.0528 41.4456 22.0858 42.631C21.1188 43.8164 19.8866 44.7678 18.3892 45.4853C16.9231 46.2028 15.1918 46.5615 13.1953 46.5615ZM7.43992 32.1964H18.6232C18.592 30.6366 18.0149 29.4045 16.8919 28.4998C15.8001 27.5952 14.5055 27.1429 13.0082 27.1429C11.7292 27.1429 10.5438 27.5484 9.45197 28.3594C8.36016 29.1393 7.68947 30.4183 7.43992 32.1964ZM45.5161 19.7965C44.4555 19.7965 43.5353 19.4222 42.7554 18.6735C42.0067 17.8936 41.6324 16.9734 41.6324 15.9128C41.6324 14.821 42.0067 13.9007 42.7554 13.1521C43.5353 12.4034 44.4555 12.0291 45.5161 12.0291C46.6079 12.0291 47.5282 12.4034 48.2768 13.1521C49.0255 13.9007 49.3999 14.821 49.3999 15.9128C49.3999 16.9734 49.0255 17.8936 48.2768 18.6735C47.5282 19.4222 46.6079 19.7965 45.5161 19.7965ZM28.5774 46V27.7979H25.8635V22.7912H28.5774V21.0131C28.5774 18.2056 29.2793 16.2091 30.6831 15.0237C32.118 13.8383 34.0521 13.2456 36.4853 13.2456H38.4505V18.346H37.4211C36.3917 18.346 35.6586 18.5487 35.2219 18.9543C34.7852 19.3598 34.5668 20.0461 34.5668 21.0131V22.7912H38.7313V27.7979H34.5668V46H28.5774ZM42.5214 46V22.7912H48.5108V46H42.5214ZM52.9644 46V13.2456H58.9538V32.6175L66.6745 22.7912H74.3951L64.1945 34.4424L74.5355 46H66.8149L58.9538 36.1269V46H52.9644ZM82.6503 46.5615C81.2777 46.5615 79.9987 46.2808 78.8133 45.7192C77.6279 45.1577 76.6609 44.3623 75.9122 43.3329C75.1948 42.2722 74.836 41.0245 74.836 39.5895C74.836 37.8738 75.2571 36.47 76.0994 35.3782C76.9417 34.2864 78.0959 33.4754 79.562 32.9451C81.0593 32.4147 82.7283 32.1496 84.5687 32.1496H90.0902C90.0902 30.5899 89.7159 29.3889 88.9672 28.5466C88.2185 27.6732 87.1579 27.2364 85.7853 27.2364C84.6935 27.2364 83.7109 27.486 82.8374 27.9851C81.9952 28.453 81.4805 29.2485 81.2933 30.3715H75.3039C75.4599 28.687 76.037 27.2364 77.0352 26.0198C78.0335 24.8033 79.3124 23.8674 80.8722 23.2123C82.4319 22.5572 84.1008 22.2297 85.8789 22.2297C89.1232 22.2297 91.6343 23.1343 93.4124 24.9436C95.2217 26.7217 96.1263 29.1237 96.1263 32.1496V39.2152C96.1887 39.9015 96.4383 40.3694 96.875 40.6189C97.3117 40.8685 97.8888 40.9933 98.6063 40.9933V46C96.3915 46 94.7226 45.6881 93.5996 45.0642C92.4766 44.4403 91.5875 43.5044 90.9324 42.2566C90.215 43.4732 89.092 44.5027 87.5634 45.3449C86.0661 46.156 84.4284 46.5615 82.6503 46.5615ZM84.3816 41.7419C85.9413 41.7419 87.2827 41.2272 88.4057 40.1978C89.5287 39.1684 90.0902 37.827 90.0902 36.1737V35.9865H84.9431C83.8825 35.9865 82.9466 36.2205 82.1356 36.6884C81.3245 37.1251 80.919 37.8738 80.919 38.9344C80.919 39.9015 81.2465 40.6189 81.9016 41.0868C82.5879 41.5236 83.4145 41.7419 84.3816 41.7419Z" fill="black"/>
<path d="M121.296 24.6218V27.5174H115.791C115.628 27.5174 115.466 27.5105 115.31 27.5045C114.561 27.4593 113.846 27.3159 113.163 27.082C112.922 26.9975 112.681 26.9062 112.448 26.802C112.415 26.7824 112.376 26.7696 112.343 26.7499C110.632 25.9492 109.252 24.5766 108.44 22.8719C108.42 22.8266 108.4 22.7806 108.381 22.7285C108.27 22.5006 108.179 22.2598 108.095 22.0131C107.867 21.3499 107.724 20.6465 107.678 19.9183C107.666 19.7425 107.659 19.5666 107.659 19.3848V13.8789H110.411C111.315 13.8789 112.109 14.3151 112.617 14.9784C112.961 15.4402 113.163 16.013 113.163 16.631V22.0123H118.544C119.175 22.0123 119.761 22.2274 120.229 22.5851C120.841 23.0597 121.251 23.7955 121.296 24.6218Z" fill="#FF4632"/>
<path d="M113.163 35.6499V30.5222L113.163 30.5213C113.163 29.9502 112.794 29.4483 112.25 29.2724C109.239 28.2984 106.858 25.9271 105.878 22.9223C105.701 22.3802 105.2 22.0114 104.63 22.0114H99.5249V24.7636C99.5249 25.6616 99.9611 26.4614 100.631 26.9693C101.086 27.3142 101.659 27.5157 102.277 27.5157H103.793L101.929 29.3492C100.604 30.6525 100.593 32.7856 101.906 34.1018L103.448 35.6491L105.036 34.0613L107.658 31.433V32.897C107.658 33.5286 107.873 34.1142 108.237 34.5761C108.738 35.2274 109.525 35.6499 110.41 35.6499H113.163Z" fill="url(#paint0_linear_3_4)"/>
<defs>
<linearGradient id="paint0_linear_3_4" x1="102.344" y1="32.7501" x2="112.085" y2="23.2057" gradientUnits="userSpaceOnUse">
<stop stop-color="#FF8528"/>
<stop offset="1" stop-color="#FF4632"/>
</linearGradient>
</defs>
</svg>
