<svg width="1392" height="399" viewBox="0 0 1392 399" fill="none" xmlns="http://www.w3.org/2000/svg">
<g opacity="0.1">
<path d="M937.384 398.192C921.557 398.192 906.809 394.954 893.14 388.48C879.472 382.005 868.321 372.833 859.688 360.963C851.415 348.733 847.279 334.345 847.279 317.798C847.279 298.015 852.134 281.828 861.846 269.239C871.558 256.649 884.867 247.297 901.773 241.182C919.039 235.067 938.283 232.01 959.505 232.01H1023.17C1023.17 219.78 1021.19 209.528 1017.24 201.255C1013.64 192.982 1008.07 186.687 1000.51 182.371C993.317 177.695 984.325 175.357 973.534 175.357C960.944 175.357 949.614 178.234 939.542 183.989C929.83 189.385 923.895 198.557 921.737 211.507H852.674C854.473 192.083 861.127 175.357 872.637 161.328C884.148 147.3 898.896 136.509 916.881 128.955C934.866 121.401 954.11 117.625 974.613 117.625C999.792 117.625 1021.01 122.301 1038.28 131.653C1055.91 141.005 1069.39 154.314 1078.75 171.58C1088.1 188.486 1092.77 208.629 1092.77 232.01V313.482C1093.49 321.395 1096.37 326.791 1101.41 329.669C1106.44 332.546 1113.1 333.985 1121.37 333.985V391.717C1104.47 391.717 1090.26 390.098 1078.75 386.861C1067.6 383.624 1058.42 378.948 1051.23 372.833C1044.04 366.358 1037.92 358.265 1032.88 348.553C1024.61 362.581 1011.66 374.451 994.037 384.163C976.771 393.516 957.887 398.192 937.384 398.192ZM957.347 342.618C969.217 342.618 980.008 339.92 989.72 334.525C999.792 329.129 1007.89 321.575 1014 311.863C1020.12 302.151 1023.17 291.001 1023.17 278.411V276.253H963.822C955.908 276.253 948.355 277.512 941.161 280.03C933.967 282.188 928.211 285.785 923.895 290.821C919.578 295.497 917.42 301.972 917.42 310.245C917.42 321.395 921.197 329.669 928.751 335.064C936.664 340.1 946.196 342.618 957.347 342.618Z" fill="#202020"/>
<path d="M595.08 391.718V14.0312H664.143V237.406L753.169 124.1H842.195L724.572 258.449L843.813 391.718H754.787L664.143 277.872V391.718H595.08Z" fill="#202020"/>
<path d="M313.876 391.715V181.829H282.582V124.097H313.876V103.594C313.876 71.2209 321.97 48.2 338.156 34.5313C354.702 20.8627 377.004 14.0283 405.061 14.0283H427.722V72.8396H415.852C403.982 72.8396 395.529 75.1776 390.493 79.8538C385.457 84.5299 382.939 92.4433 382.939 103.594V124.097H430.959V181.829H382.939V391.715H313.876ZM474.663 391.715V124.097H543.726V391.715H474.663ZM509.194 89.5657C496.964 89.5657 486.353 85.2493 477.361 76.6164C468.728 67.6239 464.411 57.0127 464.411 44.7828C464.411 32.1933 468.728 21.5821 477.361 12.9492C486.353 4.31641 496.964 0 509.194 0C521.784 0 532.395 4.31641 541.028 12.9492C549.661 21.5821 553.977 32.1933 553.977 44.7828C553.977 57.0127 549.661 67.6239 541.028 76.6164C532.395 85.2493 521.784 89.5657 509.194 89.5657Z" fill="#202020"/>
<path d="M136.507 398.192C108.45 398.192 84.1702 392.077 63.6672 379.847C43.5239 367.617 27.8769 350.891 16.7261 329.669C5.57538 308.446 0 284.526 0 257.908C0 229.492 5.75523 204.852 17.2657 183.989C28.7761 163.127 44.7828 146.94 65.2858 135.43C85.7888 123.56 109.529 117.625 136.507 117.625C163.125 117.625 186.325 123.38 206.109 134.89C226.252 146.401 241.899 162.227 253.05 182.371C264.56 202.514 270.316 225.715 270.316 251.973C270.316 256.649 270.136 261.325 269.776 266.001C269.416 270.318 268.877 274.454 268.158 278.411H69.6023C70.6814 291.001 73.9187 302.151 79.3142 311.863C85.0694 321.216 92.6232 328.589 101.975 333.985C111.687 339.021 122.658 341.539 134.888 341.539C147.478 341.539 158.269 338.841 167.261 333.445C176.613 328.05 183.987 319.777 189.383 308.626H263.302C258.266 324.453 250.172 339.201 239.022 352.869C227.871 366.538 213.663 377.509 196.397 385.782C179.491 394.055 159.528 398.192 136.507 398.192ZM70.1418 232.549H199.095C198.735 214.564 192.081 200.356 179.131 189.924C166.542 179.493 151.614 174.277 134.349 174.277C119.601 174.277 105.932 178.954 93.3426 188.306C80.753 197.298 73.0194 212.046 70.1418 232.549Z" fill="#202020"/>
<path d="M1392 133.551V169.546H1323.56C1321.54 169.546 1319.52 169.461 1317.58 169.387C1308.27 168.825 1299.38 167.042 1290.89 164.134C1287.9 163.084 1284.9 161.948 1282 160.653C1281.59 160.409 1281.11 160.25 1280.7 160.006C1259.43 150.052 1242.28 132.988 1232.17 111.796C1231.93 111.234 1231.69 110.661 1231.44 110.013C1230.06 107.18 1228.94 104.188 1227.89 101.121C1225.05 92.8753 1223.28 84.1311 1222.71 75.0791C1222.55 72.8931 1222.46 70.707 1222.46 68.4467V0H1256.68C1267.91 0 1277.78 5.42268 1284.1 13.6681C1288.39 19.4091 1290.89 26.5297 1290.89 34.2127V101.11H1357.79C1365.63 101.11 1372.91 103.784 1378.73 108.231C1386.34 114.131 1391.44 123.278 1392 133.551Z" fill="#202020"/>
<path d="M1290.91 270.631V206.885L1290.92 206.874C1290.92 199.775 1286.32 193.535 1279.56 191.349C1242.13 179.241 1212.53 149.761 1200.34 112.407C1198.15 105.669 1191.92 101.084 1184.83 101.084H1121.37V135.297C1121.37 146.461 1126.79 156.404 1135.12 162.718C1140.78 167.006 1147.9 169.51 1155.58 169.51H1174.43L1151.26 192.303C1134.78 208.506 1134.65 235.022 1150.97 251.386L1170.14 270.62L1189.88 250.882L1222.48 218.208V236.407C1222.48 244.26 1225.14 251.54 1229.68 257.281C1235.91 265.378 1245.69 270.631 1256.69 270.631H1290.91Z" fill="#202020"/>
</g>
</svg>
