<svg width="503" height="108" viewBox="0 0 503 108" fill="none" xmlns="http://www.w3.org/2000/svg">
<path d="M63.0117 60.4919C63.1178 60.3269 63.271 60.1972 63.3653 60.0322C63.4478 59.8555 63.542 59.6905 63.6363 59.5255C63.8838 59.2191 63.9899 58.8537 64.1549 58.5002L93.7586 71.6993C94.5482 70.1319 95.0314 68.4467 95.6206 66.7968L64.6498 57.251C64.7677 56.8857 64.803 56.4968 64.9444 56.1196C64.9798 55.7307 65.0387 55.3418 65.1094 54.9529L97.3883 57.9345L97.518 55.3183C97.5651 54.4462 97.5887 53.5741 97.518 52.702L91.5784 52.867C91.5077 51.5707 91.4959 50.2625 91.272 48.978L90.9891 47.0453C90.8948 46.3971 90.7063 45.7725 90.5649 45.1361L104.197 41.8859C105.377 41.6047 106.565 42.3326 106.798 43.5225C108.145 50.3962 108.17 57.5104 106.804 64.3927C105.427 71.2684 102.686 77.9022 98.7828 83.751C98.111 84.7576 96.737 84.9712 95.7577 84.2603L63.0117 60.4919Z" fill="#034AA9"/>
<path d="M29.9793 5.58384C31.0582 5.05639 32.3407 5.56072 32.83 6.65741L49.3419 43.6637C49.0001 43.8287 48.623 43.9466 48.3166 44.1823C48.1516 44.2883 47.9866 44.3708 47.8099 44.4533C47.6449 44.5476 47.5152 44.7008 47.3502 44.8069L28.294 18.5854C27.5987 19.1039 26.8798 19.6107 26.1963 20.1646L24.2518 21.9088L46.2896 45.6907C45.9596 45.9146 45.7357 46.2564 45.4647 46.5392C45.1465 46.7985 44.9815 47.1521 44.734 47.4585L18.3004 28.6851C17.2162 30.0639 16.4148 31.6313 15.5192 33.1162L20.7399 35.9564C20.1035 37.0995 19.6085 38.3016 19.0547 39.4801C18.5715 40.6939 18.1708 41.9313 17.7347 43.1688L12.0308 41.4717L11.3945 44.0173C11.1941 44.8658 10.9702 45.7143 10.8759 46.5746L16.733 47.5763C16.568 48.8726 16.297 50.1454 16.2852 51.4535C16.2263 52.7499 16.132 54.058 16.2381 55.3544L2.22789 55.8744C1.02089 55.9192 -0.000277433 54.98 1.38526e-06 53.7722C0.00229272 43.8462 2.84965 33.8969 8.14181 25.4207C11.0173 20.907 14.4232 16.7352 18.4772 13.294C21.9547 10.2856 25.8116 7.62136 29.9793 5.58384Z" fill="#034AA9"/>
<path d="M103.859 33.529C104.186 34.337 103.615 35.5353 102.798 35.8375L64.4502 50.0161C64.2028 49.2854 63.8374 48.6137 63.4367 47.9537L90.8603 30.6535C89.9646 29.1568 88.845 27.7897 87.8197 26.3873L62.6707 46.8459C61.9518 46.1388 61.2919 45.2903 60.4316 44.7836C60.0663 44.4182 59.5713 44.2886 59.1824 43.9704C58.9585 43.8644 58.7228 43.7819 58.4989 43.6758L58.1689 43.499C58.051 43.4519 57.9332 43.4283 57.8153 43.393L69.0582 12.9879L66.5833 12.1276C65.7466 11.8683 64.8981 11.6915 64.0496 11.4676L56.5426 43.0041C56.354 42.9687 56.1772 42.8744 55.9769 42.8626C55.7765 42.8508 55.588 42.8273 55.3994 42.7919C55.0223 42.6741 54.6216 42.7448 54.2327 42.6976L55.1166 10.2891C54.2445 10.2302 53.3724 10.242 52.5003 10.2891L49.8841 10.4187L50.4262 16.3348C49.1299 16.4998 47.8453 16.6765 46.5607 16.9005C45.2997 17.2186 44.0152 17.4779 42.7778 17.8668L38.6487 4.47028C38.2927 3.31528 38.9367 2.08502 40.1046 1.7738C53.6749 -1.84238 68.5585 0.127107 80.7831 7.16493C81.8321 7.76881 82.1354 9.12636 81.4899 10.1502L65.3695 35.721C66.1237 36.1452 66.7483 36.7345 67.479 37.2059L86.5215 13.7976C87.2984 12.8425 88.7116 12.7105 89.6275 13.5332C92.6285 16.2288 95.4145 19.1598 97.7309 22.5101C99.204 24.4074 100.347 26.5405 101.561 28.6265C102.115 29.6871 102.61 30.7949 103.117 31.8791L103.859 33.529V33.529Z" fill="#034AA9"/>
<path d="M46.7615 62.6018C47.0679 62.8493 47.4096 63.0379 47.6925 63.2971C48.0224 63.4857 48.3642 63.6625 48.6824 63.8982L33.5623 92.5709C35.1415 93.3016 36.6971 94.1265 38.347 94.704L49.8962 64.4167C52.8778 65.5363 56.5076 65.3831 59.277 63.8157L74.7271 92.3116C76.2238 91.4042 77.7912 90.6028 79.1582 89.5304L60.3848 63.1086C60.6912 62.8611 61.0448 62.6961 61.3041 62.3779C61.5869 62.1069 61.9287 61.883 62.1526 61.553L91.8568 89.0772C92.7453 89.9005 92.8019 91.2913 91.9438 92.1462C87.0049 97.0666 81.0693 101.068 74.5739 103.767C68.0773 106.476 61.0787 107.824 54.0849 107.846C52.8717 107.849 51.9252 106.825 51.9711 105.613L52.2768 97.5441C57.0261 97.7209 61.799 97.1317 66.3834 95.8L64.6981 90.1078C60.7384 91.251 56.6137 91.7577 52.5125 91.6045L52.9014 81.3516C55.8948 81.4577 58.8999 81.0924 61.7872 80.2674L60.0902 74.5635C57.0143 75.4474 53.7146 75.6477 50.5444 75.1528L45.7586 105.393C45.603 106.375 44.68 107.046 43.6974 106.89V106.89L41.9414 106.489C40.7747 106.206 39.608 105.923 38.4531 105.605C36.1786 104.827 33.8688 104.12 31.7121 103.048C27.969 101.425 24.5033 99.2473 21.2655 96.8058C20.2858 96.067 20.1456 94.6605 20.9294 93.7164L46.7615 62.6018Z" fill="#034AA9"/>
<path d="M29.7913 40.8357L44.0393 48.5666C42.4719 51.3243 42.3187 54.9658 43.4383 57.9474L13.151 69.5084C13.7402 71.1583 14.5534 72.7139 15.2959 74.2931L43.9686 59.173C44.2043 59.4794 44.3693 59.8212 44.5696 60.163C44.8407 60.4458 45.0292 60.7876 45.2649 61.094L14.1504 86.9482C13.2064 87.7327 11.7993 87.5927 11.0607 86.6125C8.61934 83.3724 6.4417 79.9 4.81906 76.1669C3.74663 73.9985 3.03954 71.6886 2.26173 69.4259C1.93175 68.271 1.6607 67.1043 1.37786 65.9376L0.977174 64.1816V64.1816C0.821091 63.1996 1.49218 62.2775 2.47462 62.1241L38.4066 56.5129C37.8579 53.4952 37.8579 52.3979 38.6809 49.9289L27.5993 46.1036C27.9293 45.2197 28.2121 44.3122 28.5539 43.4284C28.9782 42.5799 29.3199 41.696 29.7795 40.871L29.7913 40.8357Z" fill="#034AA9"/>
<path d="M137.133 83.7068V28.89H164.406C174.083 28.89 180.58 34.3716 180.58 42.8987C180.58 48.7188 176.79 52.7793 171.85 54.2681V54.5388C177.738 55.6893 183.287 60.3589 183.287 68.2092C183.287 77.5484 176.046 83.7068 165.624 83.7068H137.133ZM146.539 51.4934H163.188C168.263 51.4934 171.173 48.9218 171.173 44.2522C171.173 39.5826 168.263 37.011 163.188 37.011H146.539V51.4934ZM146.539 75.5858H163.797C170.158 75.5858 173.88 72.6757 173.88 67.2617C173.88 61.8477 170.158 59.0731 163.864 59.0731H146.539V75.5858ZM203.802 84.4512C194.463 84.4512 188.778 79.4433 188.778 71.9313C188.778 64.0133 194.328 59.5468 204.479 59.5468H217.337V57.8549C217.337 52.4409 214.224 49.7339 208.133 49.7339C202.787 49.7339 199.877 51.4934 198.794 55.3509H189.59C191.147 46.9592 197.779 42.2896 208.201 42.2896C219.773 42.2896 226.135 47.7713 226.135 57.9903V74.4353H230.534V83.7068H220.992V77.2777H218.149C215.375 81.7442 210.502 84.4512 203.802 84.4512ZM205.156 77.2777C211.991 77.2777 217.337 72.8111 217.337 67.2617V65.9759H204.953C200.148 65.9759 197.508 67.8708 197.508 71.5253C197.508 75.112 200.418 77.2777 205.156 77.2777ZM238.808 83.7068V26.8597H248.012V83.7068H238.808ZM270.896 84.4512C261.556 84.4512 255.872 79.4433 255.872 71.9313C255.872 64.0133 261.421 59.5468 271.572 59.5468H284.431V57.8549C284.431 52.4409 281.318 49.7339 275.227 49.7339C269.881 49.7339 266.97 51.4934 265.888 55.3509H256.684C258.24 46.9592 264.873 42.2896 275.295 42.2896C286.867 42.2896 293.228 47.7713 293.228 57.9903V74.4353H297.627V83.7068H288.085V77.2777H285.243C282.468 81.7442 277.595 84.4512 270.896 84.4512ZM272.249 77.2777C279.084 77.2777 284.431 72.8111 284.431 67.2617V65.9759H272.046C267.241 65.9759 264.602 67.8708 264.602 71.5253C264.602 75.112 267.512 77.2777 272.249 77.2777ZM306.876 83.7068V52.3732H302.206V43.1017H311.816V50.8844H314.658C316.824 45.6057 321.832 42.6957 327.99 42.6957H331.374V50.6137H327.584C319.869 50.6137 315.944 55.4186 315.944 62.7952V83.7068H306.876ZM349.171 84.4512C339.832 84.4512 334.148 79.4433 334.148 71.9313C334.148 64.0133 339.697 59.5468 349.848 59.5468H362.706V57.8549C362.706 52.4409 359.593 49.7339 353.503 49.7339C348.156 49.7339 345.246 51.4934 344.163 55.3509H334.96C336.516 46.9592 343.148 42.2896 353.57 42.2896C365.143 42.2896 371.504 47.7713 371.504 57.9903V74.4353H375.903V83.7068H366.361V77.2777H363.519C360.744 81.7442 355.871 84.4512 349.171 84.4512ZM350.525 77.2777C357.36 77.2777 362.706 72.8111 362.706 67.2617V65.9759H350.322C345.517 65.9759 342.878 67.8708 342.878 71.5253C342.878 75.112 345.788 77.2777 350.525 77.2777ZM384.475 83.7068V52.3732H379.805V43.1017H389.415V49.5309H392.528C395.1 44.929 399.566 42.3573 406.131 42.3573C412.56 42.3573 417.094 44.7936 419.869 49.6662H420.072C423.117 44.7259 427.651 42.3573 434.013 42.3573C444.232 42.3573 450.458 48.6511 450.458 58.87V83.7068H441.254V60.4942C441.254 53.8621 438.006 50.4783 431.644 50.4783C425.35 50.4783 422.034 53.9297 422.034 60.4942V83.7068H412.83V60.4942C412.83 53.9297 409.582 50.4783 403.153 50.4783C396.927 50.4783 393.678 53.8621 393.678 60.4942V83.7068H384.475ZM472.731 84.4512C463.392 84.4512 457.707 79.4433 457.707 71.9313C457.707 64.0133 463.257 59.5468 473.408 59.5468H486.266V57.8549C486.266 52.4409 483.153 49.7339 477.063 49.7339C471.716 49.7339 468.806 51.4934 467.723 55.3509H458.52C460.076 46.9592 466.708 42.2896 477.13 42.2896C488.703 42.2896 495.064 47.7713 495.064 57.9903V74.4353H499.463V83.7068H489.921V77.2777H487.078C484.304 81.7442 479.431 84.4512 472.731 84.4512ZM474.085 77.2777C480.92 77.2777 486.266 72.8111 486.266 67.2617V65.9759H473.882C469.077 65.9759 466.438 67.8708 466.438 71.5253C466.438 75.112 469.348 77.2777 474.085 77.2777Z" fill="black"/>
</svg>
