<svg width="349" height="106" viewBox="0 0 349 106" fill="none" xmlns="http://www.w3.org/2000/svg">
<path fill-rule="evenodd" clip-rule="evenodd" d="M318.465 49.4795C318.465 22.8292 296.86 1.22485 270.21 1.22485V19.5133C286.76 19.5134 300.177 32.9294 300.178 49.4795H318.465Z" fill="#01A1A7"/>
<path fill-rule="evenodd" clip-rule="evenodd" d="M300.177 57.1052C300.177 83.7555 321.781 105.36 348.432 105.36V57.1052H300.177ZM318.463 57.109C318.463 73.6602 331.88 87.0777 348.432 87.0777V57.109H318.463Z" fill="#01A1A7"/>
<path d="M237.114 10.196H253.92V29.9083H270.22V46.7143H253.92V64.9103C253.92 68.0272 255.015 70.6808 257.205 72.871C259.48 75.1455 262.175 76.2828 265.292 76.2828H270.22V93.0888H265.292C257.542 93.0888 250.887 90.3088 245.327 84.7489C239.852 79.2733 237.114 72.6604 237.114 64.9103V46.7143H227.005V29.9083H237.114V10.196Z" fill="#E86F00"/>
<path d="M210.647 93.0938V29.9133H227.58V93.0938H210.647Z" fill="#FB8B24"/>
<path d="M226.311 17.1851C228.249 15.2475 229.218 12.8888 229.218 10.1089C229.218 7.24469 228.249 4.84384 226.311 2.9063C224.374 0.96877 221.973 0 219.109 0C216.329 0 213.97 0.96877 212.033 2.9063C210.011 4.92808 209 7.32893 209 10.1089C209 12.8046 210.011 15.1633 212.033 17.1851C214.054 19.2069 216.413 20.2177 219.109 20.2177C221.889 20.2177 224.29 19.2069 226.311 17.1851Z" fill="#7344C6"/>
<path d="M191.118 29.9089H206.029V93.0893H191.118V86.7713C190.781 87.024 190.487 87.3189 190.234 87.6558C190.065 87.9086 189.813 88.1613 189.476 88.414C185.095 92.5418 179.409 94.6057 172.417 94.6057C163.403 94.6057 155.906 91.4045 149.925 85.0022C143.944 78.6 140.953 70.7656 140.953 61.4991C140.953 52.2327 143.944 44.3983 149.925 37.996C155.906 31.5937 163.403 28.3926 172.417 28.3926C179.325 28.3926 185.053 30.5828 189.602 34.9633C189.855 35.2161 190.108 35.5109 190.36 35.8479C190.613 36.1006 190.866 36.3954 191.118 36.7324V29.9089ZM173.807 45.0722C169.258 45.0722 165.509 46.6307 162.561 49.7476C159.612 52.9487 158.138 56.8659 158.138 61.4991C158.138 66.0481 159.612 69.9232 162.561 73.1243C165.509 76.3255 169.258 77.926 173.807 77.926C178.272 77.926 181.978 76.3255 184.927 73.1243C186.275 71.608 187.328 69.8811 188.086 67.9435C188.844 65.9218 189.223 63.7736 189.223 61.4991C189.223 59.1404 188.844 56.9923 188.086 55.0547C187.328 53.1172 186.275 51.3481 184.927 49.7476C181.978 46.6307 178.272 45.0722 173.807 45.0722Z" fill="#E86F00"/>
<path d="M46.5008 41.9174L30.7057 47.3509C30.2003 46.0873 29.3578 45.1186 28.1785 44.4446C27.0834 43.7707 25.7776 43.4337 24.2613 43.4337C23.2504 43.4337 22.3659 43.5601 21.6077 43.8128C20.8495 43.9813 20.2177 44.3183 19.7123 44.8237C18.5329 45.7504 17.9854 46.9297 18.0696 48.3618C18.1538 50.2993 20.0914 51.6893 23.8822 52.5317C24.8089 52.7002 25.6513 52.8687 26.4094 53.0372C27.1676 53.2056 27.7994 53.3741 28.3048 53.5426C33.612 54.722 37.824 56.6595 40.9409 59.3552C45.5742 63.3145 47.8908 68.369 47.8908 74.5185C47.8065 81.0051 45.1951 86.1437 40.0564 89.9345C38.1189 91.4509 35.8023 92.5881 33.1066 93.3463C30.4109 94.1887 27.3782 94.6099 24.0086 94.6099C18.4487 94.5257 13.4785 93.3042 9.09798 90.9454C4.80171 88.5867 1.76905 85.1328 0 80.5838L15.9215 74.8976C17.2693 77.846 19.7123 79.3202 23.2504 79.3202C25.6934 79.3202 27.5467 78.8148 28.8103 77.8039C30.1581 76.7088 30.7899 75.3609 30.7057 73.7604C30.6215 71.7386 28.1785 70.138 23.3768 68.9586C22.7028 68.7902 21.9868 68.6217 21.2286 68.4532C20.5547 68.2005 19.8808 67.9899 19.2069 67.8214C16.4269 67.2317 13.8997 66.3472 11.6252 65.1678C9.43495 63.9885 7.53953 62.5142 5.93896 60.7452C2.82206 57.2913 1.22149 53.1214 1.13725 48.2355C1.13725 42.0016 3.36962 37.1578 7.83437 33.7039C12.3834 30.2501 17.7748 28.481 24.0086 28.3968C29.6527 28.3126 34.4123 29.4919 38.2873 31.9349C41.9097 34.2094 44.6475 37.5369 46.5008 41.9174Z" fill="#E86F00"/>
<path d="M270.208 30.1887V30.1887C280.868 30.1887 289.51 38.8305 289.51 49.4906V76.4116H270.208V30.1887Z" fill="#7344C6"/>
<path d="M348.428 76.4092V76.4092C337.768 76.4092 329.126 67.7675 329.126 57.1073V30.1863H348.428V76.4092Z" fill="#7344C6"/>
<path fill-rule="evenodd" clip-rule="evenodd" d="M123.849 58.0146C123.853 57.8951 123.855 57.7752 123.855 57.6548C123.855 51.9214 119.208 47.2736 113.474 47.2736C107.741 47.2736 103.093 51.9214 103.093 57.6548C103.093 57.7752 103.095 57.8951 103.099 58.0146H85.9125C85.9109 57.8948 85.9102 57.7749 85.9102 57.6548C85.9102 42.4316 98.251 30.0908 113.474 30.0908C128.697 30.0908 141.038 42.4316 141.038 57.6548C141.038 57.7749 141.037 57.8948 141.036 58.0146H123.849ZM123.859 58.016H141.042V93.0974H123.859V58.016ZM103.093 58.016H85.9102V93.0974H103.093V58.016Z" fill="#E86F00"/>
<path fill-rule="evenodd" clip-rule="evenodd" d="M85.912 57.655C85.912 57.7754 85.9099 57.8954 85.9059 58.0148H103.092C103.094 57.8951 103.095 57.7751 103.095 57.655C103.095 42.4319 90.7539 30.0911 75.5308 30.0911C60.3076 30.0911 47.9668 42.4319 47.9668 57.655C47.9668 57.7751 47.9676 57.8951 47.9691 58.0148H65.1556C65.1516 57.8954 65.1495 57.7754 65.1495 57.655C65.1495 51.9216 69.7974 47.2738 75.5308 47.2738C81.2642 47.2738 85.912 51.9216 85.912 57.655ZM103.097 58.0162H85.9139V93.0976H103.097V58.0162Z" fill="#E86F00"/>
<path fill-rule="evenodd" clip-rule="evenodd" d="M85.9163 57.9888C85.9195 57.8818 85.9212 57.7745 85.9212 57.6668C85.9212 57.5591 85.9195 57.4518 85.9163 57.3449C86.0049 49.5999 89.2878 42.6225 94.5092 37.6682C99.7306 42.6225 103.013 49.6 103.102 57.345C103.099 57.4518 103.097 57.5591 103.097 57.6668C103.097 57.7745 103.099 57.8818 103.102 57.9887C103.102 58.0014 103.102 58.014 103.102 58.0266H103.098H103.097V93.0981H85.9154V58.0266H85.915C85.9152 58.0233 85.9153 58.02 85.9154 58.0166H85.9166C85.9165 58.0074 85.9164 57.9981 85.9163 57.9888Z" fill="#E86F00"/>
<rect x="47.9727" y="30.0886" width="17.1827" height="63.0034" fill="#FB8B24"/>
<rect x="188.535" y="30.0886" width="17.1827" height="63.0034" fill="#FB8B24"/>
</svg>
