<svg width="442" height="93" viewBox="0 0 442 93" fill="none" xmlns="http://www.w3.org/2000/svg">
<path fill-rule="evenodd" clip-rule="evenodd" d="M20.0293 11.9281H25.6583C28.319 22.4665 37.8526 30.2632 49.2189 30.2632C62.6403 30.2632 73.5181 19.3854 73.5181 5.96403V0.342832H61.59V5.96403C61.59 12.7977 56.0526 18.3351 49.2189 18.3351C43.0691 18.3351 37.9594 13.8447 37.0077 7.964C36.3749 4.05429 33.0469 0 27.9192 0H20.0293V11.9281ZM11.9281 71.8707V66.2416C22.4665 63.5809 30.2632 54.0473 30.2632 42.681C30.2632 29.2597 19.3854 18.3818 5.96403 18.3818H0.34283L0.34283 30.3099H5.96403C12.7977 30.3099 18.3351 35.8474 18.3351 42.681C18.3351 48.8308 13.8447 53.9405 7.964 54.8923C4.05429 55.5251 -2.24143e-07 58.853 0 63.9808L3.4488e-07 71.8707H11.9281ZM79.7121 25.9196V20.2905H91.6402V28.1804C91.6402 33.3082 87.5859 36.6361 83.6762 37.2689C77.7955 38.2207 73.3051 43.3304 73.3051 49.4802C73.3051 56.3138 78.8425 61.8513 85.6762 61.8513H91.2974V73.7794H85.6762C72.2548 73.7794 61.377 62.9015 61.377 49.4802C61.377 38.1139 69.1737 28.5803 79.7121 25.9196ZM71.6113 80.108H65.9822C63.3215 69.5695 53.7879 61.7729 42.4216 61.7729C29.0003 61.7729 18.1224 72.6507 18.1224 86.072V91.6932H30.0505V86.072C30.0505 79.2384 35.588 73.7009 42.4216 73.7009C48.5714 73.7009 53.6811 78.1913 54.6329 84.0721C55.2657 87.9818 58.5936 92.036 63.7214 92.036H71.6113V80.108Z" fill="#1536FC"/>
<path d="M104.25 70.7876V21.6676H121.688C124.214 21.6676 126.495 22.1822 128.53 23.2114C130.588 24.2406 132.214 25.7259 133.407 27.6673C134.623 29.5853 135.231 31.8892 135.231 34.5791C135.231 35.889 135.02 37.1755 134.599 38.4386C134.178 39.7017 133.582 40.8127 132.81 41.7717C132.038 42.7307 131.103 43.4091 130.003 43.8067C131.5 44.1809 132.74 44.8593 133.722 45.8417C134.728 46.8007 135.523 47.9234 136.108 49.2099C136.693 50.4964 137.102 51.8296 137.336 53.2097C137.593 54.5897 137.722 55.8996 137.722 57.1393C137.722 59.759 137.091 62.098 135.827 64.1564C134.564 66.2148 132.869 67.8404 130.74 69.0333C128.635 70.2028 126.308 70.7876 123.758 70.7876H104.25ZM111.548 64.4722H123.056C124.553 64.4722 125.91 64.0979 127.126 63.3494C128.366 62.6009 129.348 61.5718 130.073 60.2619C130.799 58.9286 131.161 57.4316 131.161 55.7709C131.161 54.3207 130.799 52.9524 130.073 51.6659C129.348 50.356 128.366 49.3035 127.126 48.5082C125.91 47.7129 124.553 47.3153 123.056 47.3153H111.548V64.4722ZM111.548 41.1051H120.916C122.834 41.1051 124.483 40.5203 125.863 39.3508C127.243 38.1813 127.933 36.579 127.933 34.5441C127.933 32.3687 127.243 30.7431 125.863 29.6671C124.483 28.5678 122.834 28.0181 120.916 28.0181H111.548V41.1051ZM170.402 35.7019H177.7V70.7876H170.367L170.086 65.7002C169.057 67.5012 167.665 68.9514 165.911 70.0508C164.156 71.1501 162.086 71.6998 159.701 71.6998C157.128 71.6998 154.707 71.2203 152.438 70.2613C150.169 69.2789 148.169 67.9223 146.438 66.1914C144.731 64.4605 143.397 62.4723 142.438 60.2268C141.479 57.9579 141 55.5253 141 52.929C141 50.4262 141.468 48.0754 142.403 45.8767C143.339 43.6547 144.637 41.7132 146.298 40.0525C147.959 38.3918 149.877 37.0936 152.052 36.158C154.251 35.199 156.601 34.7195 159.104 34.7195C161.654 34.7195 163.899 35.3043 165.841 36.4738C167.805 37.6199 169.431 39.0935 170.717 40.8946L170.402 35.7019ZM159.525 64.6476C161.583 64.6476 163.385 64.1447 164.928 63.1389C166.472 62.1097 167.665 60.7297 168.507 58.9988C169.372 57.2679 169.805 55.3499 169.805 53.2447C169.805 51.1162 169.372 49.1865 168.507 47.4556C167.642 45.7247 166.437 44.3564 164.893 43.3506C163.373 42.3214 161.583 41.8068 159.525 41.8068C157.49 41.8068 155.631 42.3214 153.946 43.3506C152.262 44.3798 150.929 45.7598 149.947 47.4907C148.964 49.2216 148.473 51.1396 148.473 53.2447C148.473 55.3733 148.976 57.303 149.982 59.0339C151.011 60.7414 152.356 62.1097 154.017 63.1389C155.701 64.1447 157.537 64.6476 159.525 64.6476ZM216.278 48.7889V70.7876H208.98V50.5782C208.98 49.0111 208.594 47.5843 207.822 46.2978C207.074 45.0113 206.056 43.9938 204.77 43.2453C203.507 42.4734 202.08 42.0875 200.489 42.0875C198.946 42.0875 197.53 42.4734 196.244 43.2453C194.957 43.9938 193.928 45.0113 193.156 46.2978C192.385 47.5843 191.999 49.0111 191.999 50.5782V70.7876H184.701V35.7019H191.999V39.421C193.215 37.9708 194.712 36.8246 196.49 35.9826C198.267 35.1405 200.185 34.7195 202.244 34.7195C204.84 34.7195 207.202 35.351 209.331 36.6141C211.459 37.8772 213.144 39.573 214.383 41.7015C215.646 43.8301 216.278 46.1925 216.278 48.7889ZM249.296 35.7019H256.594V71.6998C256.594 74.109 256.08 76.3311 255.05 78.3661C254.045 80.4011 252.676 82.1554 250.945 83.629C249.214 85.126 247.226 86.2838 244.981 87.1025C242.759 87.9211 240.431 88.3305 237.999 88.3305C235.543 88.3305 233.18 87.8042 230.911 86.7516C228.642 85.7224 226.643 84.319 224.912 82.5413C223.204 80.7636 221.929 78.7521 221.087 76.5066L227.789 73.4892C228.257 74.9394 229.005 76.2259 230.034 77.3486C231.087 78.4714 232.303 79.3602 233.683 80.0151C235.087 80.6701 236.525 80.9975 237.999 80.9975C239.449 80.9975 240.841 80.7636 242.174 80.2958C243.531 79.8514 244.735 79.2199 245.788 78.4012C246.864 77.5825 247.717 76.6001 248.349 75.454C248.981 74.3079 249.296 73.0565 249.296 71.6998V65.7703C248.15 67.548 246.677 68.9865 244.875 70.0859C243.074 71.1618 240.981 71.6998 238.595 71.6998C236.116 71.6998 233.777 71.2203 231.578 70.2613C229.379 69.3023 227.45 67.9807 225.789 66.2966C224.128 64.5891 222.83 62.6243 221.894 60.4022C220.959 58.1801 220.491 55.7943 220.491 53.2447C220.491 50.6952 220.959 48.3094 221.894 46.0873C222.83 43.8418 224.128 41.877 225.789 40.1929C227.45 38.4854 229.379 37.1521 231.578 36.1931C233.777 35.2341 236.116 34.7546 238.595 34.7546C240.981 34.7546 243.074 35.3043 244.875 36.4036C246.677 37.4796 248.15 38.9181 249.296 40.7191V35.7019ZM238.665 64.6476C240.7 64.6476 242.478 64.133 243.998 63.1038C245.519 62.0513 246.7 60.6595 247.542 58.9286C248.384 57.1977 248.805 55.3031 248.805 53.2447C248.805 51.1396 248.372 49.2333 247.507 47.5258C246.665 45.7949 245.484 44.4148 243.963 43.3857C242.443 42.3331 240.677 41.8068 238.665 41.8068C236.701 41.8068 234.899 42.3214 233.262 43.3506C231.648 44.3798 230.362 45.7598 229.403 47.4907C228.444 49.2216 227.964 51.1396 227.964 53.2447C227.964 55.3499 228.444 57.2679 229.403 58.9988C230.385 60.7297 231.683 62.1097 233.297 63.1389C234.935 64.1447 236.724 64.6476 238.665 64.6476ZM262.72 57.6305V35.7019H270.018V55.8411C270.018 57.4082 270.404 58.8351 271.176 60.1215C271.947 61.408 272.977 62.4372 274.263 63.2091C275.55 63.9576 276.965 64.3318 278.508 64.3318C280.076 64.3318 281.491 63.9576 282.754 63.2091C284.04 62.4372 285.058 61.408 285.806 60.1215C286.578 58.8351 286.964 57.4082 286.964 55.8411V35.7019H294.262L294.297 70.7876H286.999L286.964 66.9983C285.771 68.4486 284.286 69.5947 282.508 70.4367C280.731 71.2788 278.824 71.6998 276.789 71.6998C274.193 71.6998 271.83 71.0683 269.702 69.8052C267.573 68.5421 265.878 66.8463 264.614 64.7178C263.351 62.5892 262.72 60.2268 262.72 57.6305ZM332.91 48.7889V70.7876H325.613V50.5782C325.613 49.0111 325.227 47.5843 324.455 46.2978C323.706 45.0113 322.689 43.9938 321.402 43.2453C320.139 42.4734 318.712 42.0875 317.122 42.0875C315.578 42.0875 314.163 42.4734 312.876 43.2453C311.59 43.9938 310.561 45.0113 309.789 46.2978C309.017 47.5843 308.631 49.0111 308.631 50.5782V70.7876H301.333V35.7019H308.631V39.421C309.847 37.9708 311.344 36.8246 313.122 35.9826C314.9 35.1405 316.818 34.7195 318.876 34.7195C321.472 34.7195 323.835 35.351 325.963 36.6141C328.092 37.8772 329.776 39.573 331.016 41.7015C332.279 43.8301 332.91 46.1925 332.91 48.7889ZM356.771 70.7876V21.6676H373.683C376.326 21.6676 378.712 22.3225 380.84 23.6324C382.992 24.9423 384.7 26.7083 385.963 28.9303C387.249 31.1524 387.892 33.6084 387.892 36.2983C387.892 39.035 387.238 41.5144 385.928 43.7365C384.641 45.9352 382.922 47.6895 380.77 48.9994C378.618 50.3092 376.256 50.9642 373.683 50.9642H364.069V70.7876H356.771ZM364.069 43.6663H372.946C374.349 43.6663 375.624 43.3155 376.77 42.6138C377.94 41.9121 378.864 40.9764 379.542 39.8069C380.244 38.6374 380.595 37.3158 380.595 35.8422C380.595 34.3686 380.244 33.0471 379.542 31.8775C378.864 30.6846 377.94 29.749 376.77 29.0707C375.624 28.369 374.349 28.0181 372.946 28.0181H364.069V43.6663ZM417.676 71.6998C414.355 71.6998 411.232 71.0449 408.309 69.735C405.385 68.4018 402.812 66.5773 400.59 64.2617C398.391 61.9226 396.66 59.2093 395.397 56.1218C394.157 53.0342 393.537 49.7362 393.537 46.2276C393.537 42.719 394.157 39.421 395.397 36.3334C396.66 33.2459 398.391 30.5443 400.59 28.2286C402.812 25.8896 405.385 24.0651 408.309 22.7553C411.232 21.422 414.355 20.7554 417.676 20.7554C421.653 20.7554 425.313 21.6793 428.658 23.5271C432.003 25.375 434.775 27.831 436.974 30.8951L430.483 34.3686C428.962 32.4506 427.079 30.9185 424.834 29.7724C422.588 28.6263 420.203 28.0532 417.676 28.0532C415.337 28.0532 413.15 28.5327 411.115 29.4917C409.08 30.4507 407.291 31.7606 405.747 33.4213C404.204 35.082 402.999 37.0118 402.133 39.2105C401.268 41.4092 400.835 43.7482 400.835 46.2276C400.835 48.7304 401.268 51.0811 402.133 53.2798C402.999 55.4551 404.204 57.3849 405.747 59.069C407.314 60.7297 409.116 62.0396 411.15 62.9986C413.185 63.9342 415.361 64.402 417.676 64.402C420.249 64.402 422.647 63.8289 424.869 62.6828C427.114 61.5133 428.986 59.9695 430.483 58.0515L436.974 61.5951C434.775 64.6593 432.003 67.1153 428.658 68.9631C425.313 70.7876 421.653 71.6998 417.676 71.6998Z" fill="#000209"/>
</svg>
