<svg width="227" height="145" viewBox="0 0 227 145" fill="none" xmlns="http://www.w3.org/2000/svg">
<path fill-rule="evenodd" clip-rule="evenodd" d="M94.1186 15.1214C92.767 11.8523 89.9207 8.27056 87.165 6.04567C84.2722 3.71209 81.3045 2.00593 77.677 0.919722C73.1853 -0.426604 67.7955 -0.308899 63.4199 1.36576C59.8494 2.73233 56.5076 5.13488 54.177 8.14987L48.3022 15.5922C44.4986 20.7758 40.8419 26.0614 37.5346 31.5772C37.183 32.1619 36.9484 32.6229 36.5661 33.2023C35.4724 34.8658 34.5391 36.6139 33.5541 38.3215C31.749 41.455 29.4559 45.5254 27.8914 48.6866C27.5916 49.2953 27.303 49.7398 26.9889 50.3755C26.6703 51.0164 26.4229 51.5569 26.0856 52.1828L22.4716 59.293C22.1725 59.9017 21.8892 60.3815 21.5653 60.9805L18.8944 66.4407C18.5811 67.0621 18.3832 67.5869 18.0698 68.2083L11.9814 80.859C11.1208 82.6019 8.26474 88.1941 7.80447 89.9984C6.737 94.1784 9.36743 98.6768 13.5323 99.808C14.0878 99.958 15.2377 100.182 15.8682 100.182C17.201 100.182 18.3075 99.8808 19.291 99.3718C20.318 98.8395 21.2108 98.0831 22.0863 97.2068L29.1006 90.3125C29.9087 89.5044 30.6538 88.8785 31.4574 88.0741L36.174 83.4797C37.7422 81.9055 39.695 79.7668 41.3007 78.3537C41.5706 78.1154 41.6748 78.0899 41.9506 77.8245C42.3772 77.4145 42.7078 77.0629 43.1268 76.6431L61.2775 58.8485C61.5473 58.5989 61.6568 58.5727 61.9274 58.3193C65.9709 54.5494 73.6613 52.476 79.734 53.8942C84.4259 54.9894 86.7048 56.7128 90.5766 59.1971C92.6905 60.5517 98.8592 64.6941 100.498 65.5412C103.363 67.0202 107.442 66.6551 109.897 64.5606C113.864 61.1791 114.223 57.1049 111.935 52.5749L110.953 50.4932C110.763 50.1109 110.631 49.8545 110.439 49.4737L108.465 45.32C107.727 43.5464 106.84 41.8583 106 40.1259L103.055 33.8793C102.696 33.1589 102.334 32.5232 102.05 31.8185C101.255 29.8583 100.236 28.0442 99.3727 26.1296C98.8172 24.8995 98.0811 23.4062 97.3322 21.8868L96.9701 21.1506C96.0728 19.3268 95.1935 17.5209 94.6261 16.1454C94.4267 15.6611 94.3172 15.6049 94.1186 15.1214Z" fill="url(#paint0_linear_134_282)"/>
<path fill-rule="evenodd" clip-rule="evenodd" d="M30.6533 43.4647C49.4239 40.4827 67.6781 44.6604 85.4179 55.9984C87.0761 56.8822 88.6256 57.943 90.5806 59.1971C92.6946 60.5517 98.8632 64.6941 100.502 65.5412C103.367 67.0202 107.446 66.6551 109.901 64.5607C113.868 61.1791 114.228 57.1049 111.939 52.5749L110.957 50.4932C110.767 50.1109 110.635 49.8545 110.443 49.4737L108.469 45.32C107.731 43.5464 106.844 41.8583 106.004 40.1259L103.059 33.8793C102.7 33.1589 102.338 32.5232 102.054 31.8185C101.259 29.8583 100.24 28.0442 99.3767 26.1296C98.8212 24.8995 98.0851 23.4062 97.3362 21.8868L96.9742 21.1506C96.0769 19.3268 95.1976 17.5209 94.6301 16.1454C94.4307 15.6611 94.3212 15.6049 94.1226 15.1214C92.771 11.8523 89.9247 8.27056 87.1691 6.04567C84.2763 3.71209 81.3085 2.00593 77.6811 0.919722C73.1893 -0.426604 67.7995 -0.308899 63.4239 1.36576C59.8535 2.73233 56.5116 5.13488 54.1811 8.14987L48.3062 15.5922C44.5026 20.7758 40.846 26.0614 37.5386 31.5772C37.1871 32.1619 36.9524 32.6229 36.5701 33.2023C35.4764 34.8658 34.5431 36.6139 33.5581 38.3215C32.6608 39.8793 31.6428 41.6694 30.6533 43.4647Z" fill="url(#paint1_linear_134_282)"/>
<path fill-rule="evenodd" clip-rule="evenodd" d="M198.987 15.1214C197.635 11.8523 194.789 8.27056 192.033 6.04567C189.14 3.71209 186.173 2.00593 182.545 0.919722C178.053 -0.426604 172.664 -0.308899 168.288 1.36576C164.718 2.73233 161.376 5.13488 159.045 8.14987L153.17 15.5922C149.367 20.7758 145.71 26.0614 142.403 31.5772C142.051 32.1619 141.817 32.6229 141.434 33.2023C140.341 34.8658 139.407 36.6139 138.422 38.3215C136.617 41.455 134.324 45.5254 132.76 48.6866C132.46 49.2953 132.171 49.7398 131.857 50.3755C131.538 51.0164 131.291 51.5569 130.954 52.1828L127.34 59.293C127.041 59.9017 126.757 60.3815 126.433 60.9805L123.763 66.4407C123.449 67.0621 123.251 67.5869 122.938 68.2083L116.85 80.859C115.989 82.6019 113.133 88.1941 112.673 89.9984C111.605 94.1784 114.236 98.6768 118.401 99.808C118.956 99.958 120.106 100.182 120.736 100.182C122.069 100.182 123.176 99.8808 124.159 99.3718C125.186 98.8395 126.079 98.0831 126.954 97.2068L133.969 90.3125C134.777 89.5044 135.522 88.8785 136.326 88.0741L141.042 83.4797C142.61 81.9055 144.563 79.7668 146.169 78.3537C146.439 78.1154 146.543 78.0899 146.819 77.8245C147.245 77.4145 147.576 77.0629 147.995 76.6431L166.146 58.8485C166.416 58.5989 166.525 58.5727 166.796 58.3193C170.839 54.5494 178.529 52.476 184.602 53.8942C189.294 54.9894 191.573 56.7128 195.445 59.1971C197.559 60.5517 203.727 64.6941 205.366 65.5412C208.231 67.0202 212.311 66.6551 214.766 64.5606C218.733 61.1791 219.092 57.1049 216.803 52.5749L215.821 50.4932C215.631 50.1109 215.499 49.8545 215.308 49.4737L213.333 45.32C212.595 43.5464 211.708 41.8583 210.868 40.1259L207.923 33.8793C207.564 33.1589 207.203 32.5232 206.918 31.8185C206.123 29.8583 205.104 28.0442 204.241 26.1296C203.685 24.8995 202.949 23.4062 202.2 21.8868L201.838 21.1506C200.941 19.3268 200.062 17.5209 199.494 16.1454C199.295 15.6611 199.185 15.6049 198.987 15.1214Z" fill="url(#paint2_linear_134_282)"/>
<path fill-rule="evenodd" clip-rule="evenodd" d="M135.522 43.4647C154.293 40.4827 172.547 44.6604 190.287 55.9984C191.945 56.8822 193.495 57.943 195.45 59.1971C197.564 60.5517 203.732 64.6941 205.371 65.5412C208.236 67.0202 212.316 66.6551 214.771 64.5607C218.738 61.1791 219.097 57.1049 216.808 52.5749L215.826 50.4932C215.636 50.1109 215.504 49.8545 215.313 49.4737L213.338 45.32C212.6 43.5464 211.713 41.8583 210.873 40.1259L207.928 33.8793C207.569 33.1589 207.208 32.5232 206.923 31.8185C206.128 29.8583 205.109 28.0442 204.246 26.1296C203.69 24.8995 202.954 23.4062 202.205 21.8868L201.843 21.1506C200.946 19.3268 200.067 17.5209 199.499 16.1454C199.3 15.6611 199.19 15.6049 198.992 15.1214C197.64 11.8523 194.794 8.27056 192.038 6.04567C189.145 3.71209 186.178 2.00593 182.55 0.919722C178.058 -0.426604 172.669 -0.308899 168.293 1.36576C164.723 2.73233 161.381 5.13488 159.05 8.14987L153.175 15.5922C149.372 20.7758 145.715 26.0614 142.408 31.5772C142.056 32.1619 141.822 32.6229 141.439 33.2023C140.346 34.8658 139.412 36.6139 138.427 38.3215C137.53 39.8793 136.512 41.6694 135.522 43.4647Z" fill="url(#paint3_linear_134_282)"/>
<path fill-rule="evenodd" clip-rule="evenodd" d="M53.2375 126.942C53.226 128.962 51.8236 129.544 50.5819 129.544H39.1273C39.7351 131.874 41.5892 133.349 43.9966 133.349C45.3552 133.349 46.5224 133.117 47.6128 132.494C48.3535 132.107 48.9759 131.912 49.5968 131.912C50.9937 131.912 51.9581 132.961 51.9512 134.203C51.9312 137.426 46.298 138.124 44.0074 138.124C37.8333 138.124 33.511 133.854 33.5471 127.758C33.5832 121.7 37.7265 117.391 43.6286 117.391C49.3355 117.391 53.2721 121.468 53.2375 126.942ZM47.8863 125.894C47.5106 123.681 45.8508 122.206 43.6378 122.206C41.464 122.206 39.7858 123.604 39.1495 125.894H47.8863ZM60.5012 127.758C60.482 130.98 62.526 133.155 65.4382 133.155C68.2729 133.155 70.3452 130.98 70.3637 127.758C70.3829 124.613 68.3389 122.439 65.5043 122.439C62.592 122.439 60.5197 124.613 60.5012 127.758ZM73.1515 109.665C74.7444 109.665 76.0184 110.946 76.0092 112.499L75.9162 127.758C75.8793 133.893 71.5424 138.203 65.4075 138.203C59.2341 138.203 54.9126 133.893 54.9487 127.758C54.9856 121.7 58.8952 117.391 64.3701 117.391C66.7384 117.391 68.7523 118.168 70.2968 119.604L70.3406 112.499C70.3499 110.946 71.6377 109.665 73.1515 109.665ZM104.958 117.43C106.551 117.43 107.786 118.71 107.777 120.226L107.677 136.804C107.674 137.232 107.282 137.659 106.855 137.659H102.856C102.39 137.659 102.004 137.232 102.007 136.804L102.014 135.639C100.451 137.232 98.3106 138.124 95.8655 138.124C90.5074 138.124 86.7277 133.814 86.7638 127.758C86.7999 121.7 90.6327 117.391 95.9908 117.391C98.4758 117.391 100.683 118.323 102.188 119.915C102.274 118.478 103.483 117.43 104.958 117.43ZM97.254 133.077C100.128 133.077 102.16 130.903 102.179 127.758C102.198 124.613 100.192 122.439 97.3193 122.439C94.4063 122.439 92.3347 124.613 92.3155 127.758C92.297 130.903 94.3418 133.077 97.254 133.077Z" fill="#233982"/>
<path fill-rule="evenodd" clip-rule="evenodd" d="M116.411 137.486C115.951 137.486 115.564 137.095 115.566 136.634L115.695 115.455C115.704 113.929 116.951 112.653 118.545 112.653H126.374C132.36 112.653 135.31 117.015 135.284 121.309C135.257 125.672 132.255 130.035 126.268 130.035H121.274L121.234 136.634C121.232 137.095 120.839 137.486 120.379 137.486H116.411ZM125.847 117.69H121.349L121.305 124.998H125.803C128.425 124.998 129.71 123.152 129.722 121.309C129.733 119.535 128.469 117.69 125.847 117.69ZM154.557 127.729C154.547 129.574 153.267 130.107 152.134 130.107H141.684C142.239 132.235 143.93 133.583 146.127 133.583C147.366 133.583 148.43 133.371 149.426 132.802C150.101 132.448 150.669 132.271 151.236 132.271C152.51 132.271 153.389 133.229 153.383 134.364C153.365 137.308 148.225 137.946 146.136 137.946C140.504 137.946 136.56 134.045 136.593 128.475C136.626 122.94 140.406 119.002 145.791 119.002C150.997 119.002 154.588 122.728 154.557 127.729ZM149.675 126.772C149.332 124.75 147.818 123.402 145.799 123.402C143.815 123.402 142.284 124.679 141.704 126.772H149.675ZM179.951 119.037C181.404 119.037 182.531 120.208 182.522 121.592L182.431 136.74C182.428 137.131 182.071 137.521 181.682 137.521H178.033C177.608 137.521 177.255 137.131 177.259 136.74L177.265 135.676C175.839 137.131 173.887 137.946 171.655 137.946C166.767 137.946 163.319 134.008 163.352 128.475C163.385 122.94 166.881 119.002 171.77 119.002C174.037 119.002 176.05 119.854 177.424 121.309C177.502 119.996 178.605 119.037 179.951 119.037ZM172.922 133.335C175.544 133.335 177.398 131.348 177.415 128.475C177.433 125.601 175.603 123.614 172.982 123.614C170.324 123.614 168.434 125.601 168.417 128.475C168.4 131.348 170.265 133.335 172.922 133.335ZM183.231 140.218C184.613 140.218 185.292 139.153 185.302 137.628L185.398 121.627C185.407 120.208 186.546 119.037 187.999 119.037C189.415 119.037 190.579 120.208 190.571 121.627L190.473 137.734C190.447 141.92 187.809 144.722 183.346 144.722H182.815C181.54 144.722 180.517 143.729 180.525 142.487C180.532 141.246 181.567 140.218 182.842 140.218H183.231ZM209.401 119.037C210.854 119.037 211.981 120.208 211.973 121.592L211.881 136.74C211.878 137.131 211.521 137.521 211.131 137.521H207.483C207.058 137.521 206.706 137.131 206.709 136.74L206.715 135.676C205.289 137.131 203.337 137.946 201.105 137.946C196.217 137.946 192.768 134.008 192.802 128.475C192.835 122.94 196.332 119.002 201.22 119.002C203.487 119.002 205.501 119.854 206.874 121.309C206.952 119.996 208.055 119.037 209.401 119.037ZM202.373 133.335C204.994 133.335 206.848 131.348 206.866 128.475C206.882 125.601 205.053 123.614 202.432 123.614C199.775 123.614 197.884 125.601 197.867 128.475C197.85 131.348 199.716 133.335 202.373 133.335ZM214.035 127.304C214.064 122.408 217.237 119.037 222.727 119.037H223.754C225.03 119.037 226.052 120.066 226.043 121.345C226.036 122.621 225.002 123.65 223.726 123.65H222.841C220.432 123.65 219.218 125.247 219.204 127.552L219.15 136.705C219.147 137.131 218.789 137.486 218.4 137.486L214.716 137.486C214.327 137.486 213.975 137.131 213.978 136.705L214.035 127.304Z" fill="#233982"/>
<path fill-rule="evenodd" clip-rule="evenodd" d="M51.572 120.954C53.388 123.557 52.2213 125.166 48.0703 125.783H38.9219C38.4407 127.05 38.4319 128.213 38.8986 129.269H50.8929C52.1931 129.269 53.6615 128.713 53.6736 126.784C53.6897 124.522 52.9269 122.509 51.572 120.954Z" fill="url(#paint4_linear_134_282)"/>
<path fill-rule="evenodd" clip-rule="evenodd" d="M55.1914 125.549H60.9676C61.7296 123.635 63.401 122.437 65.5159 122.437C68.0545 122.437 69.9584 124.26 70.3106 127.002L70.3021 119.481C68.7597 117.984 66.7483 117.174 64.3832 117.174C59.6484 117.174 56.0847 120.544 55.1914 125.549Z" fill="url(#paint5_linear_134_282)"/>
<path fill-rule="evenodd" clip-rule="evenodd" d="M108.101 124.734C107.626 128.079 105.612 131.694 102.061 135.578L102.054 136.736C102.05 137.161 102.457 137.585 102.947 137.585H107.159C107.609 137.585 108.021 137.161 108.025 136.736L108.101 124.734Z" fill="url(#paint6_linear_134_282)"/>
<path fill-rule="evenodd" clip-rule="evenodd" d="M152.435 122.465C153.978 124.831 152.987 126.294 149.458 126.855H141.682C141.273 128.007 141.266 129.064 141.662 130.024H151.858C152.963 130.024 154.211 129.518 154.221 127.765C154.235 125.708 153.587 123.879 152.435 122.465Z" fill="url(#paint7_linear_134_282)"/>
<path fill-rule="evenodd" clip-rule="evenodd" d="M134.565 123.988L128.601 123.977C127.988 124.578 127.115 124.969 125.974 124.969H121.714V130.025H126.415C130.894 130.025 133.61 127.294 134.565 123.988Z" fill="url(#paint8_linear_134_282)"/>
<path fill-rule="evenodd" clip-rule="evenodd" d="M182.189 125.49C181.873 129.193 180.11 132.405 176.904 135.123L176.897 136.107C176.894 136.469 177.25 136.829 177.679 136.829H181.363C181.756 136.829 182.117 136.469 182.12 136.107L182.189 125.49Z" fill="url(#paint9_linear_134_282)"/>
<path fill-rule="evenodd" clip-rule="evenodd" d="M211.674 125.49C211.191 129.549 209.429 132.751 206.388 135.09L206.382 136.093C206.379 136.462 206.735 136.829 207.164 136.829H210.848C211.242 136.829 211.602 136.462 211.606 136.093L211.674 125.49Z" fill="url(#paint10_linear_134_282)"/>
<path d="M30.8509 111.195C30.7453 110.725 30.4957 110.344 30.083 110.054C29.6703 109.763 29.008 109.613 28.0865 109.613C27.501 109.613 27.0403 109.643 26.7235 109.713C26.4068 109.783 26.138 109.883 25.9364 110.014C25.7349 110.144 25.5237 110.334 25.3221 110.574L18.4688 120.359C18.0273 120.99 18.0369 121.851 18.488 122.472L19.803 124.274C20.5037 125.236 21.9051 125.196 22.5482 124.194L25.1206 120.228L25.1206 134.499C25.1206 135.01 25.1686 135.501 25.2741 135.981C25.3797 136.462 25.6293 136.852 26.042 137.143C26.4548 137.433 27.1171 137.584 28.0385 137.584C28.96 137.584 29.6607 137.433 30.0734 137.143C30.4861 136.852 30.7357 136.472 30.8413 136.021C30.9469 135.571 30.9949 135.09 30.9949 134.579L30.9949 112.698C30.9949 112.167 30.9469 111.666 30.8413 111.195H30.8509Z" fill="#233982"/>
<path d="M83.057 109.624H83.3962C84.1037 109.624 84.6658 110.266 84.6658 111.05V114.708C84.6658 115.655 83.9777 116.417 83.1442 116.417H79.8878C79.1803 116.417 78.6182 115.774 78.6182 114.991V114.61C78.6182 111.856 80.6147 109.613 83.0667 109.613L83.057 109.624Z" fill="#F1B52B"/>
<path d="M189.654 108.113H189.993C190.7 108.113 191.263 108.755 191.263 109.539V113.197C191.263 114.144 190.574 114.906 189.741 114.906H186.484C185.777 114.906 185.215 114.264 185.215 113.48V113.099C185.215 110.345 187.211 108.102 189.663 108.102L189.654 108.113Z" fill="#F1B52B"/>
<path d="M5.35726 110.135C5.19734 109.985 4.94747 109.875 4.59765 109.795C4.24783 109.716 3.74808 109.676 3.07842 109.676C2.06894 109.676 1.34931 109.825 0.91953 110.115C0.489749 110.405 0.229882 110.785 0.139928 111.235C0.0499744 111.685 0 112.164 0 112.674L0 134.523C0 135.053 0.0499744 135.552 0.139928 136.022C0.229882 136.492 0.489749 136.872 0.91953 137.161C1.34931 137.451 2.03896 137.601 2.99847 137.601C3.95797 137.601 4.6876 137.451 5.09739 137.161C5.50718 136.872 5.76705 136.492 5.87699 136.042C5.98694 135.592 6.03691 135.113 6.03691 134.603L6.03691 120.28L11.1643 127.097C12.7035 129.146 15.672 129.455 17.601 127.766C18.0408 127.386 18.1107 126.727 17.7509 126.257L5.87699 110.635C5.68709 110.445 5.51718 110.285 5.35726 110.135Z" fill="#233982"/>
<mask id="mask0_134_282" style="mask-type:alpha" maskUnits="userSpaceOnUse" x="17" y="109" width="15" height="29">
<path d="M31.0836 111.255C30.9737 110.785 30.7138 110.405 30.284 110.116C29.8543 109.826 29.1646 109.676 28.2051 109.676C27.5954 109.676 27.1157 109.706 26.7858 109.776C26.456 109.846 26.1761 109.946 25.9663 110.076C25.7564 110.206 25.5365 110.395 25.3266 110.635L18.1902 120.4C17.7305 121.03 17.7405 121.89 18.2102 122.509L19.5795 124.308C20.3091 125.268 21.7684 125.228 22.4381 124.228L25.1167 120.27L25.1167 134.513C25.1167 135.023 25.1667 135.513 25.2766 135.992C25.3865 136.472 25.6464 136.862 26.0762 137.152C26.506 137.442 27.1956 137.591 28.1551 137.591C29.1146 137.591 29.8443 137.442 30.274 137.152C30.7038 136.862 30.9637 136.482 31.0736 136.032C31.1836 135.583 31.2336 135.103 31.2336 134.593L31.2336 112.754C31.2336 112.224 31.1836 111.725 31.0736 111.255H31.0836Z" fill="#233982"/>
</mask>
<g mask="url(#mask0_134_282)">
<path d="M21.2983 126.36L16.5312 120.402L21.8942 111.463L29.6407 113.251L21.2983 126.36Z" fill="#233982"/>
</g>
<rect x="78.6182" y="117.929" width="6.04767" height="19.6549" rx="3.02384" fill="#223982"/>
<rect x="155.729" y="108.102" width="6.04767" height="30.2384" rx="3.02384" fill="#223982"/>
<defs>
<linearGradient id="paint0_linear_134_282" x1="55.1043" y1="43.6828" x2="28.4582" y2="69.9969" gradientUnits="userSpaceOnUse">
<stop stop-color="#D86929"/>
<stop offset="1" stop-color="#ED8C29"/>
</linearGradient>
<linearGradient id="paint1_linear_134_282" x1="105.386" y1="51.4963" x2="45.0837" y2="20.0681" gradientUnits="userSpaceOnUse">
<stop stop-color="#F1B52B"/>
<stop offset="0.439216" stop-color="#F2C23F"/>
<stop offset="0.741176" stop-color="#FCE59A"/>
<stop offset="0.929412" stop-color="#F1B52B"/>
<stop offset="1" stop-color="#F1B52B"/>
</linearGradient>
<linearGradient id="paint2_linear_134_282" x1="159.972" y1="43.6828" x2="133.326" y2="69.9969" gradientUnits="userSpaceOnUse">
<stop stop-color="#D86929"/>
<stop offset="1" stop-color="#ED8C29"/>
</linearGradient>
<linearGradient id="paint3_linear_134_282" x1="210.255" y1="51.4963" x2="149.953" y2="20.0681" gradientUnits="userSpaceOnUse">
<stop stop-color="#F1B52B"/>
<stop offset="0.439216" stop-color="#F2C23F"/>
<stop offset="0.741176" stop-color="#FCE59A"/>
<stop offset="0.929412" stop-color="#F1B52B"/>
<stop offset="1" stop-color="#F1B52B"/>
</linearGradient>
<linearGradient id="paint4_linear_134_282" x1="50.0223" y1="127.967" x2="41.5068" y2="127.967" gradientUnits="userSpaceOnUse">
<stop offset="0.202487" stop-color="#223982"/>
<stop offset="1" stop-color="#22252E"/>
</linearGradient>
<linearGradient id="paint5_linear_134_282" x1="58.9191" y1="123.124" x2="70.0862" y2="123.124" gradientUnits="userSpaceOnUse">
<stop offset="0.202487" stop-color="#223982"/>
<stop offset="1" stop-color="#22252E"/>
</linearGradient>
<linearGradient id="paint6_linear_134_282" x1="105.9" y1="137.258" x2="103.983" y2="128.118" gradientUnits="userSpaceOnUse">
<stop offset="0.202487" stop-color="#223982"/>
<stop offset="1" stop-color="#22252E"/>
</linearGradient>
<linearGradient id="paint7_linear_134_282" x1="151.118" y1="128.841" x2="143.879" y2="128.841" gradientUnits="userSpaceOnUse">
<stop offset="0.202487" stop-color="#223982"/>
<stop offset="1" stop-color="#22252E"/>
</linearGradient>
<linearGradient id="paint8_linear_134_282" x1="121.812" y1="128.269" x2="140.268" y2="127.225" gradientUnits="userSpaceOnUse">
<stop stop-color="#14214B"/>
<stop offset="1" stop-color="#2F4EB1"/>
</linearGradient>
<linearGradient id="paint9_linear_134_282" x1="179.504" y1="124.505" x2="179.504" y2="142.538" gradientUnits="userSpaceOnUse">
<stop stop-color="#233982"/>
<stop offset="1" stop-color="#070C1C"/>
</linearGradient>
<linearGradient id="paint10_linear_134_282" x1="209.146" y1="128.491" x2="209.043" y2="136.829" gradientUnits="userSpaceOnUse">
<stop stop-color="#233982"/>
<stop offset="1" stop-color="#070C1C"/>
</linearGradient>
</defs>
</svg>
