<svg width="512" height="192" viewBox="0 0 512 192" fill="none" xmlns="http://www.w3.org/2000/svg">
<path d="M118.428 120.862C121.899 120.482 125.083 122.949 125.109 126.441C125.153 132.24 124.202 138.022 122.277 143.577C119.658 151.133 115.298 158.092 109.488 163.99C103.678 169.888 96.552 174.589 88.5865 177.778C80.621 180.967 71.9996 182.571 63.2986 182.482C54.5976 182.394 46.0177 180.615 38.1324 177.265C30.2471 173.915 23.2382 169.07 17.5743 163.055C11.9104 157.041 7.72206 149.994 5.28929 142.388C3.49758 136.785 2.68852 130.974 2.87872 125.167C2.99264 121.689 6.2175 119.304 9.66817 119.753V119.753C13.2497 120.22 15.6882 123.558 15.7193 127.17C15.7539 131.202 16.398 135.221 17.6424 139.112C19.5632 145.118 22.87 150.681 27.3418 155.43C31.8136 160.179 37.3473 164.004 43.5729 166.649C49.7985 169.294 56.5726 170.698 63.4423 170.768C70.3119 170.838 77.1187 169.572 83.4077 167.054C89.6966 164.536 95.3228 160.825 99.9099 156.168C104.497 151.511 107.939 146.017 110.007 140.051C111.349 136.18 112.092 132.168 112.223 128.13C112.341 124.528 114.846 121.254 118.428 120.862V120.862Z" fill="#539064"/>
<path d="M70.388 113.182C70.9106 117.138 68.0729 120.788 64.0832 120.79V120.79C60.0942 120.793 57.2519 117.147 57.7684 113.192L58.4075 108.298C58.769 105.529 61.2796 103.588 64.0716 103.586V103.586C66.8631 103.584 69.3758 105.522 69.7414 108.289L70.388 113.182Z" fill="#F7C04A"/>
<path d="M42.978 110.437C41.421 113.785 37.4834 115.378 34.1941 113.701V113.701C30.5207 111.829 29.8589 107.07 32.4646 103.875L36.0146 99.5213C37.6359 97.5331 40.4754 97.1275 42.7401 98.3329V98.3329C45.2724 99.6806 46.5541 102.749 45.3443 105.35L42.978 110.437Z" fill="#F7C04A"/>
<path d="M20.2333 94.8966C17.3017 96.8871 13.2722 96.3073 11.3514 93.3296V93.3296C9.20308 89.9991 10.9578 85.7394 14.6529 84.3063L21.1763 81.7764C23.445 80.8965 25.9721 81.9233 27.2509 83.9935V83.9935C28.6795 86.3061 28.2654 89.4431 26.0165 90.97L20.2333 94.8966Z" fill="#F7C04A"/>
<path d="M9.93076 70.8129C6.26548 71.1964 2.91703 68.5734 2.93624 64.8882V64.8882C2.95542 61.2074 6.32347 58.619 9.98093 59.033L17.6012 59.8955C20.0981 60.1782 21.8438 62.4647 21.8312 64.9776V64.9776C21.8187 67.4875 20.0544 69.7539 17.5581 70.015L9.93076 70.8129Z" fill="#F7C04A"/>
<path d="M14.9994 45.3319C11.3178 43.844 9.62393 39.5495 11.8291 36.2472V36.2472C13.7969 33.3003 17.8345 32.7807 20.7367 34.814L26.4325 38.8043C28.6638 40.3675 29.0315 43.5181 27.5637 45.8133V45.8133C26.2523 47.8641 23.7101 48.8524 21.4533 47.9402L14.9994 45.3319Z" fill="#F7C04A"/>
<path d="M57.9389 17.0905C57.4367 13.1349 60.2896 9.50084 64.2769 9.51482V9.51482C68.2682 9.52881 71.0953 13.1896 70.5584 17.1447L69.8945 22.0356C69.5192 24.8005 67.0016 26.7293 64.2114 26.7191V26.7191C61.4182 26.7088 58.9125 24.7578 58.5606 21.9868L57.9389 17.0905Z" fill="#F7C04A"/>
<path d="M86.602 20.4167C88.2576 17.1339 92.2237 15.6662 95.4512 17.4272V17.4272C99.0691 19.4012 99.5882 24.1766 96.8874 27.2898L93.1594 31.5872C91.4862 33.5159 88.6509 33.8356 86.4324 32.5716V32.5716C83.9427 31.1531 82.753 28.049 84.0433 25.4904L86.602 20.4167Z" fill="#F7C04A"/>
<path d="M32.571 26.3601C29.9733 23.1582 30.6469 18.4006 34.3247 16.5369V16.5369C37.619 14.8674 41.5541 16.4706 43.1028 19.8233L45.4533 24.9116C46.6563 27.516 45.3671 30.5813 42.8313 31.9232V31.9232C40.5629 33.1236 37.7231 32.7109 36.1062 30.7178L32.571 26.3601Z" fill="#F7C04A"/>
<path d="M118.134 59.3143C121.796 58.919 125.152 61.5286 125.148 65.2122V65.2122C125.143 68.8947 121.783 71.4965 118.122 71.0943L110.499 70.2567C108.002 69.9824 106.25 67.7036 106.252 65.1919V65.1919C106.255 62.6808 108.012 60.4066 110.509 60.1372L118.134 59.3143Z" fill="#F7C04A"/>
<path d="M109.118 36.9968C112.124 35.1191 116.13 35.8561 117.925 38.9124V38.9124C119.922 42.3123 118.012 46.4762 114.285 47.7657L107.588 50.0833C105.29 50.8786 102.804 49.7517 101.611 47.632V47.632C100.287 45.277 100.821 42.1795 103.112 40.7481L109.118 36.9968Z" fill="#F7C04A"/>
<path d="M195.584 145.282C189.259 145.282 183.703 144.342 178.917 142.462C174.131 140.581 169.516 137.59 165.071 133.487C164.473 132.889 163.96 132.248 163.533 131.564C163.191 130.795 163.02 129.983 163.02 129.129C163.02 127.761 163.49 126.564 164.43 125.539C165.456 124.428 166.695 123.872 168.148 123.872C169.345 123.872 170.413 124.342 171.353 125.282C174.687 128.53 178.276 131.009 182.122 132.718C186.054 134.428 190.455 135.282 195.327 135.282C199.088 135.282 202.464 134.684 205.455 133.487C208.532 132.291 210.968 130.624 212.763 128.488C214.557 126.351 215.455 123.872 215.455 121.052C215.369 117.633 214.344 114.813 212.378 112.59C210.498 110.368 207.848 108.531 204.429 107.078C201.096 105.539 197.207 104.257 192.763 103.232C188.832 102.291 185.199 101.138 181.866 99.7702C178.618 98.4027 175.798 96.7361 173.405 94.7703C171.011 92.719 169.131 90.2832 167.764 87.4627C166.482 84.5568 165.841 81.1808 165.841 77.3348C165.841 72.4631 167.123 68.1897 169.687 64.5145C172.251 60.8394 175.798 58.0189 180.327 56.0532C184.857 54.0019 190.071 52.9763 195.968 52.9763C201.182 52.9763 206.096 53.831 210.711 55.5404C215.412 57.2497 219.173 59.6001 221.993 62.5915C223.703 64.2154 224.557 65.7965 224.557 67.335C224.557 68.617 224.002 69.8136 222.891 70.9246C221.865 71.9503 220.668 72.4631 219.301 72.4631C218.361 72.4631 217.506 72.1212 216.737 71.4374C215.284 69.8136 213.446 68.3606 211.224 67.0786C209.002 65.7965 206.566 64.7709 203.917 64.0017C201.267 63.2325 198.618 62.8479 195.968 62.8479C192.037 62.8479 188.575 63.4462 185.584 64.6427C182.592 65.7538 180.242 67.3777 178.533 69.5144C176.909 71.5657 176.097 74.0442 176.097 76.9502C176.097 80.1979 177.037 82.8902 178.917 85.0269C180.798 87.0781 183.319 88.7875 186.481 90.155C189.643 91.437 193.148 92.5908 196.994 93.6165C201.182 94.6421 205.028 95.8386 208.532 97.2061C212.122 98.4882 215.198 100.112 217.763 102.078C220.327 104.044 222.292 106.565 223.66 109.642C225.113 112.633 225.839 116.351 225.839 120.795C225.839 125.496 224.515 129.684 221.865 133.359C219.216 137.034 215.583 139.94 210.968 142.077C206.438 144.128 201.31 145.197 195.584 145.282ZM295.866 77.0784C297.319 77.0784 298.515 77.5912 299.456 78.6168C300.481 79.5569 300.994 80.7535 300.994 82.2065V138.744C300.994 140.197 300.481 141.436 299.456 142.462C298.515 143.487 297.319 144 295.866 144C294.327 144 293.088 143.487 292.148 142.462C291.208 141.436 290.738 140.197 290.738 138.744V126.564L293.174 126.308C293.174 128.188 292.533 130.24 291.251 132.462C289.969 134.684 288.216 136.778 285.994 138.744C283.772 140.624 281.123 142.205 278.046 143.487C275.054 144.684 271.807 145.282 268.302 145.282C262.49 145.282 257.277 143.786 252.662 140.795C248.046 137.718 244.371 133.573 241.636 128.359C238.987 123.146 237.662 117.206 237.662 110.539C237.662 103.787 238.987 97.8471 241.636 92.719C244.371 87.5055 248.046 83.4457 252.662 80.5398C257.277 77.5484 262.405 76.0527 268.046 76.0527C271.721 76.0527 275.14 76.651 278.302 77.8476C281.464 79.0441 284.199 80.668 286.507 82.7193C288.9 84.7705 290.738 87.0354 292.02 89.514C293.387 91.9926 294.071 94.4711 294.071 96.9497L290.738 96.1805V82.2065C290.738 80.7535 291.208 79.5569 292.148 78.6168C293.088 77.5912 294.327 77.0784 295.866 77.0784ZM269.456 135.795C273.73 135.795 277.49 134.684 280.738 132.462C284.071 130.24 286.635 127.248 288.43 123.488C290.31 119.642 291.251 115.325 291.251 110.539C291.251 105.838 290.31 101.608 288.43 97.8471C286.635 94.0011 284.071 91.0097 280.738 88.873C277.49 86.6508 273.73 85.5397 269.456 85.5397C265.268 85.5397 261.508 86.6081 258.174 88.7448C254.927 90.8815 252.362 93.8301 250.482 97.5907C248.602 101.351 247.662 105.667 247.662 110.539C247.662 115.325 248.559 119.642 250.354 123.488C252.234 127.248 254.798 130.24 258.046 132.462C261.379 134.684 265.183 135.795 269.456 135.795ZM347.693 49.3866C349.146 49.3866 350.641 49.5576 352.18 49.8995C353.804 50.2413 355.171 50.8396 356.282 51.6943C357.479 52.549 358.077 53.7028 358.077 55.1558C358.077 56.5232 357.65 57.6771 356.795 58.6172C355.94 59.4719 354.915 59.8992 353.718 59.8992C352.949 59.8992 351.881 59.6856 350.513 59.2582C349.146 58.7454 347.735 58.489 346.282 58.489C344.317 58.489 342.693 58.9164 341.411 59.771C340.214 60.6257 339.317 61.7795 338.718 63.2325C338.206 64.6 337.949 66.1384 337.949 67.8478V138.744C337.949 140.197 337.436 141.436 336.411 142.462C335.471 143.487 334.274 144 332.821 144C331.283 144 330.043 143.487 329.103 142.462C328.163 141.436 327.693 140.197 327.693 138.744V67.976C327.693 62.2496 329.445 57.7198 332.949 54.3865C336.539 51.0533 341.453 49.3866 347.693 49.3866ZM351.282 78.745C352.65 78.745 353.804 79.2151 354.744 80.1552C355.684 81.0099 356.154 82.121 356.154 83.4885C356.154 84.856 355.684 86.0098 354.744 86.9499C353.804 87.8046 352.65 88.232 351.282 88.232H319.104C317.736 88.232 316.582 87.7619 315.642 86.8217C314.702 85.8816 314.232 84.7705 314.232 83.4885C314.232 82.0355 314.702 80.8817 315.642 80.027C316.582 79.1723 317.736 78.745 319.104 78.745H351.282ZM395.587 145.282C388.75 145.282 382.767 143.829 377.639 140.923C372.511 138.017 368.494 134.043 365.588 129C362.767 123.872 361.357 117.975 361.357 111.308C361.357 103.873 362.81 97.548 365.716 92.3344C368.707 87.0354 372.554 83.0184 377.254 80.2834C382.041 77.463 387.083 76.0527 392.382 76.0527C396.314 76.0527 400.117 76.7792 403.792 78.2322C407.467 79.6851 410.715 81.8218 413.536 84.6423C416.356 87.3773 418.621 90.7105 420.33 94.6421C422.04 98.4882 422.937 102.804 423.023 107.591C423.023 108.958 422.51 110.112 421.484 111.052C420.459 111.992 419.262 112.462 417.894 112.462H367.255L364.947 103.616H414.305L412.254 105.411V102.591C411.912 99.0864 410.715 96.095 408.664 93.6165C406.698 91.0524 404.262 89.0866 401.356 87.7192C398.536 86.3517 395.545 85.6679 392.382 85.6679C389.818 85.6679 387.254 86.138 384.69 87.0781C382.211 87.9328 379.947 89.3858 377.895 91.437C375.93 93.4028 374.306 95.9668 373.024 99.1292C371.827 102.291 371.229 106.095 371.229 110.539C371.229 115.496 372.212 119.855 374.177 123.616C376.229 127.376 379.049 130.368 382.639 132.59C386.228 134.727 390.416 135.795 395.203 135.795C398.194 135.795 400.801 135.41 403.023 134.641C405.245 133.872 407.168 132.932 408.792 131.821C410.416 130.624 411.783 129.428 412.895 128.231C414.006 127.462 415.074 127.077 416.1 127.077C417.382 127.077 418.407 127.505 419.176 128.359C420.031 129.214 420.459 130.24 420.459 131.436C420.459 132.889 419.775 134.171 418.407 135.282C416.014 137.932 412.766 140.282 408.664 142.333C404.561 144.299 400.203 145.282 395.587 145.282ZM493.553 77.0784C495.006 77.0784 496.202 77.5912 497.143 78.6168C498.168 79.5569 498.681 80.7535 498.681 82.2065V138.744C498.681 140.197 498.168 141.436 497.143 142.462C496.202 143.487 495.006 144 493.553 144C492.014 144 490.775 143.487 489.835 142.462C488.895 141.436 488.425 140.197 488.425 138.744V126.564L490.861 126.308C490.861 128.188 490.22 130.24 488.938 132.462C487.656 134.684 485.904 136.778 483.681 138.744C481.459 140.624 478.81 142.205 475.733 143.487C472.741 144.684 469.494 145.282 465.989 145.282C460.178 145.282 454.964 143.786 450.349 140.795C445.733 137.718 442.058 133.573 439.323 128.359C436.674 123.146 435.349 117.206 435.349 110.539C435.349 103.787 436.674 97.8471 439.323 92.719C442.058 87.5055 445.733 83.4457 450.349 80.5398C454.964 77.5484 460.092 76.0527 465.733 76.0527C469.408 76.0527 472.827 76.651 475.989 77.8476C479.152 79.0441 481.886 80.668 484.194 82.7193C486.587 84.7705 488.425 87.0354 489.707 89.514C491.074 91.9926 491.758 94.4711 491.758 96.9497L488.425 96.1805V82.2065C488.425 80.7535 488.895 79.5569 489.835 78.6168C490.775 77.5912 492.014 77.0784 493.553 77.0784ZM467.143 135.795C471.417 135.795 475.177 134.684 478.425 132.462C481.758 130.24 484.322 127.248 486.117 123.488C487.997 119.642 488.938 115.325 488.938 110.539C488.938 105.838 487.997 101.608 486.117 97.8471C484.322 94.0011 481.758 91.0097 478.425 88.873C475.177 86.6508 471.417 85.5397 467.143 85.5397C462.955 85.5397 459.195 86.6081 455.861 88.7448C452.614 90.8815 450.05 93.8301 448.169 97.5907C446.289 101.351 445.349 105.667 445.349 110.539C445.349 115.325 446.246 119.642 448.041 123.488C449.921 127.248 452.485 130.24 455.733 132.462C459.066 134.684 462.87 135.795 467.143 135.795Z" fill="#202020"/>
</svg>
